<svg xmlns="http://www.w3.org/2000/svg" viewBox="0 0 48 32"><g fill="none" fill-rule="evenodd"><path fill="#F6F4F9" d="M44 32H4a4 4 0 01-4-4V4a4 4 0 014-4h40a4 4 0 014 4v24a4 4 0 01-4 4"/><path fill="#000" d="M34.96 12.53l.08.4s-.4 1.61-.88 2.1c-.49.48-1.53 1.12-2.1 1.84-.56.8-.8.97-.88 1.29-.16.32-.16.56 0 .64.16.08 0 .4 0 .56.08.24.4.16.4.72 0 .57.25 1.37 0 1.77-.24.32-1.04.97-1.52 1.2-.48.25-.4.57-.32.89.08.4.24 1.13-.08 1.2-.32.09-.8.25-.73.57.16.24 0 .8-.24 1.12-.24.4-.4.65-.72 1.05-.32.32-1.04.88-1.69.96-.64.08-1.12.24-1.28.24-.16 0-.32-.72-.56-1.04-.25-.32-.65-1.13-.89-1.61a3 3 0 01-.4-1.44v-.73s-.32-.64-.64-1.12a1.9 1.9 0 01-.16-1.61c.08-.48.56-.8.56-1.28 0-.49-.32-1.13-.48-1.7-.16-.47-.57-.96-.8-1.36-.25-.4-.33-.64-.17-.96.16-.32.24-.97 0-1.2-.24-.25-.64-.09-.96-.17-.32-.08-.4-.48-.48-.56-.08-.08-.49-.32-1.05 0s-.96.64-1.6.4c-.65-.24-.73 0-1.13.24-.4.32-.64-.16-1.2-.64-.57-.48-.65-.88-1.05-1.2-.4-.33-.8-.49-.88-1.13-.16-.64.32-.96.24-1.6-.08-.65-.56-1.05-.32-1.53.24-.4.4-1.05.72-1.45.32-.4.48-.56.8-.8.32-.24.73-.57.73-.89 0-.32.08-.88.32-1.04a9.2 9.2 0 00.96-1.13s.16.16.72.25c.49.08.57-.25 1.29-.4a7.1 7.1 0 011.69-.25c.56-.08.72-.32 1.12-.16.4.16.89.72.64 1.05-.24.32-.32.56.4.72.81.16.81.16 1.3.64.47.48 1.12.24 1.12-.08s0-.64.48-.56c.4.08.72.4 1.28.56.57.16.89.4 1.29.24.4-.16.56-.08.8-.08h.65s.32.08.24.56c0 .49-.16.8-.16.8l-.65-.8.16.17.73 1.44c.32.64.4.89.56 1.13.16.24.32.4.32.96-.08.56.32.4.4.64.08.24 0 .65.32.89.33.24.49.24.73.56.32.32.56.64.56.64l-.24.16.32.08s.08.24.56.16c.48-.08.97-.16 1.13-.24.16.08.64-.08.64-.08m-.56 8.12s.24.32.32.72c.08.4.24.48.08.64-.16.16-.24-.16-.24-.16s.08.48 0 .8c-.08.33-.24.49-.32 1.05-.08.56 0 .96-.32 1.37-.33.4-.4.8-.97.4-.56-.4-.4-1.29-.24-1.61.16-.32 0-.56 0-.96 0-.4.24-.8.56-.89.32-.08.4-.16.65-.48.24-.4.48-.88.48-.88"/><path fill="#2C283A" fill-rule="nonzero" d="M44 1a3 3 0 013 3v24a3 3 0 01-3 3H4a3 3 0 01-3-3V4a3 3 0 013-3h40zm0-1H4a4 4 0 00-4 4v24a4 4 0 004 4h40a4 4 0 004-4V4a4 4 0 00-4-4z" opacity=".08"/></g></svg>