<svg xmlns="http://www.w3.org/2000/svg" viewBox="0 0 48 32"><g fill="none"><rect width="48" height="32" fill="#FF1744" rx="4"/><path fill="#2C283A" d="M25.36 26.43a2.06 2.06 0 01-.71-1.4c0-.41.31-.65.49-.15s.81 1.47 1.57.93c.33-.24.33-.6-.13-.56-.46.04-.91-.35-1.16-1.14 0-.44.14-.43.39-.15.37.55 1.05.8 1.69.64.4-.17.51-.51-.09-.6a2 2 0 01-1.5-.93c-.25-.31.12-.63.35-.36.23.27.48.49.72.53.34.06.7 0 1-.18.41-.35.28-.59-.22-.65-.5-.06-.6.17-1.1-.17a3.56 3.56 0 01-1.73-2.4c-.07-.64.27-.84.56-.76.78.2 1.29 1.66 1.83 2.46.18.23.34.23.45.16.11-.07.39-.34.61-.55.83.15 1.65.34 2.46.57l-1 .34a.52.52 0 00-.81.37.53.53 0 00-.17.79c0-.19.08-.43.36-.47.39.16.84-.07.84-.37l1.19-.38 1.15.65c0 .44.42.58.85.46a1 1 0 01.4.58c.13-.34.1-.58-.1-.75.12-.44-.5-.86-1-.58l-.83-.47h1.42a.6.6 0 00.93 0c.15 0 .27-.07.56.15-.09-.35-.27-.5-.53-.5-.2-.36-.93-.36-1 0h-1.47l.87-.62a.62.62 0 00.88-.37.5.5 0 01.61-.12c-.16-.29-.39-.37-.81-.18-.38-.29-.88.06-.8.35l-1.16.79a83.4 83.4 0 00-2.37-.64l.55-.56c.07-.11 0-.25-.17-.27a3 3 0 01-2.62-2.23c-.2-.59.23-.76.38-.4a2.9 2.9 0 001 1.46c.21.15.84 0 .47-.33a1.74 1.74 0 01-.74-1.23c0-.39.4-.57.62-.19.1.58.33 1.13.69 1.6.25.32.6.54 1 .62.38 0 .76-.42.25-.71a1.67 1.67 0 01-1.13-1.09c-.12-.68 0-1 .42-.67a61.2 61.2 0 002.27 2.46c.57.5 1.43.5 2 0 .34-.39.22-.81-.31-.72-1.2.1-2.11-.5-3.11-2.11-.2-.36-.25-.89.18-.5a4.44 4.44 0 001.9 1.49 1.5 1.5 0 001.45-.1c.26-.26.19-.92-.26-.76a2.1 2.1 0 01-1.44 0A4.25 4.25 0 0130.5 15c-.21-.44-.14-.81.28-.59 1 .84 2.26 1.52 2.91 1.11.48-.3.49-1.06-.12-1-1.22.17-1.69-.1-2.86-1.14-.27-.2-.25-.71.18-.38 1 .64 2.34.89 2.87.55.53-.34.41-1.21-.4-.89-.65.34-1.36.34-2.78-.66-.36-.3-.09-.69.2-.52 1.14.65 2.81.93 3.24-.39.17-.51-.14-.8-.58-.45a2 2 0 01-2.72 0c-.18-.11-.51-.64.07-.54 1.49.34 3 0 3.23-1 .16-.34-.15-.95-.69-.44a3 3 0 01-2.42.73c-.48-.1-.49-.64-.08-.71A4.25 4.25 0 0032.91 8c.6-.3 1.03-.82 1.22-1.45.09-.58-.47-1.2-.8-.58a4 4 0 01-2.83 1.9c-.06-.11-.22-.38-.42-.3-.36.14-.79.33-1.23.54-1 .45-1.35.67-1.23 1.45.12.78-.51 1.33-1 1.19-.49-.14-.7-.53-.62-1.24.18-.7.64-1.28 1.27-1.61.55-.24 1.13-.4 1.73-.5.46-.09.69-.27.72-.45-.24.15-.53.22-.81.19a.56.56 0 01-.46-.23c.26-.02.51-.02.77 0 .38 0 1.25-.09 1.49-.62.07-.35-.16-.41-.37-.19-.21.22-.32.46-.79.54-.3.07-.62.07-.92 0a1 1 0 01.8-.44c.13.04.24.13.31.25.06-.38 0-.82-1.07-.64 0-.29-.59-.42-1-.41a3 3 0 00-.94.28c-.5.16-1.02.26-1.54.3.23.2.47.37.72.54-.42.17-.8.45-1.06.82.24-.03.49-.03.73 0-.45.08-.87.3-1.2.61l.35.08c.08 0 .06.08 0 .12-.06.04-.67.73-.83.88-.16-.15-.7-.78-.83-.88-.13-.1-.08-.1 0-.12.13-.02.27-.03.4-.03a2.32 2.32 0 00-1.2-.61c.24-.03.49-.03.73 0a2.4 2.4 0 00-1.06-.82c.25-.18.5-.37.72-.57a6.65 6.65 0 01-1.54-.3 3 3 0 00-.94-.28c-.37 0-1 .12-1 .41-1-.18-1.13.25-1.07.64a.52.52 0 01.31-.25 1 1 0 01.8.44c-.3.07-.62.07-.92 0-.46-.08-.56-.3-.79-.54-.23-.24-.44-.16-.37.19.23.53 1.11.62 1.49.62.26-.02.51-.02.77 0a.56.56 0 01-.46.23c-.28.03-.57-.04-.81-.19 0 .19.26.36.72.45.62.1 1.22.28 1.79.53.63.33 1.1.92 1.27 1.61.08.71-.17 1.12-.62 1.24-.45.12-1.15-.37-1-1.19.15-.82-.28-1-1.23-1.45-.44-.21-.87-.4-1.23-.54-.2-.08-.36.2-.42.3A4 4 0 0114.59 6c-.34-.62-.9 0-.8.58.19.62.63 1.13 1.21 1.42.63.4 1.35.62 2.09.65.41.08.4.61-.08.71a3 3 0 01-2.42-.73c-.54-.51-.85.1-.69.44.27 1.05 1.74 1.35 3.23 1 .58-.1.25.43.07.54a2 2 0 01-2.72 0c-.45-.35-.75-.05-.58.45.43 1.32 2.1 1 3.24.39.29-.17.56.22.2.52-1.42 1-2.13 1-2.77.63-.8-.32-.87.59-.4.89.47.3 1.83.13 2.83-.49.43-.32.44.18.18.38-1.18 1-1.64 1.31-2.86 1.14-.61 0-.6.72-.12 1 .65.41 1.92-.27 2.91-1.11.42-.23.48.15.28.59a4.25 4.25 0 01-1.72 1.45 2.1 2.1 0 01-1.44 0c-.45-.16-.52.5-.26.76.43.28.98.32 1.45.1a4.44 4.44 0 001.9-1.49c.43-.39.38.13.18.5-1 1.61-1.91 2.21-3.11 2.11-.53-.09-.65.33-.31.72.57.5 1.43.5 2 0a61.2 61.2 0 002.27-2.46c.41-.33.54 0 .42.67-.17.53-.6.94-1.13 1.09-.51.3-.13.71.25.71.4-.08.75-.3 1-.62.36-.47.6-1.02.69-1.6.22-.37.62-.2.62.19-.06.5-.33.95-.74 1.23-.37.35.26.47.47.33a2.9 2.9 0 001-1.46c.15-.36.58-.18.38.4a3 3 0 01-2.62 2.23c-.14 0-.24.16-.17.27l.55.56s-1.53.39-2.37.64l-1.16-.79c.08-.29-.42-.64-.8-.35-.41-.2-.64-.11-.81.18a.5.5 0 01.61.12.62.62 0 00.88.37l.87.62h-1.47c-.11-.4-.84-.4-1 0-.27 0-.44.15-.53.5.29-.21.41-.19.56-.15a.6.6 0 00.93 0h1.42l-.83.47c-.48-.28-1.09.14-1 .58-.2.17-.23.41-.1.75a1 1 0 01.4-.58c.43.12.85 0 .85-.46l1.14-.59 1.14.45c0 .3.45.53.84.37.27 0 .31.28.36.47a.53.53 0 00-.17-.79.52.52 0 00-.81-.37l-1-.34a24.6 24.6 0 012.46-.57l.61.55c.22.19.28.07.45-.16.54-.8 1.05-2.26 1.83-2.46.29-.07.63.12.56.76a3.56 3.56 0 01-1.73 2.4c-.5.33-.71.19-1.1.17-.39-.02-.63.31-.22.65.3.17.66.24 1 .18.24 0 .52-.36.72-.53.2-.17.6 0 .35.36a2 2 0 01-1.5.93c-.6.08-.49.43-.09.6.66.19 1.37-.09 1.74-.67.25-.28.44-.29.39.15-.25.8-.6 1.11-1.16 1.14-.56.03-.46.32-.13.56.76.54 1.31-.38 1.57-.93s.46-.26.49.15c-.04.54-.3 1.05-.71 1.4-.33.28 1.4 2.07 1.4 2.07s1.73-1.79 1.4-2.07l.01-.04zm2.31-20.3c-.27 0-.43.09-.43.21s.17.21.43.21.44-.1.44-.22-.17-.2-.44-.2zm-7.43 0c.27 0 .43.09.43.21s-.17.21-.43.21-.44-.1-.44-.22.2-.2.44-.2z"/><path fill="#2C283A" d="M44 1a3 3 0 013 3v24a3 3 0 01-3 3H4a3 3 0 01-3-3V4a3 3 0 013-3h40zm0-1H4a4 4 0 00-4 4v24a4 4 0 004 4h40a4 4 0 004-4V4a4 4 0 00-4-4z" opacity=".08"/></g></svg>