<svg xmlns="http://www.w3.org/2000/svg" viewBox="0 0 48 32"><g fill="none"><rect width="48" height="32" fill="#F6F4F9" rx="4"/><path fill="#197F4A" d="M4 0h20v32H4a4 4 0 01-4-4V4a4 4 0 014-4z"/><path fill="#E71F2C" d="M20 16a7 7 0 0110.82-5.86 9 9 0 100 11.72A7 7 0 0120 16z"/><path fill="#E71F2C" d="M29.47 12.32l-.26 2.81 2.45 1.01-2.62.73-.27 2.81-1.35-2.36-2.62.74 1.79-2.2-1.35-2.36 2.45 1.01z"/><path fill="#2C283A" d="M44 1a3 3 0 013 3v24a3 3 0 01-3 3H4a3 3 0 01-3-3V4a3 3 0 013-3h40zm0-1H4a4 4 0 00-4 4v24a4 4 0 004 4h40a4 4 0 004-4V4a4 4 0 00-4-4z" opacity=".08"/></g></svg>