<svg xmlns="http://www.w3.org/2000/svg" viewBox="0 0 48 32"><g fill="none" fill-rule="evenodd"><path fill="#F6F4F9" d="M44 32H4a4 4 0 01-4-4V4a4 4 0 014-4h40a4 4 0 014 4v24a4 4 0 01-4 4"/><path fill="#000" d="M38.75 10.3c-.1-.18-.28-.18-.1-.55.1-.28.1-.47 0-.56-.1-.1-.28-.2-.18-.38.09-.1-.2-.37-.38-.47-.1-.09-.65-.37-.37-.56.28-.19.65 0 .93 0s.38-.1.38-.47 0-.37.37-.28c.38.1.84.1.56-.18-.37-.29-2.24-1.78-2.71-1.78-.47-.1-2.44 0-3 0s-.93-.19-1.59-.38c-.65-.19-1.3-.1-1.96-.19-.66 0-.66-.28-1.4-.28-.76 0-1.41 0-1.13.2.28.18-.1.27-.66.37-.65 0-1.3-.1-1.59-.47-.28-.28-1.4-.38-1.3-.1.08.2-.76-.18-1.7-.18-.93 0-1.68.28-1.21 0s1.03-.66.1-.75c-1.04-.1-1.5-.38-2.16-.1-.65.29-1.12 0-1.87.29-.75.28-.75.46-.38.56.38.1.57.28 0 .18-.56 0-1.59-.09-1.21.1.37.28.93.93.28.47-.66-.47-1.13-.66-.85-.2.29.48.47 1.04 0 .38-.46-.65-.74-1.21-1.02-.84-.29.37-.29.37.09.66.37.28.56.65.19.65-.47-.1-.94.19-.66.56.28.38.47.94.56 1.6.1.65.56.93.19 1.12-.37.19-.66.65.1.65.65 0 .84-.18.65.47-.19.66-.94-.1-1.31.1-.38.28-.94.74-1.12.84-.2.1-.1.28 0 .65.18.38 0 .28.46.1.47-.2.66-.2.66.18s-.94.2-.47.56c.47.38.66.47.94 1.03.18.66 1.21 1.22.09 1.32-1.12.09-1.03-.1-1.03-.75.1-.66-.47-.94-1.22-1.13-.75-.09-1.3-.56-1.12 0 .19.56-.19.47-1.03.28-.84-.09-1.22.28-1.87.38-.56.1-.75.1-.47.37.28.19.19.28 0 .28s-.47.1-.1.28c.38.2.57.1.76.38.18.28.56.28 1.02.1.38-.1.75-.57.85-.1.09.47 0 1.12-.19 1.5-.19.37-.66.18-.66.18l.57 1.13s.28-.28.56.18c.37.47.19.38.65.94.38.56.19.66.47 1.03.19.47.28.28.66.84.37.56.37.75.47 1.31.09.56.09.47.65.28.56-.18 1.4-.28 1.68-.65.38-.47.57-.56.75-.56.19 0 .47.1.47-.28s.28-.38.56-.85c.28-.46.47-.75 0-.84-.46-.1-.56-.1-.75-.47-.09-.37 0-.56-.37-.09-.47.56-.37.19-.56.19-.28 0-.28-.19-.38-.38-.09-.18-.28-.37-.28 0 0 .38-.28.1-.28-.28-.1-.37-.1-.56-.37-.84-.28-.38.19-.56.56-.19.37.38.47.66 1.03.84.56.2.47-.28.65-.09.2.19.57.56 1.13.75.47.1 1.03 0 1.3-.1.29-.09.38.1.66.29.28.28.38.46.57.46.28 0 .37 0 .09.1-.28.19-.1.65.28.56.37-.1.47-.19.37-.47-.09-.28.29.19.29.56 0 .38.56 1.78.65 2.16.1.37.47 1.68.66 1.68.28.1.37.19.46-.28.1-.47.66-.56.38-1.03-.28-.37-.1-.94.1-1.12.18-.19.65-.75.93-.94.28-.19.56-.19.56-.56 0-.47.28-.28.65-.28.38 0 .2-.56.57-.28.28.28.18 1.03.46 1.03.29 0 .47.19.57.65.09.47-.1.66.37.47.47-.19.38-.75.56 0 .19.75.19.38.19.84v1.31c0 .29.1.29.47.57.28.28.1.28.28.74.19.47.37.94.65.94.28.1.66.1.28-.28-.28-.37.2-.84-.18-1.03a2.49 2.49 0 01-1.03-.94c-.19-.37-.1-.56-.1-1.03 0-.46 0-.84.28-.46.2.37.57.56.75.74.28.1.38.1.47.38 0 .28.19.66.47.1.28-.57.75-.38.75-.85s0-1.03-.47-1.3c-.47-.29-.65-.48-.75-.95-.1-.46.19-.74.47-.74.28 0 .56 0 .47.09-.1.1.28.37.28 0 0-.38.37-.19.47-.28.09 0 .56 0 .84-.28.28-.28.56-.75.75-1.22.1-.47.1-.19.28-.56.28-.47 0-.47-.28-.47s-.1-.1.1-.28c.18-.28 0-.47-.38-.47s-.38-.28-.56-.47c-.2-.28-.29-.56-.1-.65.19-.1.84-.38.38-.38-.47 0-.57.2-.94-.09-.37-.28-.19-.19-.1-.37.1-.29.38-.85.47-.57.1.28.1.57.1.57s0-.2.37-.1c.38.1.56.28.66.47.1.19.28.1.47.19.18.1.09.56.18.65.1.1.28.94.38.47.1-.47.28-.28.37-.37.1-.1.19-.19 0-.47a6.56 6.56 0 00-.65-.75c-.1-.1-.38-.19-.2-.38a.73.73 0 00.2-.74c-.1-.28.09-.28.37-.19.28.19.47 0 .56-.56.1-.66.19-1.22 0-1.6-.28-.37-.37-.93-.75-1.12a3.07 3.07 0 00-.93-.28c-.1.1-.56-.1-.84-.18-.2-.1.09-.1.18-.57.19-.47-.1-.75.28-.75s.66-.09 1.03 0c.38.1.47-.28.66-.18.19.18.28.18.65.18.38.1.66-.28.38-.28-.38 0-.38-.46 0-.46.28 0 .65.46.75.28.09-.19.09-.47.09-.47s.47.19.47.37c0 .19 0 .75-.1.94a.5.5 0 00.1.75c.28.19.65.56.93.84.29.28.66.56.66.56l-.1.19z"/><path fill="#000" d="M36.31 12s-.28-.29-.47-.66a2.77 2.77 0 00-.75-1.12c-.28-.29-.93-1.03-.56-.85.38.19 1.13.85 1.22 1.13.19.28.19.46.47.56.28.1.56.28.1.28-.38 0-.29 0-.1.28.28.28.1.37.1.37m-2.44 6.56c.1 0 .19.25.19.56 0 .3-.09.56-.2.56-.1 0-.18-.25-.18-.56 0-.31.08-.56.19-.56m-2.72 1.68a.38.38 0 110 .75.38.38 0 010-.75m-4.4 2.06c.06 0 .1.13.1.28 0 .16-.04.28-.1.28-.05 0-.09-.12-.09-.28 0-.15.04-.28.1-.28m-3.19 1.5c.19.28.47.56 0 .75-.47.19-.1.19-.37-.47-.2-.66-.1-.75 0-.75l.37.47m6.84 4.02c.09-.46.46-.46.09-.65-.28-.28-.38-.1-.75-.38-.28-.37-.19-.56-.56-.84-.38-.28-.56-.56-.94-.84-.37-.28-.93-.75-.75-.1.19.66.84.75 1.22 1.6.47.84.75.75.94 1.3.18.57 0 .38.37.38.38.1.38-.47.38-.47m6.64-.37c.2 0 .38.08.38.19 0 .1-.17.18-.38.18-.2 0-.37-.08-.37-.18 0-.1.16-.2.37-.2m.19-.46a.1.1 0 110 .19.1.1 0 010-.19m-.75-.1c.05 0 .1.05.1.1a.1.1 0 01-.1.1.1.1 0 01-.1-.1c0-.05.05-.1.1-.1m-.28.57a.19.19 0 110 .37.19.19 0 010-.37m1.22 1.31a.19.19 0 110 .37.19.19 0 110-.37m.93-.37c.1 0 .19.08.19.18a.19.19 0 11-.38 0c0-.1.09-.18.2-.18m-5.9-.85c-.57-.1-.66.1-.94-.56-.28-.65-.56-1.21-.1-1.03.47.19.75-.1 1.03-.47.2-.37.57-.37.75-.75.19-.37.1-.56.38-.37.28.19.56.56.37.84-.28.28-.37.57-.1.85.29.28.2.28-.18.46-.37.28-.19.38-.28.75-.1.38-.1.56-.47.66-.37 0-.47-.38-.47-.38M10.01 15.36c.15 0 .28.09.28.2 0 .1-.13.18-.28.18-.16 0-.28-.09-.28-.19s.12-.19.28-.19m26.68-2.15c.37.19.28.47-.1.1-.37-.38 0-.57 0-.66.1-.1-.28-.38-.28-.38l.1-.09s.09.28.56.28c.56 0 .84-.37.84 0-.1.38-.47.38-.37.66.09.28.18.37-.1.1-.47-.1-.65 0-.65 0m-.28 2.33s-.29.19-.75.1c-.38-.1.1-.38.37-.38.28-.1.47-.19.56-.37.1-.2.47-.1.47-.38s-.28-.84 0-.84c.28-.1.47.19.56.37.1.19.1.47.19.75.1.28.37.38 0 .66s-.56.28-.66.37c-.18.1-.74-.28-.74-.28m-.47 1.22s-.28-.1-.28-.28c0-.19-.28-.28-.28-.28v-.38l.56.19.1.56-.1.19z"/><path fill="#000" d="M36.4 15.74a.28.28 0 110 .56.28.28 0 010-.56m-5.52 12.64c.38.18.85.18 1.03.18.1 0 .19.38.56.38.28 0 .38.1.38.18 0 .1-.56 0-.94 0-.37 0-.65-.18-1.12-.28-.47-.09-.47-.09-.38-.37 0-.19.47-.1.47-.1m2.72.66c.2 0 .37.08.37.19 0 .1-.17.19-.37.19-.2 0-.38-.09-.38-.2 0-.1.17-.18.38-.18m1.21 0c.21 0 .38.08.38.19 0 .1-.17.19-.38.19-.2 0-.37-.09-.37-.2 0-.1.17-.18.37-.18m-.56.56c.1 0 .19.04.19.1 0 .05-.08.09-.19.09-.1 0-.18-.04-.18-.1 0-.05.08-.09.18-.09m1.31-.24c.28-.23.57-.35.63-.27.07.08-.11.33-.4.56-.27.23-.55.34-.62.26-.06-.08.11-.33.4-.55m-1.22-1.07c-.1 0 .09-.37 0-.56-.1-.19-.28-.19-.2-.65.1-.47 0-.57.2-.75.18-.28.46-.2.75-.1.28 0 .37.1.56-.1.09-.08.18-.08.28-.08.1 0 .19.09-.1.37-.37.19-.56 0-.93.1-.38.09-.38.09-.28.27.1.2.18-.09.47 0 .37.1.28.2 0 .38-.29.19 0 .19.09.47.1.28.37.47.1.75-.29.28-.1-.1-.38-.47-.28-.38-.28-.75-.28-.38v.85l-.28-.1zm2.34-2.62s-.47 0-.47.38c.1.37.19.56.37.56.2 0 .1-.1.2-.38.08-.28-.1-.56-.1-.56M33.5 23.8c-.28 0 .2-.19.28-.38.1-.18.2-.56.2-.46.09.09.09.28 0 .56 0 .37-.48.28-.48.28m2.34.84s-.37 0-.37-.28.19-.37.19-.37l-.66.09-.1.37-.18-.09s-.19-.56.1-.56c.37 0 .65.1.84-.19.09-.28.18-.1.28.19.1.28.1.28.1.56 0 .37-.29 0-.29 0l.1.28zm-.65-1.12h-.28s.28-.19.37-.47c.1-.28.19-.75.38-.47.28.28.1.66.1.75l-.2-.19-.37.38zm-.19-.75l.28-.38s-.18-.28-.47-.37c-.18-.1-.28-.37-.18-.75.09-.28.09-.56-.2-.56-.27 0-.46.1-.46.37 0 .28-.28.28-.1.57.2.28.38.46.38.56 0 .1.47.18.47.18l.28.38zm-.75-.38a.19.19 0 110 .38.19.19 0 010-.38m-16.1-20.3c.67 0 1.22.16 1.22.37 0 .2-.55.37-1.22.37-.67 0-1.21-.17-1.21-.37 0-.21.54-.38 1.21-.38m9.74 1.4c.72 0 1.3.09 1.3.2 0 .1-.58.18-1.3.18-.73 0-1.31-.08-1.31-.19 0-.1.58-.18 1.3-.18"/><path fill="#2C283A" fill-rule="nonzero" d="M44 1a3 3 0 013 3v24a3 3 0 01-3 3H4a3 3 0 01-3-3V4a3 3 0 013-3h40zm0-1H4a4 4 0 00-4 4v24a4 4 0 004 4h40a4 4 0 004-4V4a4 4 0 00-4-4z" opacity=".08"/></g></svg>