<svg xmlns="http://www.w3.org/2000/svg" viewBox="0 0 48 32"><g fill="none"><rect width="48" height="32" fill="#197F4A" rx="4"/><path fill="#00BDFF" d="M4 0h40a4 4 0 014 4v6H0V4a4 4 0 014-4z"/><path fill="#FF1744" d="M0 10h48v12H0z"/><path fill="#F6F4F9" d="M22 16a2.73 2.73 0 014.23-2.29 3.51 3.51 0 100 4.58A2.73 2.73 0 0122 16z"/><path fill="#F6F4F9" d="M26.73 14.8l.24.65.62-.3-.3.63.65.23-.65.23.3.62-.62-.29-.24.65-.23-.65-.62.29.3-.62-.65-.23.65-.23-.3-.63.62.3z"/><path fill="#2C283A" d="M44 1a3 3 0 013 3v24a3 3 0 01-3 3H4a3 3 0 01-3-3V4a3 3 0 013-3h40zm0-1H4a4 4 0 00-4 4v24a4 4 0 004 4h40a4 4 0 004-4V4a4 4 0 00-4-4z" opacity=".08"/></g></svg>