<svg viewBox="0 0 48 32" xmlns="http://www.w3.org/2000/svg" xmlns:xlink="http://www.w3.org/1999/xlink"><defs><path d="M44 32H4a4 4 0 01-4-4V4a4 4 0 014-4h40a4 4 0 014 4v24a4 4 0 01-4 4" id="a"/></defs><g fill="none" fill-rule="evenodd"><path d="M0 0h48v32H0z"/><use fill="#F6F4F9" xlink:href="#a"/><path d="M22.43 3.16c-.02 0-.04.04-.05.1l-.03.25-.17 1.85-.02.27c0 .16.03.39.09.53.02.07.05.16.1.26l.71 1.7.1.23c.07.13.12.12.14-.02l.03-.24.17-1.85.02-.27c0-.16-.03-.39-.09-.53a1.49 1.49 0 00-.1-.26l-.71-1.7-.1-.23c-.03-.06-.06-.1-.09-.1zm-2.01.47c-.02 0-.04.05-.04.12l.01.24.12 1.85.02.28c.02.15.08.37.16.5l.14.25.97 1.57.14.21c.07.12.13.1.13-.04l-.01-.25-.12-1.85-.02-.27a1.46 1.46 0 00-.16-.51l-.14-.24-.97-1.58-.14-.2c-.03-.06-.07-.09-.1-.08zm-1.92.78c-.02 0-.03.05-.01.11 0 .07.02.15.04.25l.4 1.8.06.27c.04.16.14.36.24.49l.17.2 1.2 1.42.17.18c.1.1.14.08.12-.06l-.05-.24-.4-1.81-.06-.27a1.46 1.46 0 00-.24-.48l-.17-.21-1.2-1.41-.16-.19c-.05-.04-.09-.06-.1-.05zm-1.78 1.05c-.02.02-.02.06 0 .12l.09.24.66 1.73.1.25c.07.14.2.33.32.44l.2.18 1.4 1.21.2.16c.1.09.15.05.1-.08l-.08-.23-.67-1.73-.1-.25c-.06-.15-.2-.33-.3-.44l-.21-.19-1.4-1.2c-.08-.08-.14-.12-.2-.16-.05-.04-.09-.06-.1-.05zm-1.6 1.32c-.01.02 0 .06.03.12l.11.22.93 1.6.14.24c.08.13.24.3.37.39l.23.15 1.57.98.21.13c.12.06.16.02.1-.1l-.12-.22-.92-1.6-.14-.24c-.09-.13-.24-.3-.37-.38l-.23-.16-1.57-.98c-.1-.05-.16-.1-.22-.12-.05-.04-.1-.05-.11-.03zm-1.37 1.55c-.01.02 0 .06.04.11l.15.2 1.16 1.45.17.2c.1.13.29.26.43.33l.25.12 1.7.73.23.09c.13.05.16 0 .08-.1l-.15-.2-1.15-1.45c-.07-.1-.13-.16-.18-.21-.1-.12-.28-.26-.43-.33l-.25-.11-1.7-.74-.23-.09c-.06-.02-.1-.02-.12 0zm-1.12 1.73c-.01.03 0 .06.06.11l.17.17 1.37 1.26.2.18c.12.1.32.2.47.25l.27.08 1.8.46.23.06c.14.03.16-.02.07-.12l-.18-.17-1.37-1.26-.2-.18c-.12-.1-.32-.2-.47-.25l-.27-.08-1.79-.46-.24-.06c-.07-.01-.1 0-.12.01zm-.85 1.9c0 .02.02.05.07.09l.2.14 1.55 1.03.23.15c.13.08.35.16.5.18l.27.04 1.85.18.24.02c.14 0 .16-.05.05-.13l-.2-.14L15 12.49l-.23-.15a1.46 1.46 0 00-.5-.18l-.28-.03-1.84-.19-.25-.02c-.07 0-.1.01-.12.03zm-.55 1.99c0 .02.03.05.09.08l.22.11 1.68.79.25.1c.15.07.37.11.53.11h.27l1.85-.1.25-.03c.13-.01.14-.07.02-.13l-.22-.11-1.68-.78-.25-.11c-.14-.07-.37-.1-.53-.1h-.27l-1.85.1-.25.02c-.06 0-.1.02-.1.05zM11 16c0 .03.03.05.1.08l.23.07 1.78.52.27.07c.15.04.38.05.53.02l.27-.05 1.81-.38.24-.06c.14-.03.14-.09 0-.13l-.23-.08-1.77-.52-.27-.07a1.46 1.46 0 00-.54-.02l-.26.05-1.82.38-.24.06c-.06.02-.1.04-.1.06zm.08 2.07c0 .03.04.05.1.06l.25.04 1.84.24.27.03c.16.01.38-.01.53-.07l.26-.09 1.73-.65.23-.1c.13-.05.12-.1-.01-.13-.07 0-.14-.02-.25-.04l-1.83-.24-.28-.02a1.2 1.2 0 00-.53.06l-.26.09-1.73.65-.23.1c-.06.02-.1.05-.09.07zm.4 2.03c0 .03.04.04.1.04h.25l1.86-.04.27-.01c.16-.01.38-.07.52-.14l.24-.13 1.61-.91c.1-.05.16-.1.21-.13.12-.07.1-.13-.03-.13h-.25l-1.85.04-.27.01c-.16.01-.38.07-.52.15l-.24.13-1.62.9-.2.13c-.06.04-.1.07-.09.1zm.7 1.95c0 .02.05.03.11.02.07 0 .15-.02.25-.04l1.82-.32.27-.06c.15-.03.36-.12.49-.22l.22-.16 1.45-1.15.2-.15c.1-.1.08-.15-.06-.13l-.25.04-1.82.33-.27.05c-.15.03-.36.13-.49.22l-.22.16-1.45 1.15-.2.16c-.04.04-.06.08-.06.1zm.98 1.82c.02.02.06.02.12 0l.24-.07 1.75-.6.26-.1c.15-.05.34-.18.45-.29l.19-.2 1.26-1.35.17-.19c.09-.1.06-.15-.08-.1l-.23.06-1.75.6-.26.1c-.15.06-.34.18-.45.3-.05.05-.12.1-.2.19l-1.26 1.35-.16.19c-.04.05-.06.09-.05.1zm1.26 1.65c.01.02.05.01.12-.02l.22-.1 1.64-.87.24-.13c.13-.08.3-.23.4-.36l.16-.22 1.04-1.53.13-.21c.08-.12.04-.16-.09-.1l-.22.1-1.64.87-.24.13c-.14.08-.3.23-.4.36l-.16.22-1.04 1.53-.13.21c-.04.06-.05.1-.03.12zm1.48 1.43c.02.02.06 0 .12-.03l.2-.14 1.5-1.1.2-.17c.13-.1.28-.28.35-.42l.12-.24.8-1.68.1-.22c.05-.13.01-.16-.1-.09l-.2.14-1.5 1.1-.21.17c-.13.1-.27.28-.34.42l-.13.24-.8 1.68-.1.22c-.02.06-.02.1 0 .12zm1.7 1.19c.02.01.06 0 .1-.05l.19-.17 1.3-1.32.19-.2c.1-.11.22-.3.27-.46l.09-.26.53-1.77.06-.24c.04-.14-.01-.17-.11-.07l-.18.17-1.3 1.32-.2.2c-.1.11-.22.3-.27.46l-.08.26-.53 1.77-.07.24c-.02.06-.01.1 0 .12zm1.85.92c.02.01.06-.01.1-.07.04-.05.1-.1.15-.2l1.1-1.5.15-.22c.08-.13.17-.34.2-.5l.04-.27.26-1.83.02-.25c.02-.14-.04-.16-.12-.05-.04.05-.1.11-.15.2l-1.1 1.5-.15.22c-.08.13-.17.34-.2.5 0 .07-.03.16-.04.27l-.26 1.84-.02.24c0 .07 0 .11.02.12zm1.97.62c.03 0 .06-.02.1-.08l.11-.22.85-1.64.12-.25c.07-.14.12-.37.12-.52v-.28l-.03-1.85v-.25c-.01-.14-.07-.15-.14-.03l-.12.22-.84 1.65-.12.24c-.07.15-.12.37-.12.53v.27l.02 1.85.01.25c0 .07.02.1.04.11zm2.05.32c.02 0 .05-.03.07-.1l.09-.23.58-1.76.08-.26c.05-.15.06-.38.04-.53 0-.08-.02-.16-.04-.27l-.3-1.83-.06-.24c-.02-.14-.08-.14-.13-.01l-.09.23-.58 1.76-.08.26c-.05.15-.06.38-.04.53 0 .08.02.17.04.28l.3 1.82.06.25c.01.06.03.1.06.1zm2.06 0c.03 0 .05-.04.06-.1.02-.07.04-.14.05-.25l.31-1.82.04-.28c.02-.15 0-.38-.04-.53l-.08-.26L25.3 25l-.09-.23c-.05-.13-.1-.13-.13 0l-.05.25-.31 1.83-.04.27c-.02.15 0 .38.04.53l.08.26.59 1.76.08.24c.02.06.05.1.07.09zm2.05-.32c.02 0 .04-.04.04-.11l.01-.25.03-1.85v-.27c0-.16-.06-.38-.12-.53l-.12-.24-.85-1.65-.12-.22c-.07-.12-.12-.1-.13.03l-.01.25-.03 1.85v.28c0 .15.06.38.13.52.03.07.06.15.12.25l.84 1.64.12.22c.03.06.07.09.09.08zm1.97-.62c.02 0 .03-.05.03-.12l-.03-.24-.25-1.84-.05-.27a1.46 1.46 0 00-.2-.5l-.16-.22-1.08-1.5-.16-.2c-.08-.1-.13-.09-.12.05l.03.25.25 1.83.05.27c.02.16.11.37.2.5l.15.23 1.1 1.5.14.2c.04.04.08.07.1.06zm1.85-.92c.02-.01.03-.05.01-.12l-.06-.24-.54-1.77-.08-.26a1.46 1.46 0 00-.28-.47l-.18-.2-1.3-1.31-.19-.17c-.1-.1-.15-.07-.11.07l.06.24.53 1.77.09.26c.05.15.17.35.27.46l.2.2 1.3 1.32.18.17c.04.04.08.06.1.05zm1.7-1.2c.02 0 .01-.05-.02-.11l-.1-.23-.8-1.67-.12-.25a1.46 1.46 0 00-.34-.41l-.21-.17L30 23l-.2-.14c-.11-.08-.15-.04-.1.08l.1.23.8 1.67.12.25c.07.14.22.31.34.41l.22.17 1.49 1.1.2.14c.06.04.1.05.12.04zm1.49-1.43c.01-.01 0-.06-.03-.11l-.13-.21-1.05-1.53-.16-.23c-.1-.12-.26-.28-.4-.35l-.24-.14-1.64-.86-.22-.1c-.12-.06-.16-.02-.09.1l.13.2 1.05 1.54.16.22c.09.12.26.28.4.35l.24.14 1.64.86.22.1c.06.04.1.04.12.02zm1.25-1.64c.02-.02 0-.06-.05-.11l-.16-.19-1.26-1.35-.2-.2a1.6 1.6 0 00-.45-.3l-.25-.09-1.75-.6-.24-.07c-.13-.04-.16 0-.07.11l.16.19 1.26 1.35.2.2c.1.11.3.24.45.3l.25.09 1.76.6.23.07c.07.02.1.02.12 0zm.99-1.82c.01-.02-.01-.06-.06-.1l-.2-.16-1.45-1.15-.22-.16c-.13-.1-.33-.19-.49-.22l-.27-.06-1.82-.32-.25-.04c-.13-.02-.15.04-.05.13l.19.15 1.46 1.15.22.16c.12.1.33.2.49.22l.26.06 1.83.32.24.04c.07 0 .1 0 .12-.02zm.7-1.95c0-.02-.02-.06-.08-.1l-.21-.12-1.62-.9-.24-.14a1.46 1.46 0 00-.52-.14l-.27-.01-1.85-.05h-.25c-.14 0-.15.06-.03.14l.2.12 1.62.91.24.13c.14.07.36.13.52.14l.27.02 1.86.04h.24c.07 0 .11-.02.12-.04zm.4-2.03c0-.03-.04-.05-.1-.08l-.23-.1-1.73-.65-.26-.09a1.46 1.46 0 00-.53-.06l-.28.03-1.83.24-.25.04c-.13.02-.14.08-.01.13l.23.1 1.73.65.26.1c.15.04.37.07.53.05l.27-.03 1.84-.24.24-.04c.07 0 .1-.03.11-.05zM38 16c0-.02-.04-.05-.1-.06l-.24-.06-1.82-.38-.26-.05a1.46 1.46 0 00-.54.02l-.27.07-1.77.52-.24.07c-.13.05-.13.1 0 .14l.25.06 1.81.38.27.05c.15.02.38.01.53-.02l.27-.07 1.78-.52.23-.08c.07-.02.1-.04.1-.07zm-.24-2.05c0-.03-.04-.05-.1-.05l-.26-.02-1.85-.1-.27-.01c-.16 0-.38.04-.53.1l-.25.11-1.67.79-.23.1c-.12.07-.1.13.03.14l.25.02 1.85.1H35c.16 0 .38-.03.53-.1l.25-.1 1.68-.79.22-.11c.06-.03.09-.06.08-.08zm-.55-2c0-.02-.05-.03-.11-.03-.07 0-.15 0-.25.02l-1.84.18-.28.04c-.15.02-.37.1-.5.18l-.23.14-1.54 1.04c-.09.05-.15.1-.2.14-.11.08-.1.13.04.13l.25-.02 1.84-.19c.11 0 .2-.02.27-.03.16-.02.38-.1.5-.18l.24-.15 1.54-1.03.2-.14c.05-.04.08-.08.07-.1zm-.84-1.89c-.01-.02-.05-.03-.12-.01l-.24.05-1.8.47-.26.07c-.15.05-.35.16-.47.26l-.2.18-1.37 1.25-.18.18c-.1.1-.07.14.07.11.06 0 .14-.02.24-.05l1.8-.46.26-.08c.15-.04.35-.15.47-.26l.2-.18 1.37-1.25.17-.17c.05-.05.07-.09.06-.1zm-1.13-1.74c-.01-.02-.05-.01-.12.01l-.23.1-1.7.72-.25.12c-.14.07-.32.2-.42.32l-.18.21-1.16 1.45-.15.2c-.08.11-.04.16.09.1.06-.02.13-.04.23-.09l1.7-.73.25-.11c.14-.07.32-.2.42-.33l.18-.2 1.16-1.46.14-.2c.04-.05.06-.09.04-.1zm-1.37-1.54c-.02-.02-.06-.01-.12.02l-.21.13-1.57.98-.23.15c-.13.1-.29.26-.37.4l-.14.22-.93 1.61-.11.22c-.07.12-.03.16.1.1l.2-.13 1.58-.99.22-.15c.14-.09.3-.25.38-.38l.14-.24.92-1.6.12-.22c.03-.06.04-.1.02-.12zm-1.6-1.32c-.02-.01-.06 0-.1.04l-.2.16-1.4 1.21-.2.19c-.12.1-.25.3-.31.44-.03.07-.07.14-.1.25l-.67 1.73-.09.23c-.04.13 0 .17.11.08l.2-.16 1.4-1.2.2-.2c.11-.1.25-.29.3-.43l.11-.26.67-1.73.08-.23c.02-.06.02-.1 0-.12zM30.5 4.4c-.02 0-.05.01-.1.06l-.17.19-1.2 1.4-.17.22c-.1.13-.2.33-.24.48l-.06.27-.4 1.81-.04.24c-.03.14.03.16.12.06l.16-.18 1.2-1.41.18-.22c.1-.12.2-.32.23-.48l.07-.26.4-1.81.04-.25c.01-.06 0-.1-.02-.12zm-1.91-.77c-.03 0-.06.02-.1.07l-.13.21-.97 1.58-.14.24c-.08.13-.15.35-.16.5l-.03.28-.11 1.85v.25c-.01.14.04.15.12.04l.14-.2.97-1.59.13-.23c.08-.14.15-.36.17-.51l.02-.28.1-1.84.01-.24c0-.07-.01-.11-.03-.12zm-2.02-.47c-.02 0-.05.03-.08.09l-.1.22-.72 1.71-.1.26c-.06.14-.09.37-.08.53 0 .07 0 .16.02.27l.17 1.85c0 .1.02.18.03.24.01.14.07.15.13.02l.1-.22.72-1.71.1-.26c.06-.15.1-.37.08-.53 0-.07 0-.16-.02-.27l-.17-1.85c0-.1-.02-.18-.03-.24 0-.07-.02-.1-.05-.11zM24.5 3c-.02 0-.05.03-.07.1l-.06.24-.45 1.8-.06.26c-.04.16-.04.39 0 .54l.06.27.45 1.8.06.23c.04.14.1.14.14 0l.06-.23.45-1.8.06-.27c.04-.15.04-.38 0-.54l-.06-.26-.45-1.8-.06-.24c-.02-.06-.04-.1-.07-.1z" fill="#DABC73" fill-rule="nonzero"/></g></svg>