<svg xmlns="http://www.w3.org/2000/svg" viewBox="0 0 24 24">
    <path fill="#fcfcfc" d="M11.76 0.036c0 0.026-0.027 0.036-0.102 0.036-0.168 0.001-0.21 0.020-0.21 0.099v0.069h-0.202c-0.249 0-0.278 0.010-0.278 0.099v0.069h-0.157c-0.155 0-0.157 0.001-0.171 0.072-0.014 0.069-0.020 0.072-0.137 0.073-0.234 0.003-0.314 0.027-0.322 0.1-0.007 0.062-0.014 0.065-0.168 0.072l-0.16 0.007-0.008 0.078-0.008 0.078h-0.433l-0.027 0.072c-0.024 0.063-0.039 0.072-0.124 0.072-0.163 0.001-0.205 0.021-0.205 0.099v0.069h-0.194c-0.222 0-0.286 0.025-0.286 0.109 0 0.057-0.006 0.059-0.154 0.059-0.152 0-0.154 0.001-0.17 0.072-0.015 0.068-0.022 0.072-0.14 0.073-0.235 0.003-0.315 0.027-0.324 0.1-0.007 0.062-0.014 0.065-0.168 0.072l-0.16 0.007-0.007 0.078-0.008 0.078h-0.217c-0.216 0-0.217 0-0.243 0.069-0.025 0.065-0.035 0.070-0.2 0.082-0.293 0.022-0.307 0.047-0.294 0.52l0.007 0.251 0.156 0.045v0.612l0.072 0.077c0.068 0.073 0.072 0.088 0.074 0.285 0.003 0.34 0.022 0.422 0.1 0.431l0.066 0.008v0.284c0 0.336 0.007 0.36 0.099 0.36h0.069v0.625l0.144 0.029 0 0.195c0 0.249 0.033 0.369 0.109 0.404 0.056 0.026 0.059 0.037 0.059 0.257l0.001 0.23 0.154 0.097 0.024 0.551 0.063 0.007c0.063 0.007 0.063 0.009 0.074 0.256 0.011 0.257 0.051 0.373 0.128 0.373 0.029 0 0.035 0.041 0.035 0.214 0 0.228 0.026 0.29 0.122 0.29 0.042 0 0.046 0.019 0.046 0.218v0.218l0.072 0.027c0.066 0.025 0.072 0.037 0.072 0.139 0 0.248 0.025 0.335 0.099 0.35l0.069 0.014v0.208c0 0.222 0.019 0.266 0.113 0.266 0.054 0 0.055 0.006 0.055 0.229v0.229l0.072 0.014c0.068 0.014 0.072 0.021 0.072 0.128 0 0.251 0.025 0.338 0.099 0.353 0.066 0.013 0.069 0.019 0.069 0.151 0 0.182 0.038 0.285 0.11 0.303 0.054 0.014 0.058 0.025 0.058 0.18v0.165h0.144l0.003 0.162c0.004 0.25 0.022 0.305 0.099 0.314 0.063 0.007 0.066 0.013 0.066 0.144 0 0.199 0.036 0.308 0.107 0.326 0.053 0.013 0.059 0.029 0.066 0.163 0.007 0.136 0.012 0.15 0.067 0.163 0.052 0.012 0.061 0.029 0.066 0.121 0.011 0.19 0.023 0.215 0.102 0.215h0.072l0 0.174c0 0.235 0.014 0.276 0.098 0.295 0.068 0.015 0.070 0.019 0.070 0.169v0.154h0.072c0.071 0 0.072 0.002 0.072 0.122 0 0.136 0.055 0.275 0.123 0.311 0.028 0.015 0.045 0.050 0.045 0.092 0 0.15 0.029 0.224 0.1 0.251 0.064 0.024 0.068 0.035 0.068 0.16 0 0.137 0.028 0.192 0.097 0.192 0.029 0 0.044 0.037 0.061 0.15 0.021 0.139 0.027 0.151 0.087 0.158 0.062 0.007 0.065 0.015 0.072 0.155 0.007 0.143 0.009 0.148 0.084 0.17s0.077 0.026 0.084 0.169c0.007 0.14 0.010 0.147 0.073 0.154 0.057 0.007 0.066 0.018 0.066 0.087 0 0.173 0.024 0.229 0.099 0.229 0.067 0 0.069 0.003 0.069 0.126 0 0.148 0.013 0.173 0.102 0.195 0.063 0.015 0.066 0.023 0.066 0.16 0 0.14 0.002 0.145 0.069 0.158 0.064 0.013 0.070 0.025 0.090 0.161 0.019 0.135 0.026 0.148 0.084 0.155s0.064 0.019 0.079 0.151c0.015 0.135 0.021 0.144 0.087 0.158 0.062 0.012 0.071 0.025 0.071 0.095 0 0.074 0.006 0.081 0.072 0.081 0.069 0 0.072 0.005 0.072 0.102 0.001 0.162 0.022 0.211 0.099 0.226 0.065 0.013 0.069 0.020 0.069 0.138 0 0.136 0.028 0.182 0.113 0.182 0.047 0 0.055 0.012 0.055 0.082 0 0.114 0.036 0.197 0.091 0.211 0.031 0.008 0.052 0.042 0.063 0.099 0.014 0.077 0.025 0.087 0.087 0.087 0.069 0 0.071 0.003 0.071 0.118 0 0.162 0.017 0.194 0.099 0.194 0.063 0 0.069 0.007 0.069 0.084s0.006 0.084 0.072 0.084c0.066 0 0.072 0.007 0.072 0.081 0 0.174 0.024 0.231 0.099 0.231 0.060 0 0.069 0.009 0.069 0.070 0 0.108 0.041 0.191 0.108 0.222 0.047 0.021 0.060 0.045 0.060 0.108 0 0.073 0.007 0.080 0.071 0.080 0.062 0 0.071 0.009 0.078 0.078s0.017 0.079 0.084 0.085c0.076 0.007 0.077 0.008 0.084 0.156s0.007 0.149 0.085 0.156c0.071 0.007 0.078 0.015 0.078 0.090s0.007 0.082 0.068 0.082c0.065 0 0.069 0.007 0.090 0.15 0.020 0.138 0.027 0.151 0.087 0.157 0.053 0.006 0.066 0.021 0.072 0.084 0.006 0.067 0.017 0.078 0.084 0.084s0.078 0.017 0.084 0.084c0.006 0.063 0.019 0.078 0.071 0.084 0.059 0.007 0.065 0.018 0.081 0.151 0.016 0.134 0.021 0.145 0.086 0.158 0.057 0.011 0.070 0.026 0.070 0.080 0 0.067 0.036 0.096 0.122 0.096 0.035 0 0.046 0.017 0.046 0.072 0 0.063 0.008 0.072 0.069 0.072 0.066 0 0.069 0.006 0.090 0.15 0.020 0.139 0.026 0.151 0.086 0.157 0.053 0.006 0.066 0.021 0.072 0.084 0.007 0.067 0.017 0.078 0.085 0.084 0.071 0.007 0.078 0.015 0.078 0.090s0.006 0.082 0.072 0.082c0.059 0 0.072 0.010 0.072 0.055 0 0.070 0.042 0.113 0.113 0.113 0.046 0 0.056 0.013 0.058 0.078 0.004 0.133 0.032 0.195 0.093 0.21 0.032 0.008 0.075 0.046 0.097 0.085 0.044 0.079 0.323 0.12 0.398 0.057 0.074-0.061 0.045-0.382-0.037-0.413-0.054-0.020-0.073-0.044-0.078-0.1-0.006-0.063-0.018-0.074-0.085-0.081-0.077-0.007-0.078-0.009-0.078-0.133 0-0.132-0.028-0.183-0.101-0.183-0.027 0-0.043-0.018-0.043-0.046 0-0.087-0.028-0.122-0.099-0.122h-0.069v-0.312h-0.168v-0.154c0-0.152-0.001-0.154-0.072-0.17-0.068-0.015-0.072-0.022-0.072-0.132 0-0.159-0.017-0.192-0.097-0.192-0.067 0-0.068-0.003-0.075-0.15-0.007-0.15-0.007-0.15-0.085-0.158l-0.078-0.008v-0.153c0-0.15-0.001-0.153-0.072-0.168-0.069-0.015-0.072-0.021-0.072-0.147 0-0.158-0.049-0.287-0.118-0.309-0.043-0.014-0.050-0.035-0.050-0.154 0-0.149-0.027-0.195-0.113-0.195-0.052 0-0.055-0.009-0.055-0.156v-0.156h-0.144l-0.002-0.174c-0.003-0.24-0.021-0.292-0.101-0.302-0.062-0.007-0.065-0.013-0.065-0.147 0-0.223-0.022-0.293-0.1-0.322-0.067-0.025-0.068-0.029-0.068-0.213 0-0.185-0.041-0.283-0.12-0.283-0.013 0-0.024-0.047-0.024-0.105 0-0.237-0.027-0.332-0.1-0.36-0.064-0.024-0.068-0.034-0.068-0.162 0-0.218-0.022-0.289-0.099-0.318-0.067-0.025-0.068-0.028-0.074-0.255l-0.007-0.229-0.132-0.015v-0.199c0-0.338-0.019-0.422-0.099-0.438l-0.069-0.014v-0.271c0-0.322-0.007-0.347-0.099-0.347h-0.069v-0.35c0-0.361-0.017-0.442-0.094-0.442-0.041 0-0.045-0.026-0.053-0.309l-0.008-0.309-0.156-0.131v-0.811l-0.168-0.153-0-0.494c-0-0.502-0.027-0.65-0.117-0.65-0.012 0-0.026-0.258-0.031-0.594-0.009-0.621-0.023-0.702-0.115-0.702-0.044 0-0.046-0.037-0.054-0.954-0.009-0.999-0.017-1.077-0.115-1.103-0.047-0.012-0.048-0.037-0.048-2.307v-2.294l0.156-0.161 0.008-0.942c0.008-0.941 0.008-0.942 0.060-0.965 0.085-0.037 0.108-0.192 0.11-0.738l0.002-0.499 0.057-0.022c0.072-0.027 0.087-0.084 0.087-0.331l0-0.198h-0.396c-0.336 0-0.396 0.005-0.396 0.036zM13.68 0.204c0 0.020 0.018 0.036 0.039 0.036 0.032 0 0.034-0.007 0.009-0.036-0.016-0.020-0.034-0.036-0.039-0.036s-0.009 0.016-0.009 0.036zM14.544 0.612c0.016 0.020 0.039 0.030 0.051 0.022 0.031-0.019 0.001-0.058-0.044-0.058-0.030 0-0.032 0.007-0.008 0.036zM13.072 0.76c-0.036 0.036-0.018 0.087 0.020 0.056 0.020-0.016 0.036-0.039 0.036-0.051 0-0.025-0.033-0.028-0.056-0.005zM13.039 1.056c0 0.059 0.005 0.084 0.010 0.054s0.006-0.078 0-0.108c-0.006-0.030-0.010-0.005-0.010 0.054zM12.954 1.674c-0.077 0.080-0.082 0.103-0.024 0.102 0.036-0 0.037-0.004 0.006-0.024-0.020-0.013-0.031-0.024-0.024-0.025 0.121-0.022 0.128-0.027 0.116-0.082-0.007-0.032-0.021-0.027-0.074 0.029zM17.319 2.418c0.011 0.060 0.007 0.076-0.018 0.070-0.018-0.005-0.025-0.004-0.015 0.002s0.018 0.022 0.018 0.036c0 0.014-0.007 0.019-0.016 0.010-0.020-0.020-0.080 0.029-0.080 0.065 0 0.015 0.011 0.011 0.024-0.009 0.015-0.023 0.023-0.025 0.024-0.007 0 0.016 0.017 0.023 0.036 0.016s0.030-0.023 0.024-0.034c-0.007-0.011-0.001-0.027 0.012-0.035 0.031-0.019 0.031-0.109 0-0.156-0.017-0.026-0.019-0.013-0.009 0.042zM12.773 2.861c-0.036 0.036-0.038 0.115-0.003 0.115 0.014 0 0.019-0.010 0.012-0.022s-0.001-0.026 0.015-0.031c0.030-0.010 0.051-0.091 0.023-0.091-0.009 0-0.030 0.013-0.046 0.029zM12.72 3.072c0 0.026 0.008 0.048 0.019 0.048s0.019-0.022 0.019-0.048c0-0.026-0.009-0.048-0.019-0.048s-0.019 0.022-0.019 0.048zM16.995 3.139c-0.002 0.018-0.015 0.024-0.033 0.013-0.021-0.013-0.021-0.007 0.002 0.022 0.028 0.034 0.026 0.038-0.014 0.031-0.028-0.005-0.046 0.005-0.046 0.025 0 0.042 0.019 0.043 0.074 0.002 0.026-0.019 0.038-0.050 0.031-0.078-0.007-0.026-0.013-0.032-0.015-0.015zM16.47 4.23c-0.043 0.014-0.078 0.041-0.078 0.061 0 0.031 0.006 0.031 0.044-0.003 0.024-0.022 0.056-0.040 0.071-0.040s0.033-0.011 0.042-0.024c0.008-0.013 0.012-0.023 0.007-0.022s-0.043 0.014-0.085 0.027zM12.636 4.656c-0.061 0.068-0.035 0.074 0.029 0.007 0.029-0.030 0.044-0.055 0.034-0.055s-0.039 0.022-0.063 0.048zM16.164 5.136c-0.024 0.026-0.036 0.048-0.026 0.048 0.025 0 0.094-0.072 0.081-0.085-0.006-0.006-0.031 0.011-0.055 0.037zM12.561 5.46c-0 0.119 0.004 0.17 0.009 0.115s0.005-0.153 0-0.216c-0.005-0.063-0.009-0.018-0.009 0.101zM15.912 5.558c0 0.042 0.052 0.035 0.066-0.009 0.005-0.016-0.008-0.029-0.029-0.029s-0.038 0.017-0.038 0.038zM12.563 7.212c0 0.66 0.003 0.927 0.007 0.592s0.004-0.874 0-1.2c-0.004-0.326-0.007-0.052-0.007 0.608zM15.672 6.444c-0.032 0.039-0.025 0.044 0.034 0.021 0.021-0.008 0.038-0.024 0.038-0.036 0-0.033-0.039-0.025-0.072 0.015zM15.432 6.998c0 0.042 0.052 0.035 0.066-0.009 0.005-0.016-0.008-0.029-0.029-0.029s-0.038 0.017-0.038 0.038zM15.392 7.479c0.002 0.025-0.009 0.042-0.025 0.039-0.017-0.003-0.023 0.009-0.015 0.031 0.012 0.030 0.020 0.028 0.050-0.014 0.024-0.035 0.028-0.059 0.011-0.076s-0.023-0.010-0.021 0.020zM15.186 8.047c-0.039 0.015-0.066 0.044-0.066 0.070 0 0.041 0.005 0.040 0.072-0.009 0.055-0.041 0.103-0.105 0.066-0.090-0.003 0.001-0.036 0.014-0.072 0.029zM12.561 8.964c-0 0.119 0.004 0.17 0.009 0.115s0.005-0.153 0-0.216c-0.005-0.063-0.009-0.018-0.009 0.101zM14.874 9.315c-0.036 0.027-0.066 0.067-0.065 0.089 0.001 0.031 0.014 0.025 0.057-0.024 0.031-0.035 0.062-0.060 0.067-0.054s0.011-0.006 0.011-0.026-0.001-0.036-0.002-0.035c-0.001 0-0.032 0.023-0.068 0.050zM12.6 9.743c0 0.013 0.021 0.034 0.046 0.048 0.074 0.040 0.086 0.029 0.026-0.023-0.063-0.054-0.072-0.058-0.072-0.025zM14.656 10.144c-0.024 0.024-0.019 0.080 0.007 0.080 0.013 0 0.035-0.022 0.049-0.048 0.026-0.048-0.016-0.072-0.056-0.032zM14.508 11.016c-0.008 0.013-0.006 0.024 0.005 0.024s0.003 0.011-0.017 0.024c-0.029 0.019-0.027 0.022 0.012 0.017 0.084-0.012 0.157-0.089 0.084-0.089-0.013 0-0.021 0.008-0.018 0.018s-0.005 0.021-0.018 0.024c-0.013 0.003-0.021-0.005-0.018-0.018s0.001-0.024-0.005-0.024c-0.006 0-0.017 0.011-0.025 0.024zM12.744 11.527c0 0.017 0.032 0.063 0.072 0.101l0.072 0.069v-0.062c0-0.046-0.015-0.066-0.061-0.077-0.034-0.008-0.055-0.026-0.047-0.039s0.003-0.023-0.011-0.023-0.025 0.014-0.025 0.031zM14.436 11.92c0.010 0.037-0.003 0.065-0.050 0.102-0.035 0.028-0.054 0.050-0.041 0.050 0.057 0 0.133-0.115 0.105-0.16-0.025-0.040-0.026-0.039-0.013 0.008zM12.888 12.792c0 0.013 0.032 0.059 0.071 0.102 0.067 0.074 0.071 0.075 0.072 0.024 0.001-0.039-0.013-0.054-0.049-0.054-0.027 0-0.043-0.011-0.035-0.024s0.001-0.024-0.017-0.024c-0.023-0-0.022-0.007 0.005-0.024 0.031-0.020 0.030-0.023-0.006-0.024-0.023-0-0.042 0.010-0.042 0.023zM13.039 13.536c0 0.059 0.005 0.084 0.010 0.054s0.006-0.078 0-0.108c-0.006-0.030-0.010-0.005-0.010 0.054zM14.25 13.874c0.007 0.026-0.009 0.055-0.039 0.074-0.051 0.032-0.070 0.116-0.027 0.116 0.022 0 0.082-0.089 0.084-0.124 0-0.009 0.009-0.024 0.019-0.034 0.029-0.029 0.021-0.074-0.015-0.074-0.019 0-0.028 0.017-0.022 0.042zM9.544 14.176c-0.009 0.009-0.016 0.208-0.016 0.443v0.427l0.144 0.164v2.199c0 1.209-0.009 2.199-0.019 2.199-0.104 0-0.112 0.043-0.125 0.675l-0.012 0.607-0.059 0.014c-0.083 0.019-0.092 0.072-0.095 0.546l-0.002 0.414h-0.057c-0.081 0-0.089 0.037-0.104 0.438-0.012 0.32-0.017 0.354-0.056 0.354-0.069 0-0.081 0.044-0.094 0.347-0.012 0.28-0.013 0.287-0.071 0.301-0.072 0.017-0.107 0.129-0.091 0.295 0.014 0.144 0.014 0.144 0.185 0.157 0.133 0.010 0.143 0.015 0.15 0.073 0.009 0.082 0.063 0.093 0.469 0.096 0.265 0.002 0.318 0.009 0.318 0.039 0 0.031 0.131 0.036 1.032 0.036h1.032l-0-0.654c-0-0.672-0.020-0.81-0.117-0.81-0.012 0-0.026-0.272-0.030-0.62-0.009-0.652-0.017-0.7-0.12-0.7-0.042 0-0.045-0.026-0.045-0.455v-0.455l-0.168-0.153v-0.679l-0.072-0.053c-0.072-0.053-0.072-0.054-0.075-0.311-0.004-0.333-0.017-0.393-0.099-0.432l-0.066-0.032v-0.285c0-0.302-0.020-0.36-0.122-0.36-0.043 0-0.046-0.019-0.046-0.266 0-0.282-0.021-0.358-0.097-0.358-0.043 0-0.047-0.017-0.047-0.186-0-0.246-0.014-0.29-0.092-0.299-0.063-0.007-0.064-0.009-0.071-0.235s-0.008-0.228-0.084-0.276c-0.074-0.047-0.077-0.053-0.083-0.243-0.007-0.195-0.007-0.195-0.078-0.209-0.069-0.014-0.071-0.018-0.074-0.165-0.005-0.238-0.023-0.293-0.099-0.302-0.064-0.007-0.066-0.011-0.066-0.163 0-0.173-0.044-0.284-0.119-0.304-0.043-0.011-0.049-0.032-0.049-0.172 0-0.157-0.001-0.159-0.072-0.173-0.070-0.014-0.072-0.019-0.072-0.149 0-0.164-0.059-0.295-0.144-0.318-0.080-0.022-0.3-0.025-0.32-0.005zM13.224 14.698c0 0.025 0.072 0.094 0.085 0.081 0.006-0.006-0.011-0.031-0.037-0.055s-0.048-0.036-0.048-0.026zM14.16 15.863c0 0.040 0.010 0.073 0.023 0.073s0.045 0.024 0.072 0.053c0.055 0.059 0.061 0.038 0.022-0.073-0.040-0.113-0.117-0.148-0.117-0.052zM14.328 17.335c0 0.041 0.015 0.056 0.060 0.060l0.060 0.005-0.052-0.060c-0.064-0.073-0.067-0.073-0.067-0.005zM13.999 17.64c0 0.059 0.005 0.084 0.010 0.054s0.006-0.078 0-0.108c-0.006-0.030-0.010-0.005-0.010 0.054zM11.531 18.251c-0.047 0.047-0.059 0.084-0.059 0.177 0 0.117 0.049 0.205 0.083 0.149 0.009-0.014-0.001-0.032-0.022-0.040-0.043-0.017-0.051-0.142-0.011-0.167 0.018-0.011 0.021 0.001 0.010 0.037-0.017 0.052-0.016 0.052 0.030 0.009 0.026-0.024 0.042-0.052 0.037-0.062s0.003-0.018 0.018-0.018c0.015 0 0.023-0.014 0.016-0.031-0.019-0.050 0.112-0.098 0.18-0.065 0.053 0.026 0.053 0.025 0.009-0.011-0.073-0.059-0.221-0.048-0.291 0.022zM12.27 19.013c0.009 0.044 0.048 0.083 0.083 0.083 0.042 0 0.039-0.016-0.011-0.057-0.023-0.019-0.027-0.027-0.008-0.017 0.022 0.012 0.028 0.008 0.017-0.010-0.023-0.037-0.088-0.036-0.080 0.001zM11.845 19.75c-0.007 0.011 0.009 0.039 0.035 0.063 0.046 0.041 0.047 0.041 0.047-0.006 0-0.050-0.061-0.092-0.083-0.056zM11.959 20.478c0.006 0.017 0.023 0.028 0.038 0.024s0.027 0.005 0.027 0.018c0 0.013 0.011 0.024 0.024 0.024 0.046 0 0.024-0.040-0.038-0.069-0.049-0.023-0.060-0.022-0.051 0.002zM12.078 20.976c0 0.046 0.005 0.065 0.011 0.042s0.006-0.061 0-0.084c-0.006-0.023-0.011-0.004-0.011 0.042zM12.096 21.228c0 0.020 0.011 0.036 0.024 0.036s0.021 0.012 0.018 0.027c-0.003 0.015 0.008 0.032 0.024 0.038 0.041 0.015 0.038-0.030-0.005-0.072-0.019-0.019-0.028-0.042-0.020-0.050s0.002-0.015-0.013-0.015c-0.015 0-0.028 0.016-0.028 0.036zM13.68 21.321c0 0.018 0.023 0.039 0.050 0.046 0.048 0.013 0.048 0.011 0.008-0.033-0.050-0.055-0.058-0.057-0.058-0.013zM12.312 22.148c0 0.011 0.022 0.040 0.048 0.064 0.047 0.042 0.048 0.042 0.048-0.006 0-0.027-0.017-0.056-0.038-0.064-0.050-0.019-0.058-0.018-0.058 0.006zM20.271 22.668c-0.033 0.033-0.040 0.078-0.034 0.236l0.007 0.195 0.156 0.015 0.002 0.328c0.003 0.454-0.001 0.444 0.201 0.468 0.281 0.034 0.277 0.040 0.277-0.415v-0.385h0.168v0.396c0 0.36 0.004 0.396 0.042 0.399 0.228 0.015 0.646 0.014 0.686-0.001 0.028-0.010 0.088-0.009 0.133 0.004s0.118 0.016 0.162 0.007l0.081-0.015v-1.245l-0.063-0.016c-0.058-0.015-0.366 0.003-0.385 0.022-0.005 0.005-0.015 0.075-0.024 0.157-0.024 0.227-0.138 0.227-0.161 0-0.009-0.081-0.022-0.154-0.029-0.162-0.040-0.040-1.178-0.030-1.219 0.010zM12.408 23.073c0 0.003 0.032 0.030 0.072 0.059 0.054 0.040 0.072 0.044 0.072 0.019 0-0.019-0.032-0.046-0.072-0.059s-0.072-0.022-0.072-0.019zM15.3 23.34c0.026 0.021 0.045 0.050 0.041 0.063s0.005 0.017 0.018 0.009c0.032-0.020 0.011-0.053-0.055-0.085-0.052-0.025-0.052-0.025-0.005 0.014zM15.323 23.512c-0.010 0.024-0.017 0.052-0.015 0.062s-0.005 0.018-0.016 0.018c-0.011 0-0.020 0.016-0.020 0.037 0 0.053 0.046 0.030 0.088-0.044 0.026-0.046 0.029-0.070 0.009-0.090s-0.032-0.015-0.045 0.017zM14.719 23.818c0.003 0.014-0.007 0.024-0.021 0.021s-0.026 0.011-0.026 0.030 0.009 0.035 0.020 0.035c0.011 0 0.020-0.011 0.020-0.025s0.012-0.018 0.028-0.008c0.017 0.011 0.021 0.007 0.011-0.011-0.009-0.015-0.006-0.028 0.008-0.028s0.025-0.009 0.025-0.020c0-0.011-0.016-0.020-0.035-0.020s-0.033 0.012-0.030 0.026z"></path>
    <path fill="#c4c4c4" d="M13.464 0.090c-0.117 0.013-0.232 0.054-0.235 0.084-0.001 0.017-0.008 0.052-0.014 0.078s-0.012 0.154-0.013 0.285c-0.002 0.194-0.008 0.234-0.036 0.224-0.074-0.028-0.11 0.129-0.121 0.537-0.012 0.444-0 0.406-0.133 0.43-0.007 0.001 0.004 0.013 0.024 0.025 0.026 0.017 0.027 0.023 0.005 0.024-0.017 0-0.025 0.011-0.017 0.024s0.003 0.024-0.011 0.024c-0.017 0-0.025 0.173-0.025 0.529 0 0.291-0.008 0.525-0.018 0.52s-0.037 0.010-0.060 0.035c-0.023 0.024-0.035 0.044-0.027 0.044s0.004 0.013-0.009 0.030c-0.013 0.016-0.022 0.055-0.019 0.085s-0.003 0.060-0.012 0.066c-0.009 0.006-0.019 0.348-0.021 0.761-0.003 0.584-0.011 0.756-0.035 0.774-0.061 0.047-0.082 0.122-0.099 0.348-0.018 0.246-0.019 4.206-0.001 4.404 0.006 0.066 0.011 0.15 0.012 0.187 0.001 0.038 0.026 0.092 0.059 0.125l0.058 0.058 0.012 0.823c0.013 0.881 0.013 0.883 0.045 0.883 0.012 0 0.015 0.011 0.007 0.023s0.013 0.030 0.047 0.039l0.061 0.015v0.572c0 0.488 0.006 0.577 0.038 0.609 0.022 0.022 0.026 0.038 0.010 0.038s-0.013 0.014 0.009 0.036c0.020 0.020 0.048 0.036 0.062 0.036s0.026 0.046 0.027 0.102c0.011 0.736 0.028 0.858 0.12 0.858 0.044 0 0.047 0.020 0.049 0.306 0.001 0.168 0.005 0.338 0.009 0.378s0.008 0.089 0.009 0.11c0.004 0.048 0.083 0.142 0.12 0.142 0.019 0 0.027 0.092 0.027 0.298 0 0.295 0.029 0.403 0.096 0.362 0.036-0.022 0.045 0.022 0.059 0.311 0.008 0.156 0.024 0.301 0.035 0.322 0.021 0.040 0.025 0.056 0.025 0.1 0 0.014 0.011 0.019 0.024 0.011s0.024-0.003 0.024 0.012c0 0.015 0.011 0.020 0.024 0.012 0.015-0.009 0.025 0.054 0.026 0.173 0.004 0.37 0.025 0.461 0.11 0.473 0.039 0.006 0.046 0.038 0.057 0.295 0.012 0.275 0.042 0.388 0.097 0.354 0.034-0.021 0.057 0.043 0.075 0.205 0.031 0.283 0.034 0.287 0.226 0.277 0.135-0.008 0.187-0.027 0.165-0.063-0.008-0.012-0.005-0.022 0.006-0.022 0.046 0 0.053-0.413 0.007-0.428-0.014-0.005-0.019-0.018-0.011-0.030 0.012-0.020-0.021-0.032-0.067-0.025-0.010 0.002-0.018-0.011-0.017-0.027s-0.005-0.273-0.011-0.57c-0.010-0.502-0.019-0.632-0.047-0.756-0.006-0.026-0.012-0.055-0.013-0.064s-0.023-0.023-0.050-0.032c-0.072-0.023-0.076-1.951-0.003-1.996 0.049-0.030 0.091-0.14 0.043-0.111-0.018 0.011-0.018 0.004 0.002-0.020 0.016-0.020 0.023-0.044 0.015-0.052s-0.004-0.029 0.010-0.046c0.014-0.017 0.027-0.101 0.029-0.187s0.008-0.215 0.012-0.288c0.005-0.073 0.009-0.38 0.010-0.682s0.008-0.544 0.016-0.536c0.026 0.026 0.097-0.066 0.086-0.112-0.007-0.029-0.002-0.040 0.015-0.030 0.018 0.011 0.027-0.11 0.029-0.398 0.002-0.244 0.012-0.417 0.026-0.422s0.018-0.017 0.011-0.028 0-0.028 0.016-0.038c0.018-0.011 0.022-0.007 0.011 0.010-0.009 0.015-0.008 0.028 0.004 0.028 0.068 0 0.102-0.175 0.102-0.529 0-0.356 0.001-0.36 0.057-0.381 0.082-0.031 0.092-0.073 0.105-0.433 0.012-0.321 0.031-0.398 0.095-0.373 0.018 0.007 0.027 0.003 0.020-0.009s-0.003-0.029 0.011-0.037c0.014-0.009 0.024-0.129 0.024-0.287 0-0.273 0.017-0.323 0.102-0.305 0.010 0.002 0.019-0.007 0.021-0.020s0.004-0.034 0.006-0.046c0.002-0.012 0.011-0.030 0.021-0.040s0.018-0.128 0.018-0.263c0-0.243 0.001-0.246 0.061-0.261 0.078-0.020 0.099-0.079 0.105-0.299 0.004-0.165 0.026-0.226 0.086-0.241 0.013-0.003 0.021-0.021 0.017-0.040s0.004-0.034 0.018-0.034c0.016 0 0.025-0.089 0.025-0.24 0-0.217 0.004-0.24 0.044-0.24 0.085 0 0.118-0.073 0.122-0.273 0.003-0.17 0.010-0.194 0.063-0.236 0.033-0.026 0.053-0.057 0.046-0.069s-0.004-0.022 0.008-0.022c0.025 0 0.028-0.013 0.045-0.21 0.008-0.098 0.023-0.15 0.043-0.15 0.076 0 0.11-0.086 0.11-0.279v-0.191l0.078-0.023c0.043-0.013 0.079-0.039 0.081-0.059s0.004-0.099 0.006-0.175c0.002-0.087 0.012-0.134 0.027-0.124 0.026 0.016 0.1-0.046 0.091-0.077-0.003-0.011 0.006-0.041 0.020-0.067s0.028-0.101 0.031-0.165c0.005-0.096 0.019-0.128 0.076-0.176 0.065-0.055 0.070-0.070 0.070-0.233v-0.174l0.078-0.022c0.076-0.022 0.078-0.026 0.085-0.171 0.006-0.126 0.014-0.149 0.051-0.149 0.066 0 0.095-0.050 0.112-0.194 0.018-0.149 0.015-0.144 0.074-0.152 0.024-0.004 0.044-0.018 0.044-0.032s0.008-0.034 0.018-0.044 0.018-0.064 0.018-0.121c0-0.086 0.014-0.116 0.084-0.184 0.078-0.076 0.084-0.092 0.084-0.229 0-0.081 0.008-0.148 0.018-0.149 0.119-0.012 0.128-0.021 0.143-0.135 0.006-0.050 0.029-0.108 0.050-0.128 0.035-0.033 0.036-0.032 0.005 0.012-0.032 0.046-0.032 0.046 0.012 0.007 0.087-0.079 0.053-0.421-0.036-0.366-0.011 0.007-0.027 0.002-0.035-0.012s-0.046-0.024-0.084-0.024c-0.057 0-0.070-0.011-0.077-0.065-0.006-0.051-0.025-0.069-0.092-0.086-0.046-0.012-0.103-0.045-0.125-0.073s-0.042-0.043-0.042-0.033c-0 0.011-0.018 0.003-0.038-0.018s-0.068-0.038-0.105-0.038c-0.051 0-0.071-0.014-0.082-0.056-0.017-0.066-0.106-0.112-0.218-0.112-0.068 0-0.084-0.011-0.106-0.072-0.020-0.058-0.040-0.073-0.098-0.075-0.040-0.002-0.084-0.006-0.097-0.009s-0.045-0.007-0.070-0.009c-0.032-0.002-0.049-0.024-0.054-0.069-0.007-0.058-0.020-0.068-0.116-0.080-0.059-0.008-0.092-0.016-0.072-0.018 0.032-0.004 0.032-0.007 0-0.027-0.020-0.013-0.027-0.023-0.015-0.024s0.008-0.016-0.008-0.035c-0.016-0.019-0.043-0.029-0.061-0.022s-0.039 0.001-0.048-0.013-0.048-0.026-0.086-0.026c-0.054 0-0.071-0.011-0.071-0.047 0-0.062-0.070-0.097-0.204-0.103-0.083-0.004-0.108-0.014-0.108-0.045 0-0.099-0.025-0.116-0.171-0.116-0.132 0-0.141-0.004-0.141-0.055 0-0.074-0.043-0.113-0.125-0.113-0.041 0-0.067-0.013-0.067-0.033 0-0.040-0.143-0.112-0.235-0.119-0.049-0.004-0.067-0.019-0.074-0.064-0.011-0.080-0.041-0.095-0.19-0.095-0.123-0-0.126-0.002-0.126-0.070 0-0.082-0.033-0.099-0.191-0.099-0.108 0-0.116-0.005-0.129-0.069-0.014-0.072-0.074-0.095-0.208-0.081zM11.659 18.256c-0.024 0.006-0.035 0.026-0.027 0.046 0.007 0.019 0.001 0.034-0.015 0.034s-0.022 0.010-0.015 0.021-0.002 0.027-0.021 0.035c-0.019 0.007-0.040 0-0.048-0.015s-0.007-0.003 0.001 0.028c0.010 0.038 0.006 0.052-0.012 0.041-0.047-0.029-0.028 0.041 0.026 0.1 0.041 0.043 0.054 0.090 0.059 0.206 0.003 0.082 0.011 0.171 0.017 0.197s0.012 0.067 0.013 0.090c0.001 0.023 0.028 0.048 0.062 0.057 0.059 0.015 0.060 0.020 0.063 0.264 0.002 0.137 0.005 0.258 0.007 0.267 0.018 0.077 0.046 0.127 0.070 0.124 0.085-0.011 0.088-0.001 0.088 0.315 0 0.255 0.007 0.315 0.036 0.326 0.020 0.008 0.030 0.023 0.024 0.034s0.009 0.035 0.036 0.054c0.042 0.029 0.050 0.069 0.061 0.308 0.007 0.151 0.019 0.301 0.026 0.334s0.015 0.070 0.016 0.083c0.001 0.013 0.024 0.046 0.050 0.072s0.039 0.032 0.028 0.012c-0.013-0.025-0.011-0.029 0.006-0.012 0.014 0.013 0.032 0.189 0.040 0.396 0.008 0.205 0.016 0.387 0.018 0.405s0.034 0.043 0.072 0.056l0.068 0.024 0.003 0.418c0.002 0.23 0.006 0.428 0.009 0.442s0.007 0.034 0.009 0.045c0.002 0.012 0.030 0.028 0.063 0.036 0.054 0.014 0.060 0.028 0.062 0.141 0.004 0.243 0.015 0.654 0.018 0.708l0.003 0.054h0.648c0.6 0 0.648-0.003 0.65-0.042 0.001-0.036 0.005-0.035 0.022 0.006s0.021 0.042 0.022 0.006c0.002-0.037 0.031-0.042 0.248-0.044 0.324-0.002 0.427-0.016 0.484-0.066 0.035-0.031 0.042-0.032 0.026-0.005-0.013 0.023-0.001 0.019 0.032-0.010 0.056-0.049 0.070-0.076 0.024-0.048-0.017 0.011-0.021 0.007-0.011-0.011s0.104-0.028 0.267-0.028c0.273 0 0.297-0.012 0.287-0.15-0.003-0.036 0.004-0.066 0.015-0.066 0.050 0 0.073-0.1 0.033-0.144s-0.055-0.091-0.058-0.184c-0.001-0.037-0.022-0.056-0.069-0.067-0.049-0.011-0.073-0.035-0.090-0.092-0.018-0.059-0.038-0.079-0.089-0.085-0.055-0.006-0.066-0.019-0.066-0.078 0-0.045-0.013-0.071-0.036-0.073-0.020-0.002-0.049-0.004-0.066-0.006s-0.033-0.032-0.037-0.068c-0.007-0.063-0.074-0.108-0.143-0.095-0.019 0.004-0.030-0.022-0.030-0.068 0-0.126-0.069-0.229-0.147-0.22-0.008 0.001-0.022-0.041-0.030-0.093-0.013-0.081-0.024-0.095-0.075-0.095-0.046 0-0.060-0.012-0.060-0.055 0-0.030-0.013-0.068-0.029-0.084s-0.054-0.029-0.084-0.029c-0.046 0-0.055-0.013-0.056-0.078-0.001-0.085-0.052-0.196-0.093-0.201-0.014-0.002-0.037-0.004-0.050-0.006s-0.024-0.025-0.024-0.053c0-0.075-0.044-0.142-0.094-0.142-0.032 0-0.049-0.024-0.060-0.085-0.009-0.047-0.029-0.083-0.045-0.081-0.095 0.012-0.113-0.003-0.113-0.092-0.001-0.15-0.023-0.199-0.099-0.214-0.057-0.011-0.069-0.026-0.069-0.083s-0.012-0.072-0.071-0.084c-0.065-0.013-0.072-0.024-0.087-0.147-0.015-0.117-0.024-0.136-0.085-0.159-0.039-0.015-0.069-0.044-0.069-0.067 0-0.082-0.029-0.117-0.099-0.117-0.068 0-0.069-0.003-0.069-0.127 0-0.131-0.028-0.185-0.098-0.185-0.025 0-0.045-0.026-0.054-0.071-0.014-0.072-0.097-0.176-0.121-0.152-0.007 0.007-0.019-0.018-0.027-0.056-0.033-0.163-0.048-0.189-0.115-0.196-0.058-0.007-0.066-0.017-0.066-0.097 0-0.049-0.014-0.104-0.030-0.122-0.023-0.025-0.023-0.029-0-0.016 0.020 0.011 0.025 0.005 0.016-0.018-0.007-0.019-0.037-0.041-0.066-0.048-0.039-0.010-0.061-0.043-0.083-0.125-0.016-0.062-0.036-0.106-0.044-0.098-0.019 0.018-0.079-0.038-0.065-0.061 0.006-0.010 0-0.018-0.013-0.018s-0.027-0.040-0.031-0.090c-0.007-0.079-0.016-0.091-0.079-0.102-0.070-0.012-0.072-0.016-0.079-0.162-0.005-0.094-0.018-0.151-0.036-0.154-0.016-0.002-0.045-0.005-0.064-0.006s-0.046-0.035-0.060-0.074c-0.026-0.077-0.084-0.135-0.115-0.116-0.010 0.006-0.016-0.002-0.012-0.020 0.007-0.033-0.061-0.047-0.13-0.029z"></path>
    <path fill="#f48b04" d="M16.753 1.866c0.001 0.029 0.119 0.107 0.119 0.079 0-0.014-0.011-0.025-0.025-0.025s-0.018-0.012-0.008-0.028c0.011-0.017 0.007-0.021-0.011-0.011-0.015 0.009-0.028 0.006-0.028-0.008s-0.011-0.025-0.024-0.025c-0.013 0-0.024 0.008-0.023 0.018zM17.922 3.304c-0.066 0.017-0.097 0.185-0.085 0.458 0.012 0.285 0.020 0.297 0.198 0.312 0.127 0.011 0.133 0.014 0.133 0.079 0 0.057 0.013 0.072 0.078 0.088 0.061 0.016 0.080 0.035 0.086 0.085 0.006 0.054 0.019 0.065 0.078 0.065 0.054 0 0.070 0.011 0.070 0.046 0 0.080 0.066 0.122 0.192 0.122 0.114 0 0.117 0.002 0.124 0.078 0.007 0.069 0.017 0.079 0.085 0.085s0.078 0.016 0.078 0.078c0 0.065 0.007 0.071 0.084 0.071 0.080 0 0.084 0.004 0.084 0.084 0 0.077 0.006 0.084 0.072 0.084 0.059 0 0.072 0.010 0.072 0.054 0 0.122 0.048 0.229 0.108 0.244 0.042 0.010 0.060 0.031 0.060 0.070 0 0.070 0.043 0.112 0.113 0.112 0.045 0 0.055 0.013 0.055 0.073 0 0.061 0.011 0.075 0.071 0.087 0.054 0.011 0.072 0.029 0.078 0.077 0.006 0.052 0.021 0.065 0.085 0.071 0.077 0.007 0.078 0.009 0.078 0.132 0 0.147 0.015 0.177 0.096 0.188 0.048 0.007 0.061 0.024 0.067 0.086 0.007 0.068 0.016 0.078 0.075 0.078 0.066 0 0.068 0.005 0.084 0.156 0.016 0.153 0.018 0.156 0.087 0.156 0.064 0 0.070 0.007 0.070 0.084 0 0.046 0.010 0.084 0.021 0.084s0.027 0.022 0.034 0.050c0.007 0.027 0.035 0.055 0.061 0.062 0.037 0.010 0.050 0.036 0.056 0.112 0.006 0.089 0.015 0.1 0.073 0.107 0.062 0.007 0.066 0.015 0.066 0.124 0 0.136 0.017 0.192 0.059 0.192 0.061 0 0.109 0.087 0.109 0.2v0.112h0.168v0.211c0 0.218 0.019 0.269 0.101 0.269 0.036 0 0.044 0.021 0.045 0.126 0.002 0.162 0.048 0.288 0.114 0.318 0.046 0.021 0.052 0.042 0.052 0.185 0 0.153 0.005 0.166 0.084 0.245s0.084 0.094 0.084 0.239c0 0.184 0.031 0.278 0.096 0.295 0.043 0.011 0.048 0.033 0.048 0.21 0 0.332 0.020 0.422 0.1 0.449l0.068 0.024 0.002 0.4c0.003 0.459 0.012 0.512 0.095 0.532l0.059 0.014 0.012 3.047-0.068 0.026c-0.090 0.034-0.1 0.090-0.1 0.564 0 0.357-0.003 0.381-0.045 0.381-0.085 0-0.105 0.064-0.118 0.359-0.011 0.271-0.014 0.286-0.066 0.299-0.066 0.017-0.083 0.074-0.083 0.292-0 0.158-0.005 0.172-0.061 0.198-0.079 0.036-0.108 0.117-0.108 0.306 0 0.135-0.006 0.154-0.045 0.154-0.076 0-0.1 0.058-0.115 0.272-0.014 0.199-0.016 0.205-0.077 0.212-0.059 0.007-0.063 0.016-0.070 0.157-0.006 0.122-0.015 0.15-0.048 0.15-0.076 0.001-0.101 0.039-0.119 0.18-0.016 0.124-0.025 0.143-0.078 0.155s-0.063 0.032-0.081 0.163c-0.017 0.12-0.030 0.149-0.065 0.149-0.060 0-0.093 0.072-0.093 0.202 0 0.105-0.003 0.11-0.069 0.11-0.082 0-0.099 0.032-0.099 0.194 0 0.115-0.002 0.118-0.072 0.118-0.065 0-0.073 0.009-0.087 0.094-0.010 0.064-0.029 0.098-0.060 0.106-0.051 0.013-0.094 0.107-0.094 0.208 0 0.060-0.010 0.070-0.078 0.076s-0.079 0.017-0.085 0.083c-0.006 0.061-0.020 0.078-0.076 0.089-0.063 0.013-0.069 0.024-0.085 0.159-0.016 0.14-0.019 0.145-0.086 0.145-0.064 0-0.070 0.007-0.070 0.084 0 0.080-0.004 0.084-0.084 0.084-0.077 0-0.084 0.006-0.084 0.070 0 0.058-0.012 0.073-0.070 0.086-0.053 0.012-0.074 0.033-0.086 0.084s-0.031 0.071-0.080 0.076c-0.053 0.006-0.066 0.021-0.072 0.085-0.007 0.068-0.016 0.078-0.075 0.078-0.069 0-0.097 0.035-0.097 0.122 0 0.035-0.017 0.046-0.072 0.046-0.064 0-0.072 0.008-0.072 0.071s-0.009 0.071-0.078 0.078c-0.068 0.007-0.079 0.017-0.085 0.084s-0.017 0.078-0.084 0.084c-0.063 0.006-0.078 0.019-0.084 0.071-0.006 0.048-0.024 0.067-0.079 0.078s-0.074 0.030-0.086 0.087c-0.012 0.060-0.026 0.072-0.084 0.072-0.063 0-0.069 0.008-0.069 0.084 0 0.081-0.003 0.084-0.090 0.084-0.139 0.001-0.197 0.024-0.213 0.087-0.008 0.034-0.032 0.057-0.058 0.057-0.083 0-0.119 0.029-0.119 0.095 0 0.062-0.008 0.067-0.123 0.081-0.137 0.016-0.189 0.048-0.189 0.115 0 0.036-0.018 0.045-0.084 0.045-0.076 0-0.084 0.006-0.084 0.069 0 0.067-0.004 0.069-0.146 0.082-0.176 0.016-0.166 0.006-0.183 0.169-0.022 0.215 0.004 0.305 0.090 0.305 0.065 0 0.071 0.007 0.071 0.085v0.085l0.61-0.013 0.022-0.078c0.019-0.065 0.034-0.078 0.091-0.078 0.060 0 0.069-0.009 0.069-0.072 0-0.072 0.001-0.072 0.139-0.072 0.15 0 0.197-0.027 0.197-0.113 0-0.048 0.012-0.055 0.090-0.056 0.147-0.001 0.194-0.022 0.21-0.097 0.012-0.055 0.030-0.070 0.091-0.076s0.078-0.019 0.084-0.072c0.006-0.050 0.022-0.066 0.072-0.072 0.053-0.006 0.066-0.021 0.072-0.084 0.007-0.076 0.008-0.077 0.155-0.084 0.144-0.007 0.148-0.009 0.167-0.085 0.017-0.066 0.031-0.078 0.091-0.078 0.063 0 0.071-0.008 0.071-0.070s0.009-0.071 0.078-0.078c0.068-0.007 0.079-0.017 0.085-0.084s0.017-0.078 0.084-0.084c0.067-0.007 0.078-0.017 0.084-0.085s0.016-0.078 0.078-0.078c0.062 0 0.071-0.008 0.071-0.072 0-0.066 0.007-0.072 0.084-0.072 0.080 0 0.084-0.004 0.084-0.084s0.004-0.084 0.084-0.084c0.080 0 0.084-0.004 0.084-0.084 0-0.077 0.006-0.084 0.072-0.084 0.064 0 0.072-0.008 0.072-0.072 0-0.066 0.007-0.072 0.084-0.072 0.080 0 0.084-0.004 0.084-0.082 0-0.075 0.007-0.083 0.078-0.090 0.069-0.007 0.079-0.017 0.085-0.085s0.016-0.078 0.078-0.078c0.062 0 0.071-0.008 0.071-0.072 0-0.055 0.011-0.072 0.046-0.072 0.087 0 0.122-0.028 0.122-0.097 0-0.056 0.011-0.069 0.066-0.075 0.057-0.007 0.069-0.023 0.090-0.118 0.026-0.12 0.071-0.189 0.123-0.189 0.022 0 0.033-0.028 0.033-0.082 0-0.075 0.007-0.083 0.078-0.090 0.069-0.007 0.079-0.017 0.085-0.086 0.005-0.057 0.020-0.078 0.051-0.078 0.065 0 0.098-0.054 0.114-0.189 0.014-0.115 0.018-0.123 0.083-0.123 0.062 0 0.069-0.008 0.069-0.079 0-0.065 0.012-0.083 0.068-0.105 0.069-0.026 0.1-0.101 0.1-0.24 0-0.045 0.013-0.057 0.059-0.057 0.075 0 0.109-0.062 0.109-0.201 0-0.1 0.005-0.109 0.072-0.123 0.071-0.016 0.072-0.018 0.072-0.168v-0.153l0.078-0.008c0.078-0.008 0.078-0.008 0.085-0.155 0.007-0.14 0.010-0.148 0.075-0.161 0.072-0.014 0.098-0.080 0.098-0.244 0-0.058 0.012-0.081 0.048-0.091 0.065-0.017 0.096-0.111 0.096-0.29 0-0.148 0.001-0.15 0.078-0.172l0.078-0.023 0.014-0.446 0.069-0.014c0.081-0.016 0.098-0.072 0.098-0.321 0-0.142 0.006-0.164 0.048-0.175 0.076-0.020 0.096-0.118 0.096-0.461 0-0.313 0.001-0.321 0.053-0.328 0.115-0.016 0.114-0.002 0.114-2.1 0-2.132 0.005-2.048-0.121-2.048-0.044 0-0.046-0.021-0.046-0.367 0-0.379-0.011-0.425-0.101-0.425-0.038 0-0.043-0.023-0.043-0.193 0-0.211-0.039-0.338-0.118-0.388-0.042-0.026-0.050-0.055-0.050-0.19 0-0.201-0.035-0.306-0.109-0.324-0.051-0.013-0.057-0.029-0.064-0.174-0.007-0.154-0.009-0.16-0.073-0.167s-0.066-0.014-0.066-0.136c0-0.138-0.039-0.204-0.122-0.204-0.041 0-0.046-0.018-0.046-0.142 0-0.177-0.030-0.258-0.108-0.294-0.051-0.023-0.060-0.044-0.060-0.133 0-0.129-0.034-0.199-0.097-0.199-0.035 0-0.047-0.016-0.047-0.063 0-0.072-0.080-0.213-0.131-0.233-0.019-0.007-0.037-0.054-0.042-0.104-0.007-0.084-0.014-0.092-0.085-0.099-0.077-0.007-0.078-0.009-0.078-0.133 0-0.132-0.028-0.183-0.101-0.183-0.027 0-0.043-0.018-0.043-0.046 0-0.087-0.028-0.122-0.099-0.122-0.066 0-0.069-0.005-0.069-0.11 0-0.139-0.034-0.202-0.107-0.202-0.047 0-0.059-0.014-0.065-0.078s-0.018-0.079-0.073-0.086c-0.050-0.006-0.066-0.021-0.066-0.061 0-0.069-0.043-0.111-0.113-0.111-0.047 0-0.055-0.012-0.055-0.082 0-0.123-0.037-0.198-0.106-0.215-0.049-0.012-0.062-0.030-0.062-0.085 0-0.058-0.011-0.071-0.065-0.078-0.050-0.006-0.069-0.025-0.085-0.086-0.017-0.066-0.031-0.078-0.090-0.078-0.061 0-0.071-0.010-0.077-0.078s-0.017-0.079-0.086-0.085c-0.069-0.007-0.078-0.016-0.078-0.079 0-0.060-0.012-0.073-0.071-0.085-0.054-0.011-0.072-0.029-0.078-0.077-0.006-0.052-0.021-0.065-0.084-0.071-0.067-0.006-0.078-0.017-0.084-0.084s-0.017-0.078-0.085-0.084c-0.069-0.007-0.078-0.016-0.078-0.079 0-0.059-0.012-0.073-0.069-0.085-0.053-0.011-0.073-0.031-0.083-0.083-0.012-0.058-0.026-0.069-0.085-0.069-0.063 0-0.072-0.009-0.079-0.078s-0.017-0.079-0.083-0.085c-0.061-0.006-0.078-0.020-0.089-0.076-0.013-0.063-0.024-0.069-0.159-0.085-0.14-0.016-0.145-0.019-0.145-0.086 0-0.064-0.007-0.070-0.084-0.070-0.080 0-0.084-0.004-0.084-0.084 0-0.077-0.006-0.084-0.073-0.084-0.061 0-0.075-0.011-0.087-0.070-0.013-0.067-0.022-0.071-0.167-0.087-0.149-0.016-0.153-0.018-0.153-0.086v-0.069l-0.174 0.003c-0.096 0.002-0.193 0.008-0.216 0.014zM5.226 3.614c-0.010 0.010-0.018 0.049-0.018 0.086 0 0.062-0.008 0.068-0.084 0.068-0.077 0-0.084 0.006-0.084 0.072 0 0.061-0.009 0.072-0.061 0.072-0.104 0-0.227 0.064-0.227 0.119 0 0.038-0.015 0.049-0.067 0.049-0.082 0-0.125 0.039-0.125 0.113 0 0.045-0.013 0.055-0.070 0.055s-0.073 0.012-0.085 0.069c-0.011 0.052-0.033 0.073-0.086 0.083-0.059 0.012-0.071 0.026-0.071 0.085 0 0.063-0.009 0.072-0.078 0.079s-0.079 0.017-0.085 0.085c-0.007 0.069-0.016 0.078-0.079 0.078-0.059 0-0.073 0.012-0.085 0.069-0.010 0.053-0.031 0.073-0.083 0.083-0.058 0.012-0.069 0.026-0.069 0.085 0 0.063-0.009 0.072-0.078 0.079s-0.079 0.017-0.085 0.085c-0.007 0.068-0.016 0.078-0.077 0.078-0.059 0-0.073 0.012-0.090 0.078-0.016 0.061-0.035 0.080-0.085 0.086-0.053 0.006-0.065 0.020-0.065 0.076s-0.013 0.071-0.070 0.084c-0.076 0.017-0.098 0.063-0.098 0.211-0 0.078-0.008 0.090-0.055 0.090-0.070 0-0.113 0.042-0.113 0.111 0 0.041-0.016 0.055-0.066 0.061-0.055 0.006-0.067 0.021-0.073 0.086-0.007 0.068-0.016 0.078-0.075 0.078-0.080 0-0.097 0.033-0.097 0.194 0 0.114-0.002 0.118-0.069 0.118-0.070 0-0.099 0.035-0.099 0.12 0 0.031-0.021 0.047-0.066 0.052-0.063 0.007-0.066 0.014-0.073 0.156-0.007 0.148-0.007 0.149-0.084 0.156-0.066 0.006-0.079 0.018-0.089 0.086-0.008 0.053-0.032 0.089-0.072 0.108-0.046 0.023-0.065 0.059-0.084 0.161-0.019 0.101-0.036 0.133-0.072 0.14-0.068 0.013-0.083 0.047-0.083 0.189-0 0.107-0.007 0.126-0.045 0.126-0.071 0-0.102 0.059-0.116 0.221-0.011 0.133-0.022 0.16-0.094 0.228-0.073 0.069-0.081 0.090-0.081 0.208 0 0.126-0.003 0.132-0.066 0.139s-0.066 0.013-0.073 0.17c-0.006 0.138-0.013 0.162-0.051 0.162-0.078 0-0.106 0.068-0.118 0.284-0.009 0.172-0.019 0.214-0.058 0.241-0.077 0.054-0.114 0.179-0.114 0.386 0 0.151-0.007 0.193-0.034 0.193-0.094 0-0.11 0.062-0.11 0.444v0.369l-0.066 0.008c-0.097 0.011-0.096-0.014-0.099 1.94-0.003 1.974-0.003 1.963 0.097 2.001l0.068 0.026v0.344c0 0.359 0.017 0.437 0.097 0.437 0.043 0 0.047 0.018 0.050 0.186 0.003 0.251 0.020 0.304 0.1 0.313 0.064 0.008 0.064 0.008 0.071 0.24l0.007 0.232 0.156 0.015v0.454l0.072 0.014c0.066 0.013 0.072 0.023 0.072 0.113 0.001 0.165 0.020 0.207 0.099 0.207 0.069 0 0.069 0 0.069 0.155 0 0.145 0.005 0.16 0.084 0.239 0.064 0.064 0.084 0.104 0.084 0.167 0 0.060 0.020 0.103 0.072 0.155 0.040 0.040 0.072 0.094 0.072 0.12 0 0.064 0.024 0.124 0.051 0.124 0.059 0 0.117 0.101 0.117 0.203s0.003 0.107 0.084 0.123c0.075 0.014 0.084 0.024 0.084 0.091 0.001 0.125 0.026 0.183 0.087 0.198 0.036 0.009 0.057 0.032 0.057 0.061 0 0.080 0.046 0.14 0.109 0.14 0.050 0 0.060 0.012 0.062 0.078 0.004 0.134 0.032 0.195 0.095 0.21 0.046 0.011 0.061 0.032 0.067 0.092 0.006 0.064 0.020 0.080 0.077 0.092 0.052 0.010 0.071 0.029 0.076 0.077 0.006 0.052 0.021 0.065 0.085 0.071s0.078 0.018 0.078 0.063c0 0.137 0.031 0.212 0.099 0.238 0.050 0.019 0.069 0.044 0.074 0.099 0.006 0.060 0.019 0.075 0.072 0.081s0.068 0.023 0.081 0.090c0.013 0.071 0.025 0.083 0.085 0.083s0.069 0.009 0.069 0.069c0 0.071 0.035 0.099 0.122 0.099 0.035 0 0.046 0.017 0.046 0.072 0 0.064 0.008 0.072 0.072 0.072 0.055 0 0.072 0.011 0.072 0.046 0 0.087 0.028 0.122 0.099 0.122 0.061 0 0.069 0.009 0.069 0.069 0 0.071 0.035 0.099 0.122 0.099 0.035 0 0.046 0.017 0.046 0.072 0 0.063 0.008 0.072 0.069 0.072s0.071 0.011 0.085 0.084c0.014 0.073 0.025 0.084 0.085 0.084 0.057 0 0.071 0.011 0.077 0.065 0.006 0.050 0.025 0.069 0.086 0.085 0.043 0.011 0.078 0.031 0.078 0.043 0 0.061 0.099 0.119 0.204 0.119 0.107 0 0.108 0 0.108 0.084 0 0.080 0.004 0.084 0.084 0.084 0.077 0 0.084 0.006 0.084 0.069 0 0.070 0.035 0.099 0.12 0.099 0.031 0 0.047 0.021 0.052 0.066 0.007 0.063 0.014 0.066 0.158 0.073l0.15 0.007v0.083c0 0.078 0.004 0.083 0.082 0.083 0.072 0 0.083 0.008 0.090 0.066 0.007 0.061 0.018 0.068 0.158 0.088 0.143 0.021 0.15 0.025 0.15 0.090s0.006 0.068 0.108 0.068c0.113 0 0.204 0.059 0.204 0.132 0 0.025 0.025 0.036 0.084 0.036 0.066 0 0.084 0.010 0.084 0.045 0 0.066 0.046 0.094 0.182 0.112 0.105 0.014 0.125 0.025 0.147 0.086 0.025 0.066 0.033 0.069 0.175 0.069 0.129 0 0.15 0.006 0.161 0.049 0.023 0.090 0.127 0.119 0.42 0.119 0.357-0 0.342 0.014 0.342-0.32 0.001-0.32 0.010-0.304-0.177-0.321-0.141-0.013-0.146-0.015-0.146-0.082 0-0.068-0-0.069-0.154-0.069h-0.154l-0.008-0.078c-0.008-0.078-0.008-0.078-0.158-0.085-0.137-0.007-0.15-0.012-0.15-0.061 0-0.069-0.043-0.112-0.113-0.112-0.037 0-0.055-0.014-0.055-0.043 0-0.073-0.052-0.101-0.185-0.101-0.109 0-0.127-0.006-0.127-0.046 0-0.086-0.028-0.122-0.096-0.122-0.054 0-0.069-0.013-0.080-0.070-0.013-0.065-0.023-0.071-0.158-0.086-0.133-0.015-0.144-0.022-0.151-0.081-0.006-0.052-0.021-0.065-0.084-0.071-0.067-0.006-0.078-0.017-0.084-0.084s-0.017-0.078-0.085-0.084c-0.068-0.007-0.078-0.016-0.078-0.075s-0.012-0.070-0.082-0.083c-0.067-0.013-0.084-0.028-0.090-0.081-0.006-0.051-0.022-0.067-0.072-0.073-0.049-0.006-0.068-0.024-0.080-0.076s-0.033-0.073-0.086-0.084c-0.045-0.010-0.070-0.031-0.070-0.057 0-0.057-0.047-0.099-0.113-0.099-0.043 0-0.055-0.013-0.055-0.062 0-0.046-0.018-0.069-0.070-0.088-0.048-0.018-0.074-0.048-0.084-0.094-0.010-0.052-0.031-0.071-0.086-0.082-0.060-0.012-0.072-0.026-0.072-0.084 0-0.060-0.009-0.069-0.069-0.069s-0.071-0.011-0.085-0.084c-0.014-0.073-0.025-0.084-0.085-0.084s-0.070-0.010-0.077-0.078c-0.007-0.068-0.017-0.079-0.084-0.085s-0.078-0.017-0.084-0.084c-0.006-0.063-0.019-0.078-0.073-0.084-0.059-0.007-0.066-0.017-0.066-0.1 0-0.143-0.036-0.216-0.107-0.216-0.051 0-0.061-0.011-0.061-0.069 0-0.071-0.035-0.099-0.122-0.099-0.040 0-0.046-0.018-0.046-0.145 0-0.141-0.002-0.145-0.072-0.159-0.054-0.011-0.072-0.028-0.072-0.067 0-0.067-0.043-0.11-0.112-0.11-0.050 0-0.055-0.013-0.061-0.15-0.007-0.15-0.007-0.15-0.084-0.157s-0.077-0.008-0.084-0.156c-0.007-0.142-0.010-0.149-0.073-0.156-0.060-0.007-0.066-0.016-0.066-0.108-0.001-0.158-0.021-0.205-0.092-0.213-0.059-0.007-0.064-0.017-0.071-0.139-0.008-0.15-0.034-0.193-0.115-0.193-0.054 0-0.057-0.008-0.057-0.156v-0.156h-0.144l-0.003-0.162c-0.004-0.25-0.022-0.305-0.099-0.314l-0.066-0.008v-0.21c0-0.223-0.019-0.267-0.112-0.267-0.052 0-0.055-0.009-0.061-0.234l-0.007-0.234-0.132-0.015-0.002-0.256c-0.003-0.324-0.016-0.374-0.101-0.384l-0.065-0.008-0-0.436c-0-0.487-0.021-0.607-0.109-0.641l-0.059-0.022v-2.444l0.055-0.036c0.090-0.059 0.112-0.19 0.112-0.65 0-0.398 0.003-0.423 0.045-0.423 0.093 0 0.11-0.063 0.119-0.436l0.009-0.356h0.139v-0.48h0.069c0.088 0 0.099-0.029 0.099-0.276 0-0.2 0-0.2 0.065-0.208 0.080-0.009 0.097-0.062 0.101-0.302l0.002-0.174h0.144v-0.156c0-0.147 0.003-0.156 0.055-0.156 0.086 0 0.113-0.046 0.113-0.195 0-0.132 0.003-0.138 0.066-0.145 0.061-0.007 0.068-0.018 0.088-0.158 0.014-0.092 0.034-0.15 0.052-0.15 0.064 0 0.105-0.076 0.105-0.194 0-0.101 0.007-0.118 0.046-0.118 0.080 0 0.122-0.066 0.122-0.194 0-0.101 0.007-0.118 0.046-0.118 0.083 0 0.122-0.066 0.122-0.206 0-0.129 0.001-0.13 0.072-0.13 0.063 0 0.072-0.009 0.072-0.067 0-0.055 0.014-0.071 0.078-0.090 0.071-0.021 0.079-0.033 0.085-0.126 0.007-0.103 0.053-0.173 0.132-0.204 0.023-0.009 0.040-0.041 0.040-0.075 0-0.047 0.014-0.061 0.066-0.067 0.055-0.006 0.067-0.021 0.073-0.084 0.006-0.067 0.017-0.078 0.084-0.084s0.078-0.017 0.084-0.083c0.006-0.062 0.020-0.078 0.078-0.089 0.053-0.011 0.071-0.028 0.071-0.069 0-0.067 0.022-0.101 0.079-0.122 0.024-0.009 0.054-0.047 0.067-0.086s0.046-0.076 0.073-0.082c0.027-0.007 0.054-0.035 0.061-0.062s0.023-0.050 0.034-0.050c0.012 0 0.021-0.032 0.021-0.071 0-0.062 0.009-0.071 0.078-0.078s0.079-0.017 0.085-0.085c0.007-0.076 0.010-0.078 0.124-0.078 0.126 0 0.192-0.042 0.192-0.122 0-0.035 0.017-0.046 0.070-0.046 0.058 0 0.073-0.012 0.086-0.070 0.012-0.053 0.033-0.074 0.086-0.086l0.070-0.015v-0.257c0-0.35 0.002-0.347-0.328-0.359-0.143-0.005-0.268-0-0.278 0.010zM12.641 4.611c-0.029 0.017-0.038 0.041-0.027 0.074s0.007 0.044-0.011 0.033c-0.015-0.009-0.027-0.006-0.027 0.008s0.011 0.031 0.024 0.039c0.013 0.008 0.024 0.004 0.024-0.010s0.024-0.046 0.053-0.073c0.049-0.046 0.034-0.071-0.018-0.031-0.013 0.010-0.003-0.001 0.022-0.024 0.050-0.046 0.028-0.055-0.039-0.015zM14.523 11.065c-0.031 0.026-0.045 0.047-0.031 0.047s0.032-0.011 0.040-0.024c0.008-0.013 0.023-0.019 0.033-0.013s0.018-0.004 0.018-0.024c0-0.019-0.001-0.035-0.002-0.034s-0.027 0.022-0.059 0.048zM14.398 11.986c-0.001 0.001-0.005 0.020-0.010 0.042-0.009 0.046 0.049 0.034 0.067-0.014 0.008-0.022-0.041-0.046-0.058-0.028zM13.555 16.141c-0.008 0.013 0 0.036 0.017 0.052 0.025 0.023 0.034 0.021 0.045-0.007 0.008-0.020 0.004-0.030-0.008-0.023s-0.026 0-0.031-0.016c-0.005-0.016-0.016-0.019-0.024-0.006zM13.885 17.483c0.053 0.040 0.117 0.049 0.094 0.012-0.008-0.013-0.024-0.019-0.036-0.012s-0.027 0.002-0.036-0.012c-0.008-0.013-0.027-0.024-0.042-0.024s-0.006 0.016 0.019 0.035zM14.414 17.907c0.006 0.010-0.008 0.030-0.031 0.043-0.033 0.019-0.035 0.025-0.006 0.026 0.020 0 0.049-0.019 0.064-0.043 0.022-0.035 0.020-0.044-0.005-0.044-0.018 0-0.027 0.008-0.021 0.019zM14.148 17.976c-0.035 0.015-0.016 0.021 0.072 0.021s0.107-0.005 0.072-0.021c-0.026-0.011-0.059-0.021-0.072-0.021s-0.046 0.009-0.072 0.021zM11.749 18.214c-0.044 0.017-0.043 0.019 0.008 0.033 0.037 0.010 0.049 0.025 0.037 0.046-0.010 0.017-0.009 0.024 0.001 0.014s0.032-0.007 0.048 0.006c0.036 0.030 0.041-0.046 0.006-0.090-0.026-0.034-0.034-0.034-0.101-0.008zM11.485 18.578c0.008 0.013 0.023 0.018 0.035 0.011s0.025 0.001 0.031 0.018c0.006 0.017 0.019 0.022 0.030 0.012 0.025-0.024 0.006-0.041-0.058-0.054-0.029-0.006-0.046 0-0.038 0.013zM12.72 19.8c0 0.013 0.011 0.024 0.025 0.024s0.018 0.012 0.008 0.028c-0.010 0.017-0.007 0.021 0.009 0.011 0.014-0.009 0.037 0.003 0.050 0.026s0.032 0.034 0.043 0.023c0.011-0.011 0.005-0.028-0.012-0.038s-0.032-0.029-0.032-0.041c-0-0.012-0.010-0.019-0.022-0.015s-0.022-0.005-0.022-0.018c0-0.013-0.011-0.024-0.024-0.024s-0.024 0.011-0.024 0.024zM15.321 23.347c-0.028 0.018-0.025 0.095 0.005 0.121 0.010 0.009 0.011-0.002 0.003-0.024s-0-0.045 0.017-0.052c0.021-0.008 0.028 0.002 0.020 0.032-0.006 0.024-0 0.064 0.013 0.088 0.020 0.036 0.024 0.027 0.020-0.046-0.006-0.098-0.038-0.146-0.079-0.119z"></path>
</svg>