<svg xmlns="http://www.w3.org/2000/svg" viewBox="0 0 24 24">
    <path fill="#fcfcfc" d="M10.632 0.036c0 0.031-0.080 0.036-0.574 0.036-0.32 0-0.602 0.010-0.637 0.024l-0.062 0.024 0.007 0.294 0.007 0.294 0.155 0.015 0.007 0.389 0.007 0.389 0.132 0.015 0.001 0.292c0.002 0.406 0.018 0.482 0.101 0.492l0.066 0.008v0.369c0 0.391 0.014 0.444 0.121 0.444 0.043 0 0.046 0.025 0.052 0.39l0.007 0.39 0.132 0.015v0.284c0 0.336 0.007 0.36 0.099 0.36h0.069v0.792h0.167l0.007 0.402 0.007 0.402 0.132 0.015 0 0.34c0 0.417 0.007 0.448 0.098 0.448h0.069l0.013 0.78 0.156 0.015v0.79l0.144 0.029 0 0.339c0 0.416 0.007 0.447 0.098 0.447h0.069l0.013 0.78 0.156 0.015v0.785l0.144 0.032v0.333c0 0.379 0.018 0.456 0.107 0.456h0.061v0.367c0 0.388 0.010 0.425 0.112 0.425 0.054 0 0.055 0.002 0.061 0.39l0.007 0.39 0.132 0.015v0.283c0 0.425 0.015 0.505 0.099 0.522l0.069 0.014v0.364c0 0.251 0.009 0.373 0.029 0.393 0.022 0.022 0.004 0.029-0.083 0.029h-0.112l-0.007-0.15c-0.007-0.144-0.010-0.15-0.073-0.158l-0.066-0.008-0-0.34c-0-0.417-0.007-0.448-0.098-0.448h-0.069l-0.007-0.389-0.007-0.389-0.156-0.045v-0.364c0-0.376-0.011-0.421-0.101-0.421-0.039 0-0.043-0.029-0.046-0.318-0.004-0.41-0.014-0.46-0.099-0.47l-0.066-0.008v-0.356c0-0.412-0.005-0.432-0.099-0.432h-0.069v-0.379c0-0.391-0.010-0.437-0.1-0.437-0.038 0-0.043-0.032-0.049-0.306l-0.007-0.306-0.155-0.046-0.007-0.385-0.007-0.385-0.156-0.015v-0.789h-0.144v-0.37c0-0.393-0.014-0.446-0.121-0.446-0.043 0-0.046-0.025-0.052-0.39l-0.007-0.39-0.156-0.015v-0.789h-0.144l-0-0.342c-0-0.411-0.007-0.441-0.097-0.459l-0.069-0.014-0.013-0.781-0.155-0.015-0.007-0.389-0.007-0.388-0.132-0.015-0-0.34c-0-0.41-0.007-0.439-0.098-0.457l-0.070-0.014v-0.359c0-0.381-0.015-0.434-0.121-0.434-0.043 0-0.046-0.025-0.052-0.39l-0.007-0.39-0.066-0.008c-0.045-0.005-0.066-0.021-0.066-0.052 0-0.11-0.020-0.12-0.226-0.12-0.21 0-0.254 0.020-0.254 0.113 0 0.054-0.006 0.055-0.24 0.055h-0.24v0.144l-0.186 0c-0.255 0-0.294 0.013-0.294 0.098v0.068l-0.468 0.014-0.008 0.078-0.008 0.078h-0.153c-0.15 0-0.153 0.001-0.168 0.072-0.013 0.060-0.028 0.072-0.086 0.072h-0.070v0.295c0 0.302 0.014 0.353 0.097 0.353 0.031 0 0.045 0.035 0.061 0.15 0.020 0.14 0.026 0.151 0.087 0.158s0.066 0.015 0.066 0.124c0 0.16 0.017 0.192 0.099 0.192 0.069 0 0.069 0.002 0.069 0.139 0 0.142 0.027 0.197 0.097 0.197 0.031 0 0.045 0.035 0.061 0.15 0.020 0.139 0.026 0.151 0.086 0.158 0.062 0.007 0.065 0.015 0.072 0.156 0.007 0.144 0.009 0.149 0.084 0.171s0.077 0.027 0.084 0.168c0.007 0.138 0.010 0.146 0.072 0.153s0.065 0.015 0.072 0.156c0.007 0.148 0.007 0.149 0.085 0.156l0.078 0.008v0.21c0 0.223 0.019 0.267 0.112 0.267 0.050 0 0.055 0.012 0.061 0.162 0.007 0.157 0.009 0.162 0.073 0.17s0.066 0.013 0.069 0.156c0.005 0.235 0.023 0.291 0.098 0.3 0.062 0.007 0.065 0.013 0.072 0.168l0.007 0.16 0.154 0.015 0.007 0.232 0.007 0.233 0.066 0.008c0.065 0.008 0.066 0.009 0.066 0.184 0 0.224 0.027 0.3 0.107 0.3 0.059 0 0.060 0.003 0.067 0.234l0.007 0.234 0.154 0.015 0.007 0.232 0.007 0.233 0.066 0.008c0.065 0.008 0.066 0.009 0.066 0.184 0 0.224 0.027 0.3 0.107 0.3 0.059 0 0.060 0.003 0.067 0.234l0.007 0.234 0.156 0.015v0.477h0.144v0.237c0 0.328 0.013 0.381 0.099 0.4l0.069 0.015v0.281c0 0.298 0.013 0.339 0.113 0.339 0.054 0 0.055 0.006 0.055 0.24v0.24h0.144l0 0.27c0 0.344 0.009 0.378 0.099 0.378h0.069v0.309c0 0.328 0.004 0.339 0.122 0.339 0.043 0 0.046 0.021 0.046 0.367 0 0.379 0.011 0.425 0.101 0.425 0.039 0 0.043 0.027 0.043 0.286 0 0.303 0.020 0.362 0.121 0.362 0.043 0 0.046 0.025 0.052 0.39l0.007 0.39 0.156 0.015v0.789h-0.082c-0.072 0-0.083-0.008-0.090-0.066-0.006-0.055-0.021-0.067-0.085-0.073l-0.077-0.007-0.007-0.473-0.006-0.473-0.132-0.015-0.003-0.316c-0.004-0.408-0.014-0.458-0.099-0.468l-0.065-0.008-0.007-0.316-0.007-0.317-0.156-0.015v-0.645h-0.143l-0.013-0.612-0.156-0.046v-0.614h-0.167l-0.007-0.318-0.007-0.318h-0.288v1.416l0.156 0.015v2.397h0.144v0.477l-0.132 0.015-0.006 1.277-0.006 1.276-0.156 0.015-0.006 0.547-0.006 0.547-0.069 0.014c-0.090 0.018-0.098 0.061-0.098 0.55v0.391l-0.144 0.032v0.31c0 0.29-0.003 0.31-0.046 0.31-0.102 0-0.122 0.058-0.122 0.36v0.285l-0.066 0.008c-0.098 0.011-0.16 0.796-0.072 0.915 0.028 0.038 0.241 0.040 3.198 0.035l3.168-0.006 0.007-0.441c0.007-0.469-0.001-0.507-0.105-0.507-0.057 0-0.057-0-0.057-0.295 0-0.305-0.014-0.353-0.101-0.353-0.039 0-0.043-0.026-0.043-0.258-0-0.323-0.009-0.357-0.098-0.375l-0.070-0.014v-0.359c0-0.381-0.015-0.434-0.121-0.434-0.043 0-0.046-0.025-0.052-0.39l-0.007-0.39-0.132-0.015-0-0.424c-0-0.507-0.005-0.532-0.099-0.532h-0.069v-0.526c0-0.561-0.008-0.602-0.122-0.602-0.045 0-0.046-0.024-0.046-0.636v-0.636h-0.144l-0-1.062c-0-1.178 0.001-1.159-0.098-1.179l-0.070-0.014v-4.486l0.066-0.008c0.095-0.011 0.096-0.025 0.099-1.19l0.003-1.038h0.144v-1.437l0.156-0.015 0.006-0.546 0.006-0.546h0.055c0.105 0 0.112-0.032 0.112-0.506v-0.448l0.144-0.029v-0.79l0.156-0.015v-0.288l-0.078-0.008c-0.068-0.007-0.078-0.016-0.078-0.075 0-0.092-0.037-0.098-0.711-0.098-0.483 0-0.561-0.005-0.561-0.036s-0.079-0.036-0.564-0.036h-0.564l0.001 1.134c0.002 1.279 0.005 1.323 0.101 1.334l0.066 0.008 0.006 1.672 0.006 1.672 0.155 0.015 0.006 0.953 0.006 0.952 0.132 0.015v0.643c0 0.763 0.004 0.793 0.099 0.793h0.069v0.598c0 0.668 0.001 0.674 0.099 0.674h0.069v0.961l0.144 0.029v0.439c0 0.467 0.011 0.515 0.121 0.515 0.043 0 0.046 0.025 0.052 0.39l0.007 0.39 0.156 0.015v0.789h0.144l0.001 0.294c0.002 0.408 0.017 0.484 0.101 0.494 0.057 0.007 0.066 0.018 0.066 0.090v0.082h-0.312l-0-0.174c-0-0.234-0.014-0.274-0.097-0.291l-0.069-0.014-0.007-0.307-0.007-0.307-0.156-0.015v-0.785l-0.144-0.032v-0.356c0-0.412-0.005-0.432-0.099-0.432h-0.069v-0.514c0-0.579-0.002-0.59-0.099-0.59h-0.069v-0.961l-0.144-0.029v-0.595c0-0.665-0.001-0.671-0.099-0.671h-0.069v-0.754c0-0.833 0-0.83-0.099-0.83h-0.069v-1.914l-0.144-0.029v-1.559c0-1.688 0.003-1.635-0.099-1.635h-0.069v-2.16h-0.564c-0.485 0-0.564 0.005-0.564 0.036zM14.825 0.255c-0.009 0.009-0.017 0.118-0.017 0.241 0 0.205-0.004 0.224-0.046 0.224-0.111 0-0.122 0.047-0.122 0.518v0.442h-0.069c-0.096 0-0.099 0.015-0.099 0.516v0.44l-0.132 0.015-0.006 0.558-0.006 0.558h-0.055c-0.111 0-0.112 0.013-0.112 0.821v0.764l-0.069 0.014c-0.101 0.020-0.099-0.017-0.099 1.836v1.677h-0.145l0.013 1.428 0.132 0.015v0.897c0 1.036-0.003 1.020 0.167 1.020 0.165 0 0.169-0.013 0.169-0.526 0-0.402 0.003-0.434 0.043-0.434 0.094 0 0.101-0.038 0.101-0.591v-0.534l0.156-0.015 0.006-0.474 0.007-0.474h0.069c0.093 0 0.098-0.021 0.098-0.434v-0.358h0.144v-0.645l0.156-0.015 0.007-0.306c0.007-0.3 0.008-0.306 0.061-0.306 0.095 0 0.112-0.044 0.112-0.279v-0.222l0.132-0.015 0.007-0.305 0.007-0.305 0.155-0.015 0.007-0.234c0.007-0.23 0.008-0.234 0.065-0.234 0.083 0 0.108-0.065 0.108-0.286 0-0.17 0.005-0.194 0.043-0.194 0.082 0 0.101-0.051 0.101-0.267v-0.21l0.156-0.015 0.007-0.234c0.007-0.23 0.008-0.234 0.065-0.234 0.083 0 0.108-0.065 0.108-0.285 0-0.192 0-0.192 0.066-0.2 0.063-0.007 0.067-0.015 0.078-0.164 0.011-0.144 0.016-0.157 0.072-0.164 0.085-0.012 0.095-0.039 0.096-0.262 0-0.179 0.005-0.198 0.047-0.198 0.094 0 0.122-0.063 0.122-0.276v-0.201l0.066-0.008c0.064-0.007 0.066-0.013 0.073-0.17l0.007-0.162h0.166v-0.156c0-0.15 0.002-0.156 0.059-0.156 0.092 0 0.111-0.068 0.104-0.366l-0.007-0.27-0.077-0.007c-0.063-0.006-0.078-0.019-0.084-0.072-0.007-0.062-0.014-0.065-0.169-0.072-0.16-0.007-0.162-0.008-0.162-0.075 0-0.086-0.030-0.098-0.264-0.098-0.188 0-0.188-0-0.203-0.069-0.018-0.081-0.075-0.099-0.314-0.099-0.148 0-0.151-0.001-0.167-0.072l-0.016-0.072h-0.617l-0.008-0.078c-0.007-0.077-0.231-0.135-0.29-0.075zM8.34 21.693c-0.083 0.018-0.101 0.070-0.105 0.31-0.003 0.147-0.004 0.151-0.075 0.165l-0.072 0.014v0.445l-0.168 0.032v0.227c0 0.221-0.002 0.227-0.055 0.227-0.086 0-0.113 0.046-0.113 0.195 0 0.132-0.003 0.138-0.066 0.145l-0.066 0.008-0.014 0.54h8.642l-0.003-0.198c-0.004-0.287-0.019-0.34-0.099-0.35-0.064-0.007-0.066-0.012-0.066-0.159 0-0.158-0.015-0.181-0.122-0.181-0.042 0-0.046-0.019-0.046-0.226v-0.226l-0.072-0.016c-0.072-0.016-0.072-0.016-0.072-0.188-0-0.233-0.014-0.272-0.098-0.289l-0.070-0.014-0-0.199c-0-0.109-0.011-0.215-0.023-0.235-0.024-0.038-7.066-0.064-7.236-0.027z"></path>
    <path fill="#04bc14" d="M5.913 3.448c-0.034 0.007-0.056 0.035-0.065 0.081-0.013 0.067-0.021 0.071-0.133 0.071-0.127 0-0.194 0.042-0.194 0.12 0 0.033-0.021 0.047-0.078 0.052-0.064 0.006-0.079 0.019-0.085 0.071-0.007 0.059-0.018 0.065-0.151 0.081s-0.145 0.022-0.157 0.085c-0.010 0.051-0.029 0.070-0.076 0.076s-0.068 0.026-0.085 0.085c-0.018 0.065-0.034 0.078-0.091 0.078-0.060 0-0.069 0.009-0.069 0.071s-0.009 0.071-0.078 0.078c-0.068 0.007-0.079 0.017-0.085 0.084s-0.017 0.078-0.084 0.084c-0.067 0.007-0.078 0.017-0.084 0.085s-0.016 0.078-0.078 0.078-0.071 0.009-0.071 0.071c0 0.062-0.009 0.071-0.078 0.078s-0.079 0.017-0.085 0.084c-0.006 0.067-0.017 0.078-0.084 0.084s-0.078 0.017-0.084 0.085c-0.007 0.069-0.016 0.078-0.078 0.078s-0.071 0.009-0.071 0.071c0 0.062-0.009 0.071-0.078 0.078s-0.079 0.017-0.085 0.084c-0.006 0.067-0.017 0.078-0.084 0.084s-0.078 0.017-0.084 0.085c-0.007 0.069-0.016 0.078-0.078 0.078s-0.071 0.009-0.071 0.069c0 0.060-0.011 0.071-0.084 0.085s-0.084 0.025-0.084 0.084c0 0.056-0.012 0.070-0.070 0.082-0.065 0.013-0.071 0.023-0.086 0.158-0.015 0.133-0.022 0.144-0.081 0.151-0.052 0.006-0.065 0.021-0.071 0.084-0.006 0.067-0.017 0.078-0.084 0.084-0.076 0.007-0.077 0.008-0.084 0.156s-0.007 0.149-0.084 0.156c-0.067 0.006-0.078 0.017-0.084 0.084-0.006 0.063-0.019 0.078-0.072 0.084-0.062 0.007-0.065 0.015-0.072 0.157-0.006 0.128-0.014 0.15-0.052 0.15-0.105 0-0.121 0.023-0.121 0.181v0.152l-0.078 0.008c-0.068 0.007-0.079 0.017-0.085 0.084-0.006 0.063-0.019 0.078-0.072 0.084-0.064 0.007-0.065 0.008-0.071 0.228l-0.007 0.221-0.154 0.015-0.007 0.162c-0.007 0.16-0.008 0.162-0.075 0.162-0.081 0-0.097 0.033-0.097 0.194 0 0.098-0.007 0.118-0.043 0.118-0.082 0-0.101 0.051-0.101 0.267v0.21l-0.156 0.015-0.007 0.318-0.007 0.318h-0.069c-0.091 0-0.098 0.025-0.098 0.351v0.275l-0.144 0.029v1.095l-0.156 0.015v2.208l0.155 0.015 0.006 0.557 0.006 0.557 0.132 0.015 0.001 0.292c0.002 0.405 0.018 0.482 0.1 0.492l0.065 0.008 0.014 0.465 0.154 0.015 0.007 0.232 0.007 0.233 0.066 0.008c0.063 0.007 0.066 0.013 0.066 0.145 0 0.149 0.027 0.195 0.113 0.195 0.053 0 0.055 0.008 0.055 0.19 0 0.236 0.011 0.266 0.098 0.266 0.068 0 0.068 0.002 0.075 0.162 0.007 0.155 0.010 0.162 0.070 0.169 0.058 0.007 0.065 0.020 0.084 0.156 0.020 0.138 0.026 0.149 0.087 0.156 0.058 0.007 0.066 0.018 0.066 0.090 0 0.078 0.004 0.082 0.084 0.082h0.084v0.156c0 0.155 0 0.156 0.068 0.156 0.065 0 0.069 0.007 0.090 0.15 0.021 0.139 0.027 0.151 0.088 0.158 0.058 0.007 0.066 0.018 0.066 0.090 0 0.078 0.004 0.082 0.083 0.082h0.083l0.007 0.15c0.007 0.142 0.010 0.15 0.071 0.157 0.051 0.006 0.067 0.023 0.079 0.090 0.014 0.072 0.025 0.083 0.086 0.083 0.065 0 0.071 0.007 0.071 0.084 0 0.080 0.004 0.084 0.084 0.084s0.084 0.004 0.084 0.084c0 0.077 0.006 0.084 0.070 0.084 0.067 0 0.070 0.005 0.086 0.145 0.016 0.134 0.022 0.146 0.084 0.159 0.050 0.010 0.071 0.031 0.081 0.083 0.012 0.058 0.026 0.069 0.085 0.069 0.063 0 0.072 0.009 0.079 0.078s0.017 0.079 0.085 0.086c0.069 0.007 0.078 0.016 0.078 0.079 0 0.059 0.012 0.073 0.069 0.085 0.053 0.011 0.073 0.031 0.083 0.083 0.012 0.058 0.026 0.069 0.085 0.069 0.063 0 0.072 0.009 0.079 0.078 0.007 0.078 0.007 0.078 0.157 0.085l0.15 0.007v0.083c0 0.079 0.004 0.083 0.084 0.083s0.084 0.004 0.084 0.084c0 0.077 0.006 0.084 0.070 0.084 0.059 0 0.072 0.011 0.078 0.066s0.021 0.067 0.084 0.073c0.067 0.006 0.078 0.017 0.084 0.084 0.007 0.076 0.008 0.077 0.156 0.084s0.149 0.008 0.156 0.084c0.007 0.067 0.017 0.078 0.085 0.084s0.078 0.016 0.078 0.078c0 0.065 0.007 0.070 0.084 0.070 0.072 0 0.084 0.008 0.084 0.055 0 0.085 0.046 0.113 0.185 0.113 0.124 0 0.127 0.002 0.127 0.069 0 0.082 0.033 0.099 0.192 0.099 0.109 0 0.117 0.004 0.124 0.066l0.008 0.066 0.468 0.014v-0.482h0.168v-0.153c0-0.149 0.002-0.153 0.069-0.167 0.078-0.016 0.099-0.086 0.099-0.333 0-0.131 0.003-0.137 0.066-0.144l0.066-0.008 0.007-0.233 0.007-0.232 0.154-0.015 0.007-0.234 0.007-0.234h-0.085c-0.078 0-0.085-0.006-0.085-0.069 0-0.078-0.042-0.098-0.21-0.099-0.097-0-0.102-0.004-0.102-0.072 0-0.066-0.007-0.072-0.084-0.072-0.080 0-0.084-0.004-0.084-0.084s-0.004-0.084-0.082-0.084c-0.072 0-0.083-0.008-0.090-0.066-0.007-0.061-0.018-0.068-0.158-0.088-0.143-0.021-0.15-0.025-0.15-0.090 0-0.059-0.009-0.068-0.071-0.068s-0.071-0.009-0.078-0.078c-0.007-0.068-0.017-0.079-0.084-0.085s-0.078-0.017-0.084-0.084c-0.007-0.067-0.017-0.078-0.085-0.084s-0.078-0.016-0.078-0.078c0-0.062-0.008-0.070-0.072-0.070-0.055 0-0.072-0.011-0.072-0.046 0-0.087-0.028-0.122-0.097-0.122-0.059 0-0.069-0.010-0.075-0.078s-0.017-0.079-0.086-0.085c-0.069-0.007-0.078-0.016-0.078-0.078s-0.009-0.070-0.071-0.070c-0.062 0-0.071-0.009-0.078-0.078s-0.017-0.079-0.085-0.086c-0.077-0.007-0.078-0.009-0.078-0.133 0-0.137-0.028-0.183-0.111-0.183-0.043 0-0.055-0.015-0.061-0.078-0.006-0.064-0.019-0.079-0.072-0.085s-0.066-0.021-0.072-0.084c-0.006-0.067-0.017-0.078-0.084-0.084-0.077-0.007-0.077-0.008-0.084-0.156s-0.007-0.149-0.084-0.156-0.077-0.008-0.084-0.156c-0.007-0.141-0.010-0.149-0.072-0.156-0.053-0.006-0.066-0.021-0.072-0.084-0.007-0.067-0.017-0.078-0.085-0.084l-0.078-0.008v-0.309h-0.166l-0.007-0.162c-0.007-0.157-0.009-0.162-0.073-0.17-0.065-0.007-0.066-0.010-0.066-0.18-0-0.233-0.014-0.272-0.098-0.289l-0.070-0.014v-0.191c0-0.237-0.011-0.267-0.099-0.267h-0.069v-0.476l-0.144-0.032v-0.348c0-0.375-0.016-0.441-0.109-0.441h-0.059v-2.568h0.069c0.094 0 0.099-0.020 0.099-0.434v-0.358h0.144v-0.477l0.156-0.015 0.007-0.234 0.007-0.234h0.069c0.082 0 0.098-0.032 0.098-0.204 0-0.122 0.003-0.129 0.066-0.136l0.066-0.008 0.007-0.221 0.007-0.221 0.077-0.007c0.067-0.006 0.078-0.017 0.084-0.083 0.006-0.061 0.020-0.078 0.077-0.089 0.065-0.013 0.071-0.023 0.086-0.158s0.021-0.145 0.085-0.159c0.067-0.015 0.069-0.019 0.069-0.169v-0.154h0.084c0.080 0 0.084-0.004 0.084-0.082 0-0.072 0.008-0.083 0.066-0.090 0.061-0.007 0.068-0.018 0.088-0.158 0.021-0.143 0.025-0.15 0.090-0.15 0.059 0 0.068-0.009 0.068-0.072 0-0.055 0.011-0.072 0.046-0.072 0.086 0 0.122-0.028 0.122-0.096 0-0.054 0.013-0.069 0.071-0.081 0.066-0.013 0.072-0.023 0.087-0.159 0.016-0.14 0.019-0.145 0.085-0.145 0.063 0 0.069-0.008 0.069-0.084 0-0.080 0.004-0.084 0.084-0.084s0.084-0.004 0.084-0.082c0-0.075 0.007-0.083 0.078-0.090 0.065-0.006 0.079-0.018 0.086-0.074s0.019-0.066 0.078-0.066c0.064 0 0.070-0.007 0.070-0.084 0-0.080 0.004-0.084 0.084-0.084s0.084-0.004 0.084-0.084c0-0.080 0.004-0.084 0.084-0.084 0.077 0 0.084-0.006 0.084-0.069 0-0.066 0.005-0.069 0.145-0.085 0.136-0.015 0.146-0.021 0.159-0.087 0.012-0.058 0.026-0.071 0.081-0.071 0.067 0 0.096-0.036 0.096-0.122 0-0.035 0.017-0.046 0.072-0.046h0.072v-0.457l-0.144-0.029-0.003-0.231c-0.004-0.319-0.018-0.373-0.098-0.383l-0.065-0.007-0.014-0.465-0.156-0.015v-0.477h-0.069c-0.067 0-0.069-0.004-0.079-0.144-0.006-0.079-0.015-0.148-0.021-0.154-0.018-0.018-0.177-0.034-0.23-0.023zM17.742 3.449c-0.041 0.008-0.054 0.027-0.054 0.081s-0.011 0.070-0.046 0.070c-0.102 0-0.122 0.058-0.122 0.362v0.286h-0.069c-0.085 0-0.098 0.038-0.099 0.292-0 0.183-0.001 0.184-0.066 0.192l-0.066 0.008-0.007 0.306c-0.006 0.282-0.010 0.306-0.052 0.306-0.113 0-0.121 0.017-0.121 0.255v0.225h0.084c0.080 0 0.084 0.004 0.084 0.084s0.004 0.084 0.082 0.084c0.072 0 0.083 0.008 0.090 0.066 0.006 0.052 0.022 0.068 0.074 0.074 0.050 0.006 0.066 0.021 0.066 0.061 0 0.083 0.047 0.111 0.183 0.111 0.124 0 0.126 0.001 0.133 0.078 0.007 0.068 0.017 0.079 0.084 0.085s0.078 0.017 0.084 0.084c0.007 0.067 0.017 0.078 0.085 0.084s0.078 0.016 0.078 0.078 0.009 0.070 0.070 0.070c0.062 0 0.071 0.009 0.078 0.078s0.017 0.079 0.084 0.085c0.067 0.006 0.078 0.017 0.084 0.084s0.017 0.078 0.085 0.084c0.077 0.007 0.078 0.009 0.078 0.133 0 0.13 0.028 0.183 0.098 0.183 0.025 0 0.045 0.026 0.055 0.072 0.011 0.057 0.030 0.076 0.087 0.087 0.060 0.012 0.072 0.026 0.072 0.084 0 0.063 0.008 0.069 0.083 0.069h0.083l0.007 0.15c0.007 0.143 0.010 0.15 0.072 0.157 0.053 0.006 0.066 0.021 0.072 0.084 0.006 0.067 0.017 0.078 0.084 0.084 0.076 0.007 0.077 0.008 0.084 0.156 0.007 0.145 0.009 0.149 0.085 0.172 0.075 0.022 0.078 0.028 0.078 0.145 0 0.127 0.029 0.18 0.097 0.18 0.031 0 0.045 0.035 0.061 0.15 0.020 0.14 0.026 0.151 0.087 0.158s0.066 0.015 0.066 0.124c0 0.16 0.017 0.192 0.099 0.192h0.069v0.336h0.144v0.178c0 0.226 0.027 0.302 0.107 0.302 0.059 0 0.060 0.003 0.067 0.234l0.007 0.234 0.156 0.015v0.789h0.144v2.565l-0.132 0.015-0.007 0.387-0.007 0.387-0.167 0.031v0.475l-0.066 0.008c-0.077 0.009-0.095 0.064-0.099 0.302-0.003 0.147-0.004 0.151-0.075 0.165l-0.072 0.014v0.447l-0.156 0.015-0.007 0.161-0.007 0.161-0.077 0.007c-0.077 0.007-0.077 0.008-0.084 0.157-0.007 0.149-0.008 0.15-0.078 0.15-0.065 0-0.071 0.007-0.071 0.084 0 0.072-0.008 0.084-0.055 0.084-0.085 0-0.113 0.046-0.113 0.185 0 0.124-0.002 0.127-0.069 0.127-0.078 0-0.098 0.042-0.099 0.208-0 0.092-0.006 0.101-0.066 0.108-0.055 0.006-0.067 0.021-0.073 0.084-0.006 0.067-0.017 0.078-0.084 0.084s-0.078 0.017-0.084 0.084c-0.006 0.063-0.019 0.078-0.072 0.084-0.060 0.007-0.066 0.019-0.086 0.157-0.021 0.144-0.024 0.15-0.090 0.15-0.062 0-0.069 0.008-0.069 0.084 0 0.080-0.004 0.084-0.084 0.084-0.077 0-0.084 0.006-0.084 0.072 0 0.059-0.010 0.072-0.055 0.072-0.070 0-0.113 0.042-0.113 0.113 0 0.045-0.013 0.055-0.072 0.055-0.066 0-0.072 0.007-0.072 0.084 0 0.080-0.004 0.084-0.084 0.084-0.077 0-0.084 0.006-0.084 0.072 0 0.059-0.010 0.072-0.055 0.072-0.070 0-0.113 0.042-0.113 0.113 0 0.045-0.013 0.055-0.072 0.055-0.066 0-0.072 0.007-0.072 0.084 0 0.080-0.004 0.084-0.084 0.084-0.076 0-0.084 0.006-0.084 0.069 0 0.066-0.006 0.069-0.15 0.090-0.139 0.020-0.151 0.026-0.157 0.086-0.006 0.053-0.021 0.066-0.084 0.072-0.067 0.006-0.078 0.017-0.084 0.084s-0.017 0.078-0.084 0.084c-0.063 0.006-0.078 0.019-0.084 0.073-0.007 0.060-0.016 0.066-0.108 0.066-0.166 0.001-0.208 0.020-0.208 0.097 0 0.059-0.010 0.069-0.078 0.075l-0.078 0.008-0.007 0.156c-0.012 0.246 0.008 0.312 0.092 0.312h0.070l0.007 0.234 0.007 0.234 0.156 0.015v0.21c0 0.216 0.019 0.267 0.1 0.267 0.035 0 0.043 0.026 0.049 0.15 0.007 0.15 0.007 0.15 0.084 0.157l0.077 0.008 0.007 0.232 0.007 0.233 0.468 0.014v-0.073c0-0.071 0.003-0.073 0.118-0.073 0.162 0 0.194-0.017 0.194-0.099 0-0.068 0.003-0.069 0.126-0.070 0.149-0 0.178-0.015 0.19-0.096 0.007-0.048 0.024-0.061 0.086-0.067 0.069-0.007 0.078-0.016 0.078-0.078 0-0.065 0.007-0.070 0.084-0.070 0.080 0 0.084-0.004 0.084-0.083v-0.083l0.15-0.007c0.15-0.007 0.15-0.007 0.158-0.085 0.007-0.071 0.015-0.078 0.090-0.078s0.082-0.006 0.082-0.070c0-0.062 0.009-0.071 0.078-0.078s0.079-0.017 0.085-0.085c0.007-0.069 0.016-0.078 0.078-0.078 0.064 0 0.071-0.007 0.071-0.083v-0.083l0.15-0.007c0.146-0.007 0.15-0.009 0.162-0.079 0.010-0.057 0.027-0.074 0.084-0.084 0.056-0.010 0.073-0.026 0.079-0.075s0.024-0.067 0.079-0.077c0.055-0.011 0.074-0.031 0.085-0.085s0.029-0.073 0.077-0.079c0.049-0.006 0.066-0.023 0.075-0.079 0.010-0.057 0.027-0.074 0.084-0.084 0.070-0.012 0.072-0.017 0.079-0.162l0.007-0.15h0.083c0.076 0 0.083-0.006 0.083-0.071 0-0.062 0.009-0.071 0.078-0.078s0.079-0.017 0.085-0.085c0.007-0.069 0.016-0.078 0.078-0.078 0.064 0 0.070-0.007 0.070-0.082s0.007-0.083 0.078-0.090c0.068-0.007 0.079-0.017 0.085-0.084 0.006-0.063 0.019-0.078 0.072-0.084 0.060-0.007 0.066-0.019 0.087-0.157 0.021-0.142 0.026-0.15 0.088-0.15 0.057 0 0.067-0.011 0.074-0.078 0.006-0.062 0.020-0.080 0.067-0.086 0.080-0.011 0.095-0.041 0.096-0.188 0-0.123 0.001-0.125 0.078-0.132 0.078-0.008 0.078-0.008 0.085-0.157 0.007-0.149 0.008-0.15 0.078-0.15 0.065 0 0.071-0.007 0.071-0.084 0-0.072 0.008-0.084 0.055-0.084 0.085 0 0.113-0.046 0.113-0.185 0-0.119 0.004-0.127 0.059-0.127 0.077 0 0.109-0.063 0.109-0.213 0-0.113 0.004-0.12 0.066-0.128l0.066-0.008 0.007-0.221 0.007-0.221 0.154-0.015 0.007-0.162c0.007-0.16 0.008-0.162 0.075-0.162 0.084 0 0.097-0.039 0.097-0.292 0-0.183 0.001-0.184 0.066-0.192l0.066-0.008 0.007-0.234c0.007-0.225 0.009-0.234 0.061-0.234 0.102 0 0.112-0.037 0.112-0.425v-0.367h0.069c0.097 0 0.099-0.010 0.099-0.6v-0.524l0.132-0.015 0.006-1.077c0.006-1.119 0.005-1.143-0.093-1.143-0.043 0-0.045-0.027-0.045-0.498-0-0.577-0.003-0.596-0.097-0.615l-0.069-0.014-0.007-0.307-0.007-0.307-0.156-0.015v-0.294c0-0.303-0.014-0.351-0.101-0.351-0.036 0-0.043-0.020-0.043-0.117 0-0.252-0.024-0.341-0.098-0.355-0.064-0.013-0.068-0.021-0.075-0.161-0.007-0.146-0.008-0.147-0.084-0.155l-0.077-0.007-0.007-0.161c-0.007-0.155-0.009-0.161-0.072-0.168s-0.065-0.015-0.072-0.156c-0.007-0.148-0.007-0.149-0.085-0.156l-0.078-0.008v-0.309h-0.168v-0.157c0-0.155-0.001-0.157-0.072-0.171-0.067-0.013-0.072-0.022-0.072-0.121 0-0.136-0.034-0.199-0.107-0.199-0.047 0-0.059-0.014-0.065-0.078-0.007-0.068-0.017-0.079-0.084-0.085-0.076-0.007-0.077-0.008-0.084-0.156-0.007-0.142-0.010-0.149-0.073-0.156-0.050-0.006-0.066-0.021-0.066-0.061 0-0.069-0.043-0.111-0.113-0.111-0.050 0-0.055-0.011-0.055-0.118 0-0.127-0.042-0.194-0.122-0.194-0.035 0-0.046-0.017-0.046-0.070 0-0.058-0.012-0.073-0.071-0.086-0.054-0.012-0.072-0.031-0.078-0.080-0.006-0.053-0.021-0.066-0.085-0.072-0.071-0.007-0.078-0.015-0.078-0.090 0-0.078-0.005-0.083-0.082-0.083-0.075 0-0.083-0.007-0.090-0.078-0.006-0.065-0.018-0.079-0.073-0.086s-0.066-0.019-0.066-0.078c0-0.064-0.007-0.070-0.084-0.070-0.080 0-0.084-0.004-0.084-0.084s-0.004-0.084-0.082-0.084c-0.075 0-0.083-0.007-0.090-0.078-0.006-0.065-0.018-0.079-0.073-0.086s-0.066-0.019-0.066-0.078c0-0.064-0.007-0.070-0.084-0.070-0.080 0-0.084-0.004-0.084-0.084s-0.004-0.084-0.082-0.084c-0.075 0-0.083-0.007-0.090-0.078-0.006-0.064-0.019-0.079-0.071-0.085-0.048-0.006-0.067-0.024-0.077-0.078-0.012-0.059-0.026-0.071-0.085-0.071-0.063 0-0.072-0.009-0.079-0.078-0.008-0.078-0.008-0.078-0.156-0.085s-0.149-0.008-0.156-0.084c-0.007-0.067-0.017-0.078-0.085-0.084s-0.078-0.016-0.078-0.078c0-0.065-0.007-0.071-0.084-0.071-0.072 0-0.084-0.008-0.084-0.055 0-0.085-0.046-0.113-0.185-0.113-0.12 0-0.127-0.003-0.127-0.061 0-0.087-0.097-0.121-0.258-0.090z"></path>
</svg>