<svg xmlns="http://www.w3.org/2000/svg" viewBox="0 0 48 32"><g fill="none" fill-rule="evenodd"><rect width="48" height="32" fill="#326295" rx="4"/><path fill="#2C283A" fill-rule="nonzero" d="M44 1a3 3 0 013 3v24a3 3 0 01-3 3H4a3 3 0 01-3-3V4a3 3 0 013-3h40zm0-1H4a4 4 0 00-4 4v24a4 4 0 004 4h40a4 4 0 004-4V4a4 4 0 00-4-4z" opacity=".08"/><path fill="#FFF" fill-rule="nonzero" d="M7 10v11.48h3.63v-4.14h2.52l.97-2.51h-3.5V12.5h4.26l.93-2.5H7m9.92 0v11.48h3.58V10h-3.58m17.64 7.73l1.38-4.78 1.43 4.78h-2.8zm3.3-7.73h-3.72l-4.12 11.48h3.46l.45-1.54h4.03l.47 1.54H42L37.86 10m-14.89 0v11.48h3.63v-4.14h2.51l1-2.51H26.6V12.5h4.26l.93-2.5h-8.82"/></g></svg>