<svg xmlns="http://www.w3.org/2000/svg" viewBox="0 0 40 25">
    <path fill="#042467" d="M0 0.24v0.24h0.063c0.035 0 0.114-0.018 0.176-0.040 0.11-0.039 0.116-0.039 0.228 0.015 0.089 0.043 0.168 0.058 0.346 0.066 0.322 0.014 0.332 0.017 0.346 0.109 0.015 0.101-0.008 0.127-0.158 0.176-0.068 0.022-0.151 0.064-0.184 0.094s-0.079 0.060-0.103 0.069c-0.024 0.008-0.065 0.064-0.091 0.123-0.055 0.125-0.189 0.228-0.295 0.228-0.039 0-0.106 0.027-0.149 0.060s-0.101 0.060-0.128 0.060c-0.048 0-0.050 0.013-0.050 0.312 0 0.337 0.014 0.367 0.133 0.277 0.055-0.042 0.115-0.046 0.173-0.013 0.061 0.035 0.372 0.163 0.594 0.244 0.126 0.046 0.239 0.070 0.327 0.070 0.151 0 0.165 0.021 0.165 0.242 0 0.156 0.167 0.178 0.485 0.064 0.187-0.067 0.282-0.048 0.363 0.074 0.149 0.226 0.305 0.237 0.305 0.021 0-0.102 0.011-0.129 0.072-0.187 0.075-0.069 0.092-0.139 0.046-0.185-0.019-0.019-0.006-0.031 0.047-0.042 0.074-0.016 0.172 0.018 0.172 0.060 0 0.013 0.015 0.023 0.033 0.023s0.072 0.031 0.12 0.069c0.053 0.042 0.131 0.076 0.2 0.086 0.062 0.009 0.166 0.038 0.232 0.064 0.082 0.032 0.142 0.042 0.193 0.030 0.041-0.009 0.157-0.015 0.258-0.012 0.189 0.006 0.285-0.047 0.285-0.158 0-0.133 0.216 0.038 0.267 0.212 0.056 0.19 0.17 0.196 0.207 0.011 0.011-0.055 0.038-0.105 0.066-0.12 0.026-0.015 0.055-0.037 0.064-0.051s0.048-0.057 0.086-0.098c0.056-0.058 0.073-0.103 0.085-0.218 0.008-0.079 0.022-0.161 0.030-0.182 0.011-0.029-0.019-0.050-0.125-0.088-0.195-0.070-0.204-0.077-0.244-0.186-0.054-0.148 0.014-0.345 0.15-0.437l0.099-0.067 0.043 0.089c0.028 0.058 0.068 0.098 0.115 0.115 0.060 0.021 0.191 0.108 0.295 0.197 0.012 0.010-0.002 0.057-0.030 0.105-0.093 0.157-0.072 0.262 0.066 0.337 0.087 0.047 0.134 0.095 0.183 0.183 0.102 0.187 0.173 0.182 0.228-0.017 0.053-0.19 0.161-0.142 0.133 0.059-0.039 0.282-0.010 0.368 0.161 0.465 0.089 0.050 0.090 0.050 0.132 0.004 0.053-0.058 0.198-0.285 0.198-0.309 0-0.010 0.034-0.066 0.076-0.124 0.058-0.081 0.079-0.138 0.087-0.244 0.016-0.204 0.184-0.298 0.245-0.138 0.013 0.033 0.060 0.082 0.105 0.109 0.097 0.057 0.122 0.144 0.087 0.301-0.025 0.113-0.006 0.175 0.101 0.328 0.057 0.081 0.043 0.106-0.092 0.163-0.058 0.025-0.128 0.066-0.155 0.091s-0.095 0.053-0.15 0.062c-0.055 0.009-0.126 0.033-0.156 0.053-0.050 0.033-0.066 0.033-0.148-0-0.108-0.043-0.139-0.022-0.181 0.127-0.028 0.1-0.096 0.123-0.186 0.064-0.069-0.045-0.249-0.056-0.287-0.018-0.046 0.046 0.016 0.085 0.156 0.099l0.125 0.013-0.007 0.108c-0.009 0.135-0.021 0.147-0.165 0.16-0.209 0.019-0.221 0.026-0.281 0.151-0.101 0.209-0.162 0.29-0.254 0.336s-0.31 0.282-0.455 0.489c-0.164 0.236-0.123 0.54 0.078 0.577 0.099 0.019 0.139 0.061 0.208 0.225 0.063 0.147 0.105 0.176 0.29 0.199 0.085 0.010 0.169 0.040 0.228 0.079 0.051 0.035 0.109 0.063 0.129 0.063s0.104 0.063 0.187 0.139c0.098 0.090 0.195 0.154 0.276 0.183 0.069 0.024 0.143 0.060 0.165 0.079s0.113 0.045 0.204 0.058c0.269 0.039 0.264 0.034 0.279 0.272 0.008 0.125 0.027 0.228 0.050 0.262 0.020 0.031 0.050 0.103 0.065 0.162 0.036 0.132 0.211 0.318 0.279 0.297 0.187-0.061 0.235-0.155 0.212-0.418-0.009-0.099-0.030-0.209-0.047-0.245-0.042-0.088 0.006-0.23 0.093-0.276 0.376-0.197 0.414-0.748 0.069-1.023-0.080-0.064-0.074-0.181 0.014-0.265l0.069-0.066-0.002-0.321c-0.002-0.413-0.017-0.396 0.341-0.395 0.154 0 0.321-0.001 0.372-0.003 0.080-0.003 0.107 0.011 0.204 0.109 0.062 0.062 0.178 0.144 0.258 0.182 0.163 0.078 0.212 0.163 0.18 0.314-0.017 0.081 0.033 0.284 0.070 0.284 0.010 0 0.084 0.043 0.163 0.096s0.17 0.096 0.202 0.096c0.081 0 0.245-0.178 0.281-0.305 0.048-0.171 0.163-0.144 0.261 0.061 0.071 0.149 0.137 0.27 0.253 0.467 0.082 0.139 0.094 0.177 0.083 0.26-0.023 0.168 0.17 0.415 0.391 0.501 0.046 0.018 0.117 0.058 0.156 0.088 0.125 0.097 0.189 0.146 0.315 0.244 0.21 0.164 0.174 0.46-0.056 0.46-0.138 0-0.223 0.051-0.301 0.181-0.11 0.181-0.321 0.256-0.562 0.199-0.1-0.024-0.15-0.023-0.257 0.003-0.081 0.020-0.183 0.026-0.265 0.016-0.073-0.009-0.138-0.006-0.145 0.005s-0.046 0.028-0.086 0.036c-0.049 0.010-0.089 0.041-0.12 0.095-0.026 0.044-0.074 0.094-0.106 0.112s-0.065 0.057-0.072 0.088c-0.008 0.033-0.032 0.057-0.056 0.057-0.061 0-0.109 0.084-0.067 0.119s0.109 0.007 0.133-0.056c0.012-0.031 0.058-0.063 0.12-0.081 0.055-0.017 0.129-0.051 0.165-0.076 0.252-0.178 0.463-0.010 0.316 0.251-0.085 0.151 0.123 0.558 0.312 0.612 0.135 0.039 0.215 0.030 0.235-0.024 0.030-0.081 0.197-0.153 0.236-0.102 0.055 0.073 0.015 0.112-0.141 0.137-0.067 0.011-0.090 0.026-0.090 0.059 0 0.064-0.173 0.219-0.297 0.266-0.058 0.022-0.145 0.080-0.193 0.128-0.099 0.099-0.104 0.1-0.219 0.053-0.104-0.044-0.108-0.104-0.011-0.189 0.040-0.035 0.072-0.074 0.072-0.086s0.039-0.046 0.086-0.075c0.057-0.035 0.078-0.061 0.062-0.077-0.037-0.038-0.153-0.028-0.184 0.015-0.016 0.021-0.046 0.039-0.066 0.039s-0.045 0.011-0.053 0.024c-0.008 0.013-0.034 0.024-0.057 0.024s-0.081 0.043-0.13 0.096c-0.048 0.053-0.106 0.096-0.127 0.096-0.175 0-0.42 0.254-0.419 0.435 0 0.070-0.092 0.158-0.197 0.188-0.149 0.042-0.32 0.207-0.354 0.34-0.018 0.071-0.056 0.131-0.113 0.18-0.069 0.060-0.091 0.102-0.114 0.216-0.031 0.151-0.069 0.173-0.162 0.090-0.124-0.111-0.153 0.226-0.041 0.462 0.053 0.11-0.22 0.527-0.405 0.62-0.352 0.176-0.542 0.606-0.413 0.932 0.147 0.37 0.187 0.705 0.094 0.792-0.072 0.067-0.108 0.043-0.193-0.128-0.041-0.083-0.084-0.162-0.096-0.176s-0.029-0.101-0.037-0.193c-0.027-0.285-0.131-0.419-0.324-0.419-0.068 0-0.142-0.024-0.23-0.074-0.249-0.143-0.608-0.109-0.609 0.057-0.001 0.142-0.255 0.19-0.418 0.080-0.183-0.124-0.39-0.095-0.594 0.086-0.070 0.062-0.165 0.138-0.211 0.169-0.178 0.119-0.231 0.281-0.155 0.472 0.036 0.091 0.035 0.1-0.027 0.256-0.057 0.141-0.062 0.179-0.045 0.296 0.011 0.074 0.021 0.216 0.022 0.315 0.003 0.202 0.042 0.363 0.098 0.41 0.021 0.017 0.063 0.081 0.093 0.141 0.163 0.321 0.338 0.418 0.631 0.351 0.317-0.073 0.371-0.123 0.474-0.44l0.052-0.161 0.154-0.064c0.264-0.11 0.354-0.051 0.291 0.188-0.015 0.058-0.028 0.13-0.029 0.159s-0.023 0.102-0.050 0.162c-0.045 0.099-0.105 0.359-0.135 0.58-0.017 0.129 0.065 0.18 0.226 0.139 0.234-0.059 0.384-0.057 0.46 0.005 0.038 0.031 0.087 0.067 0.109 0.080 0.040 0.024 0.098 0.214 0.076 0.249-0.128 0.206-0.073 0.736 0.092 0.89 0.034 0.032 0.062 0.071 0.062 0.086s0.024 0.039 0.054 0.053c0.147 0.069 0.166 0.069 0.333 0.013 0.195-0.066 0.284-0.039 0.387 0.114 0.106 0.158 0.245 0.106 0.332-0.125 0.070-0.184 0.183-0.312 0.313-0.351 0.057-0.017 0.131-0.058 0.163-0.091 0.092-0.092 0.199-0.072 0.225 0.042l0.020 0.087 0.096-0.033c0.053-0.018 0.126-0.056 0.164-0.083 0.081-0.060 0.181-0.026 0.303 0.1 0.051 0.054 0.090 0.071 0.156 0.071 0.049 0 0.128 0.017 0.177 0.037 0.122 0.051 0.265 0.048 0.426-0.009l0.136-0.048 0.056 0.060c0.031 0.033 0.085 0.077 0.119 0.097s0.082 0.071 0.105 0.112c0.050 0.088 0.129 0.157 0.18 0.159 0.055 0.001 0.235 0.17 0.282 0.264 0.068 0.135 0.256 0.216 0.504 0.216 0.163 0 0.215 0.010 0.288 0.054 0.049 0.030 0.13 0.075 0.18 0.1s0.090 0.054 0.090 0.065 0.036 0.055 0.081 0.098c0.055 0.053 0.095 0.126 0.123 0.223 0.023 0.079 0.063 0.193 0.090 0.252 0.080 0.176 0.090 0.48 0.015 0.481-0.062 0.001-0.141 0.050-0.141 0.087 0 0.013-0.027 0.047-0.060 0.075-0.109 0.095-0.062 0.183 0.076 0.141 0.083-0.025 0.176-0.154 0.176-0.242 0-0.096 0.171-0.039 0.298 0.1 0.079 0.086 0.085 0.088 0.16 0.060 0.082-0.031 0.080-0.032 0.363 0.149 0.041 0.027 0.101 0.098 0.134 0.158l0.059 0.11 0.184 0.002c0.101 0.001 0.214 0.014 0.251 0.028s0.098 0.025 0.137 0.025c0.113 0 0.36 0.133 0.507 0.275 0.086 0.082 0.171 0.14 0.23 0.156 0.051 0.014 0.116 0.050 0.145 0.080 0.092 0.098 0.188 0.589 0.128 0.655-0.012 0.013-0.033 0.061-0.048 0.108-0.027 0.086-0.138 0.214-0.252 0.293-0.034 0.023-0.083 0.088-0.11 0.144-0.078 0.163-0.158 0.285-0.201 0.31-0.1 0.056-0.136 0.194-0.136 0.523 0 0.268-0.009 0.338-0.060 0.496-0.033 0.101-0.060 0.214-0.060 0.25 0 0.083-0.057 0.222-0.108 0.264-0.021 0.018-0.054 0.066-0.074 0.106s-0.060 0.108-0.091 0.151c-0.033 0.045-0.064 0.13-0.073 0.204-0.021 0.155-0.042 0.183-0.154 0.201-0.206 0.033-0.317 0.066-0.336 0.101-0.011 0.020-0.079 0.065-0.15 0.1-0.092 0.045-0.132 0.079-0.137 0.117l-0.008 0.054h10.784v-0.071c0-0.054-0.016-0.080-0.070-0.107-0.040-0.021-0.092-0.082-0.122-0.145-0.029-0.060-0.061-0.109-0.072-0.109-0.020 0-0.037-0.142-0.070-0.571-0.015-0.198-0.028-0.257-0.068-0.3-0.027-0.030-0.057-0.081-0.067-0.114s-0.044-0.095-0.076-0.139c-0.032-0.043-0.076-0.13-0.096-0.192s-0.063-0.138-0.093-0.167c-0.098-0.095-0.115-0.535-0.027-0.691 0.022-0.039 0.063-0.126 0.090-0.192s0.076-0.158 0.108-0.204c0.078-0.113 0.082-0.279 0.011-0.465-0.043-0.113-0.049-0.157-0.030-0.217 0.024-0.076-0.089-0.491-0.156-0.57-0.014-0.017-0.043-0.075-0.065-0.13-0.035-0.088-0.147-0.225-0.429-0.524-0.092-0.097-0.092-0.098-0.078-0.254 0.027-0.299 0.044-0.395 0.082-0.454 0.181-0.276-0.179-0.743-0.43-0.558-0.056 0.042-0.086 0.048-0.147 0.032-0.082-0.021-0.087-0.028-0.155-0.207-0.086-0.225-0.374-0.299-0.633-0.161-0.060 0.032-0.209 0.077-0.333 0.101s-0.28 0.071-0.347 0.105c-0.143 0.071-0.191 0.074-0.372 0.022-0.151-0.044-0.23-0.029-0.395 0.078-0.108 0.069-0.225 0.073-0.307 0.009-0.033-0.026-0.070-0.047-0.081-0.048s-0.056-0.036-0.098-0.078c-0.042-0.043-0.171-0.165-0.286-0.27-0.213-0.196-0.351-0.376-0.351-0.458 0-0.025-0.024-0.084-0.053-0.13-0.082-0.131-0.115-0.195-0.115-0.227 0-0.016-0.027-0.054-0.060-0.085s-0.060-0.068-0.060-0.083c0-0.015-0.038-0.063-0.085-0.107-0.231-0.218-0.333-0.651-0.192-0.819 0.057-0.068 0.095-0.459 0.063-0.657-0.016-0.098-0.026-0.227-0.023-0.288 0.004-0.076-0.007-0.124-0.035-0.155-0.051-0.056-0.056-0.281-0.008-0.31 0.046-0.027 0.087-0.114 0.087-0.181 0-0.032 0.026-0.082 0.059-0.112s0.104-0.165 0.16-0.298c0.056-0.134 0.131-0.276 0.167-0.315s0.082-0.105 0.102-0.144c0.020-0.040 0.070-0.094 0.111-0.12s0.074-0.056 0.074-0.066c0-0.010 0.012-0.018 0.028-0.018 0.048 0 0.23-0.164 0.287-0.258 0.030-0.049 0.066-0.098 0.080-0.107 0.016-0.011 0.023-0.113 0.019-0.271-0.009-0.359 0.022-0.423 0.291-0.598 0.166-0.108 0.216-0.155 0.263-0.248 0.18-0.353 0.186-0.358 0.28-0.258 0.087 0.092 0.545 0.092 0.615 0 0.025-0.033 0.054-0.060 0.065-0.060s0.085-0.032 0.164-0.072c0.183-0.091 0.373-0.148 0.438-0.131 0.028 0.007 0.099-0.005 0.159-0.027 0.074-0.027 0.214-0.042 0.442-0.049 0.184-0.005 0.434-0.017 0.556-0.025l0.222-0.016 0.039 0.075c0.055 0.106 0.030 0.467-0.039 0.565-0.037 0.053-0.043 0.081-0.025 0.121 0.042 0.091 0.153 0.207 0.198 0.207 0.024 0 0.051 0.010 0.058 0.022s0.076 0.040 0.151 0.061c0.23 0.065 0.274 0.089 0.42 0.233 0.101 0.099 0.165 0.143 0.229 0.154 0.049 0.009 0.141 0.036 0.204 0.061 0.228 0.089 0.394-0.023 0.329-0.222-0.017-0.052-0.026-0.096-0.021-0.1s0.053-0.046 0.106-0.095c0.111-0.104 0.099-0.105 0.528 0.049 0.358 0.129 0.398 0.142 0.473 0.158 0.035 0.008 0.083 0.033 0.106 0.055 0.055 0.055 0.392 0.104 0.511 0.074 0.048-0.012 0.229-0.021 0.402-0.020l0.315 0.002 0.084-0.141c0.046-0.078 0.101-0.194 0.12-0.259 0.106-0.345 0.111-0.38 0.081-0.616-0.031-0.248-0.115-0.277-0.353-0.121l-0.086 0.057-0.106-0.058c-0.16-0.087-0.216-0.093-0.311-0.034-0.111 0.069-0.191 0.057-0.354-0.053-0.239-0.16-0.309-0.277-0.296-0.493 0.003-0.040-0.018-0.115-0.044-0.167s-0.049-0.129-0.049-0.17c0-0.18-0.243-0.245-0.4-0.107-0.045 0.040-0.091 0.072-0.102 0.072-0.108 0-0.057 0.281 0.069 0.387l0.076 0.064-0.049 0.097c-0.142 0.278-0.412 0.286-0.455 0.013-0.020-0.128-0.165-0.417-0.257-0.514-0.051-0.054-0.058-0.083-0.058-0.246v-0.184l-0.090-0.060c-0.050-0.033-0.149-0.103-0.222-0.156s-0.175-0.117-0.228-0.142c-0.114-0.055-0.207-0.151-0.263-0.272-0.081-0.175-0.358-0.287-0.432-0.175s-0.050 0.21 0.087 0.351c0.068 0.071 0.158 0.186 0.198 0.257 0.056 0.097 0.096 0.138 0.165 0.165 0.108 0.043 0.179 0.097 0.333 0.256l0.114 0.118-0.087 0.075c-0.086 0.074-0.086 0.076-0.054 0.164 0.048 0.134-0.012 0.293-0.111 0.293h-0.069l0.008-0.186c0.007-0.163 0.002-0.188-0.036-0.203-0.024-0.009-0.111-0.082-0.193-0.163s-0.19-0.161-0.24-0.179c-0.096-0.034-0.309-0.243-0.333-0.326-0.12-0.423-0.3-0.497-0.617-0.251-0.104 0.081-0.217 0.103-0.315 0.062-0.18-0.075-0.351 0.004-0.351 0.163 0 0.096-0.109 0.247-0.217 0.303-0.149 0.076-0.367 0.378-0.359 0.498 0.009 0.132-0.004 0.154-0.187 0.334-0.238 0.234-0.257 0.245-0.441 0.27-0.084 0.011-0.187 0.035-0.229 0.052-0.072 0.030-0.080 0.027-0.189-0.069-0.105-0.093-0.124-0.1-0.251-0.1-0.166 0-0.216-0.043-0.216-0.183 0-0.052-0.017-0.12-0.039-0.15-0.046-0.065-0.031-0.205 0.033-0.324 0.048-0.088 0.053-0.507 0.007-0.625-0.036-0.093-0.015-0.146 0.077-0.195 0.042-0.022 0.104-0.054 0.137-0.072 0.044-0.023 0.093-0.026 0.18-0.011 0.132 0.022 0.524 0.070 0.733 0.088 0.157 0.014 0.174-0 0.212-0.18 0.054-0.254 0.039-0.342-0.080-0.481-0.058-0.069-0.113-0.144-0.12-0.168-0.018-0.056-0.193-0.2-0.309-0.254-0.205-0.096-0.115-0.207 0.166-0.207 0.177 0 0.273-0.043 0.273-0.122 0-0.048 0.062-0.088 0.196-0.127 0.143-0.042 0.293-0.176 0.321-0.287 0.014-0.056 0.29-0.208 0.377-0.208 0.042 0 0.087-0.053 0.147-0.172 0.084-0.166 0.162-0.219 0.333-0.225 0.366-0.013 0.505-0.224 0.347-0.526-0.126-0.242-0.011-0.576 0.215-0.625 0.127-0.028 0.128-0.013 0.060 0.612-0.024 0.221-0.026 0.215 0.099 0.291l0.102 0.062 0.084-0.055c0.083-0.054 0.085-0.054 0.269-0.015 0.212 0.045 0.364 0.025 0.632-0.081l0.148-0.059 0.17 0.1 0.080-0.103c0.044-0.057 0.11-0.133 0.147-0.169 0.051-0.050 0.067-0.089 0.067-0.16 0-0.051 0.027-0.173 0.060-0.27s0.060-0.178 0.060-0.18c0.002-0.034 0.094-0.019 0.152 0.024 0.227 0.169 0.313 0.099 0.291-0.237-0.020-0.297-0.023-0.294 0.362-0.366 0.571-0.107 0.711-0.169 0.558-0.248-0.030-0.015-0.084-0.056-0.122-0.091-0.109-0.102-0.335-0.091-0.556 0.027-0.216 0.116-0.397 0.107-0.397-0.018 0-0.011-0.039-0.054-0.087-0.095-0.085-0.073-0.088-0.081-0.105-0.295-0.010-0.121-0.025-0.231-0.034-0.246s0.068-0.108 0.175-0.212c0.105-0.102 0.21-0.223 0.233-0.268s0.063-0.1 0.088-0.12c0.071-0.057 0.084-0.216 0.022-0.282-0.177-0.187-0.582-0.040-0.618 0.224-0.007 0.051-0.017 0.117-0.023 0.146-0.015 0.076-0.179 0.23-0.275 0.259-0.151 0.045-0.328 0.313-0.348 0.527-0.023 0.25 0.026 0.421 0.121 0.421 0.2 0 0.116 0.359-0.11 0.467-0.12 0.057-0.133 0.090-0.157 0.396-0.019 0.242-0.033 0.266-0.159 0.266-0.082 0-0.113 0.018-0.232 0.131-0.113 0.108-0.163 0.137-0.28 0.165-0.078 0.019-0.162 0.042-0.184 0.051-0.031 0.013-0.048 0-0.067-0.050-0.029-0.077-0.002-0.105 0.098-0.106 0.155-0.001 0.256-0.271 0.139-0.375-0.064-0.057-0.117-0.179-0.117-0.27 0-0.177-0.196-0.253-0.384-0.15-0.046 0.026-0.122 0.065-0.168 0.087s-0.103 0.050-0.126 0.062c-0.047 0.024-0.225-0.009-0.265-0.049-0.014-0.014-0.029-0.141-0.034-0.281-0.008-0.231-0.015-0.263-0.068-0.327-0.116-0.138-0.060-0.394 0.101-0.469 0.050-0.023 0.099-0.053 0.108-0.067 0.099-0.15 0.415-0.396 0.509-0.396 0.073 0 0.095-0.015 0.155-0.102 0.092-0.133 0.272-0.309 0.434-0.425 0.041-0.029 0.096-0.093 0.121-0.141 0.051-0.098 0.085-0.137 0.26-0.291 0.090-0.079 0.132-0.139 0.164-0.234 0.024-0.070 0.052-0.127 0.062-0.127 0.034 0 0.137-0.186 0.165-0.296 0.020-0.078 0.042-0.111 0.079-0.121 0.029-0.007 0.074-0.033 0.1-0.057 0.089-0.082 0.166-0.126 0.22-0.126 0.063 0 0.224-0.072 0.224-0.101 0-0.011 0.035-0.020 0.078-0.021 0.106-0.001 0.281-0.051 0.354-0.1s0.264-0.084 0.264-0.048c0 0.041 0.119 0.057 0.178 0.024 0.031-0.017 0.102-0.056 0.157-0.087l0.102-0.056 0.155 0.054c0.148 0.052 0.155 0.059 0.18 0.157 0.032 0.128 0.057 0.148 0.203 0.167 0.072 0.009 0.141 0.036 0.178 0.069 0.033 0.030 0.098 0.062 0.144 0.072s0.122 0.037 0.169 0.060c0.047 0.024 0.147 0.061 0.224 0.083 0.252 0.073 0.611 0.276 0.776 0.438 0.117 0.115 0.12 0.123 0.062 0.194-0.023 0.028-0.061 0.078-0.085 0.112s-0.059 0.060-0.079 0.060c-0.020 0-0.063 0.018-0.096 0.039-0.065 0.043-0.112 0.039-0.419-0.027-0.099-0.021-0.207-0.054-0.24-0.073-0.27-0.151-0.504-0.152-0.415-0.003 0.056 0.094 0.159 0.188 0.262 0.237 0.115 0.055 0.116 0.056 0.157 0.234 0.054 0.233 0.199 0.385 0.366 0.385 0.17 0 0.193-0.058 0.098-0.252-0.084-0.17-0.059-0.248 0.046-0.143 0.034 0.034 0.21 0.107 0.258 0.107 0.059 0 0.116-0.096 0.093-0.157-0.039-0.102-0.029-0.122 0.1-0.215 0.12-0.086 0.126-0.088 0.227-0.059 0.212 0.059 0.298-0.028 0.298-0.301 0-0.207 0.041-0.372 0.093-0.372 0.022-0 0.062-0.007 0.090-0.014s0.063 0 0.078 0.018c0.015 0.018 0.056 0.069 0.092 0.113l0.065 0.081-0.059 0.043c-0.032 0.024-0.077 0.058-0.099 0.075-0.078 0.061-0.081 0.202-0.007 0.251 0.154 0.101 0.33 0.036 0.374-0.137 0.033-0.129 0.146-0.199 0.637-0.392 0.264-0.104 0.25-0.103 0.329-0.014 0.083 0.093 0.227 0.101 0.304 0.018 0.091-0.098 0.621-0.1 0.679-0.002 0.023 0.039 0.093 0.042 0.13 0.005 0.015-0.015 0.052-0.039 0.083-0.055 0.047-0.023 0.057-0.049 0.063-0.159 0.010-0.18 0.026-0.192 0.242-0.192 0.154 0 0.201 0.010 0.291 0.063 0.059 0.035 0.168 0.094 0.241 0.132s0.17 0.104 0.216 0.148c0.194 0.184 0.328 0.166 0.296-0.039-0.015-0.095-0.142-0.329-0.199-0.363-0.018-0.011-0.017-0.032 0.004-0.069 0.016-0.029 0.030-0.136 0.031-0.238 0.001-0.173 0.006-0.191 0.074-0.264 0.040-0.043 0.132-0.162 0.204-0.265 0.157-0.224 0.408-0.314 0.497-0.177 0.056 0.086 0.068 0.199 0.035 0.327-0.058 0.227-0.062 0.332-0.016 0.434 0.033 0.072 0.039 0.129 0.027 0.25-0.016 0.171 0.002 0.24 0.095 0.376 0.156 0.227-0.031 0.496-0.431 0.62-0.156 0.049-0.117 0.121 0.091 0.168 0.197 0.045 0.267 0.034 0.308-0.048 0.016-0.033 0.074-0.084 0.128-0.114 0.058-0.032 0.108-0.081 0.122-0.12 0.081-0.226 0.103-0.318 0.089-0.372-0.031-0.123 0.263-0.253 0.347-0.153 0.015 0.018 0.038 0.121 0.050 0.229 0.025 0.22 0.034 0.242 0.093 0.242 0.089 0 0.126-0.053 0.095-0.136-0.021-0.055-0.022-0.099-0.004-0.157 0.036-0.117-0.045-0.286-0.148-0.308-0.040-0.008-0.119-0.040-0.177-0.071-0.092-0.049-0.109-0.051-0.132-0.020-0.073 0.098-0.205 0.053-0.209-0.072-0.001-0.035-0.004-0.12-0.006-0.188-0.003-0.082-0.019-0.14-0.048-0.172-0.043-0.047-0.042-0.051 0.019-0.156 0.095-0.162 0.121-0.176 0.156-0.082 0.081 0.22 0.095 0.234 0.227 0.234 0.169-0 0.196-0.021 0.16-0.123-0.026-0.072-0.023-0.084 0.022-0.117 0.028-0.020 0.099-0.077 0.159-0.126 0.142-0.118 0.304-0.109 0.426 0.026 0.024 0.026 0.069 0.054 0.101 0.062s0.085 0.025 0.118 0.038l0.061 0.023-0.048 0.079c-0.103 0.169-0.057 0.395 0.091 0.446 0.14 0.048 0.149 0.031 0.149-0.272 0-0.341-0.014-0.371-0.216-0.477-0.34-0.179-0.288-0.46 0.096-0.525 0.131-0.022 0.521-0.030 0.66-0.013 0.061 0.007 0.071 0.001 0.064-0.039-0.054-0.334 0.038-0.46 0.422-0.578 0.109-0.033 0.15-0.057 0.15-0.088 0-0.040-0.127-0.042-2.329-0.042-2.295 0-2.329 0.001-2.329 0.047 0 0.036-0.022 0.051-0.090 0.062-0.174 0.029-0.334 0.083-0.388 0.129-0.030 0.026-0.106 0.065-0.169 0.085s-0.142 0.067-0.175 0.103c-0.033 0.036-0.102 0.103-0.153 0.15-0.293 0.267-0.433 0.71-0.279 0.876 0.024 0.026 0.052 0.064 0.062 0.084s0.033 0.063 0.052 0.096c0.048 0.084-0.060 0.131-0.259 0.113-0.169-0.015-0.209-0.045-0.209-0.155 0-0.105-0.052-0.148-0.178-0.149-0.168-0.001-0.195-0.056-0.096-0.198 0.046-0.066 0.090-0.149 0.098-0.184s0.040-0.090 0.070-0.123c0.071-0.077 0.107-0.172 0.107-0.284 0-0.077 0.011-0.095 0.083-0.134 0.045-0.024 0.088-0.059 0.095-0.076 0.029-0.075 0.357-0.275 0.452-0.275 0.12 0 0.235-0.059 0.235-0.121 0-0.047-0.045-0.047-6.615-0.047-6.505 0-6.615 0.001-6.615 0.046 0 0.026-0.035 0.067-0.081 0.096-0.125 0.078-0.139 0.102-0.107 0.195 0.027 0.077 0.024 0.084-0.060 0.157l-0.088 0.076 0.060 0.040c0.126 0.083 0.050 0.172-0.185 0.216-0.125 0.023-0.134 0.056-0.037 0.136 0.101 0.083 0.129 0.201 0.075 0.311-0.035 0.071-0.034 0.076 0.039 0.159 0.11 0.125 0.099 0.267-0.025 0.325-0.061 0.029-0.098 0.070-0.13 0.144-0.058 0.133-0.123 0.187-0.229 0.188-0.047 0-0.11 0.018-0.141 0.040-0.184 0.129-0.519 0.273-0.636 0.273-0.067 0-0.182 0.024-0.254 0.051s-0.18 0.053-0.24 0.056c-0.092 0.005-0.111 0.015-0.134 0.072-0.028 0.069-0.261 0.3-0.302 0.3-0.013 0-0.085 0.063-0.161 0.14l-0.137 0.14-0.18 0.017c-0.428 0.040-0.576 0.135-0.576 0.373 0 0.122-0.101 0.373-0.19 0.471-0.039 0.042-0.078 0.126-0.096 0.204-0.017 0.073-0.057 0.183-0.088 0.246s-0.058 0.141-0.058 0.175-0.016 0.099-0.036 0.146c-0.039 0.094-0.042 0.093-0.192-0.026-0.173-0.137-0.288-0.176-0.429-0.148-0.112 0.022-0.149-0.006-0.271-0.206-0.060-0.098-0.124-0.165-0.215-0.223-0.072-0.046-0.13-0.093-0.13-0.106s-0.028-0.056-0.063-0.097c-0.057-0.067-0.062-0.090-0.053-0.232 0.009-0.145 0.006-0.161-0.047-0.195-0.031-0.020-0.091-0.087-0.132-0.147s-0.089-0.124-0.106-0.141c-0.033-0.033-0.046-0.102-0.069-0.343l-0.015-0.158 0.101-0.098c0.068-0.066 0.13-0.102 0.19-0.112 0.111-0.018 0.192-0.195 0.192-0.42 0-0.197-0.042-0.248-0.198-0.239l-0.122 0.007-0.035 0.126c-0.058 0.211-0.226 0.224-0.4 0.031-0.046-0.051-0.001-0.217 0.060-0.217 0.010 0 0.024-0.027 0.033-0.061 0.041-0.164 0.21-0.206 0.325-0.080 0.118 0.129 0.261 0.074 0.296-0.114 0.018-0.093-0.039-0.16-0.168-0.202-0.050-0.016-0.105-0.041-0.123-0.054-0.069-0.055-0.253-0.063-0.336-0.015l-0.079 0.045-0.045-0.075c-0.050-0.083-0.041-0.125 0.064-0.284 0.069-0.104 0.068-0.11-0.005-0.207-0.033-0.043-0.060-0.090-0.060-0.105s-0.038-0.081-0.084-0.148c-0.046-0.067-0.084-0.135-0.084-0.151 0-0.045-0.165-0.227-0.243-0.267-0.041-0.021-0.070-0.055-0.070-0.083 0-0.047-0.024-0.047-1.885-0.047h-1.885v0.258l-0.11 0.042c-0.074 0.028-0.149 0.038-0.231 0.030-0.066-0.006-0.316-0.003-0.555 0.006s-0.462 0.010-0.496 0c-0.034-0.010-0.145-0.008-0.247 0.004-0.276 0.032-0.321 0.005-0.311-0.192l0.007-0.149h-0.441l0.015 0.126c0.019 0.168-0.001 0.197-0.129 0.179-0.126-0.017-0.143-0.044-0.126-0.19l0.014-0.115h-0.171c-0.165 0-0.171 0.002-0.171 0.058 0 0.198-0.409 0.215-0.467 0.019l-0.023-0.078h-0.974v0.057c0 0.082-0.045 0.094-0.408 0.102-0.355 0.009-0.504-0.025-0.504-0.116 0-0.070-0.138-0.062-0.148 0.009-0.015 0.102-0.26 0.095-0.26-0.007 0-0.025-0.016-0.046-0.036-0.046s-0.036 0.021-0.036 0.049c0 0.11-0.292 0.114-0.308 0.004l-0.008-0.053h-1.173v0.24zM38.223 0.045c0 0.028-0.022 0.051-0.060 0.060-0.106 0.027-0.147 0.147-0.062 0.182 0.102 0.042 0.169-0.001 0.169-0.108 0-0.067 0.009-0.083 0.048-0.083 0.032 0 0.048-0.016 0.048-0.048 0-0.037-0.016-0.048-0.072-0.048-0.055 0-0.072 0.011-0.072 0.045zM1.787 0.381c0.015 0.024-0.080 0.055-0.111 0.036-0.011-0.007-0.014-0.023-0.006-0.035 0.018-0.028 0.1-0.029 0.117-0.001zM39.861 0.433c-0.030 0.012-0.138 0.032-0.24 0.045-0.15 0.019-0.195 0.034-0.234 0.081-0.027 0.031-0.091 0.11-0.144 0.175-0.139 0.17-0.167 0.195-0.277 0.252-0.116 0.059-0.101 0.105 0.042 0.128 0.136 0.022 0.263-0.027 0.357-0.139 0.144-0.17 0.217-0.205 0.319-0.153 0.047 0.024 0.137 0.043 0.2 0.043h0.115v-0.228c0-0.247-0.006-0.256-0.138-0.203zM5.246 0.569c0.053 0.021 0.12 0.048 0.15 0.062 0.185 0.086-0.033 0.305-0.304 0.305-0.085 0-0.194 0.090-0.195 0.161-0 0.024-0.044-0.047-0.096-0.158-0.117-0.247-0.119-0.225 0.018-0.32 0.176-0.123 0.225-0.128 0.426-0.051zM4.277 0.666c0.027 0.047 0.032 0.086 0.018 0.137-0.024 0.085 0 0.119 0.127 0.184 0.202 0.103 0.025 0.357-0.286 0.41-0.027 0.005-0.104-0.053-0.207-0.156-0.145-0.145-0.172-0.162-0.232-0.148-0.038 0.008-0.093 0.002-0.122-0.014-0.082-0.044-0.001-0.094 0.125-0.077 0.17 0.023 0.247-0.103 0.131-0.213-0.091-0.086-0.045-0.116 0.252-0.162 0.073-0.011 0.138-0.022 0.145-0.024s0.030 0.027 0.051 0.063zM7.698 0.629c0.099 0.036 0.144 0.212 0.054 0.212-0.012 0-0.021 0.020-0.021 0.044 0 0.071 0.33 0.191 0.444 0.162 0.098-0.025 0.203 0.132 0.204 0.305 0 0.056 0.093 0.089 0.248 0.090 0.1 0.001 0.143 0.015 0.219 0.072 0.052 0.039 0.137 0.083 0.187 0.097s0.133 0.060 0.181 0.104c0.049 0.043 0.109 0.086 0.133 0.095 0.034 0.012 0.040 0.029 0.027 0.070-0.010 0.030-0.025 0.144-0.033 0.255l-0.015 0.202 0.096 0.060c0.053 0.033 0.13 0.090 0.172 0.126 0.065 0.057 0.091 0.064 0.175 0.053 0.083-0.011 0.109-0.003 0.164 0.047 0.126 0.117 0.184 0.14 0.372 0.146 0.1 0.003 0.188 0.012 0.197 0.021 0.026 0.026-0.061 0.17-0.16 0.267-0.051 0.050-0.099 0.12-0.106 0.156-0.032 0.161-0.199 0.2-0.287 0.067-0.037-0.057-0.374-0.278-0.424-0.278-0.097 0-0.148 0.169-0.084 0.279 0.038 0.067 0.252 0.249 0.291 0.249 0.105 0 0.127 0.185 0.030 0.253-0.063 0.044-0.115 0.044-0.286-0-0.177-0.046-0.201-0.035-0.19 0.083 0.008 0.088 0.017 0.097 0.121 0.136 0.139 0.051 0.172 0.076 0.172 0.129 0 0.065-0.044 0.071-0.393 0.055l-0.323-0.015-0.123-0.135c-0.297-0.324-0.409-0.384-0.564-0.301-0.24 0.129-0.251 0.133-0.337 0.117-0.102-0.019-0.132-0.065-0.116-0.174 0.016-0.105 0.088-0.139 0.342-0.159 0.371-0.029 0.381-0.033 0.412-0.137 0.026-0.085 0.022-0.099-0.039-0.18-0.058-0.076-0.062-0.091-0.030-0.109 0.173-0.096 0.277-0.535 0.158-0.662-0.034-0.037-0.081-0.103-0.103-0.147-0.038-0.076-0.045-0.079-0.136-0.064-0.111 0.019-0.163-0.025-0.164-0.141-0.001-0.075-0.102-0.184-0.277-0.3-0.088-0.058-0.115-0.063-0.31-0.059-0.118 0.003-0.232-0.005-0.254-0.017-0.030-0.016-0.063-0.003-0.129 0.051l-0.089 0.073-0.234-0.016c-0.395-0.027-0.894-0.188-0.894-0.29 0-0.014-0.042-0.050-0.094-0.078-0.217-0.122-0.227-0.259-0.039-0.532 0.041-0.060 0.089-0.137 0.107-0.173 0.036-0.073 0.177-0.109 0.311-0.080 0.104 0.023 0.114 0.054 0.039 0.133-0.138 0.144-0.080 0.52 0.096 0.613 0.135 0.072 0.163 0.019 0.142-0.27-0.028-0.379 0.192-0.581 0.512-0.469 0.048 0.017 0.084 0.017 0.114-0.001 0.043-0.024 0.239-0.056 0.382-0.063 0.039-0.002 0.106 0.010 0.149 0.025zM1.548 0.79c0.007 0.012 0.024 0.079 0.037 0.148 0.046 0.243 0.252 0.279 0.354 0.062l0.055-0.116 0.062 0.062c0.071 0.071 0.083 0.073 0.189 0.035 0.16-0.058 0.302 0.027 0.241 0.144-0.051 0.1-0.034 0.124 0.092 0.124 0.109 0 0.163-0.039 0.193-0.138 0.018-0.060 0.039-0.067 0.078-0.027 0.015 0.015 0.051 0.039 0.080 0.054s0.072 0.079 0.097 0.145c0.024 0.065 0.066 0.141 0.093 0.17s0.049 0.063 0.049 0.077c0 0.073 0.309 0.247 0.48 0.27 0.208 0.028 0.142 0.093-0.186 0.185-0.036 0.010-0.040 0.073-0.006 0.094 0.013 0.008 0.024 0.036 0.024 0.061 0 0.1-0.387-0.001-0.461-0.121-0.035-0.056-0.219-0.070-0.252-0.018-0.011 0.017-0.052 0.045-0.091 0.062s-0.126 0.059-0.192 0.092c-0.112 0.056-0.237 0.078-0.672 0.12-0.115 0.011-0.124 0.007-0.215-0.086-0.058-0.060-0.117-0.098-0.151-0.098-0.075 0-0.268-0.049-0.282-0.072-0.032-0.052 0.042-0.168 0.108-0.168 0.037 0 0.106-0.016 0.153-0.036 0.064-0.027 0.13-0.032 0.25-0.021 0.151 0.014 0.169 0.010 0.232-0.044l0.069-0.059-0.048-0.048c-0.042-0.042-0.091-0.050-0.418-0.063-0.432-0.017-0.469-0.025-0.489-0.105-0.009-0.038-0.045-0.072-0.098-0.094-0.046-0.019-0.083-0.050-0.083-0.068s-0.006-0.049-0.013-0.068c-0.007-0.019 0.024-0.079 0.070-0.134s0.087-0.111 0.092-0.125c0.005-0.014 0.057-0.032 0.116-0.039s0.129-0.033 0.156-0.056c0.092-0.082 0.261-0.139 0.287-0.097zM2.857 0.911c0 0.105-0.060 0.129-0.102 0.040-0.038-0.080-0.038-0.086 0.001-0.108 0.049-0.027 0.102 0.008 0.102 0.068zM16.679 0.911c-0.066 0.112-0.050 0.151 0.093 0.222 0.128 0.063 0.131 0.064 0.156 0.017 0.047-0.089 0.019-0.173-0.066-0.194-0.042-0.011-0.092-0.041-0.11-0.066-0.031-0.045-0.034-0.044-0.073 0.022zM7.095 0.98c-0.058 0.152 0.004 0.27 0.104 0.196 0.060-0.045 0.081-0.048 0.162-0.026 0.154 0.043 0.364-0.082 0.268-0.16-0.050-0.040-0.519-0.050-0.534-0.010zM16.23 1.395c0 0.034 0.011 0.046 0.034 0.037 0.019-0.007 0.073-0.020 0.12-0.029 0.115-0.021 0.085-0.059-0.048-0.059-0.092 0-0.107 0.007-0.107 0.051zM16.625 1.435c-0.014 0.010-0.046 0.053-0.071 0.096s-0.054 0.078-0.064 0.078c-0.044 0-0.015 0.114 0.036 0.141 0.084 0.045 0.426 0.026 0.458-0.025 0.060-0.096-0.262-0.356-0.358-0.29zM11.901 1.816c-0.022 0.022 0.005 0.057 0.045 0.057 0.019 0 0.035-0.016 0.035-0.036 0-0.036-0.051-0.049-0.079-0.021zM4.504 2.029c0.038 0.033 0.079 0.060 0.089 0.060s0.016 0.030 0.012 0.066c-0.018 0.156-0.274 0.194-0.407 0.061l-0.049-0.048 0.051-0.099c0.063-0.124 0.187-0.14 0.304-0.039zM31.007 1.99c0.007 0.012-0.003 0.027-0.022 0.035-0.037 0.014-0.069-0.015-0.044-0.041 0.022-0.022 0.050-0.019 0.066 0.006zM29.24 2.145c0.019 0.023 0.019 0.039-0.001 0.060-0.036 0.036-0.094-0.008-0.075-0.057 0.016-0.043 0.042-0.044 0.076-0.003zM0.324 2.809c-0.053 0.024-0.147 0.052-0.21 0.061-0.135 0.020-0.185 0.179-0.056 0.179 0.037 0 0.064 0.017 0.073 0.047 0.020 0.064-0.027 0.145-0.085 0.145-0.086 0-0.068 0.231 0.019 0.248 0.036 0.007 0.096 0.021 0.133 0.030 0.051 0.012 0.088 0.001 0.157-0.047 0.050-0.035 0.117-0.063 0.15-0.063 0.073-0.001 0.326-0.084 0.397-0.13 0.124-0.082 0.082-0.258-0.069-0.287-0.060-0.011-0.102-0.043-0.159-0.123-0.089-0.124-0.178-0.139-0.351-0.060zM8.861 2.806c-0.104 0.195 0.076 0.35 0.283 0.245 0.154-0.078 0.145-0.112-0.057-0.213-0.158-0.079-0.198-0.085-0.227-0.031zM18.264 3.096c0.069 0.042 0.135 0.123 0.247 0.305 0.033 0.053 0.032 0.061-0.006 0.082-0.023 0.013-0.077 0.056-0.12 0.096-0.051 0.047-0.149 0.094-0.279 0.133-0.11 0.034-0.245 0.082-0.3 0.107-0.139 0.063-0.221 0.058-0.388-0.026-0.079-0.039-0.157-0.072-0.172-0.072-0.046-0-0.118-0.12-0.178-0.297l-0.056-0.165 0.056-0.045c0.077-0.062 0.123-0.056 0.205 0.027 0.083 0.085 0.087 0.085 0.158 0.023 0.075-0.065 0.194-0.092 0.404-0.090 0.097 0.001 0.183-0.009 0.192-0.022 0.065-0.095 0.143-0.114 0.237-0.057zM8.822 3.409c-0.042 0.042-0.011 0.213 0.042 0.23 0.060 0.019 0.067 0.011 0.093-0.101 0.028-0.126-0.057-0.207-0.135-0.129zM6.581 3.458c0.174 0.146 0.203 0.192 0.121 0.192-0.053 0-0.171 0.111-0.171 0.161 0 0.091-0.043 0.122-0.13 0.094-0.125-0.039-0.152-0.119-0.078-0.229 0.032-0.048 0.066-0.114 0.076-0.147 0.037-0.129 0.089-0.149 0.182-0.072zM6.885 3.719c0.043 0.017 0.078 0.039 0.078 0.050 0 0.021-0.146 0.048-0.174 0.032-0.010-0.006-0.018-0.038-0.018-0.071s0.008-0.056 0.018-0.051c0.010 0.005 0.053 0.024 0.096 0.040zM0.552 3.844c0 0.083 0.006 0.090 0.087 0.105 0.113 0.021 0.145-0.010 0.106-0.103-0.050-0.12-0.194-0.121-0.194-0.002zM1.992 3.958c-0.181 0.135-0.291 0.168-0.355 0.105-0.207-0.207-0.38-0.241-0.304-0.060 0.040 0.096-0.054 0.276-0.162 0.309-0.188 0.057-0.138 0.175 0.097 0.228 0.139 0.031 0.613-0.158 0.69-0.275 0.018-0.028 0.072-0.072 0.12-0.097s0.119-0.090 0.158-0.144l0.072-0.098-0.052-0.042c-0.074-0.060-0.090-0.055-0.263 0.074zM26.855 4.302c-0.047 0.027-0.084 0.067-0.083 0.091 0.003 0.059 0.192 0.221 0.225 0.193 0.127-0.106-0.002-0.364-0.142-0.285zM26.104 4.386c-0.118 0.048-0.095 0.308 0.037 0.41 0.096 0.075 0.32-0.009 0.283-0.106-0.008-0.020-0.014-0.057-0.014-0.081 0-0.036-0.238-0.245-0.269-0.237-0.004 0.001-0.021 0.007-0.038 0.014zM2.247 4.964c-0.18 0.175-0.22 0.242-0.168 0.282 0.067 0.051 0.117 0.043 0.152-0.022 0.017-0.032 0.072-0.076 0.123-0.099 0.056-0.025 0.101-0.066 0.115-0.105 0.012-0.035 0.030-0.082 0.040-0.105 0.036-0.089-0.157-0.054-0.262 0.048zM23.086 5.137c-0.084 0.093 0.014 0.217 0.106 0.134 0.063-0.057 0.061-0.087-0.009-0.138-0.054-0.039-0.059-0.039-0.097 0.004zM27.24 5.272c-0.017 0.090 0.015 0.158 0.067 0.143 0.015-0.005 0.058-0.015 0.095-0.023 0.074-0.016 0.067-0.049-0.030-0.152-0.073-0.077-0.113-0.067-0.132 0.032zM20.26 5.34c0.028 0.028 0.024 0.044-0.022 0.108-0.067 0.091-0.047 0.117 0.095 0.127 0.15 0.011 0.188 0.072 0.123 0.2-0.047 0.093-0.066 0.276-0.028 0.276 0.011 0 0.044 0.043 0.073 0.096s0.063 0.096 0.074 0.096c0.011 0 0.032 0.030 0.047 0.066s0.071 0.113 0.123 0.171c0.053 0.058 0.122 0.161 0.155 0.229 0.043 0.091 0.082 0.136 0.144 0.165 0.108 0.052 0.108 0.099-0.002 0.296-0.106 0.189-0.11 0.191-0.401 0.212-0.158 0.011-0.26 0.031-0.312 0.060-0.218 0.124-0.393 0.073-0.289-0.085 0.037-0.057 0.037-0.066-0-0.144-0.039-0.081-0.038-0.086 0.020-0.172 0.037-0.054 0.060-0.122 0.060-0.176 0-0.082 0.007-0.090 0.12-0.137 0.202-0.084 0.134-0.365-0.088-0.365-0.094 0-0.125-0.039-0.149-0.187-0.010-0.066-0.043-0.166-0.073-0.224-0.075-0.143-0.079-0.315-0.010-0.379 0.029-0.027 0.060-0.084 0.069-0.127 0.033-0.157 0.168-0.209 0.272-0.105zM3.463 5.451c-0.047 0.019-0.054 0.040-0.054 0.154 0 0.16 0.011 0.168 0.126 0.095 0.186-0.119 0.125-0.33-0.072-0.249zM19.778 6.293c0.030 0.011 0.054 0.030 0.054 0.042s0.006 0.053 0.014 0.092c0.011 0.053-0 0.088-0.045 0.141-0.046 0.055-0.062 0.108-0.073 0.243-0.015 0.184-0.025 0.201-0.191 0.326-0.201 0.152-0.463 0.088-0.36-0.087 0.070-0.119 0.086-0.241 0.041-0.327-0.046-0.090-0.024-0.13 0.134-0.244 0.058-0.042 0.115-0.091 0.125-0.109 0.071-0.12 0.136-0.137 0.299-0.077zM39.261 6.321c-0.013 0.016-0.047 0.073-0.076 0.126-0.075 0.139-0.144 0.227-0.264 0.336-0.058 0.053-0.128 0.122-0.156 0.153s-0.086 0.096-0.129 0.143c-0.043 0.048-0.078 0.093-0.078 0.1s-0.032 0.033-0.072 0.056c-0.062 0.037-0.068 0.050-0.046 0.091 0.047 0.088 0.178 0.039 0.34-0.126 0.077-0.078 0.149-0.142 0.161-0.142 0.032 0 0.29-0.241 0.29-0.271 0-0.014 0.028-0.056 0.063-0.092 0.072-0.075 0.1-0.235 0.060-0.339-0.028-0.072-0.055-0.083-0.093-0.036zM4.062 6.466c-0.013 0.016-0.043 0.078-0.067 0.137s-0.067 0.127-0.097 0.151c-0.050 0.040-0.051 0.049-0.023 0.132 0.039 0.112 0.063 0.108 0.108-0.017 0.041-0.113 0.097-0.127 0.155-0.040 0.021 0.032 0.071 0.078 0.111 0.101 0.043 0.026 0.088 0.082 0.11 0.14 0.054 0.14 0.162 0.264 0.213 0.245 0.063-0.024 0.043-0.189-0.027-0.219-0.029-0.013-0.059-0.050-0.067-0.082s-0.045-0.125-0.083-0.205c-0.037-0.080-0.075-0.18-0.084-0.222-0.024-0.113-0.189-0.193-0.249-0.121zM4.058 7.151c0 0.027 0.011 0.055 0.024 0.063s0.024-0.002 0.024-0.023 0.001-0.045 0.002-0.055c0.001-0.010-0.010-0.021-0.024-0.026s-0.026 0.013-0.026 0.040zM11.343 7.225c0.036 0.040 0.038 0.058 0.014 0.133-0.049 0.149 0.104 0.301 0.302 0.301 0.085 0 0.111 0.011 0.147 0.063 0.024 0.035 0.072 0.095 0.108 0.132s0.071 0.090 0.080 0.117c0.008 0.026 0.036 0.059 0.062 0.073 0.027 0.014 0.046 0.050 0.046 0.085 0 0.058-0.002 0.059-0.071 0.023-0.039-0.020-0.108-0.037-0.154-0.037s-0.114-0.013-0.151-0.028c-0.037-0.015-0.21-0.034-0.385-0.042-0.348-0.015-0.438-0.049-0.372-0.14 0.017-0.023 0.052-0.085 0.079-0.138s0.064-0.123 0.083-0.156c0.018-0.033 0.045-0.119 0.059-0.192 0.047-0.24 0.077-0.279 0.154-0.194zM0 7.841c0 0.125 0.004 0.133 0.054 0.126 0.109-0.016 0.101-0.26-0.009-0.26-0.039 0-0.045 0.019-0.045 0.134zM5.928 7.835c-0.034 0.015-0.1 0.060-0.145 0.1-0.121 0.105-0.231 0.185-0.33 0.241-0.232 0.132 0.030 0.291 0.275 0.167 0.146-0.074 0.126-0.076 0.247 0.027 0.056 0.048 0.151 0.105 0.211 0.126 0.133 0.048 0.136 0.073 0.016 0.12-0.129 0.051-0.132 0.056-0.209 0.36-0.098 0.388-0.068 0.579 0.091 0.579 0.12 0 0.139-0.043 0.158-0.343 0.018-0.289 0.037-0.348 0.129-0.409 0.032-0.021 0.066-0.071 0.075-0.111 0.020-0.093 0.027-0.091 0.149 0.021 0.096 0.090 0.113 0.128 0.133 0.313 0.005 0.041 0.041 0.079 0.124 0.128 0.125 0.073 0.157 0.064 0.158-0.045 0.001-0.097 0.093-0.181 0.19-0.174 0.118 0.009 0.147-0.014 0.146-0.119-0.001-0.128-0.119-0.245-0.247-0.245-0.069 0-0.441-0.091-0.499-0.121-0.024-0.013-0.047-0.067-0.057-0.135-0.036-0.239-0.444-0.557-0.615-0.48zM29.373 8.394c-0.255 0.136-0.436 0.225-0.459 0.225-0.111 0-0.173 0.276-0.106 0.474 0.028 0.082 0.051 0.169 0.051 0.192s0.027 0.083 0.060 0.132 0.060 0.098 0.060 0.111c0 0.012 0.018 0.037 0.040 0.055 0.168 0.139 0.27 0.375 0.205 0.474-0.179 0.273-0.143 0.56 0.081 0.649 0.054 0.021 0.129 0.064 0.168 0.095 0.099 0.079 0.352 0.067 0.418-0.020 0.112-0.148 0.064-0.594-0.072-0.679-0.101-0.063-0.043-0.186 0.087-0.186 0.123 0 0.153-0.021 0.153-0.109 0-0.126-0.021-0.153-0.153-0.192-0.091-0.027-0.138-0.057-0.178-0.116-0.030-0.044-0.101-0.127-0.159-0.186-0.162-0.165-0.168-0.252-0.021-0.38 0.063-0.055 0.131-0.096 0.151-0.090 0.301 0.086 0.336 0.082 0.336-0.031 0-0.115-0.132-0.271-0.325-0.383-0.2-0.117-0.188-0.115-0.337-0.036zM33.465 8.399c-0.017 0.024-0.067 0.064-0.11 0.090s-0.085 0.073-0.093 0.106c-0.008 0.033-0.031 0.079-0.051 0.102-0.034 0.039-0.030 0.042 0.054 0.042 0.091 0 0.148-0.036 0.337-0.215 0.040-0.037 0.096-0.075 0.126-0.084 0.114-0.034 0.030-0.084-0.143-0.085-0.059-0-0.099 0.015-0.12 0.043zM27.13 8.484c-0.172 0.057-0.436 0.205-0.425 0.24 0.004 0.012 0.055 0.048 0.114 0.081 0.148 0.082 0.153 0.090 0.086 0.135-0.245 0.161-0.426 0.099-0.389-0.132 0.015-0.093 0.014-0.094-0.099-0.144-0.063-0.027-0.144-0.071-0.181-0.097l-0.066-0.046-0.099 0.084c-0.098 0.084-0.213 0.28-0.298 0.507-0.024 0.066-0.068 0.153-0.096 0.192-0.098 0.137-0.113 0.205-0.074 0.349 0.066 0.247 0.070 0.249 0.327 0.167 0.083-0.026 0.179-0.048 0.214-0.048s0.123-0.039 0.195-0.086c0.16-0.105 0.42-0.111 0.552-0.014 0.064 0.047 0.181 0.087 0.443 0.151 0.48 0.117 0.73-0.27 0.33-0.51-0.049-0.030-0.122-0.087-0.162-0.127s-0.13-0.123-0.199-0.183l-0.126-0.109 0.086-0.143c0.157-0.261 0.114-0.347-0.133-0.266zM31.052 8.556c-0.037 0.031-0.103 0.075-0.145 0.096-0.193 0.099-0.279 0.354-0.164 0.49 0.2 0.238 0.595 0.075 0.5-0.207-0.021-0.062-0.039-0.175-0.040-0.252-0.003-0.175-0.048-0.213-0.151-0.128zM7.7 9.063c-0.063 0.034-0.135 0.061-0.16 0.061-0.076 0-0.123 0.028-0.146 0.086-0.014 0.036-0.053 0.064-0.113 0.080-0.050 0.014-0.135 0.056-0.187 0.094s-0.142 0.078-0.199 0.087c-0.114 0.019-0.144 0.059-0.105 0.143 0.030 0.066 0.159 0.095 0.2 0.045 0.015-0.017 0.070-0.043 0.123-0.058 0.067-0.018 0.142-0.071 0.243-0.172 0.143-0.143 0.148-0.146 0.314-0.164 0.147-0.016 0.177-0.028 0.236-0.095 0.136-0.153 0.005-0.222-0.206-0.109zM22.46 9.51c0.015 0.014-0.005 0.051-0.055 0.1-0.086 0.085-0.123 0.068-0.124-0.056-0.001-0.097 0.1-0.121 0.179-0.044zM22.532 9.921c0.101 0.144 0.021 0.331-0.142 0.331-0.095 0-0.107-0.006-0.131-0.076-0.064-0.184-0.007-0.309 0.142-0.309 0.069 0 0.103 0.014 0.131 0.053zM0 17.215v6.795h8.998l0.015-0.306c0.008-0.168 0.021-0.418 0.030-0.554 0.021-0.34-0.017-0.511-0.139-0.639-0.050-0.052-0.092-0.104-0.092-0.114s-0.015-0.019-0.033-0.019c-0.018 0-0.061-0.023-0.096-0.050s-0.115-0.068-0.177-0.090c-0.063-0.022-0.143-0.070-0.179-0.106s-0.075-0.066-0.088-0.066c-0.013 0-0.030-0.019-0.037-0.042s-0.045-0.078-0.085-0.12c-0.039-0.043-0.077-0.116-0.084-0.162s-0.019-0.122-0.026-0.169c-0.007-0.047-0.032-0.104-0.055-0.128-0.043-0.042-0.172-0.392-0.229-0.619-0.030-0.119-0.12-0.259-0.253-0.395-0.211-0.216-0.304-0.347-0.353-0.498l-0.051-0.159 0.067-0.076c0.101-0.115 0.132-0.228 0.085-0.318-0.042-0.081-0.049-0.247-0.015-0.353 0.012-0.038 0.041-0.134 0.064-0.214 0.038-0.129 0.082-0.219 0.234-0.474 0.024-0.041 0.070-0.094 0.101-0.119 0.137-0.107 0.186-0.79 0.069-0.943-0.031-0.041-0.079-0.124-0.105-0.184-0.064-0.144-0.264-0.19-0.306-0.070-0.052 0.149-0.12 0.166-0.249 0.063-0.058-0.046-0.127-0.084-0.154-0.084-0.057-0-0.155-0.064-0.155-0.1s-0.169-0.185-0.252-0.221c-0.118-0.052-0.14-0.093-0.101-0.188 0.038-0.092 0.013-0.145-0.151-0.315-0.046-0.048-0.108-0.114-0.137-0.148-0.038-0.043-0.077-0.061-0.137-0.061-0.094 0-0.414-0.119-0.498-0.185-0.072-0.057-0.308-0.299-0.33-0.338-0.035-0.063-0.197-0.095-0.374-0.075-0.234 0.028-0.438 0.004-0.541-0.062-0.047-0.030-0.122-0.063-0.168-0.072-0.105-0.023-0.287-0.107-0.287-0.133 0-0.011-0.038-0.032-0.084-0.047-0.082-0.027-0.322-0.192-0.443-0.304-0.033-0.031-0.069-0.057-0.079-0.057-0.063 0-0.119-0.204-0.104-0.381 0.012-0.141 0.007-0.197-0.021-0.243-0.020-0.033-0.056-0.098-0.080-0.144-0.042-0.081-0.207-0.333-0.332-0.504-0.033-0.046-0.087-0.107-0.12-0.135s-0.066-0.087-0.075-0.132c-0.012-0.064-0.118-0.227-0.2-0.309-0.064-0.064-0.218-0.269-0.251-0.336-0.023-0.046-0.061-0.106-0.085-0.132s-0.061-0.108-0.085-0.18c-0.115-0.356-0.417-0.455-0.366-0.12 0.030 0.199-0.021 0.304-0.077 0.158-0.012-0.031-0.054-0.080-0.093-0.108-0.047-0.034-0.079-0.085-0.097-0.155-0.014-0.057-0.047-0.131-0.072-0.163s-0.052-0.098-0.061-0.146c-0.020-0.107-0.172-0.268-0.321-0.338-0.181-0.085-0.365-0.352-0.48-0.695-0.053-0.16-0.091-0.212-0.153-0.212-0.044 0-0.045 0.164-0.045 6.795zM23.481 10.614c0 0.131-0.198 0.282-0.264 0.202-0.016-0.020-0.072-0.060-0.123-0.088-0.171-0.096-0.095-0.162 0.189-0.163 0.184-0.001 0.198 0.003 0.198 0.049zM28.513 10.62c-0.039 0.029-0.040 0.037-0.004 0.122 0.046 0.11 0.096 0.103 0.106-0.013 0.009-0.104-0.039-0.154-0.102-0.108zM25.234 11.261c0.034 0.063-0.012 0.082-0.123 0.053l-0.081-0.021 0.072-0.039c0.093-0.051 0.102-0.050 0.132 0.007zM26.541 11.259c0.040 0.044 0.039 0.047-0.007 0.072-0.090 0.048-0.163-0.021-0.095-0.089 0.039-0.039 0.053-0.037 0.102 0.017zM29.058 12.344c-0.137 0.040-0.115 0.198 0.069 0.494 0.081 0.129 0.166 0.284 0.189 0.344 0.031 0.079 0.061 0.115 0.111 0.132 0.112 0.039 0.129 0.058 0.129 0.144 0 0.186 0.357 0.231 0.527 0.066 0.051-0.049 0.126-0.115 0.167-0.145l0.073-0.055 0.048 0.079c0.027 0.044 0.048 0.096 0.048 0.117 0 0.045 0.161 0.179 0.298 0.249 0.228 0.115 0.266 0.34 0.103 0.596-0.049 0.076-0.117 0.206-0.151 0.288-0.068 0.163-0.12 0.234-0.169 0.234-0.017 0-0.048 0.025-0.068 0.056s-0.066 0.071-0.103 0.090c-0.036 0.019-0.113 0.069-0.17 0.112s-0.148 0.085-0.201 0.094c-0.098 0.016-0.307 0.177-0.307 0.236 0 0.055-0.161 0.176-0.288 0.217-0.073 0.023-0.162 0.068-0.199 0.098s-0.113 0.069-0.168 0.085c-0.056 0.016-0.128 0.049-0.162 0.073s-0.117 0.053-0.187 0.064c-0.075 0.012-0.149 0.041-0.182 0.072-0.046 0.043-0.073 0.050-0.155 0.036-0.133-0.021-0.214 0.205-0.117 0.327 0.084 0.106 0.21 0.174 0.271 0.147 0.033-0.015 0.097-0.027 0.142-0.027s0.165-0.027 0.266-0.060c0.101-0.033 0.216-0.060 0.256-0.060s0.106-0.021 0.148-0.047c0.261-0.161 0.279 0.183 0.036 0.689-0.078 0.163-0.142 0.311-0.142 0.33 0 0.102-0.188 0.485-0.271 0.552-0.016 0.013-0.061 0.067-0.099 0.12-0.086 0.119-0.182 0.207-0.345 0.314-0.069 0.046-0.126 0.094-0.126 0.106s-0.015 0.023-0.033 0.023c-0.046 0-0.249 0.215-0.325 0.343-0.13 0.221-0.178 0.284-0.245 0.319-0.104 0.054-0.161 0.126-0.203 0.261-0.021 0.067-0.059 0.162-0.085 0.21-0.058 0.11-0.058 0.156 0.002 0.273 0.036 0.070 0.048 0.143 0.049 0.287s0.013 0.215 0.047 0.277c0.119 0.217 0.12 0.224 0.12 0.631 0 0.35-0.005 0.398-0.045 0.44-0.025 0.026-0.058 0.072-0.074 0.102s-0.074 0.075-0.129 0.101-0.127 0.063-0.16 0.082c-0.033 0.019-0.079 0.035-0.102 0.035-0.093 0.001-0.233 0.080-0.292 0.165-0.034 0.049-0.11 0.129-0.17 0.18-0.125 0.105-0.145 0.209-0.061 0.324 0.035 0.047 0.055 0.132 0.073 0.313 0.029 0.282 0.022 0.302-0.116 0.327-0.078 0.015-0.247 0.105-0.335 0.181-0.018 0.015-0.030 0.085-0.030 0.177 0 0.083-0.007 0.218-0.015 0.299l-0.015 0.148h13.812v-3.553h-0.205c-0.163 0-0.226-0.011-0.306-0.052-0.068-0.035-0.172-0.058-0.317-0.070-0.35-0.030-0.444-0.081-0.444-0.24 0-0.083 0.334-0.064 0.448 0.025 0.056 0.044 0.094 0.050 0.297 0.048 0.249-0.003 0.358 0.030 0.408 0.122 0.014 0.026 0.047 0.048 0.073 0.048 0.045 0 0.047-0.018 0.047-0.417v-0.417l-0.102-0.015c-0.327-0.049-0.307-0.034-0.495-0.37-0.248-0.442-0.198-0.718 0.119-0.668 0.086 0.014 0.094 0.009 0.159-0.087 0.060-0.090 0.083-0.105 0.194-0.123l0.125-0.021v-2.025c0-1.913-0.002-2.025-0.042-2.025-0.118 0.001-0.335 0.114-0.433 0.226-0.076 0.086-0.149 0.075-0.149-0.022 0-0.257-0.6 0.063-0.657 0.351-0.042 0.209-0.020 0.274 0.163 0.489 0.159 0.187 0.148 0.172 0.243 0.323 0.046 0.072 0.090 0.169 0.099 0.216s0.031 0.121 0.049 0.165c0.142 0.341 0.018 0.619-0.336 0.754-0.134 0.051-0.152 0.066-0.18 0.151-0.072 0.218-0.195 0.205-0.198-0.021-0.001-0.092-0.010-0.105-0.114-0.171-0.062-0.040-0.137-0.11-0.168-0.156s-0.069-0.1-0.085-0.12c-0.016-0.020-0.055-0.071-0.085-0.114-0.060-0.084-0.229-0.184-0.279-0.165-0.018 0.007-0.035 0.080-0.043 0.188-0.007 0.097-0.033 0.256-0.056 0.353-0.041 0.17-0.041 0.182 0 0.288 0.024 0.061 0.049 0.142 0.056 0.18 0.015 0.077 0.023 0.089 0.253 0.348 0.209 0.236 0.282 0.385 0.282 0.577 0 0.099 0.015 0.174 0.047 0.233 0.049 0.091 0.036 0.165-0.034 0.191s-0.202-0.058-0.255-0.162c-0.029-0.057-0.073-0.13-0.097-0.164-0.059-0.080-0.14-0.386-0.201-0.754-0.010-0.063-0.030-0.096-0.061-0.105-0.126-0.033-0.181-0.27-0.090-0.392 0.049-0.066 0.050-0.080 0.023-0.187-0.016-0.064-0.044-0.22-0.062-0.347s-0.056-0.28-0.085-0.34-0.061-0.165-0.071-0.235c-0.020-0.137-0.093-0.319-0.172-0.43l-0.050-0.070-0.052 0.056c-0.073 0.078-0.281 0.195-0.303 0.171-0.049-0.054-0.069-0.176-0.043-0.26 0.052-0.169-0.037-0.429-0.204-0.595-0.101-0.101-0.139-0.157-0.139-0.204-0.001-0.29-0.245-0.489-0.335-0.272-0.036 0.087-0.185 0.154-0.297 0.135s-0.182 0.031-0.268 0.192c-0.056 0.104-0.111 0.167-0.2 0.228-0.068 0.046-0.164 0.133-0.213 0.192-0.123 0.147-0.122 0.147-0.265 0.237-0.069 0.044-0.149 0.112-0.176 0.15s-0.084 0.087-0.126 0.109c-0.201 0.102-0.229 0.193-0.211 0.662 0.006 0.151-0.001 0.2-0.040 0.264-0.027 0.046-0.054 0.147-0.063 0.24-0.019 0.194-0.030 0.229-0.083 0.245-0.022 0.007-0.069 0.061-0.105 0.121-0.126 0.208-0.277 0.147-0.356-0.144-0.018-0.066-0.057-0.163-0.087-0.216s-0.055-0.111-0.055-0.13c-0-0.018-0.026-0.067-0.056-0.108-0.060-0.080-0.112-0.253-0.112-0.376 0-0.042-0.027-0.137-0.060-0.211s-0.081-0.227-0.107-0.339c-0.026-0.112-0.065-0.269-0.087-0.348-0.035-0.124-0.049-0.355-0.036-0.595 0.002-0.037-0.015-0.098-0.038-0.137l-0.041-0.070-0.046 0.077c-0.059 0.098-0.082 0.112-0.18 0.113-0.201 0.001-0.329-0.266-0.183-0.381l0.061-0.048-0.082-0.023c-0.090-0.025-0.439-0.341-0.474-0.43-0.045-0.112-0.204-0.187-0.306-0.144-0.357 0.15-1.2 0.036-1.293-0.176-0.055-0.125-0.195-0.188-0.285-0.129-0.289 0.189-0.611-0.026-0.828-0.552-0.082-0.198-0.192-0.257-0.378-0.203zM1.561 12.423c0 0.090 0.040 0.174 0.088 0.186 0.026 0.007 0.067 0.068 0.102 0.153 0.032 0.078 0.079 0.173 0.105 0.21s0.053 0.116 0.059 0.174c0.006 0.058 0.021 0.106 0.031 0.106 0.054 0 0.095 0.084 0.095 0.194 0 0.13-0.054 0.168-0.082 0.058-0.008-0.033-0.036-0.082-0.062-0.107s-0.063-0.104-0.084-0.174c-0.046-0.155-0.070-0.185-0.192-0.248-0.136-0.069-0.156-0.127-0.139-0.39 0.013-0.205 0.079-0.341 0.079-0.163zM26.579 12.832c-0.062 0.074-0.006 0.26 0.149 0.497 0.12 0.184 0.148 0.247 0.162 0.361 0.010 0.083 0.037 0.167 0.068 0.208 0.156 0.211 0.222 0.384 0.222 0.582 0 0.209 0.015 0.252 0.135 0.387 0.044 0.050 0.081 0.099 0.081 0.11s0.022 0.045 0.048 0.076c0.028 0.033 0.048 0.090 0.049 0.142 0.001 0.144 0.042 0.276 0.1 0.323 0.158 0.128 0.259 0.222 0.259 0.244 0 0.014 0.030 0.058 0.066 0.099s0.085 0.098 0.109 0.127c0.068 0.083 0.125 0.055 0.123-0.059-0.008-0.349-0.051-0.626-0.114-0.725-0.035-0.056-0.064-0.113-0.064-0.126s-0.011-0.024-0.024-0.024c-0.024 0-0.061-0.072-0.119-0.231-0.028-0.075-0.172-0.245-0.243-0.287-0.042-0.025-0.13-0.349-0.152-0.563-0.018-0.174-0.063-0.298-0.138-0.378-0.034-0.036-0.075-0.109-0.091-0.162s-0.064-0.145-0.105-0.204c-0.088-0.127-0.12-0.179-0.173-0.276-0.085-0.156-0.264-0.219-0.345-0.121zM2.187 13.692c-0.003 0.029-0.036 0.023-0.046-0.008-0.005-0.016 0.003-0.024 0.019-0.019s0.028 0.017 0.027 0.027zM7.331 13.873c0.030 0.029 0.071 0.052 0.090 0.053s0.077 0.033 0.128 0.072c0.052 0.039 0.129 0.078 0.173 0.086s0.097 0.035 0.12 0.060c0.023 0.025 0.099 0.073 0.17 0.106 0.122 0.058 0.128 0.065 0.128 0.153 0 0.189-0.311 0.159-0.433-0.042-0.024-0.040-0.075-0.092-0.112-0.115s-0.098-0.067-0.135-0.097c-0.037-0.030-0.093-0.055-0.125-0.055-0.033 0-0.091-0.034-0.136-0.080-0.128-0.129-0.29-0.175-0.373-0.107-0.021 0.017-0.030 0.016-0.030-0.002 0-0.015-0-0.035-0.001-0.045-0.002-0.068 0.462-0.056 0.537 0.014zM9.001 14.581c0.045 0.016 0.118 0.074 0.164 0.129 0.103 0.126 0.079 0.145-0.224 0.176-0.278 0.029-0.369-0.011-0.369-0.158 0-0.155 0.206-0.225 0.429-0.147zM39.563 14.699c0.127 0.128-0.145 0.411-0.3 0.312-0.027-0.017-0.052-0.209-0.030-0.23 0.091-0.085 0.281-0.132 0.33-0.083zM7.797 14.877l-0.027 0.060-0.030-0.055c-0.036-0.068 0.001-0.132 0.052-0.090 0.024 0.020 0.025 0.039 0.004 0.086zM8.679 16.663c-0.040 0.078-0.004 0.192 0.060 0.192 0.048 0 0.101-0.115 0.075-0.162-0.054-0.102-0.093-0.11-0.135-0.030zM34.546 17.105c0.105 0.223 0.034 0.465-0.123 0.42-0.042-0.012-0.080-0.022-0.084-0.022-0.060 0-0.096-0.328-0.052-0.484l0.024-0.088 0.094 0.037c0.071 0.028 0.106 0.062 0.141 0.137zM37.16 17.629c0.077 0.020 0.145 0.062 0.21 0.127 0.201 0.203 0.38 0.409 0.405 0.467 0.014 0.033 0.050 0.082 0.078 0.108 0.052 0.048 0.289 0.253 0.318 0.276 0.071 0.054 0.147 0.2 0.148 0.281 0 0.096 0.098 0.231 0.32 0.441l0.092 0.087-0.017 0.178c-0.023 0.243-0.039 0.277-0.135 0.293-0.079 0.013-0.308-0.066-0.308-0.105 0-0.010-0.025-0.048-0.055-0.086s-0.075-0.117-0.1-0.176c-0.025-0.059-0.068-0.14-0.096-0.18s-0.070-0.123-0.094-0.186-0.053-0.12-0.065-0.128c-0.012-0.008-0.044-0.055-0.069-0.106s-0.061-0.106-0.079-0.124c-0.073-0.075-0.114-0.156-0.114-0.227 0-0.061-0.028-0.103-0.144-0.217-0.079-0.077-0.144-0.153-0.144-0.168-0-0.026-0.169-0.198-0.283-0.29-0.066-0.052-0.098-0.206-0.054-0.259 0.036-0.044 0.042-0.044 0.186-0.006zM26.291 18.733c-0.090 0.048-0.104 0.437-0.019 0.531l0.055 0.061 0.144-0.037c0.207-0.054 0.28-0.179 0.241-0.411-0.024-0.143-0.267-0.226-0.421-0.144zM25.801 19.421c-0.081 0.090-0.034 0.483 0.072 0.591 0.045 0.046 0.082 0.094 0.082 0.106 0 0.043 0.171 0.197 0.211 0.189 0.059-0.011 0.050-0.099-0.013-0.127-0.044-0.020-0.054-0.043-0.055-0.132-0.001-0.118-0.024-0.158-0.127-0.224-0.056-0.036-0.066-0.058-0.062-0.132 0.015-0.243-0.030-0.358-0.108-0.271zM26.592 20.526c-0.055 0.089-0.028 0.645 0.034 0.708 0.092 0.093 0.158-0.59 0.068-0.699-0.029-0.035-0.082-0.039-0.102-0.008zM29.241 21.162c0.057 0.069 0.061 0.331 0.005 0.425-0.028 0.047-0.061 0.134-0.073 0.192-0.041 0.199-0.124 0.459-0.157 0.492-0.018 0.018-0.046 0.112-0.063 0.208-0.019 0.111-0.055 0.215-0.099 0.286-0.038 0.061-0.082 0.173-0.098 0.248-0.018 0.087-0.045 0.145-0.073 0.16-0.024 0.013-0.054 0.050-0.066 0.082-0.029 0.075-0.231 0.088-0.256 0.017-0.008-0.023-0.039-0.069-0.070-0.102-0.128-0.14-0.148-0.53-0.034-0.672 0.086-0.108 0.098-0.162 0.069-0.32-0.050-0.277-0.052-0.304-0.019-0.344 0.050-0.060 0.201-0.149 0.323-0.19 0.099-0.034 0.346-0.242 0.347-0.293 0-0.027 0.187-0.222 0.212-0.222 0.012 0 0.034 0.015 0.050 0.033z"></path>
    <path fill="#299cf8" d="M1.181 0.053c0.016 0.109 0.308 0.105 0.308-0.004 0-0.044-0.015-0.049-0.158-0.049-0.149 0-0.157 0.003-0.15 0.053zM1.561 0.046c0 0.102 0.245 0.109 0.26 0.007 0.007-0.049-0.002-0.053-0.126-0.053-0.115 0-0.134 0.006-0.134 0.046zM1.969 0.044c0 0.090 0.149 0.124 0.504 0.116 0.363-0.009 0.408-0.020 0.408-0.102v-0.057h-0.456c-0.428 0-0.456 0.003-0.456 0.044zM3.865 0.045c0 0.148 0.278 0.231 0.414 0.123 0.149-0.118 0.097-0.169-0.174-0.169-0.219 0-0.24 0.004-0.24 0.045zM4.675 0.112c-0.019 0.168 0.009 0.198 0.178 0.199 0.079 0 0.094-0.038 0.076-0.191l-0.014-0.121h-0.227l-0.013 0.113zM5.343 0.135c-0.021 0.168 0.013 0.212 0.162 0.211 0.056-0.001 0.172-0.002 0.258-0.004s0.199-0.002 0.252-0c0.447 0.011 1.091-0.015 1.182-0.048l0.102-0.036v-0.258h-1.939l-0.017 0.135zM11.068 0.047c0 0.028 0.028 0.062 0.070 0.083 0.078 0.040 0.243 0.222 0.243 0.267 0 0.016 0.038 0.084 0.084 0.151s0.084 0.134 0.084 0.148 0.027 0.062 0.060 0.105c0.073 0.096 0.074 0.102 0.005 0.207-0.105 0.159-0.114 0.201-0.064 0.284l0.045 0.075 0.079-0.045c0.083-0.048 0.267-0.039 0.336 0.015 0.017 0.014 0.072 0.038 0.123 0.054 0.13 0.042 0.186 0.109 0.168 0.202-0.036 0.188-0.178 0.243-0.296 0.114-0.115-0.126-0.284-0.084-0.325 0.080-0.008 0.033-0.023 0.061-0.033 0.061-0.061 0-0.106 0.166-0.060 0.218 0.174 0.192 0.341 0.179 0.4-0.031l0.035-0.126 0.122-0.007c0.156-0.009 0.198 0.041 0.198 0.239 0 0.225-0.081 0.402-0.192 0.42-0.060 0.010-0.123 0.046-0.19 0.112l-0.101 0.098 0.015 0.158c0.022 0.242 0.036 0.31 0.069 0.343 0.017 0.017 0.064 0.081 0.106 0.141s0.101 0.127 0.132 0.147c0.052 0.034 0.056 0.050 0.047 0.195-0.009 0.143-0.004 0.165 0.053 0.232 0.034 0.041 0.063 0.085 0.063 0.097s0.059 0.060 0.13 0.106c0.091 0.058 0.155 0.125 0.215 0.223 0.122 0.201 0.159 0.228 0.271 0.206 0.141-0.028 0.255 0.012 0.429 0.148 0.151 0.119 0.153 0.119 0.192 0.026 0.020-0.047 0.036-0.112 0.036-0.146s0.026-0.112 0.058-0.175c0.032-0.062 0.072-0.173 0.088-0.246 0.018-0.078 0.058-0.162 0.096-0.204 0.089-0.098 0.19-0.348 0.19-0.471 0-0.237 0.148-0.333 0.576-0.373l0.18-0.017 0.137-0.14c0.075-0.077 0.147-0.14 0.161-0.14 0.041 0 0.274-0.231 0.302-0.3 0.023-0.056 0.042-0.067 0.134-0.072 0.059-0.003 0.167-0.028 0.24-0.056s0.187-0.051 0.254-0.051c0.118-0.001 0.452-0.144 0.636-0.273 0.031-0.022 0.095-0.040 0.141-0.040 0.106-0.001 0.171-0.054 0.229-0.188 0.032-0.074 0.069-0.115 0.131-0.144 0.123-0.058 0.134-0.201 0.025-0.325-0.073-0.083-0.074-0.088-0.039-0.159 0.055-0.11 0.026-0.228-0.075-0.311-0.097-0.080-0.088-0.113 0.037-0.136 0.234-0.044 0.311-0.133 0.185-0.216l-0.060-0.040 0.088-0.076c0.085-0.073 0.087-0.080 0.060-0.157-0.032-0.092-0.019-0.117 0.107-0.195 0.047-0.029 0.081-0.070 0.081-0.096 0-0.045-0.062-0.046-3.253-0.046-3.223 0-3.253 0-3.253 0.047zM30.804 0.047c0 0.062-0.115 0.121-0.235 0.121-0.095 0-0.423 0.199-0.452 0.275-0.007 0.017-0.049 0.051-0.095 0.076-0.071 0.038-0.083 0.057-0.083 0.134 0 0.112-0.036 0.207-0.107 0.284-0.030 0.033-0.062 0.088-0.070 0.123s-0.052 0.117-0.098 0.184c-0.098 0.143-0.072 0.197 0.096 0.198 0.126 0.001 0.178 0.045 0.178 0.149 0 0.11 0.040 0.14 0.209 0.155 0.199 0.018 0.308-0.029 0.259-0.113-0.019-0.033-0.043-0.076-0.052-0.096s-0.038-0.057-0.062-0.084c-0.155-0.167-0.014-0.609 0.279-0.876 0.051-0.047 0.12-0.114 0.153-0.15s0.112-0.082 0.175-0.103c0.063-0.021 0.139-0.059 0.169-0.085 0.054-0.047 0.214-0.1 0.388-0.129 0.068-0.011 0.090-0.026 0.090-0.062 0-0.045-0.019-0.047-0.372-0.047-0.355 0-0.372 0.002-0.372 0.047zM36.206 0.042c-0 0.031-0.041 0.055-0.15 0.088-0.384 0.118-0.476 0.244-0.422 0.578 0.006 0.040-0.003 0.047-0.064 0.039-0.139-0.017-0.529-0.009-0.66 0.013-0.385 0.065-0.436 0.347-0.096 0.525 0.203 0.107 0.216 0.137 0.216 0.477 0 0.303-0.009 0.321-0.149 0.272-0.148-0.051-0.194-0.277-0.091-0.446l0.048-0.079-0.061-0.023c-0.034-0.013-0.087-0.030-0.118-0.038s-0.077-0.036-0.101-0.062c-0.122-0.135-0.283-0.144-0.426-0.026-0.060 0.050-0.131 0.106-0.159 0.126-0.045 0.032-0.048 0.044-0.022 0.117 0.036 0.102 0.009 0.123-0.16 0.123-0.132 0-0.146-0.014-0.227-0.234-0.034-0.094-0.061-0.080-0.156 0.082-0.062 0.105-0.062 0.109-0.019 0.156 0.029 0.032 0.045 0.090 0.048 0.172 0.002 0.068 0.005 0.153 0.006 0.188 0.004 0.125 0.136 0.17 0.209 0.072 0.023-0.031 0.040-0.029 0.132 0.020 0.058 0.031 0.138 0.063 0.177 0.071 0.102 0.022 0.184 0.191 0.148 0.308-0.018 0.059-0.017 0.102 0.004 0.157 0.032 0.083-0.006 0.136-0.095 0.136-0.059 0-0.068-0.022-0.093-0.242-0.012-0.108-0.035-0.21-0.050-0.229-0.083-0.1-0.378 0.029-0.347 0.153 0.014 0.054-0.009 0.146-0.089 0.372-0.014 0.039-0.064 0.088-0.122 0.12-0.054 0.030-0.112 0.081-0.128 0.114-0.041 0.082-0.11 0.093-0.308 0.048-0.208-0.047-0.247-0.12-0.092-0.168 0.4-0.125 0.587-0.393 0.431-0.62-0.094-0.136-0.111-0.205-0.095-0.376 0.011-0.122 0.005-0.178-0.027-0.25-0.046-0.102-0.042-0.208 0.016-0.434 0.111-0.429-0.262-0.534-0.532-0.15-0.072 0.102-0.163 0.221-0.204 0.265-0.068 0.073-0.073 0.091-0.074 0.264-0.001 0.102-0.014 0.209-0.031 0.238-0.021 0.037-0.022 0.057-0.004 0.069 0.159 0.099 0.265 0.539 0.13 0.539-0.039 0-0.158-0.072-0.227-0.137-0.046-0.043-0.143-0.11-0.216-0.148s-0.181-0.097-0.241-0.132c-0.091-0.053-0.138-0.063-0.291-0.063-0.216-0-0.231 0.012-0.242 0.192-0.006 0.109-0.017 0.135-0.063 0.159-0.031 0.015-0.068 0.040-0.083 0.055-0.037 0.037-0.107 0.034-0.13-0.005-0.059-0.098-0.588-0.096-0.679 0.002-0.077 0.083-0.222 0.075-0.304-0.018-0.079-0.089-0.065-0.090-0.329 0.014-0.491 0.193-0.604 0.263-0.637 0.392-0.044 0.173-0.221 0.237-0.374 0.137-0.079-0.052-0.069-0.192 0.019-0.259 0.029-0.022 0.073-0.056 0.099-0.075 0.050-0.037 0.052-0.033-0.11-0.229-0.015-0.018-0.049-0.026-0.078-0.018s-0.069 0.014-0.090 0.014c-0.052 0-0.093 0.165-0.093 0.372 0 0.273-0.086 0.36-0.298 0.301-0.101-0.028-0.107-0.027-0.227 0.059-0.129 0.093-0.138 0.113-0.1 0.215 0.023 0.061-0.033 0.157-0.093 0.157-0.048 0-0.224-0.073-0.258-0.107-0.105-0.105-0.13-0.027-0.046 0.143 0.095 0.194 0.073 0.252-0.098 0.252-0.167 0-0.312-0.152-0.366-0.385-0.041-0.178-0.042-0.18-0.157-0.234-0.064-0.030-0.144-0.088-0.18-0.13-0.21-0.246-0.025-0.304 0.332-0.104 0.033 0.018 0.141 0.051 0.24 0.073 0.307 0.067 0.354 0.070 0.419 0.027 0.033-0.021 0.076-0.039 0.096-0.039s0.055-0.027 0.079-0.060c0.024-0.033 0.062-0.084 0.085-0.112 0.058-0.071 0.056-0.079-0.062-0.194-0.165-0.162-0.524-0.365-0.776-0.438-0.076-0.022-0.177-0.060-0.224-0.083s-0.123-0.051-0.169-0.060c-0.046-0.010-0.111-0.042-0.144-0.072-0.037-0.033-0.106-0.060-0.178-0.069-0.146-0.019-0.171-0.039-0.203-0.167-0.025-0.098-0.032-0.105-0.18-0.157l-0.154-0.054-0.102 0.056c-0.056 0.031-0.127 0.070-0.157 0.087-0.060 0.033-0.178 0.017-0.178-0.024 0-0.036-0.192-0-0.264 0.048s-0.248 0.099-0.354 0.1c-0.043 0.001-0.078 0.010-0.078 0.021 0 0.028-0.16 0.1-0.224 0.1-0.054 0-0.131 0.044-0.22 0.126-0.026 0.024-0.071 0.050-0.1 0.057-0.038 0.009-0.060 0.043-0.079 0.121-0.028 0.11-0.131 0.296-0.165 0.296-0.010 0-0.038 0.057-0.062 0.127-0.032 0.095-0.074 0.155-0.164 0.234-0.175 0.154-0.209 0.192-0.26 0.291-0.025 0.048-0.079 0.112-0.121 0.141-0.162 0.115-0.342 0.292-0.434 0.425-0.060 0.087-0.082 0.102-0.155 0.102-0.094 0-0.41 0.246-0.509 0.396-0.009 0.013-0.057 0.043-0.108 0.067-0.162 0.075-0.217 0.331-0.101 0.469 0.053 0.063 0.060 0.096 0.068 0.327 0.005 0.141 0.020 0.267 0.034 0.281 0.040 0.040 0.218 0.072 0.265 0.049 0.023-0.012 0.080-0.039 0.126-0.062s0.122-0.062 0.168-0.087c0.188-0.104 0.384-0.027 0.384 0.15 0 0.091 0.052 0.213 0.117 0.27 0.116 0.104 0.016 0.374-0.139 0.375-0.101 0.001-0.127 0.030-0.098 0.106 0.019 0.050 0.036 0.062 0.067 0.050 0.023-0.009 0.106-0.033 0.184-0.051 0.118-0.028 0.167-0.057 0.28-0.165 0.119-0.114 0.15-0.131 0.232-0.131 0.126 0 0.14-0.024 0.159-0.266 0.024-0.306 0.037-0.339 0.157-0.396 0.226-0.108 0.31-0.467 0.11-0.467-0.095 0-0.144-0.172-0.121-0.421 0.020-0.214 0.197-0.482 0.348-0.527 0.096-0.028 0.26-0.183 0.275-0.259 0.006-0.029 0.016-0.095 0.023-0.146 0.036-0.264 0.441-0.411 0.618-0.224 0.061 0.065 0.049 0.224-0.022 0.282-0.026 0.021-0.065 0.075-0.088 0.12s-0.128 0.166-0.233 0.268c-0.107 0.104-0.184 0.197-0.175 0.212s0.024 0.125 0.034 0.246c0.018 0.213 0.021 0.221 0.105 0.295 0.048 0.042 0.087 0.086 0.087 0.099 0 0.122 0.183 0.128 0.397 0.014 0.221-0.118 0.446-0.129 0.556-0.027 0.037 0.035 0.092 0.076 0.122 0.091 0.152 0.078 0.013 0.14-0.558 0.248-0.385 0.072-0.382 0.069-0.362 0.366 0.023 0.336-0.063 0.406-0.291 0.237-0.058-0.043-0.15-0.058-0.152-0.024-0 0.002-0.027 0.083-0.060 0.18s-0.060 0.219-0.060 0.27c0 0.071-0.017 0.11-0.067 0.16-0.037 0.036-0.103 0.112-0.147 0.169l-0.080 0.103-0.169-0.1-0.148 0.059c-0.267 0.107-0.419 0.126-0.632 0.081-0.184-0.039-0.186-0.039-0.269 0.015l-0.084 0.055-0.102-0.062c-0.125-0.075-0.123-0.070-0.099-0.291 0.068-0.625 0.067-0.64-0.060-0.612-0.226 0.049-0.341 0.384-0.215 0.625 0.158 0.302 0.019 0.513-0.347 0.526-0.171 0.006-0.25 0.059-0.333 0.225-0.060 0.119-0.106 0.172-0.147 0.172-0.087 0-0.363 0.153-0.377 0.208-0.028 0.111-0.178 0.245-0.321 0.287-0.134 0.039-0.196 0.079-0.196 0.127 0 0.079-0.096 0.122-0.273 0.122-0.281 0-0.371 0.112-0.166 0.207 0.116 0.054 0.291 0.198 0.309 0.254 0.007 0.024 0.062 0.099 0.12 0.168 0.119 0.139 0.133 0.226 0.080 0.481-0.038 0.18-0.055 0.194-0.212 0.18-0.21-0.018-0.602-0.066-0.733-0.088-0.087-0.015-0.136-0.012-0.18 0.011-0.033 0.018-0.095 0.050-0.137 0.072-0.092 0.048-0.113 0.102-0.077 0.195 0.046 0.118 0.041 0.537-0.007 0.625-0.064 0.119-0.079 0.259-0.033 0.324 0.021 0.030 0.039 0.1 0.039 0.154 0 0.136 0.052 0.178 0.221 0.178 0.122 0 0.142 0.008 0.247 0.1 0.11 0.096 0.117 0.099 0.189 0.069 0.042-0.017 0.144-0.040 0.229-0.052 0.184-0.025 0.203-0.036 0.441-0.27 0.183-0.18 0.195-0.202 0.187-0.334-0.008-0.12 0.209-0.422 0.359-0.498 0.108-0.055 0.217-0.207 0.217-0.303 0-0.159 0.171-0.239 0.351-0.163 0.098 0.041 0.211 0.019 0.315-0.062 0.317-0.245 0.497-0.172 0.617 0.251 0.023 0.083 0.237 0.292 0.333 0.326 0.050 0.018 0.158 0.098 0.24 0.179s0.169 0.154 0.193 0.163c0.039 0.015 0.043 0.040 0.036 0.203l-0.008 0.186h0.069c0.099 0 0.16-0.159 0.111-0.293-0.032-0.088-0.031-0.090 0.054-0.164l0.087-0.075-0.114-0.118c-0.154-0.159-0.224-0.213-0.333-0.256-0.069-0.027-0.11-0.068-0.165-0.165-0.040-0.071-0.13-0.187-0.198-0.257-0.136-0.141-0.161-0.238-0.087-0.351s0.351 0 0.432 0.175c0.056 0.121 0.149 0.217 0.263 0.272 0.053 0.025 0.156 0.089 0.228 0.142s0.173 0.123 0.222 0.156l0.090 0.060v0.184c0 0.162 0.007 0.192 0.058 0.246 0.093 0.098 0.237 0.386 0.257 0.514 0.043 0.273 0.313 0.265 0.455-0.013l0.049-0.097-0.076-0.064c-0.127-0.106-0.177-0.387-0.069-0.387 0.011 0 0.057-0.032 0.102-0.072 0.159-0.14 0.4-0.073 0.4 0.111 0 0.039 0.022 0.114 0.049 0.166s0.047 0.127 0.044 0.167c-0.021 0.342 0.403 0.699 0.65 0.545 0.095-0.059 0.151-0.053 0.311 0.034l0.106 0.058 0.086-0.057c0.238-0.156 0.322-0.127 0.353 0.121 0.030 0.237 0.025 0.271-0.081 0.616-0.020 0.065-0.074 0.181-0.12 0.259l-0.084 0.141-0.315-0.002c-0.173-0.001-0.354 0.008-0.402 0.020-0.119 0.030-0.456-0.019-0.511-0.074-0.023-0.023-0.070-0.048-0.106-0.055-0.074-0.016-0.114-0.030-0.473-0.158-0.429-0.154-0.416-0.153-0.528-0.049-0.053 0.049-0.1 0.092-0.106 0.095s0.004 0.048 0.021 0.1c0.066 0.199-0.1 0.311-0.328 0.222-0.063-0.025-0.155-0.052-0.204-0.061-0.064-0.012-0.128-0.055-0.229-0.154-0.146-0.144-0.19-0.168-0.42-0.233-0.076-0.021-0.144-0.049-0.151-0.061s-0.034-0.022-0.058-0.022c-0.046 0-0.157-0.116-0.198-0.207-0.018-0.040-0.013-0.068 0.025-0.121 0.069-0.098 0.094-0.459 0.039-0.565l-0.039-0.075-0.222 0.016c-0.122 0.009-0.372 0.020-0.556 0.025-0.228 0.007-0.368 0.022-0.442 0.049-0.059 0.021-0.131 0.033-0.159 0.027-0.066-0.017-0.256 0.040-0.438 0.131-0.079 0.039-0.153 0.072-0.164 0.072s-0.040 0.027-0.065 0.060c-0.069 0.092-0.528 0.092-0.615 0-0.094-0.1-0.1-0.095-0.28 0.258-0.047 0.092-0.097 0.14-0.263 0.248-0.27 0.176-0.301 0.24-0.291 0.598 0.004 0.158-0.003 0.26-0.019 0.271-0.014 0.009-0.050 0.058-0.080 0.107-0.057 0.094-0.24 0.258-0.287 0.258-0.015 0-0.027 0.008-0.028 0.018s-0.033 0.040-0.074 0.066-0.090 0.080-0.111 0.12c-0.020 0.040-0.066 0.105-0.102 0.144s-0.111 0.182-0.167 0.315c-0.056 0.134-0.128 0.268-0.16 0.298s-0.059 0.081-0.059 0.112c0 0.068-0.042 0.155-0.087 0.182-0.048 0.029-0.043 0.254 0.008 0.31 0.028 0.031 0.039 0.079 0.035 0.155-0.003 0.061 0.007 0.19 0.023 0.288 0.032 0.197-0.006 0.588-0.063 0.657-0.141 0.168-0.039 0.6 0.192 0.819 0.047 0.044 0.085 0.092 0.085 0.107s0.027 0.052 0.060 0.083c0.033 0.031 0.060 0.069 0.060 0.085 0 0.032 0.033 0.096 0.115 0.227 0.029 0.046 0.053 0.105 0.053 0.13 0 0.083 0.138 0.263 0.351 0.458 0.115 0.106 0.244 0.227 0.286 0.27s0.087 0.078 0.098 0.078c0.012 0 0.048 0.022 0.081 0.048 0.081 0.064 0.199 0.060 0.307-0.009 0.165-0.106 0.243-0.121 0.395-0.078 0.18 0.052 0.229 0.050 0.372-0.022 0.067-0.033 0.223-0.081 0.347-0.105s0.273-0.070 0.333-0.101c0.259-0.137 0.547-0.064 0.633 0.161 0.068 0.179 0.074 0.186 0.155 0.207 0.061 0.016 0.090 0.009 0.147-0.032 0.251-0.186 0.611 0.281 0.43 0.558-0.039 0.059-0.056 0.155-0.082 0.454-0.014 0.155-0.013 0.157 0.078 0.254 0.282 0.299 0.394 0.436 0.429 0.524 0.022 0.054 0.051 0.113 0.065 0.13 0.066 0.080 0.179 0.494 0.156 0.57-0.019 0.060-0.012 0.105 0.030 0.217 0.071 0.186 0.067 0.352-0.011 0.465-0.032 0.046-0.080 0.138-0.108 0.204s-0.068 0.152-0.090 0.192c-0.088 0.156-0.071 0.596 0.027 0.691 0.031 0.030 0.073 0.105 0.093 0.167s0.064 0.149 0.096 0.192c0.032 0.043 0.067 0.106 0.076 0.139s0.040 0.084 0.067 0.114c0.039 0.043 0.053 0.102 0.068 0.3 0.033 0.429 0.050 0.571 0.070 0.571 0.011 0 0.043 0.049 0.072 0.109 0.030 0.063 0.082 0.124 0.122 0.145 0.053 0.027 0.070 0.053 0.070 0.107v0.071h2.466l0.015-0.148c0.008-0.081 0.015-0.216 0.015-0.299 0-0.092 0.012-0.162 0.030-0.177 0.089-0.075 0.257-0.166 0.335-0.181 0.137-0.026 0.144-0.046 0.116-0.327-0.018-0.181-0.038-0.266-0.073-0.313-0.084-0.114-0.064-0.219 0.061-0.324 0.060-0.050 0.136-0.131 0.17-0.18 0.059-0.085 0.199-0.164 0.292-0.165 0.023-0 0.069-0.016 0.102-0.035s0.105-0.056 0.16-0.082c0.055-0.026 0.113-0.072 0.129-0.101s0.049-0.076 0.074-0.102c0.040-0.043 0.045-0.091 0.045-0.44 0-0.407-0.001-0.414-0.12-0.631-0.034-0.062-0.046-0.134-0.047-0.277s-0.013-0.217-0.049-0.287c-0.060-0.117-0.060-0.163-0.002-0.273 0.025-0.048 0.064-0.142 0.085-0.21 0.042-0.134 0.099-0.207 0.203-0.261 0.066-0.034 0.115-0.098 0.245-0.319 0.075-0.128 0.279-0.343 0.325-0.343 0.018 0 0.033-0.010 0.033-0.023s0.057-0.061 0.126-0.107c0.163-0.108 0.259-0.195 0.345-0.314 0.038-0.053 0.083-0.107 0.099-0.12 0.083-0.067 0.271-0.45 0.271-0.552 0-0.019 0.064-0.168 0.142-0.33 0.243-0.505 0.225-0.85-0.036-0.689-0.042 0.026-0.108 0.047-0.148 0.047s-0.155 0.027-0.256 0.060c-0.101 0.033-0.221 0.060-0.266 0.060s-0.109 0.012-0.142 0.027c-0.061 0.028-0.187-0.040-0.271-0.147-0.096-0.122-0.015-0.348 0.117-0.327 0.082 0.013 0.109 0.007 0.155-0.036 0.033-0.031 0.107-0.060 0.182-0.072 0.069-0.011 0.153-0.040 0.187-0.064s0.106-0.057 0.162-0.073c0.055-0.016 0.131-0.055 0.168-0.085s0.126-0.075 0.199-0.098c0.128-0.041 0.288-0.162 0.288-0.217 0-0.059 0.21-0.221 0.307-0.236 0.054-0.009 0.144-0.051 0.201-0.094s0.133-0.093 0.17-0.112c0.036-0.019 0.082-0.059 0.103-0.090s0.051-0.056 0.068-0.056c0.050 0 0.101-0.071 0.169-0.234 0.034-0.082 0.102-0.212 0.151-0.288 0.164-0.256 0.125-0.48-0.103-0.596-0.137-0.069-0.298-0.204-0.298-0.249-0-0.021-0.022-0.074-0.048-0.117l-0.048-0.080-0.073 0.055c-0.040 0.030-0.115 0.096-0.167 0.146-0.171 0.165-0.527 0.12-0.527-0.066 0-0.086-0.018-0.105-0.129-0.144-0.051-0.018-0.081-0.053-0.111-0.132-0.023-0.060-0.108-0.214-0.189-0.344-0.235-0.376-0.174-0.613 0.126-0.494 0.113 0.045 0.129 0.063 0.181 0.201 0.189 0.504 0.545 0.742 0.83 0.555 0.091-0.059 0.23 0.004 0.285 0.129 0.093 0.212 0.936 0.326 1.293 0.176 0.102-0.043 0.261 0.032 0.306 0.144 0.035 0.088 0.384 0.405 0.474 0.43l0.082 0.023-0.061 0.048c-0.146 0.115-0.017 0.381 0.183 0.381 0.098-0 0.121-0.015 0.18-0.113l0.046-0.077 0.041 0.070c0.023 0.039 0.040 0.1 0.038 0.137-0.012 0.24 0.002 0.471 0.036 0.595 0.022 0.079 0.061 0.236 0.087 0.348s0.073 0.265 0.107 0.339 0.060 0.169 0.060 0.211c0 0.123 0.051 0.296 0.112 0.376 0.031 0.041 0.056 0.090 0.056 0.108s0.025 0.077 0.055 0.13c0.030 0.053 0.070 0.15 0.087 0.216 0.079 0.291 0.23 0.352 0.356 0.144 0.036-0.060 0.083-0.114 0.105-0.121 0.052-0.017 0.064-0.051 0.083-0.245 0.009-0.093 0.036-0.195 0.063-0.24 0.039-0.064 0.046-0.113 0.040-0.264-0.019-0.469 0.010-0.559 0.211-0.662 0.042-0.021 0.099-0.070 0.126-0.109s0.107-0.106 0.176-0.15c0.143-0.091 0.142-0.090 0.265-0.237 0.050-0.060 0.145-0.146 0.213-0.192 0.089-0.061 0.144-0.124 0.2-0.228 0.086-0.161 0.156-0.211 0.269-0.192s0.261-0.048 0.297-0.135c0.090-0.217 0.334-0.018 0.335 0.272 0 0.047 0.038 0.103 0.139 0.204 0.166 0.166 0.255 0.426 0.204 0.595-0.026 0.085-0.006 0.206 0.043 0.26 0.022 0.024 0.23-0.093 0.303-0.171l0.052-0.056 0.050 0.070c0.079 0.111 0.152 0.293 0.172 0.43 0.010 0.069 0.042 0.175 0.071 0.235s0.067 0.213 0.085 0.34c0.018 0.127 0.046 0.283 0.062 0.347 0.028 0.108 0.026 0.122-0.023 0.187-0.090 0.122-0.036 0.359 0.090 0.392 0.032 0.008 0.051 0.041 0.061 0.105 0.060 0.368 0.142 0.674 0.201 0.754 0.025 0.033 0.068 0.107 0.097 0.164 0.053 0.104 0.186 0.189 0.255 0.162s0.082-0.1 0.034-0.191c-0.032-0.059-0.047-0.135-0.047-0.233 0-0.192-0.073-0.342-0.282-0.578-0.23-0.259-0.238-0.271-0.253-0.348-0.007-0.038-0.032-0.119-0.056-0.18-0.041-0.107-0.041-0.118-0-0.288 0.024-0.098 0.049-0.257 0.056-0.353 0.008-0.108 0.025-0.181 0.044-0.188 0.050-0.019 0.219 0.081 0.279 0.165 0.031 0.043 0.069 0.095 0.085 0.114s0.054 0.074 0.085 0.12c0.030 0.046 0.106 0.116 0.168 0.156 0.103 0.066 0.112 0.080 0.114 0.171 0.003 0.226 0.126 0.239 0.198 0.021 0.028-0.085 0.046-0.1 0.18-0.151 0.354-0.135 0.478-0.414 0.336-0.754-0.018-0.044-0.040-0.118-0.049-0.165s-0.053-0.144-0.099-0.216c-0.096-0.152-0.084-0.136-0.243-0.323-0.183-0.215-0.204-0.28-0.163-0.489 0.058-0.288 0.657-0.608 0.657-0.351 0 0.098 0.073 0.109 0.149 0.022 0.098-0.112 0.315-0.225 0.433-0.226 0.040-0 0.042-0.333 0.042-6.651v-6.651h-0.115c-0.063 0-0.153-0.019-0.2-0.043-0.102-0.052-0.175-0.017-0.319 0.153-0.094 0.111-0.221 0.161-0.357 0.139-0.144-0.023-0.159-0.069-0.042-0.128 0.11-0.056 0.138-0.082 0.277-0.252 0.053-0.065 0.118-0.143 0.144-0.175 0.038-0.045 0.084-0.062 0.209-0.078 0.089-0.011 0.216-0.034 0.282-0.051l0.121-0.031v-0.399h-0.816c-0.8 0-0.816 0.001-0.816 0.048 0 0.032-0.016 0.048-0.048 0.048-0.039 0-0.048 0.016-0.048 0.083 0 0.108-0.067 0.151-0.169 0.108-0.085-0.035-0.044-0.155 0.062-0.182 0.037-0.009 0.060-0.032 0.060-0.060 0-0.044-0.035-0.045-1.008-0.045-0.944 0-1.008 0.003-1.009 0.042zM1.67 0.383c-0.008 0.012-0.005 0.028 0.006 0.035 0.031 0.019 0.126-0.012 0.111-0.036-0.017-0.028-0.1-0.027-0.117 0.001zM0.219 0.445c-0.044 0.019-0.112 0.035-0.15 0.035h-0.069v0.48c0 0.541 0.005 0.552 0.178 0.42 0.043-0.033 0.11-0.060 0.149-0.060 0.106 0 0.24-0.104 0.295-0.228 0.026-0.060 0.067-0.115 0.091-0.123s0.070-0.039 0.103-0.069c0.033-0.030 0.116-0.072 0.184-0.094 0.15-0.049 0.174-0.075 0.158-0.176-0.014-0.092-0.024-0.095-0.346-0.109-0.172-0.007-0.258-0.023-0.338-0.061-0.124-0.060-0.148-0.061-0.256-0.015zM4.982 0.525c-0.064 0.020-0.276 0.168-0.276 0.193 0 0.011 0.043 0.11 0.095 0.221s0.096 0.182 0.096 0.158c0.001-0.071 0.11-0.161 0.195-0.161 0.27 0 0.488-0.219 0.304-0.305-0.2-0.093-0.34-0.129-0.414-0.106zM4.082 0.627c-0.297 0.046-0.343 0.076-0.252 0.162 0.116 0.11 0.039 0.236-0.131 0.213-0.126-0.017-0.207 0.033-0.125 0.077 0.030 0.016 0.084 0.022 0.122 0.014 0.061-0.013 0.087 0.004 0.232 0.148 0.183 0.182 0.182 0.182 0.4 0.075 0.171-0.085 0.184-0.099 0.185-0.205 0-0.066-0.013-0.085-0.091-0.124-0.127-0.065-0.151-0.099-0.127-0.184 0.018-0.066-0.031-0.208-0.069-0.2-0.007 0.002-0.072 0.012-0.145 0.024zM7.345 0.624c-0.074 0.009-0.154 0.028-0.178 0.042-0.030 0.017-0.067 0.017-0.114 0.001-0.32-0.111-0.54 0.090-0.512 0.469 0.021 0.289-0.007 0.342-0.142 0.27-0.176-0.094-0.234-0.469-0.096-0.613 0.075-0.078 0.066-0.11-0.039-0.133-0.134-0.029-0.275 0.007-0.311 0.079-0.018 0.036-0.066 0.114-0.107 0.173-0.188 0.273-0.178 0.41 0.039 0.532 0.052 0.029 0.094 0.064 0.094 0.078 0 0.102 0.498 0.264 0.894 0.29l0.234 0.016 0.089-0.073c0.066-0.054 0.099-0.067 0.129-0.051 0.022 0.012 0.137 0.019 0.254 0.017 0.195-0.004 0.222 0.001 0.31 0.059 0.174 0.115 0.276 0.225 0.277 0.3 0.001 0.116 0.053 0.16 0.164 0.141 0.091-0.015 0.098-0.012 0.137 0.064 0.022 0.044 0.068 0.11 0.103 0.147 0.119 0.127 0.015 0.566-0.158 0.662-0.032 0.018-0.028 0.033 0.030 0.109 0.062 0.081 0.065 0.095 0.039 0.18-0.031 0.104-0.041 0.107-0.412 0.137-0.254 0.020-0.326 0.054-0.342 0.159-0.016 0.109 0.014 0.155 0.116 0.174 0.086 0.016 0.096 0.012 0.337-0.117 0.155-0.083 0.267-0.024 0.564 0.301l0.123 0.135 0.322 0.015c0.349 0.016 0.393 0.010 0.393-0.055 0-0.054-0.032-0.078-0.172-0.129-0.104-0.038-0.112-0.048-0.121-0.136-0.011-0.118 0.013-0.129 0.19-0.083 0.171 0.045 0.223 0.045 0.286 0 0.097-0.068 0.075-0.253-0.030-0.253-0.039 0-0.253-0.183-0.291-0.249-0.063-0.11-0.012-0.279 0.084-0.279 0.050 0 0.387 0.221 0.424 0.278 0.087 0.133 0.254 0.094 0.287-0.067 0.007-0.036 0.055-0.106 0.106-0.156 0.099-0.097 0.186-0.241 0.16-0.267-0.009-0.009-0.097-0.018-0.197-0.021-0.188-0.006-0.246-0.028-0.372-0.146-0.054-0.051-0.081-0.058-0.164-0.047-0.084 0.011-0.11 0.003-0.175-0.053-0.042-0.036-0.12-0.093-0.173-0.126l-0.096-0.060 0.015-0.202c0.008-0.111 0.023-0.226 0.033-0.255 0.014-0.041 0.007-0.058-0.027-0.070-0.025-0.009-0.085-0.052-0.133-0.095s-0.13-0.090-0.181-0.104c-0.051-0.014-0.135-0.057-0.187-0.097-0.076-0.058-0.119-0.072-0.219-0.072-0.155-0.001-0.248-0.034-0.248-0.090-0-0.173-0.105-0.329-0.204-0.305-0.115 0.029-0.444-0.091-0.444-0.162 0-0.024 0.010-0.044 0.021-0.044 0.028 0 0.054-0.106 0.038-0.15-0.030-0.078-0.183-0.101-0.445-0.067zM1.393 0.808c-0.046 0.020-0.106 0.055-0.132 0.079s-0.096 0.049-0.156 0.056c-0.059 0.007-0.111 0.025-0.116 0.039s-0.046 0.071-0.092 0.125-0.077 0.115-0.070 0.134c0.007 0.019 0.013 0.050 0.013 0.068s0.038 0.049 0.083 0.068c0.053 0.022 0.089 0.056 0.098 0.094 0.020 0.079 0.057 0.087 0.489 0.105 0.327 0.013 0.375 0.021 0.418 0.063l0.048 0.048-0.069 0.059c-0.063 0.054-0.082 0.058-0.232 0.044-0.12-0.011-0.187-0.006-0.25 0.021-0.048 0.020-0.117 0.036-0.153 0.036-0.065 0-0.139 0.116-0.108 0.168 0.014 0.023 0.207 0.072 0.282 0.072 0.035 0 0.093 0.038 0.151 0.098 0.091 0.093 0.1 0.097 0.215 0.086 0.435-0.042 0.56-0.064 0.672-0.12 0.066-0.033 0.153-0.074 0.192-0.092s0.081-0.046 0.091-0.062c0.033-0.051 0.217-0.038 0.252 0.018 0.075 0.12 0.461 0.221 0.461 0.121 0-0.026-0.011-0.053-0.024-0.062-0.034-0.021-0.030-0.084 0.006-0.094 0.328-0.091 0.393-0.157 0.186-0.185-0.171-0.023-0.48-0.197-0.48-0.27 0-0.013-0.022-0.048-0.049-0.077s-0.069-0.105-0.093-0.17c-0.025-0.066-0.067-0.129-0.097-0.145s-0.065-0.039-0.080-0.054c-0.040-0.040-0.060-0.033-0.078 0.027-0.030 0.099-0.084 0.138-0.193 0.138-0.126 0-0.143-0.024-0.092-0.124 0.061-0.117-0.081-0.202-0.241-0.144-0.105 0.038-0.118 0.036-0.189-0.035l-0.062-0.062-0.055 0.116c-0.103 0.217-0.308 0.181-0.354-0.062-0.036-0.19-0.043-0.194-0.192-0.13zM2.756 0.843c-0.039 0.022-0.039 0.028-0.001 0.108 0.037 0.077 0.043 0.081 0.071 0.043 0.064-0.087 0.012-0.197-0.071-0.15zM16.862 0.955c0.085 0.022 0.114 0.106 0.066 0.194-0.033 0.062-0.285-0.048-0.288-0.126-0.003-0.093 0.075-0.188 0.112-0.135 0.018 0.025 0.067 0.055 0.11 0.066zM7.629 0.99c0.096 0.078-0.114 0.203-0.268 0.16-0.081-0.022-0.102-0.019-0.162 0.026-0.1 0.074-0.162-0.044-0.104-0.196 0.015-0.039 0.484-0.030 0.534 0.010zM4.787 1.325c-0.135 0.091-0.203 0.288-0.149 0.436 0.039 0.108 0.049 0.115 0.244 0.186 0.107 0.039 0.136 0.059 0.125 0.088-0.008 0.021-0.021 0.103-0.030 0.182-0.012 0.115-0.029 0.159-0.085 0.218-0.039 0.040-0.077 0.084-0.086 0.098s-0.038 0.036-0.064 0.051c-0.028 0.015-0.055 0.065-0.066 0.12-0.037 0.185-0.151 0.179-0.207-0.011-0.051-0.174-0.267-0.345-0.267-0.212 0 0.11-0.096 0.163-0.285 0.158-0.101-0.003-0.217 0.002-0.258 0.012-0.051 0.012-0.112 0.002-0.193-0.030-0.066-0.026-0.17-0.055-0.232-0.064-0.069-0.010-0.147-0.044-0.2-0.086-0.048-0.038-0.102-0.069-0.12-0.069s-0.033-0.010-0.033-0.023c0-0.042-0.098-0.076-0.172-0.060-0.053 0.012-0.066 0.023-0.047 0.042 0.046 0.046 0.029 0.115-0.046 0.185-0.061 0.057-0.072 0.085-0.072 0.187 0 0.215-0.155 0.205-0.304-0.021-0.081-0.122-0.175-0.141-0.363-0.074-0.318 0.114-0.485 0.092-0.485-0.064 0-0.22-0.014-0.241-0.165-0.242-0.089-0-0.201-0.024-0.327-0.070-0.222-0.081-0.533-0.209-0.594-0.244-0.058-0.033-0.118-0.029-0.173 0.013-0.026 0.019-0.066 0.035-0.090 0.035-0.040 0-0.043 0.030-0.043 0.411v0.411l0.104-0.014c0.057-0.008 0.155-0.036 0.218-0.063 0.188-0.080 0.262-0.068 0.353 0.059 0.057 0.080 0.099 0.112 0.159 0.123 0.151 0.028 0.193 0.205 0.069 0.287-0.071 0.046-0.324 0.13-0.397 0.13-0.032 0-0.1 0.029-0.15 0.063-0.069 0.048-0.107 0.059-0.157 0.047-0.037-0.009-0.096-0.022-0.133-0.030l-0.066-0.013v2.116c0 2.054 0.001 2.116 0.045 2.116 0.11 0 0.118 0.244 0.009 0.26l-0.054 0.008v1.223c0 1.18 0.002 1.223 0.045 1.223 0.062 0 0.1 0.052 0.153 0.212 0.114 0.343 0.299 0.61 0.48 0.695 0.149 0.070 0.302 0.23 0.321 0.338 0.009 0.048 0.036 0.114 0.061 0.146s0.057 0.105 0.072 0.163c0.018 0.070 0.050 0.121 0.097 0.155 0.039 0.028 0.081 0.076 0.093 0.108 0.056 0.146 0.107 0.040 0.077-0.158-0.051-0.335 0.252-0.237 0.366 0.12 0.023 0.073 0.061 0.154 0.085 0.18s0.061 0.086 0.085 0.132c0.034 0.067 0.188 0.272 0.251 0.336 0.082 0.082 0.188 0.245 0.2 0.309 0.009 0.045 0.042 0.104 0.075 0.132s0.086 0.089 0.12 0.135c0.124 0.172 0.29 0.423 0.332 0.504 0.024 0.046 0.060 0.111 0.080 0.144 0.028 0.046 0.033 0.102 0.021 0.243-0.015 0.177 0.041 0.381 0.104 0.381 0.010 0 0.045 0.025 0.079 0.057 0.121 0.112 0.361 0.277 0.443 0.304 0.046 0.015 0.084 0.036 0.084 0.047 0 0.026 0.182 0.11 0.287 0.133 0.046 0.010 0.121 0.043 0.168 0.072 0.103 0.066 0.307 0.089 0.541 0.062 0.177-0.021 0.339 0.011 0.374 0.075 0.022 0.039 0.258 0.281 0.33 0.338 0.084 0.066 0.404 0.185 0.498 0.185 0.060 0 0.099 0.017 0.137 0.061 0.029 0.033 0.091 0.1 0.137 0.148 0.164 0.17 0.19 0.223 0.151 0.315-0.039 0.095-0.017 0.136 0.101 0.188 0.084 0.037 0.252 0.185 0.252 0.221s0.099 0.1 0.155 0.1c0.027 0 0.096 0.038 0.154 0.084 0.13 0.103 0.197 0.086 0.249-0.063 0.042-0.12 0.242-0.074 0.306 0.070 0.027 0.061 0.074 0.144 0.105 0.184 0.117 0.154 0.067 0.836-0.069 0.944-0.032 0.025-0.077 0.079-0.101 0.119-0.151 0.255-0.196 0.346-0.234 0.474-0.023 0.079-0.052 0.175-0.064 0.214-0.034 0.106-0.026 0.273 0.015 0.353 0.046 0.089 0.016 0.203-0.085 0.318l-0.067 0.076 0.051 0.159c0.049 0.151 0.142 0.283 0.353 0.498 0.133 0.136 0.223 0.277 0.253 0.395 0.057 0.228 0.186 0.577 0.229 0.619 0.023 0.023 0.048 0.081 0.055 0.128s0.019 0.123 0.026 0.169c0.007 0.046 0.045 0.119 0.084 0.162s0.077 0.097 0.085 0.12 0.024 0.042 0.037 0.042c0.013 0 0.053 0.030 0.088 0.066s0.116 0.084 0.179 0.106c0.063 0.022 0.142 0.063 0.177 0.090s0.078 0.050 0.096 0.050c0.018 0 0.033 0.009 0.033 0.019s0.041 0.062 0.092 0.114c0.123 0.128 0.16 0.299 0.139 0.639-0.008 0.136-0.022 0.386-0.030 0.554l-0.015 0.306h3.94l0.008-0.054c0.005-0.038 0.045-0.072 0.137-0.117 0.071-0.035 0.139-0.080 0.15-0.1 0.019-0.034 0.131-0.067 0.336-0.101 0.112-0.018 0.134-0.046 0.154-0.201 0.010-0.073 0.041-0.159 0.073-0.204 0.031-0.042 0.072-0.11 0.091-0.151s0.052-0.088 0.074-0.106c0.051-0.042 0.108-0.181 0.108-0.264 0-0.036 0.027-0.149 0.060-0.25 0.051-0.158 0.060-0.228 0.060-0.496 0-0.329 0.036-0.466 0.136-0.523 0.044-0.024 0.123-0.147 0.201-0.31 0.027-0.056 0.076-0.121 0.11-0.144 0.114-0.079 0.224-0.207 0.252-0.293 0.015-0.047 0.037-0.096 0.048-0.108 0.060-0.065-0.036-0.556-0.128-0.655-0.029-0.030-0.094-0.066-0.145-0.080-0.058-0.016-0.144-0.074-0.23-0.156-0.148-0.141-0.394-0.275-0.507-0.275-0.039 0-0.1-0.011-0.137-0.025s-0.15-0.026-0.251-0.028l-0.184-0.002-0.059-0.11c-0.033-0.061-0.093-0.132-0.134-0.158-0.282-0.182-0.28-0.18-0.363-0.149-0.075 0.028-0.081 0.026-0.16-0.060-0.127-0.138-0.298-0.196-0.298-0.1 0 0.088-0.093 0.217-0.176 0.242-0.138 0.042-0.185-0.046-0.076-0.141 0.033-0.029 0.060-0.063 0.060-0.075 0-0.037 0.079-0.087 0.141-0.087 0.075-0.001 0.065-0.305-0.015-0.481-0.027-0.059-0.068-0.173-0.090-0.252-0.028-0.097-0.068-0.17-0.123-0.223-0.045-0.044-0.081-0.088-0.081-0.098s-0.040-0.040-0.090-0.065c-0.050-0.025-0.13-0.070-0.18-0.1-0.073-0.044-0.125-0.054-0.288-0.054-0.249-0-0.437-0.081-0.504-0.216-0.047-0.094-0.227-0.262-0.282-0.264-0.051-0.001-0.13-0.071-0.18-0.159-0.024-0.041-0.071-0.091-0.105-0.112s-0.088-0.064-0.119-0.097l-0.056-0.060-0.136 0.048c-0.161 0.057-0.304 0.060-0.426 0.009-0.049-0.020-0.128-0.037-0.177-0.037-0.067 0-0.105-0.017-0.156-0.071-0.121-0.126-0.222-0.16-0.303-0.1-0.037 0.027-0.111 0.065-0.164 0.083l-0.096 0.033-0.020-0.087c-0.027-0.114-0.133-0.134-0.225-0.042-0.033 0.033-0.106 0.074-0.163 0.091-0.13 0.040-0.243 0.167-0.313 0.351-0.087 0.231-0.226 0.282-0.332 0.124-0.103-0.153-0.192-0.179-0.387-0.114-0.167 0.056-0.186 0.055-0.333-0.013-0.030-0.014-0.054-0.038-0.054-0.053s-0.028-0.054-0.062-0.086c-0.165-0.154-0.219-0.683-0.092-0.89 0.022-0.035-0.036-0.226-0.076-0.249-0.022-0.013-0.072-0.049-0.109-0.080-0.076-0.062-0.226-0.064-0.46-0.005-0.161 0.041-0.243-0.010-0.226-0.139 0.030-0.222 0.090-0.482 0.135-0.58 0.027-0.059 0.049-0.132 0.050-0.162s0.013-0.101 0.029-0.159c0.064-0.239-0.027-0.297-0.291-0.188l-0.154 0.064-0.052 0.161c-0.102 0.317-0.156 0.367-0.474 0.44-0.293 0.067-0.468-0.030-0.631-0.351-0.031-0.060-0.073-0.124-0.093-0.141-0.056-0.047-0.095-0.207-0.098-0.41-0.002-0.099-0.012-0.241-0.022-0.315-0.017-0.118-0.011-0.155 0.045-0.296 0.062-0.156 0.063-0.165 0.027-0.256-0.076-0.191-0.023-0.353 0.155-0.472 0.046-0.030 0.141-0.106 0.211-0.169 0.139-0.123 0.176-0.142 0.282-0.15 0.155-0.011 0.224 0.003 0.312 0.063 0.163 0.11 0.417 0.062 0.418-0.080 0.001-0.166 0.36-0.2 0.609-0.057 0.088 0.050 0.161 0.074 0.23 0.074 0.193 0 0.297 0.135 0.324 0.419 0.009 0.092 0.026 0.179 0.037 0.193s0.055 0.094 0.096 0.176c0.085 0.172 0.121 0.195 0.193 0.128 0.093-0.086 0.053-0.422-0.094-0.792-0.129-0.326 0.061-0.756 0.413-0.932 0.185-0.093 0.458-0.51 0.405-0.62-0.113-0.236-0.083-0.573 0.041-0.462 0.092 0.082 0.131 0.061 0.162-0.090 0.023-0.114 0.046-0.156 0.114-0.216 0.057-0.049 0.095-0.11 0.113-0.18 0.034-0.133 0.206-0.297 0.354-0.34 0.105-0.030 0.197-0.118 0.197-0.188-0-0.181 0.244-0.435 0.419-0.435 0.021 0 0.079-0.043 0.127-0.096s0.107-0.096 0.13-0.096c0.023 0 0.048-0.011 0.057-0.024s0.032-0.024 0.053-0.024c0.021 0 0.051-0.018 0.066-0.039 0.032-0.043 0.147-0.053 0.184-0.015 0.016 0.016-0.005 0.042-0.062 0.077-0.047 0.029-0.086 0.063-0.086 0.075s-0.032 0.051-0.072 0.086c-0.097 0.086-0.093 0.146 0.011 0.189 0.114 0.048 0.12 0.046 0.219-0.053 0.048-0.048 0.135-0.105 0.193-0.128 0.125-0.047 0.297-0.202 0.297-0.266 0-0.033 0.023-0.049 0.090-0.059 0.157-0.025 0.197-0.064 0.141-0.137-0.039-0.051-0.206 0.021-0.236 0.102-0.020 0.054-0.1 0.062-0.235 0.024-0.19-0.054-0.397-0.461-0.312-0.612 0.147-0.261-0.064-0.429-0.316-0.251-0.035 0.025-0.109 0.059-0.165 0.076-0.062 0.019-0.108 0.050-0.12 0.081-0.024 0.063-0.091 0.091-0.133 0.056s0.006-0.119 0.067-0.119c0.024 0 0.048-0.024 0.056-0.057 0.008-0.031 0.040-0.071 0.072-0.088s0.080-0.067 0.106-0.112c0.032-0.054 0.072-0.085 0.12-0.095 0.040-0.008 0.079-0.024 0.086-0.036s0.072-0.014 0.145-0.005c0.081 0.010 0.183 0.003 0.265-0.016 0.107-0.026 0.157-0.026 0.257-0.003 0.241 0.057 0.452-0.018 0.562-0.199 0.079-0.13 0.164-0.181 0.301-0.181 0.23 0 0.266-0.296 0.056-0.46-0.126-0.099-0.19-0.148-0.315-0.244-0.040-0.030-0.11-0.070-0.156-0.088-0.221-0.087-0.414-0.333-0.391-0.501 0.011-0.083-0.001-0.121-0.083-0.26-0.116-0.196-0.182-0.318-0.253-0.467-0.098-0.205-0.213-0.232-0.261-0.061-0.036 0.127-0.2 0.305-0.281 0.305-0.032 0-0.123-0.043-0.202-0.096s-0.152-0.096-0.163-0.096c-0.037 0-0.087-0.203-0.070-0.284 0.032-0.151-0.017-0.237-0.18-0.314-0.080-0.038-0.196-0.12-0.258-0.182-0.097-0.098-0.124-0.112-0.204-0.109-0.051 0.002-0.218 0.003-0.372 0.003-0.357-0.001-0.343-0.018-0.341 0.395l0.002 0.321-0.069 0.066c-0.088 0.084-0.094 0.201-0.014 0.265 0.344 0.275 0.307 0.826-0.069 1.023-0.088 0.046-0.136 0.188-0.093 0.276 0.017 0.036 0.038 0.146 0.047 0.245 0.023 0.264-0.025 0.358-0.212 0.418-0.068 0.022-0.243-0.164-0.279-0.297-0.016-0.058-0.045-0.131-0.065-0.162-0.022-0.034-0.042-0.138-0.050-0.262-0.015-0.238-0.010-0.233-0.279-0.272-0.091-0.013-0.183-0.039-0.204-0.058s-0.096-0.054-0.165-0.079c-0.081-0.029-0.178-0.093-0.276-0.183-0.083-0.076-0.167-0.138-0.187-0.139s-0.078-0.029-0.129-0.063c-0.058-0.040-0.143-0.069-0.228-0.079-0.185-0.022-0.228-0.052-0.29-0.199-0.070-0.164-0.109-0.207-0.208-0.225-0.201-0.038-0.242-0.341-0.078-0.577 0.145-0.208 0.363-0.442 0.455-0.489s0.153-0.128 0.254-0.336c0.060-0.125 0.073-0.132 0.281-0.151 0.143-0.013 0.156-0.026 0.165-0.16l0.007-0.108-0.125-0.013c-0.14-0.014-0.202-0.054-0.156-0.099 0.039-0.039 0.218-0.028 0.287 0.018 0.090 0.059 0.157 0.036 0.186-0.064 0.042-0.148 0.073-0.17 0.181-0.127 0.082 0.033 0.098 0.033 0.148 0 0.031-0.020 0.101-0.044 0.156-0.053s0.123-0.037 0.15-0.062c0.027-0.025 0.097-0.066 0.155-0.091 0.135-0.058 0.149-0.083 0.092-0.163-0.108-0.153-0.127-0.215-0.101-0.328 0.035-0.157 0.010-0.244-0.087-0.301-0.045-0.027-0.092-0.075-0.105-0.109-0.061-0.161-0.229-0.066-0.245 0.138-0.008 0.106-0.029 0.163-0.087 0.244-0.042 0.058-0.076 0.114-0.076 0.124 0 0.024-0.145 0.251-0.198 0.309-0.042 0.046-0.043 0.046-0.132-0.004-0.171-0.097-0.201-0.182-0.161-0.465 0.028-0.201-0.079-0.249-0.133-0.059-0.056 0.199-0.127 0.204-0.228 0.017-0.048-0.088-0.096-0.136-0.183-0.183-0.138-0.075-0.159-0.18-0.066-0.337 0.029-0.048 0.042-0.095 0.030-0.105-0.104-0.089-0.234-0.177-0.294-0.197-0.046-0.016-0.088-0.057-0.116-0.114l-0.044-0.089-0.098 0.066zM16.457 1.366c0.007 0.012-0.025 0.029-0.072 0.037s-0.101 0.022-0.12 0.029c-0.023 0.009-0.034-0.003-0.034-0.037 0-0.053 0.196-0.079 0.226-0.029zM16.764 1.444c0.104 0.051 0.248 0.235 0.219 0.281-0.032 0.051-0.374 0.070-0.458 0.025-0.051-0.027-0.080-0.141-0.036-0.141 0.010 0 0.039-0.035 0.064-0.078 0.070-0.12 0.11-0.137 0.21-0.087zM11.981 1.837c0 0.020-0.016 0.036-0.035 0.036-0.040 0-0.067-0.034-0.045-0.057 0.029-0.029 0.079-0.015 0.079 0.021zM4.2 2.068l-0.051 0.099 0.049 0.048c0.133 0.133 0.39 0.095 0.407-0.061 0.004-0.036-0.001-0.066-0.012-0.066s-0.051-0.027-0.089-0.060c-0.117-0.101-0.241-0.085-0.304 0.039zM30.941 1.984c-0.025 0.026 0.006 0.055 0.044 0.041 0.019-0.007 0.029-0.023 0.022-0.035-0.015-0.025-0.044-0.028-0.066-0.006zM29.164 2.147c-0.019 0.049 0.039 0.093 0.075 0.057 0.020-0.020 0.021-0.036 0.001-0.060-0.034-0.041-0.060-0.040-0.076 0.003zM9.088 2.838c0.201 0.101 0.21 0.135 0.057 0.213-0.207 0.106-0.387-0.050-0.283-0.245 0.029-0.054 0.069-0.048 0.227 0.031zM0 3.145c0 0.109 0.072 0.138 0.12 0.047 0.038-0.072 0.008-0.143-0.062-0.143-0.052 0-0.058 0.010-0.058 0.096zM18.103 3.090c-0.033 0.022-0.066 0.051-0.075 0.064s-0.095 0.022-0.192 0.022c-0.21-0.002-0.329 0.025-0.404 0.090-0.071 0.062-0.075 0.061-0.158-0.023-0.082-0.084-0.128-0.090-0.205-0.027l-0.056 0.045 0.056 0.165c0.060 0.177 0.132 0.297 0.178 0.297 0.016 0 0.093 0.032 0.172 0.072 0.167 0.083 0.249 0.089 0.388 0.026 0.055-0.025 0.19-0.073 0.3-0.107 0.129-0.039 0.228-0.087 0.279-0.133 0.043-0.040 0.097-0.083 0.12-0.096 0.038-0.021 0.038-0.029 0.006-0.082-0.193-0.312-0.295-0.39-0.409-0.312zM8.951 3.416c0.024 0.029 0.004 0.194-0.028 0.225-0.041 0.041-0.108-0.025-0.116-0.113-0.012-0.13 0.073-0.197 0.144-0.112zM6.441 3.439c-0.013 0.017-0.032 0.057-0.041 0.090s-0.044 0.099-0.076 0.147c-0.074 0.11-0.047 0.19 0.078 0.229 0.087 0.027 0.13-0.004 0.13-0.094 0-0.050 0.119-0.161 0.171-0.161 0.082 0 0.053-0.046-0.121-0.192-0.066-0.056-0.106-0.061-0.141-0.018zM6.771 3.73c0 0.033 0.008 0.065 0.018 0.071 0.028 0.016 0.174-0.011 0.174-0.032 0-0.010-0.035-0.033-0.078-0.050s-0.086-0.035-0.096-0.040c-0.010-0.005-0.018 0.018-0.018 0.051zM0.746 3.845c0.039 0.093 0.007 0.125-0.106 0.103-0.081-0.015-0.087-0.022-0.087-0.105 0-0.12 0.144-0.119 0.194 0.002zM2.255 3.884l0.052 0.042-0.072 0.098c-0.039 0.054-0.111 0.119-0.158 0.144s-0.101 0.069-0.12 0.097c-0.077 0.117-0.552 0.306-0.69 0.275-0.235-0.053-0.285-0.171-0.097-0.228 0.108-0.033 0.203-0.212 0.162-0.309-0.076-0.181 0.097-0.147 0.305 0.060 0.063 0.063 0.174 0.031 0.355-0.105 0.173-0.129 0.189-0.134 0.263-0.074zM27.011 4.335c0.082 0.217-0.011 0.33-0.145 0.177-0.102-0.116-0.103-0.118-0.077-0.156 0.062-0.091 0.191-0.103 0.222-0.020zM26.28 4.467c0.078 0.058 0.131 0.115 0.131 0.142 0 0.025 0.006 0.062 0.014 0.081 0.022 0.056-0.075 0.136-0.165 0.136-0.232 0-0.334-0.396-0.118-0.454 0.004-0.001 0.066 0.042 0.138 0.095zM2.509 4.916c-0.009 0.023-0.027 0.070-0.040 0.105-0.014 0.038-0.059 0.079-0.115 0.105-0.051 0.023-0.106 0.067-0.123 0.099-0.035 0.065-0.085 0.072-0.152 0.022-0.053-0.040-0.013-0.107 0.168-0.282 0.105-0.102 0.298-0.137 0.262-0.048zM23.241 5.2c0 0.014-0.021 0.046-0.049 0.071-0.092 0.083-0.19-0.042-0.106-0.134 0.043-0.048 0.153-0.003 0.155 0.063zM27.372 5.24c0.097 0.103 0.103 0.135 0.030 0.151-0.037 0.008-0.079 0.018-0.095 0.023-0.051 0.016-0.083-0.053-0.067-0.143 0.019-0.099 0.059-0.109 0.132-0.032zM20.044 5.322c-0.021 0.024-0.046 0.080-0.056 0.123s-0.040 0.101-0.069 0.127c-0.069 0.065-0.065 0.236 0.010 0.379 0.030 0.058 0.063 0.159 0.073 0.224 0.023 0.148 0.054 0.187 0.149 0.187 0.222 0 0.29 0.281 0.088 0.365-0.113 0.047-0.12 0.055-0.12 0.137 0 0.054-0.023 0.121-0.060 0.176-0.059 0.086-0.059 0.091-0.020 0.172 0.037 0.078 0.037 0.088 0 0.144-0.104 0.158 0.071 0.21 0.289 0.085 0.052-0.030 0.154-0.049 0.312-0.060 0.291-0.021 0.295-0.023 0.401-0.212 0.11-0.197 0.11-0.244 0.002-0.296-0.062-0.029-0.101-0.074-0.144-0.165-0.033-0.069-0.102-0.172-0.155-0.229s-0.108-0.135-0.123-0.171c-0.015-0.036-0.037-0.066-0.047-0.066s-0.044-0.043-0.074-0.096c-0.030-0.053-0.063-0.096-0.073-0.096-0.038 0-0.019-0.183 0.028-0.276 0.065-0.128 0.027-0.189-0.123-0.2-0.143-0.010-0.162-0.036-0.095-0.127 0.085-0.116-0.098-0.234-0.194-0.126zM3.633 5.476c0.040 0.065-0.002 0.162-0.098 0.223-0.114 0.073-0.126 0.064-0.126-0.095 0-0.165 0.147-0.249 0.223-0.128zM19.549 6.291c-0.028 0.026-0.059 0.062-0.070 0.080s-0.067 0.067-0.125 0.109c-0.158 0.114-0.181 0.154-0.134 0.244 0.045 0.086 0.029 0.208-0.041 0.327-0.104 0.176 0.158 0.239 0.36 0.087 0.165-0.125 0.176-0.142 0.191-0.326 0.011-0.134 0.027-0.188 0.073-0.243 0.044-0.053 0.055-0.088 0.045-0.141-0.008-0.039-0.014-0.080-0.014-0.092 0-0.022-0.062-0.050-0.17-0.076-0.044-0.011-0.077-0.001-0.113 0.032zM39.354 6.357c0.040 0.104 0.012 0.264-0.060 0.339-0.035 0.036-0.063 0.077-0.063 0.092 0 0.030-0.257 0.271-0.289 0.271-0.012 0-0.084 0.064-0.161 0.142-0.162 0.165-0.293 0.213-0.34 0.126-0.023-0.042-0.016-0.055 0.046-0.091 0.040-0.023 0.072-0.049 0.072-0.056s0.035-0.053 0.078-0.1c0.043-0.048 0.101-0.112 0.129-0.143s0.098-0.1 0.156-0.153c0.119-0.109 0.189-0.198 0.264-0.336 0.096-0.178 0.128-0.195 0.169-0.090zM4.266 6.488c0.016 0.012 0.036 0.057 0.045 0.099s0.047 0.142 0.084 0.222c0.037 0.080 0.074 0.172 0.083 0.205s0.039 0.070 0.067 0.082c0.069 0.030 0.090 0.195 0.027 0.219-0.051 0.019-0.159-0.105-0.213-0.245-0.022-0.058-0.066-0.114-0.11-0.14-0.040-0.024-0.090-0.069-0.111-0.101-0.057-0.088-0.113-0.074-0.155 0.040-0.045 0.125-0.070 0.128-0.108 0.017-0.029-0.083-0.027-0.092 0.023-0.132 0.030-0.023 0.073-0.091 0.097-0.151 0.067-0.168 0.156-0.205 0.271-0.115zM4.107 7.137c-0.001 0.009-0.002 0.034-0.002 0.055s-0.011 0.031-0.024 0.023c-0.032-0.020-0.031-0.114 0.002-0.104 0.014 0.005 0.025 0.017 0.024 0.026zM11.237 7.233c-0.012 0.030-0.034 0.113-0.048 0.186s-0.041 0.159-0.059 0.192c-0.018 0.033-0.056 0.103-0.083 0.156s-0.063 0.115-0.079 0.138c-0.066 0.091 0.024 0.125 0.372 0.14 0.174 0.008 0.348 0.027 0.385 0.042s0.105 0.028 0.151 0.028 0.116 0.017 0.155 0.037c0.069 0.036 0.071 0.035 0.071-0.023 0-0.034-0.020-0.070-0.046-0.085-0.025-0.014-0.053-0.046-0.061-0.073s-0.044-0.079-0.080-0.117c-0.036-0.038-0.084-0.098-0.108-0.132-0.035-0.052-0.062-0.063-0.147-0.063-0.198 0-0.351-0.152-0.302-0.301 0.043-0.131-0.069-0.248-0.12-0.126zM6.339 8.018c0.167 0.164 0.19 0.197 0.205 0.298 0.010 0.068 0.033 0.122 0.057 0.135 0.057 0.031 0.43 0.121 0.499 0.121 0.128 0 0.246 0.117 0.247 0.245 0.001 0.104-0.027 0.127-0.146 0.119-0.098-0.007-0.189 0.077-0.19 0.174-0.001 0.109-0.033 0.118-0.158 0.045-0.083-0.049-0.12-0.086-0.124-0.127-0.021-0.185-0.037-0.223-0.133-0.313-0.121-0.113-0.128-0.114-0.149-0.021-0.009 0.040-0.042 0.090-0.075 0.111-0.093 0.061-0.111 0.12-0.129 0.409-0.019 0.3-0.038 0.343-0.158 0.343-0.159 0-0.189-0.191-0.091-0.579 0.077-0.304 0.080-0.309 0.209-0.36 0.12-0.048 0.117-0.073-0.016-0.12-0.060-0.022-0.156-0.078-0.211-0.126-0.12-0.103-0.1-0.101-0.247-0.027-0.245 0.124-0.507-0.035-0.275-0.167 0.099-0.056 0.209-0.137 0.33-0.241 0.208-0.18 0.303-0.166 0.556 0.083zM29.711 8.43c0.193 0.112 0.325 0.268 0.325 0.383 0 0.114-0.036 0.117-0.336 0.031-0.020-0.006-0.088 0.035-0.151 0.090-0.146 0.128-0.141 0.215 0.021 0.38 0.058 0.059 0.129 0.142 0.159 0.186 0.040 0.059 0.087 0.089 0.178 0.116 0.131 0.038 0.153 0.065 0.153 0.192 0 0.088-0.030 0.109-0.153 0.109-0.13 0-0.188 0.123-0.087 0.186 0.136 0.085 0.184 0.531 0.072 0.679-0.066 0.087-0.319 0.099-0.418 0.020-0.039-0.031-0.114-0.074-0.168-0.095-0.224-0.089-0.26-0.376-0.081-0.649 0.065-0.099-0.037-0.334-0.205-0.474-0.022-0.018-0.040-0.043-0.040-0.055s-0.027-0.062-0.060-0.111c-0.033-0.049-0.060-0.108-0.060-0.132s-0.023-0.11-0.051-0.192c-0.067-0.197-0.005-0.474 0.106-0.474 0.022 0 0.204-0.089 0.459-0.225 0.149-0.080 0.137-0.081 0.337 0.036zM33.727 8.37c0.030 0.008 0.054 0.023 0.054 0.034s-0.024 0.027-0.054 0.036-0.086 0.047-0.126 0.084c-0.189 0.179-0.246 0.215-0.337 0.215-0.084 0-0.088-0.003-0.054-0.042 0.020-0.023 0.043-0.069 0.051-0.102s0.049-0.081 0.093-0.106c0.043-0.025 0.093-0.066 0.11-0.090 0.032-0.045 0.153-0.058 0.263-0.028zM27.342 8.525c0.005 0.060-0.016 0.121-0.079 0.225l-0.086 0.143 0.126 0.109c0.069 0.060 0.159 0.143 0.199 0.183s0.114 0.098 0.162 0.127c0.4 0.24 0.15 0.627-0.33 0.51-0.261-0.064-0.379-0.104-0.443-0.151-0.132-0.098-0.392-0.091-0.552 0.014-0.072 0.047-0.16 0.086-0.195 0.086s-0.131 0.022-0.214 0.048c-0.258 0.082-0.262 0.080-0.327-0.167-0.038-0.144-0.024-0.212 0.074-0.349 0.028-0.040 0.072-0.126 0.096-0.192 0.085-0.227 0.2-0.423 0.298-0.507l0.099-0.084 0.066 0.046c0.036 0.026 0.118 0.069 0.181 0.097 0.114 0.050 0.114 0.051 0.099 0.144-0.037 0.232 0.144 0.293 0.389 0.132 0.068-0.044 0.063-0.053-0.086-0.135-0.059-0.033-0.11-0.069-0.114-0.081-0.018-0.054 0.516-0.306 0.606-0.286 0.013 0.003 0.027 0.042 0.031 0.087zM31.203 8.684c0.002 0.077 0.020 0.19 0.040 0.252 0.095 0.282-0.3 0.445-0.5 0.207-0.114-0.136-0.029-0.391 0.164-0.49 0.042-0.022 0.107-0.065 0.145-0.096 0.102-0.085 0.147-0.047 0.151 0.128zM7.966 9.056c0.018 0.095-0.118 0.191-0.297 0.211-0.165 0.018-0.171 0.021-0.314 0.164-0.101 0.101-0.175 0.154-0.243 0.172-0.053 0.014-0.109 0.040-0.123 0.058-0.041 0.050-0.171 0.020-0.2-0.045-0.038-0.084-0.009-0.124 0.105-0.143 0.057-0.009 0.147-0.049 0.199-0.087s0.137-0.081 0.187-0.094c0.060-0.016 0.099-0.044 0.113-0.080 0.022-0.058 0.070-0.086 0.146-0.086 0.025 0 0.096-0.027 0.16-0.061 0.129-0.068 0.255-0.072 0.267-0.007zM22.298 9.474c-0.025 0.025-0.021 0.135 0.006 0.177 0.019 0.030 0.036 0.023 0.101-0.042 0.050-0.050 0.069-0.086 0.055-0.1-0.033-0.032-0.141-0.056-0.162-0.035zM22.27 9.921c-0.044 0.063-0.048 0.15-0.011 0.255 0.034 0.099 0.209 0.113 0.272 0.022 0.097-0.138 0.021-0.331-0.131-0.331-0.069 0-0.103 0.014-0.131 0.053zM23.043 10.598c-0.062 0.047-0.052 0.072 0.051 0.13 0.051 0.029 0.107 0.069 0.123 0.088 0.066 0.080 0.264-0.072 0.264-0.202 0-0.061-0.362-0.074-0.438-0.016zM28.615 10.728c-0.010 0.117-0.060 0.123-0.106 0.013-0.035-0.084-0.035-0.093 0.004-0.122 0.063-0.046 0.11 0.005 0.102 0.108zM25.102 11.254l-0.072 0.039 0.081 0.021c0.111 0.029 0.157 0.009 0.123-0.053-0.031-0.058-0.039-0.058-0.132-0.007zM26.439 11.241c-0.068 0.068 0.005 0.137 0.095 0.089 0.046-0.025 0.046-0.028 0.007-0.072-0.049-0.054-0.063-0.056-0.102-0.017zM1.481 12.586c-0.017 0.263 0.003 0.32 0.139 0.39 0.123 0.063 0.146 0.093 0.192 0.248 0.021 0.070 0.059 0.148 0.084 0.174s0.053 0.074 0.062 0.107c0.028 0.111 0.082 0.072 0.082-0.058 0-0.11-0.041-0.194-0.095-0.194-0.011 0-0.025-0.048-0.031-0.106s-0.033-0.137-0.059-0.174c-0.026-0.037-0.073-0.132-0.105-0.21-0.035-0.085-0.075-0.147-0.102-0.153-0.048-0.013-0.088-0.096-0.088-0.186 0-0.178-0.066-0.042-0.079 0.163zM26.848 12.839c0.020 0.023 0.054 0.075 0.076 0.114 0.053 0.098 0.085 0.149 0.173 0.276 0.041 0.059 0.088 0.151 0.105 0.204s0.058 0.126 0.091 0.162c0.075 0.081 0.12 0.204 0.138 0.378 0.022 0.214 0.11 0.538 0.152 0.563 0.071 0.042 0.215 0.212 0.243 0.287 0.058 0.159 0.096 0.231 0.119 0.231 0.013 0 0.024 0.011 0.024 0.024s0.029 0.070 0.064 0.126c0.063 0.099 0.106 0.376 0.114 0.725 0.003 0.114-0.055 0.142-0.123 0.059-0.024-0.029-0.073-0.086-0.109-0.127s-0.066-0.086-0.066-0.099c-0-0.022-0.101-0.117-0.259-0.244-0.058-0.047-0.099-0.179-0.1-0.323-0-0.051-0.020-0.109-0.049-0.142-0.026-0.030-0.048-0.064-0.048-0.076s-0.036-0.061-0.081-0.11c-0.121-0.135-0.135-0.177-0.135-0.387 0-0.198-0.066-0.372-0.222-0.582-0.030-0.041-0.058-0.126-0.068-0.208-0.014-0.115-0.042-0.177-0.162-0.361-0.155-0.237-0.21-0.423-0.149-0.497 0.042-0.051 0.222-0.046 0.269 0.007zM2.141 13.684c0.010 0.031 0.043 0.036 0.046 0.008 0.001-0.010-0.011-0.022-0.027-0.027s-0.024 0.003-0.019 0.019zM6.908 13.826c-0.063 0.009-0.114 0.024-0.114 0.033s0.001 0.030 0.001 0.045c0 0.019 0.009 0.019 0.030 0.002 0.083-0.068 0.246-0.021 0.373 0.107 0.045 0.046 0.104 0.080 0.136 0.080 0.031 0 0.088 0.025 0.125 0.055s0.098 0.074 0.135 0.097c0.037 0.023 0.087 0.075 0.112 0.115 0.122 0.201 0.433 0.231 0.433 0.042 0-0.088-0.006-0.095-0.128-0.153-0.071-0.033-0.147-0.081-0.17-0.106s-0.077-0.052-0.12-0.060-0.121-0.047-0.173-0.086c-0.052-0.039-0.109-0.071-0.128-0.072s-0.059-0.024-0.090-0.053c-0.061-0.057-0.218-0.075-0.423-0.047zM8.635 14.6c-0.202 0.159-0.029 0.321 0.306 0.287 0.303-0.031 0.327-0.050 0.224-0.176-0.131-0.16-0.397-0.215-0.53-0.111zM39.339 14.721c-0.125 0.066-0.118 0.056-0.111 0.171 0.011 0.193 0.197 0.202 0.311 0.015 0.122-0.2 0.015-0.3-0.2-0.186zM7.736 14.796c-0.018 0.021-0.016 0.047 0.004 0.086l0.030 0.055 0.027-0.060c0.033-0.071-0.016-0.136-0.061-0.081zM8.814 16.692c0.026 0.048-0.027 0.162-0.075 0.162-0.064 0-0.1-0.114-0.060-0.192 0.042-0.081 0.081-0.072 0.135 0.030zM34.286 17.019c-0.043 0.156-0.008 0.484 0.052 0.484 0.004 0 0.042 0.010 0.084 0.022 0.243 0.070 0.225-0.461-0.018-0.557l-0.094-0.037-0.024 0.088zM36.975 17.635c-0.044 0.053-0.012 0.207 0.054 0.259 0.114 0.091 0.283 0.264 0.283 0.29 0 0.015 0.065 0.090 0.144 0.168 0.116 0.113 0.144 0.155 0.144 0.217 0 0.072 0.041 0.152 0.114 0.227 0.018 0.018 0.053 0.074 0.079 0.124s0.057 0.098 0.069 0.106c0.012 0.008 0.042 0.065 0.065 0.128s0.066 0.146 0.094 0.186c0.028 0.040 0.071 0.121 0.096 0.18s0.070 0.139 0.1 0.176c0.030 0.037 0.055 0.076 0.055 0.086 0 0.040 0.229 0.118 0.308 0.105 0.096-0.015 0.111-0.050 0.135-0.293l0.017-0.178-0.092-0.087c-0.221-0.21-0.319-0.345-0.32-0.441-0-0.080-0.077-0.226-0.148-0.281-0.030-0.023-0.267-0.228-0.318-0.276-0.029-0.026-0.064-0.075-0.078-0.108-0.025-0.058-0.204-0.263-0.405-0.467-0.065-0.066-0.133-0.107-0.21-0.127-0.144-0.038-0.149-0.038-0.186 0.006zM39.821 18.244c-0.048 0.010-0.094 0.049-0.14 0.117-0.065 0.097-0.073 0.101-0.159 0.087-0.117-0.019-0.225 0.036-0.266 0.135-0.082 0.199 0.25 0.84 0.452 0.873 0.048 0.008 0.134 0.021 0.19 0.030l0.102 0.015v-1.279l-0.054 0.003c-0.030 0.002-0.086 0.010-0.125 0.018zM26.646 18.754c0.066 0.041 0.088 0.184 0.052 0.333-0.034 0.143-0.046 0.154-0.228 0.201l-0.144 0.037-0.055-0.061c-0.085-0.095-0.071-0.484 0.019-0.531 0.071-0.038 0.282-0.025 0.356 0.021zM25.911 19.53c0.002 0.040 0.002 0.113-0.002 0.162-0.005 0.074 0.006 0.096 0.062 0.132 0.103 0.066 0.126 0.106 0.127 0.224 0.001 0.089 0.010 0.113 0.055 0.132 0.063 0.028 0.072 0.116 0.013 0.127-0.040 0.008-0.211-0.145-0.211-0.189 0-0.012-0.037-0.059-0.082-0.106-0.106-0.109-0.153-0.501-0.072-0.591 0.055-0.060 0.103-0.012 0.11 0.109zM38.764 20.056c-0.038 0.028-0.040 0.042-0.014 0.119 0.035 0.106 0.102 0.131 0.422 0.158 0.145 0.012 0.249 0.036 0.317 0.071 0.161 0.083 0.511 0.077 0.511-0.008 0-0.044-0.013-0.060-0.047-0.060-0.026 0-0.059-0.021-0.073-0.048-0.050-0.093-0.158-0.125-0.408-0.122-0.198 0.002-0.242-0.004-0.293-0.044-0.061-0.048-0.104-0.061-0.274-0.084-0.062-0.008-0.114-0.002-0.141 0.018zM26.694 20.534c0.048 0.057 0.047 0.634-0.001 0.682-0.086 0.086-0.154-0.174-0.129-0.492 0.018-0.222 0.056-0.278 0.129-0.19zM29.075 21.231c-0.052 0.056-0.095 0.11-0.095 0.12-0.001 0.051-0.248 0.259-0.347 0.293-0.122 0.042-0.273 0.131-0.323 0.19-0.033 0.040-0.032 0.066 0.019 0.344 0.029 0.158 0.017 0.213-0.069 0.32-0.114 0.142-0.094 0.532 0.034 0.672 0.030 0.033 0.061 0.079 0.070 0.102 0.025 0.072 0.227 0.059 0.256-0.016 0.012-0.032 0.042-0.069 0.066-0.082 0.028-0.015 0.054-0.074 0.073-0.16 0.016-0.075 0.060-0.187 0.098-0.248 0.044-0.070 0.080-0.175 0.099-0.286 0.016-0.096 0.045-0.189 0.063-0.208 0.033-0.033 0.116-0.293 0.157-0.492 0.012-0.058 0.045-0.145 0.073-0.192 0.077-0.131 0.038-0.458-0.055-0.458-0.012 0-0.065 0.046-0.117 0.102z"></path>
</svg>