<svg xmlns="http://www.w3.org/2000/svg" xmlns:xlink="http://www.w3.org/1999/xlink" viewBox="0 0 48 32"><defs><path id="c" d="M9.49.18L9.07.3 9.5.18zM2.83 18.76c4.82 6.65 14.05 5.75 17.93.64-3.29 4.33-12.84 4.24-16.93-1.4C-.37 12.18 2.53 2.3 9.07.3a11.88 11.88 0 00-6.24 18.46z"/><path id="e" d="M8.51.85L8.3.92l-.25.09C2.43 3.14-.07 11.63 3.34 16.95l.15.23.14.2.16.21.2.24c3.86 4.67 11.95 4.78 15.16 1.21l.15-.18.11-.14-.1.14-.17.2a10.61 10.61 0 01-16.45-.97A11.1 11.1 0 018.51.85z"/><path id="h" d="M8.51.85L8.3.92l-.25.09C2.35 3.17-.15 11.88 3.5 17.18l.14.2.16.21.2.24c3.93 4.75 12.22 4.78 15.31 1.03l.11-.14-.1.14-.17.2a10.61 10.61 0 01-16.45-.97A11.1 11.1 0 018.51.85z"/><path id="k" d="M8.51.85L8.3.92l-.25.09C2.43 3.14-.07 11.63 3.34 16.95l.15.23.14.2.16.21.2.24c3.86 4.67 11.95 4.78 15.16 1.21l.15-.18.11-.14-.1.14-.17.2a10.61 10.61 0 01-16.45-.97A11.1 11.1 0 018.51.85z"/><path id="n" d="M8.51.85L8.3.92l-.25.09C2.35 3.17-.15 11.88 3.5 17.18l.14.2.16.21.2.24c3.93 4.75 12.22 4.78 15.31 1.03l.11-.14-.1.14-.17.2a10.61 10.61 0 01-16.45-.97A11.1 11.1 0 018.51.85z"/><path id="q" d="M2.25.1c-.36 0-.68.08-.97.25C.93.54.66.87.6.93c-.27.35-.4.75-.4 1.21V4.1c0 .56.2 1.04.6 1.44.4.4.88.6 1.44.6H5.9c.56 0 1.04-.2 1.44-.6.4-.4.6-.88.6-1.44V2.14c0-.56-.2-1.04-.6-1.44C6.94.3 6.46.1 5.9.1H2.25zm-.1 4.32a.8.8 0 01-.24-.6v-1.4l.01-.17c.02-.08.13-.5.61-.64a.88.88 0 01.22-.03H5.4a.8.8 0 01.59.25.8.8 0 01.25.59v1.42a.8.8 0 01-.25.59.8.8 0 01-.6.25H2.75a.8.8 0 01-.59-.25z"/><path id="s" d="M2.6.1c-.56 0-1.04.2-1.44.6-.4.4-.6.88-.6 1.44V4.1c0 .56.2 1.04.6 1.44.4.4.88.6 1.44.6h4.68V4.67H3.1a.8.8 0 01-.59-.25.8.8 0 01-.24-.6v-1.4c0-.23.08-.43.24-.6a.81.81 0 01.6-.24h4.18V.1H2.6z"/><path id="u" d="M2.83.1c-.56 0-1.04.2-1.44.6-.4.4-.6.88-.6 1.44v4h1.7V4.76a.8.8 0 01.24-.59.8.8 0 01.6-.25h3.93V2.45H2.48v-.04a.8.8 0 01.25-.6.81.81 0 01.6-.24h3.93L8.32.1h-5.5z"/><linearGradient id="f" x1="0%" x2="0%" y1="-.03%" y2="3894.23%"><stop offset="0%" stop-color="#D9E70C"/><stop offset="100%" stop-color="#40B93C"/></linearGradient><linearGradient id="i" x1="1.55%" x2="1.55%" y1="98.41%" y2="-177.68%"><stop offset="0%" stop-color="#D9E70C"/><stop offset="100%" stop-color="#40B93C"/></linearGradient><linearGradient id="l" x1="0%" x2="0%" y1="0%" y2="3958.64%"><stop offset="0%" stop-color="#D9E70C"/><stop offset="100%" stop-color="#40B93C"/></linearGradient><linearGradient id="o" x1="68.95%" x2="24%" y1="93.8%" y2="25.69%"><stop offset="0%" stop-color="#D9E70C"/><stop offset="100%" stop-color="#40B93C"/></linearGradient><rect id="a" width="48" height="32" x="0" y="0" rx="4"/></defs><g fill="none" fill-rule="evenodd"><mask id="b" fill="#fff"><use xlink:href="#a"/></mask><use fill="#021A57" fill-rule="nonzero" xlink:href="#a"/><g mask="url(#b)"><g transform="translate(8 4.32)"><mask id="d" fill="#fff"><use xlink:href="#c"/></mask><path fill="#FFF" mask="url(#d)" d="M-4 28h29.27V-4.32H-4z"/></g><g transform="translate(9 4.32)"><mask id="g" fill="#fff"><use xlink:href="#e"/></mask><path fill="url(#f)" mask="url(#g)" d="M.22 22.86h19.22V.73H.22z"/><mask id="j" fill="#fff"><use xlink:href="#h"/></mask><path fill="url(#i)" mask="url(#j)" d="M.22 22.86h19.22V.73H.22z"/></g><g transform="translate(9 4.32)"><mask id="m" fill="#fff"><use xlink:href="#k"/></mask><path fill="url(#l)" mask="url(#m)" d="M.52 22.51h18.92V.74H.52z"/><mask id="p" fill="#fff"><use xlink:href="#n"/></mask><path fill="url(#o)" mask="url(#p)" d="M.52 22.51h18.92V.74H.52z"/></g><g transform="translate(17 12.32)"><mask id="r" fill="#fff"><use xlink:href="#q"/></mask><path fill="#FFF" mask="url(#r)" d="M-4.3 10.65h16.75V-4.4H-4.3z"/></g><g transform="translate(33 12.32)"><mask id="t" fill="#fff"><use xlink:href="#s"/></mask><path fill="#FFF" mask="url(#t)" d="M-3.95 10.65H11.8V-4.4H-3.95z"/></g><g transform="translate(25 12.32)"><mask id="v" fill="#fff"><use xlink:href="#u"/></mask><path fill="#FFF" mask="url(#v)" d="M-3.72 10.65h16.54V-4.4H-3.72z"/></g></g><g fill="#2C283A" fill-rule="nonzero" mask="url(#b)" opacity=".08"><path d="M44 1a3 3 0 013 3v24a3 3 0 01-3 3H4a3 3 0 01-3-3V4a3 3 0 013-3h40zm0-1H4a4 4 0 00-4 4v24a4 4 0 004 4h40a4 4 0 004-4V4a4 4 0 00-4-4z"/></g></g></svg>