<svg xmlns="http://www.w3.org/2000/svg" viewBox="0 0 48 32"><g fill="none" fill-rule="evenodd"><path fill="#F6F4F9" d="M44 32H4a4 4 0 01-4-4V4a4 4 0 014-4h40a4 4 0 014 4v24a4 4 0 01-4 4"/><path fill="#000" d="M17.45 26.6h.08l.07-.07v-.08l.08-.07h-.23v.07l.08.08zm.82 2.01l-.07.07h-.08l.08.08.07.07h.08v.08l.07.07v-.15.08l.07-.08v.15h-.07.22v-.07h.08v-.08l-.08-.07-.07-.08-.08.08v-.08h-.07v-.07.07h-.15z"/><path fill="#000" d="M17.9 26.6l-.07-.22h-.08v-.07.07h-.07v.07l-.08.08.07.07h-.14v.08l.07.07h-.15v.08h.08l.07.07h.07v-.15l.08-.07v.29h.07v-.07h.08v-.07h-.07v-.08zm2.98 2.98h-.08.07v-.08zm-1.57-.45h-.14v.08h-.08l-.07-.08v.08h-.08v-.08h-.07v.15h.37l.15.07h.21l.07-.07v.07h.08l.15.08.07-.07h.24l.52.07h.07l.07.07.08-.07h.3l.07-.07v-.08h-.15l-.22-.07-.37-.23-.3-.22v-.15h-.15v-.15h.08v-.07l-.15-.15h-.23l-.07-.08-.15.15h-.22.07v.08h.08-.08v.07h-.07v.15h.37v.08l-.22.14h-.08v.08l.08.07.37.15v.08h-.08l-.07-.08h-.3v-.07h-.07v-.08h-.08.08v-.22h-.08v.07l-.07.08v.15h.07v.07h.08l.07.08h-.15zm-1.49-.82h-.07l.07.08.15.07h.15l.08.08v.07h.15v-.07h-.15v-.08h-.08l-.07-.07h-.15zm.08-.44h.07v.07-.07l-.07-.08zm2.68 2.01v-.08l-.08-.07v.07h-.07l.07.08zm-.22 0h.07v.07l.07-.07zM17.6 27.2h-.07v.14l.07-.07zm.08-.15h.07l-.07-.08h-.15v.15h.15zm.14.82h-.07v-.08h-.07v.22l.07.08h.07v-.15z"/><path fill="#000" d="M19.98 29.65v.08-.08l.08.08h.14v.07h.07v-.07l-.07-.08v-.07h-.14v-.08h.07v-.07h-.15l-.37-.08v.15h-.07l.07.08h.07v.07h.08l.07.08-.07-.15.07-.08v.08h.15zm-.59-.07v-.08h.07l-.07-.07h-.23v-.08h-.14v.08h.14v.07h.15zm1.19 0h.07v-.08l-.07-.07h-.37v.07l.07.08h.22zm-2.83-3.65l-.07.08h-.08v.07l.08.08v.14h.14v-.21h-.07v-.07zm1.34 3.05l-.15-.07h-.22v.07l.07.08v.07l.08-.07h.15l.07.07h.07v-.15zM31.3 11.57v-.07.07h-.08zm-2.1 3.87h-.07z"/><path fill="#000" d="M32.7 9.34v-.07l-.07-.15v-.08l-.07-.3-.08-.07V8.6h-.52v-.08h-.15v-.07h-.15l-.07-.08-.07-.07-.08-.15h-.08v-.07h-.07L31.14 8l-.37-.22h-.67V7.7l-.07.08h-.08l-.15-.08-.07-.07h-.37v.07h-.08l-.07.08v-.15h-.08v.15l-.07.07-.08.08v-.08l.08-.15v-.07l.07-.07h-.07v.07l-.08-.07h.08v-.23l-.08.08v-.08l-.07-.07h-.07v.07h-.08v-.15h-.22v-.07h-.22v-.08h-.15v-.07h-.15v.08l-.08-.08h-.14v.08-.08h-.07v.08h-.07v.14h-.08v.08h.07l-.07.07v-.07h-.07l-.08.15h-.07l-.08.22-.07.07v-.14l.07-.23-.14.08h-.24v.07l-.07-.07h-.08v-.23h-.07v-.07h.07l-.07-.08v.08h-.08l-.07.07h-.08v.08l-.14.07h-.08l-.07-.07H26l.22-.08.08.08v-.08l.07-.07v-.08l.07-.14h.08v-.15h.07l.08-.08h.07l.08-.07V6.5l.07-.07.08-.08.07-.07v-.22h-.22v-.14h-.08v-.15l-.07-.3-.08-.15v-.15h-.07l-.08-.07v.08h-.07v-.16h-.07v.07-.07l-.08-.08v-.07l-.07.07v-.07h-.08L26 4.72h-.08l-.14-.08h-.08l-.15-.07-.07.15v-.08l.07-.07h-.07l-.3-.08h-.36v.08l-.23-.08h-.21v.17-.22h-.07v-.07h-.08l-.15-.15H24l-.07-.08-.08.08v.14h-.07v-.08l.07-.07v-.23l-.07-.07-.15-.22-.22-.08h-.08v-.07h-.52v.07l-.07-.07h-.08.15l.07-.08v-.15h.08v-.14h-.16l-.07-.08v-.07l-.08.07v.08-.08h-.07v-.07h-.08v.07h-.07v-.07.07l-.08-.15h-.07v-.07h-.07v-.08h.29l.08-.07h-.52l-.08.07h-.3.24-.23l-.22.15h-.3l-.07-.07-.08-.08h-.81v-.22h-.08l-.15-.07-.07-.08h-.23l-.07-.07V2.2h-.15v.22l.15-.07v.07h-.07l-.08.08h-.15l-.07.07-.15.08h-.07v.07h-.08l.08.07v.08l.07.07v.08l.07.07v.15l-.07.07-.15.08v-.08h-.07v-.07l-.08-.07v-.23h.08v-.07h.07v-.15l-.07-.07h.07l-.07-.08-.08-.07v-.08h.08l.15-.07.07-.08v-.15l-.07-.07-.08.07h-.15l-.07.08v.07l-.08.08h-.07l-.22.15h-.38v.07l-.07.15-.07-.07h.07l-.15-.08h-.07l-.08.08v.07l-.07.07-.08.08-.07.07h.07v.3h-.22v.15l-.15.07-.07.08h-.08.08v.22h-.08l.08-.07h-.08l-.07-.08v-.07h-.08l-.14-.15v-.08h-.08l-.22-.07h-.15v-.07h-.22v.22h.21l.07.07h.08v.08l.07.07v-.07l.07.07v-.07l.08.07.08.08-.08-.08h-.07v.08h-.08v.07l.07.15.23.22v.08h.07v.29l.08.07h-.08l-.07.07.07.08v.22h.08l-.08.15-.07.08h.07v.07l.08-.08v.08h.07l-.07.15h-.08v.07l-.07.08-.07.07h.07l-.07.08h-.08v.07h-.15l-.07.08v.22h-.14v.07h.07v.08l-.07.07h-.15l-.07.08h-.16v.07h-.08l.08.15v.07l-.08.08-.07.07-.08.08h.08v.07h-.08v.08l-.07.07h-.08l.08.07v.31l-.08.08h.08v.07l.15.07h.07v-.07h.08v-.07.14-.07h.07l-.07-.15h.07v.22l-.07.15v.08h-.08l-.07.07h-.08v.08h-.07l-.08.07-.07.15h-.07v.15l.07.07v.08l.07.15.08.07-.08.07h-.07v.08h.07l.3.22.22.23v.07l.08.15.15.15v.07l.07.08.08.15.07.14v.08l.07.07v.08l.16.3.07.07v.07l.07.08.08.07v.15h.07v.08l.08.07.07.08v.07l.08.07.07.15v.15h-.07l.07.08v.14h.07v.08l.15.07.08.08.07.07v.08h.08l.14.14h.08l.07.08.15.07.15.08.22.07.15.08.08.07h.07v.08h.08l.15.07v.15l.14.07.08.08.15.07.07.37v.53l.08.3-.08.51-.07.08-.08.07v.08l.08.07v.22l-.08.23v.07l.08.15v.07l-.08.08v.37l-.07.15v.3h-.08l-.07.15v.22l-.07.07v.23l.07.07v.08l-.07.14-.08.08v.37l.08.3v.3l-.08.15-.07.07.07.07v.15l-.07.08-.08.15v.14l-.07.15v.08l-.08.07v.08l-.07.07v.07l-.08.08v.15l-.07.07v.08l-.07.15v.07h-.14v.23l.07.08v.07l-.07.15h.07l.08.37v.08l-.08.15-.07.07v.08l-.08.3-.07.07v.07l.07.08v.07h.08v.08h-.08l.08.07h.15l.07-.15h.07l.08.08h.07v-.08h.08l-.08.08h-.07l-.08.07v.07h.15v.22l-.07-.08v-.07l-.08.07h.08v.08h-.08v.22l-.07.07v.3h-.07v.23h.14l.08.07v.07l-.08.08-.07.07h-.15v.15h.15v.08l-.07-.08-.08.08h-.15v.14h.08v.31h-.08v.08h-.07l.07-.08.08-.15v-.07l-.08-.07-.07.14v.08h-.15l.15-.08v-.14l.07-.08v-.07h-.15l.08.07v.07h-.3l-.07.08v.14l-.08.07h-.07l-.08.08-.07.07.07.08h.08v-.08h-.08.08v-.07h.15v.07h.07l.07.08h.08v-.08h.07v.23l-.07.07v.07h.07v.08h-.07v-.08h-.07v.15h.07v.08h.15l.07-.08v-.07h.08V26l.07.07h-.07l-.08-.07h-.29v.14h.07v.08h.15-.08l-.07.07v.38h.07v.07-.15h.08v-.14.3h.07-.15l-.07.07.07.08h.08v.07h-.15l-.07.08v.07h.14l.08.08h-.08v.07l.08.08h.07v-.15h.08v.07h-.08v.15l-.15-.07-.07-.15-.07-.08h-.08v.08h.07v.07h-.14v.08l.07.14h.15v.08h.15l.07.07-.07.08-.08.07.08.08.07-.08v.08h.08l.07.07.22-.07h.08v-.08l-.08-.07h-.14v-.08l.14.08.08.07h.07v.08l-.07.07.07.08v.07h-.07v.07-.22h-.15l-.07.08h-.23v.07l-.07-.07h-.08v.14l.08-.07v.15l.07.07.08-.07v.07l.07-.07h.08v-.08l.07.08-.07.07h-.08l-.07.08h.07v.07h.15v-.15h.07v-.07h.23v-.08l.15.08h.15-.08l-.07.07-.08-.07-.15.07h-.14v.15l-.07.08v.07l.07.08h.08v-.08h.07v-.07h.08v-.08h.15l.15-.15h.07v.15h-.07l-.15.08v.15-.08l-.08-.07h-.07l-.08.07v.08l.08.07h.07l.08.07h.14l.07.08.07-.08v-.29l.08-.15v-.08h.07v-.07h.08l.22-.08h.07l.08-.07.07-.07h.08v.07h.22l-.15-.3h-.15v-.07h-.07.15v-.22l-.08-.08-.07.07.07-.07v-.07l.08-.08v-.07l.07-.08.15-.07v-.08h-.22.07l.08-.07v-.07l.07.14h.22v-.07l.08-.22v-.08l.07-.15.08-.07.07-.07.23-.15.22-.15v-.08h-.15.07l.08-.07v-.08l.07-.07-.07-.07-.08-.08h-.29l-.23-.3h-.07v-.22l.3-.3.07-.07h.07l.08-.08h.22v-.14l.15-.08v-.45l.08-.07.07-.08h.08l.07-.07h.07-.07l-.07-.07h-.15l.07-.08.08-.07h.14v.15h.23v-.3h-.23v.07h.08l-.15.08v-.08h-.07.07-.07v-.07h-.15v-.6l.07-.07v.07l.15.08.3.07h.3l.14-.15h.08v-.07l-.08-.08v-.07l.08-.15.07-.07v-.23h-.07v-.22l.07.07h.37l.82-.14.3-.08.15-.15h.07v-.07l.08-.08.07-.14.15-.15v-.3h-.15l-.07-.07v-.23l.07-.07v-.08l-.07-.07-.15-.08-.22-.07-.08-.07v-.16h.08l-.08-.08v-.37h.08l.07-.07-.07-.15.07-.08v.31h-.07v.07l-.08.15.08.08.14.15v.07h.3l.08.15h.14l.08.07h.07l.08-.07h.22v.07h.16l.22-.07h.08l.07-.07.08-.08v-.07l.07-.08v-.07h.07l.23-.23v-.07l.15-.37h.07v-.23l.08-.07v-.07h.07l.07-.08v-.07l.08-.08v-.07.07-.07l.07-.08-.07-.07v-.07h.07v.07h.08v.07l.15-.07v.07h-.08v.15l-.07.08v.07h-.08v.08l-.07.07h-.08l-.07.07v.08h-.16l.08.07h-.08.08l.37-.3.22-.37.15-.22.15-.3.22-.15.08-.07v-.07l.07-.08v-.52l-.07-.07.07-.15h-.07v-.08h.07v-.15h-.07.07l.07-.07h-.07l-.07-.07h.14v-.08l.08.07.07-.07v-.07h.08l.22-.23.15-.07.3-.23h.15v.08l.07-.08v-.07h.08l.07-.07h.15v-.08l.07-.07h.3l-.07.07-.08-.07v.07l.23-.07h.07v-.08h.07v.08h.38v-.15l.07-.08.07-.07.15-.08h.08v-.29l.07-.08v-.07h.08l.07-.08v-.07l.08-.07v-.15l.07-.08h.07v-.07l.08-.08-.08-.22.08-.15.07-.15h.08v-.22l.15-.6-.08-.44v-.45l.08-.07v-.15l.07-.07v.07l.07.07.08-.07.22-.3.08-.22v-.08h.07-.07v.08h.07v-.15h.08v-.07l.07-.08.15-.07.07-.08.08-.07.07-.08v-.07l.15-.15.08-.15.14-.37v-.22z"/><path fill="#000" d="M31.14 11.72v.08l.08-.08zM17.45 26.3v.08h.08l.07-.07v-.08l-.07-.22h-.08v.15zm10.12-9v-.07h.07v-.08h-.07v.08zm1.27-1.56v-.08h-.08v.08zm-1.27.89l-.07.08h.07zm-4.98 5.36h-.08l.08.07zm-4.77 5.58h-.22v.15l.08-.08h.14zM26.9 6v-.08h-.07v.07zM16.19 3.69V3.6h.07v-.07h-.07v.07zm11.38 3.27l.07-.07V6.8h-.44l-.22-.07h-.15v.07l-.08.08v.22h.08-.08v.16l.08.07v.08h.07v-.08h.15v.08h.07v-.08h.08v-.07h.07v.07h.08v-.07h.15V7.1l.07-.08zm-11.38-.74v.07z"/><path fill="#000" d="M26.68 6.81l.15-.07h-.15zM15.74 7.85v-.07h.08V7.7h-.08v.08zm.37-4.16h.08V3.6h-.08zm10.34 3.27l-.07.08v.14l-.07.08h.07l.07-.08.08-.07.07-.15-.07-.07v.07zm2.46.22v.08zm.15.52v.15-.07h.07V7.7zm-9.52-5.65h.07v.07-.07zm7.36 4.61v-.15.08l-.07.07.07.08zm.3 0l-.07.08h.14v-.08zm-.15-.07l-.07.07h-.08v.08h.22v-.15zm-.07 0l.07-.08h-.15v.08zm-6.85-4.47l.08.08v.07-.07zM17.82 24.9v.07h.08l.07-.08v-.22h-.07v.15h-.07zm.38-.53h-.08v.15h.08v-.08zm-.23-.6h-.07v.08h.22v-.08h.08v-.07h.07l-.07-.07v-.08h-.08l.08-.07h.07l-.07-.08h.07v-.15l-.07-.07h-.15v.15h-.08v.3zm.15.3h-.15l.08.08zm.23.3l-.08.07v.08h.15l.07-.08v-.07l-.14-.07zm3.27 4.99h.22v-.08l-.07.07v-.07l-.15.07v-.07l-.07.07v.08zm-3.94-4.76v-.08h-.08z"/><path fill="#000" d="M17.9 24.52v.07l.07.08h.08v.07h.07v-.29h-.07v-.08h.07v-.07h.08-.08v-.08h-.07v.08l-.08.07v-.07l-.07.07v.07h-.07zm5.13-21.21h-.07zM17.75 24h.07v-.08h-.07zm4.02-21.43v.08h-.08v-.08l-.07.08h.22v-.08zm-4.09 23.29h-.08v.07h.08l.07-.07zm3.57-23.21h.07zm1.71.07h-.3.07v.22h-.14.29v-.07h.08-.08v-.15zm0 .59l-.08.08v.07l.08-.07zM19.9 2.12h-.07l.08.08h.07-.07z"/><path fill="#2C283A" fill-rule="nonzero" d="M44 1a3 3 0 013 3v24a3 3 0 01-3 3H4a3 3 0 01-3-3V4a3 3 0 013-3h40zm0-1H4a4 4 0 00-4 4v24a4 4 0 004 4h40a4 4 0 004-4V4a4 4 0 00-4-4z" opacity=".08"/></g></svg>