<svg xmlns="http://www.w3.org/2000/svg" viewBox="0 0 48 32"><g fill="none"><rect width="48" height="32" fill="#FFDA00" rx="4"/><path fill="#FF1744" d="M4 0h40a4 4 0 014 4v4H0V4a4 4 0 014-4zM0 24h48v4a4 4 0 01-4 4H4a4 4 0 01-4-4v-4z"/><g transform="translate(7 10)"><path fill="#AD1519" d="M1.37 4h-.11a.16.16 0 010-.11.14.14 0 01.08-.08h.98l.06.06a.2.2 0 010 .06.1.1 0 010 .06v.06h-.49a3 3 0 00-.42 0L1.37 4z"/><path fill="#000" d="M1.37 4v-.07a.13.13 0 01.07-.08h.05-.09.92l.06.06a.2.2 0 010 .06v.05h-.43a3 3 0 00-.42 0h.85a.1.1 0 00.06 0V3.9a.18.18 0 00-.07-.06h-.24L2 3.6h-.73a.15.15 0 00-.08.09.2.2 0 000 .09l.18.22z"/><circle cx="2.21" cy="4.05" r="1" fill="#C8B100"/><path fill="#000" d="M1.79 3.56c.03.06.03.13 0 .19a.21.21 0 010-.19h-.06a.23.23 0 000 .2.06.06 0 00.12 0 .23.23 0 000-.2h-.06z"/><circle cx="2.26" cy="4.06" r="1" fill="#C8B100"/><path fill="#000" d="M1.79 3.57a.25.25 0 000 .12v.09a.25.25 0 000-.12v-.09z"/><circle cx="2.24" cy="4" r="1" fill="#C8B100"/><path fill="#C8B100" d="M1.86 3.53v.03h-.14v-.03h.05v-.07h-.03v-.03h.03V3.4h.03v.03h.04v.03H1.8v.07h.06"/><path fill="#000" d="M1.85 3.53v.02h-.12v-.01h.05v-.09h-.04v-.01h.04v-.03h.01v.03h.04v.01h-.04v.09h.07v-.02h-.05v-.05h.04v-.05h-.04v-.03h-.05v.03h-.03v.05h.03v.05h-.05v.05h.16v-.04h-.02z"/><path fill="#000" d="M1.8 3.51v.05h.06v-.05H1.8z"/><path fill="#C8B100" d="M1.79 4h-.26v-.21c-.07-.1-.14-.16-.16-.14.06 0 .2.05.3.2h.23c.1-.15.23-.24.3-.2 0 0-.09 0-.16.14V4h-.25z"/><path fill="#000" d="M1.79 4h-.26v-.15l-.09-.11h-.07c.05 0 .09.03.12.06.05.04.1.1.13.15h.28l.13-.15a.22.22 0 01.12-.06h-.07l-.09.11V4v-.22l.09-.1h.06a.2.2 0 00-.13.06l-.14.16h-.2a.69.69 0 00-.14-.16.23.23 0 00-.13-.06h.06l.09.1V4h.27-.03z"/><path fill="#000" d="M1.35 3.68c.04 0 .07.03.1.06a.2.2 0 00-.11-.06h.01zm.89 0a.2.2 0 00-.11.06.19.19 0 01.1-.06h.01z"/><path fill="#C8B100" d="M1.4 4.16V4.1c.28-.07.56-.07.84 0a1.3 1.3 0 00-.37 0 1.28 1.28 0 00-.37 0"/><path fill="#000" d="M1.41 4.16V4.1c.14-.04.28-.05.42-.05.14 0 .28.01.42.05a1.31 1.31 0 00-.37 0 1.3 1.3 0 01.36 0 1.4 1.4 0 00-.45-.1c-.14 0-.28.01-.42.05l.04.11z"/><path fill="#C8B100" d="M1.79 4.29h.38a1.56 1.56 0 00-.73 0h.35z"/><path fill="#000" d="M1.79 4.29h.33c-.24-.06-.5-.06-.74 0h.33-.33c.24-.06.49-.06.73 0h-.33.01z"/><path fill="#C8B100" d="M2.21 4h-.6a.1.1 0 01-.08 0 .14.14 0 01-.05.05.1.1 0 01-.07 0c.27-.07.55-.07.82 0L2.21 4z"/><path fill="#000" d="M2.21 4h-.82a1.74 1.74 0 00-.01 0h.53A.1.1 0 002 4h.21z"/><path fill="#C8B100" d="M1.79 3.9c0 .03.03.06.06.06h.06a.06.06 0 00.12 0H2c0 .03.03.05.06.05a.21.21 0 01-.05.06h.2a.08.08 0 01-.08 0A.08.08 0 012 4h-.46a.08.08 0 01-.08 0h-.2a.12.12 0 00.24 0 .06.06 0 00.12 0h.06c.03 0 .06-.03.06-.06l.05-.04z"/><path fill="#000" d="M1.79 3.9c0 .03.03.06.07.06h.06c.01.03.05.05.08.04.04 0 .06-.03.07-.06 0 .03.03.06.06.06h.1-.1a.08.08 0 01-.07 0h-.17a.08.08 0 01-.07 0 .08.08 0 01-.07 0h-.17a.08.08 0 01-.07 0h.1a.06.06 0 00-.1 0 .07.07 0 00.13 0h.06c.04 0 .06-.03.07-.06a.05.05 0 01-.05.05h-.05a.06.06 0 01-.11 0l.06.06A.09.09 0 001.53 4h.07a.1.1 0 00.07 0h.06a.1.1 0 00.08 0 .1.1 0 00.08 0h.06A.1.1 0 002 4h.07H2c.02.03.05.05.08.05.08.03.18.01.24-.05H1.9a.05.05 0 01-.05-.05l-.06-.05z"/><path fill="#C8B100" d="M1.79 4a1.73 1.73 0 01.43.05A1.58 1.58 0 001.79 4z"/><path fill="#000" d="M1.79 4a1.72 1.72 0 01.43.05 1.57 1.57 0 01-.01 0 1.74 1.74 0 00-.86 0c.14-.04.28-.05.42-.05h.02zm-.56 0h.06z"/><path fill="#C8B100" d="M1.33 3.94v.03l-.08.01h-.01v-.02l.06-.04.03.02"/><path fill="#000" d="M1.32 3.94v.03l-.07.01v-.01l.05-.04.03.02.01-.02-.04-.02-.07.05v.02l.02.01.08-.01.01-.04h-.02z"/><circle cx="1.92" cy="3.93" r="1" fill="#C8B100" transform="rotate(-49.27 1.92 3.93)"/><circle cx="1.99" cy="4.29" r="1" fill="#C8B100" transform="rotate(-16.64 1.99 4.3)"/><path fill="#C8B100" d="M1.4 3.93l.03.03.07-.04v-.01l-.01-.01-.07-.01-.02.04"/><path fill="#000" d="M1.4 3.93l.03.03.08-.03v-.02l-.01-.02-.09-.01-.01.05h.01l.01-.03.07.01h.01-.01l-.06.04-.02-.03-.01.01z"/><path fill="#C8B100" d="M1.48 3.8l-.03.04.04.06.02.01V3.9l.02-.08-.05-.02"/><path fill="#000" d="M1.48 3.8l-.04.04.05.07h.02l.01-.01.02-.08-.06-.02v.01l.04.02-.01.06-.01.01-.04-.06.03-.03-.01-.01z"/><path fill="#C8B100" d="M1.61 3.89l-.02.03h-.07l-.01-.01V3.9l.07-.04.03.03"/><path fill="#000" d="M1.6 3.89l-.01.03-.07-.01V3.9l.06-.03.02.02.01-.01-.03-.02v-.01l-.07.04-.01.01v.01l.01.01.09.01.01-.04H1.6z"/><circle cx="1.98" cy="4.38" r="1" fill="#C8B100"/><circle cx="2.19" cy="4.34" r="1" fill="#C8B100" transform="rotate(-6.77 2.2 4.34)"/><path fill="#C8B100" d="M1.68 3.89l.03.03.07-.03.01-.01-.01-.01-.07-.02-.03.04"/><path fill="#000" d="M1.68 3.89l.02.03v.01l.08-.03.01-.01v-.01l-.01-.01-.08-.03-.02.04.01.01.02-.03.06.02h.01l-.01.01-.06.02-.02-.03-.01.01z"/><path fill="#C8B100" d="M1.79 3.77l-.05.03.03.08h.03l.03-.08-.04-.03"/><path fill="#000" d="M1.78 3.77l-.05.03.04.08.01.01h.01l.01-.01.04-.08-.05-.03-.01.01.04.02-.03.07v.01l-.01-.01-.03-.07.04-.02-.01-.01z"/><path fill="#C8B100" d="M1.89 3.89l-.02.03-.08-.03v-.02l.08-.02.02.04"/><path fill="#000" d="M1.88 3.88l-.01.03-.07-.02v-.01l.06-.02.02.03.01-.01-.02-.03v-.01l-.08.03-.01.01.01.02.08.03.02-.04-.01-.01z"/><circle cx="2.26" cy="4.35" r="1" fill="#C8B100"/><circle cx="2.46" cy="3.5" r="1" fill="#C8B100" transform="rotate(-83.36 2.46 3.5)"/><path fill="#C8B100" d="M1.97 3.89l.01.03h.08l.01-.01-.01-.01L2 3.86l-.03.03"/><path fill="#000" d="M1.96 3.89l.01.04h.01l.08-.01.01-.01h.01l-.01-.02-.08-.04-.03.03.01.01.03-.02.06.03v.01h-.01l-.06.01-.02-.03h-.01z"/><path fill="#C8B100" d="M2.09 3.8l.04.04-.05.06-.01.01-.01-.01-.02-.08.05-.02"/><path fill="#000" d="M2.09 3.81l.03.03-.04.06h-.01v-.01l-.02-.06.04-.02V3.8l-.05.02.01.08.01.01h.03l.05-.07-.04-.04-.01.01z"/><path fill="#C8B100" d="M2.17 3.93l-.03.03-.07-.04v-.01l.01-.01.07-.01.02.04"/><path fill="#000" d="M2.16 3.92l-.02.03-.06-.04.07-.01.01.03h.02l-.02-.04v-.01l-.08.01-.02.01v.01l.01.01v.01l.07.03.03-.03-.01-.01z"/><circle cx="2.54" cy="4.38" r="1" fill="#C8B100"/><circle cx="2.79" cy="3.66" r="1" fill="#C8B100" transform="rotate(-73.36 2.8 3.66)"/><path fill="#000" d="M2.33 4h.07z"/><path fill="#C8B100" d="M2.23 3.94l.01.03.07.01h.01v-.02l-.05-.04-.04.02"/><path fill="#000" d="M2.22 3.94l.01.04.08.01.02-.01v-.02l-.06-.05-.04.02v.02l.04-.02.05.04-.01.01-.07-.01v-.03h-.02z"/><circle cx="2.99" cy="4.03" r="1" fill="#C8B100" transform="rotate(-40.71 2.99 4.03)"/><path fill="#AD1519" d="M1.37 4.16l.02-.03.03.01-.02.03-.03-.01"/><path fill="#000" d="M1.38 4.16l.01-.02.02.01-.01.01-.03-.01v.02l.03.01h.01l.02-.04h.01l-.05-.01h-.01l-.01.03h.01z"/><path fill="#058E6E" d="M1.52 4.13h-.05.1"/><path fill="#000" d="M1.52 4.13h-.04z"/><circle cx="2.13" cy="4.59" r="1" fill="#FFF"/><path fill="#AD1519" d="M1.79 4.12h-.05.11-.06"/><path fill="#000" d="M1.79 4.11h.05-.1.05z"/><circle cx="2.4" cy="4.59" r="1" fill="#FFF"/><path fill="#058E6E" d="M2 4.13h.06H2"/><path fill="#AD1519" d="M2.2 4.16l-.01-.03-.04.01.02.03.03-.01"/><path fill="#000" d="M2.21 4.16l-.02-.03h-.05l.02.04v.01l.04-.01v-.01h-.03l-.01-.02h.02l.01.03.02-.01z"/><path fill="#AD1519" d="M1.79 4.26h-.34.68-.34z"/><path fill="#000" d="M1.79 4.26h-.34.68-.34.35a1.44 1.44 0 00-.35 0 1.46 1.46 0 00-.34 0h.34zm.06 0V4.2v.06zm0 0v-.07.07zm0 0v-.07.07z"/><path fill="#000" d="M1.78 4.26v-.07h-.01v.07m-.01 0v-.07h-.01v.07m-.01 0v-.07.07m-.02 0v-.07.07m-.01 0v-.07H1.7v.07m-.02 0V4.2v.06zm0 0v-.07.07zm-.03 0V4.2v.06zm0 0V4.2v.06zm-.04-.01V4.2v.05zm0 0V4.2v.05zm0 0V4.2v.06-.01zm-.01 0V4.2v.05m-.01 0V4.2h-.01v.05m-.01 0v-.04.04m-.03-.01v-.03h-.01v.03m-.01 0v-.03.03m-.01 0v-.02H1.5v.02m0-.01v-.01h-.01v.01m-.01 0v-.01h-.01v.01"/><path fill="#005BBF" d="M2.64 10a.46.46 0 01-.21 0 .47.47 0 00-.21 0 .48.48 0 00-.21 0 .47.47 0 01-.21 0 .46.46 0 01-.21 0 .48.48 0 00-.21 0 .46.46 0 00-.21 0 .47.47 0 01-.22 0v.13c.07.02.15.02.22 0a.46.46 0 01.21 0 .48.48 0 01.21 0A.5.5 0 002 10a.48.48 0 01.21 0 .47.47 0 01.21 0c.07.02.14.02.21 0h.01z"/><path fill="#000" d="M2.64 10a.45.45 0 01-.21 0 .48.48 0 00-.22 0 .49.49 0 00-.22 0H2a.46.46 0 01-.21 0 .45.45 0 01-.21 0 .49.49 0 00-.21 0 .47.47 0 00-.22 0 .46.46 0 01-.21 0v.15c.07.02.15.02.22 0a.45.45 0 01.21 0 .47.47 0 01.2 0c.16.02.32-.04.43-.15a.47.47 0 01.21 0 .46.46 0 01.21 0c.07.02.15.02.22 0v-.15.13a.45.45 0 01-.21 0A.53.53 0 002 10a.49.49 0 01-.42 0 .49.49 0 00-.21 0 .47.47 0 00-.22 0 .47.47 0 01-.21 0H1c.07.02.15.02.22 0a.45.45 0 01.21 0 .47.47 0 01.2 0c.07.03.14.05.22.05.07.02.15.02.22 0H2a.47.47 0 01.21 0 .46.46 0 01.21 0c.07.02.15.02.22 0V10z"/><path fill="#CCC" d="M2.64 10.09a.46.46 0 01-.21 0A.51.51 0 002 10a.5.5 0 01-.43 0 .48.48 0 00-.21 0 .46.46 0 00-.21 0 .48.48 0 01-.22 0v.13c.07.02.15.02.22 0a.46.46 0 01.21 0 .48.48 0 01.21 0c.07.02.14.02.21 0 .07.02.14.02.21 0a.48.48 0 01.21 0 .47.47 0 01.21 0c.07.02.14.02.21 0V10"/><path fill="#000" d="M2.64 10.07a.45.45 0 01-.21 0A.53.53 0 002 10a.49.49 0 01-.42 0 .49.49 0 00-.21 0 .47.47 0 00-.22 0 .47.47 0 01-.21 0v.15c.07.02.15.02.22 0a.45.45 0 01.21 0 .47.47 0 01.2 0c.07.03.14.05.22.05.07.02.15.02.22 0a.47.47 0 01.21 0 .45.45 0 01.21 0c.07.02.15.02.22 0v-.14.13a.46.46 0 01-.21 0 .48.48 0 00-.22 0 .49.49 0 00-.22 0 .47.47 0 01-.21 0 .45.45 0 01-.21 0 .49.49 0 00-.21 0 .47.47 0 00-.22 0 .47.47 0 01-.21 0H1v-.13c.07.02.15.02.22 0a.45.45 0 01.21 0 .47.47 0 01.2 0c.13.03.26 0 .37-.06a.5.5 0 01.41 0c.07.02.15.02.22 0l.01.07z"/><path fill="#005BBF" d="M2.64 10.22a.47.47 0 01-.21 0 .47.47 0 00-.21 0 .48.48 0 00-.21 0 .48.48 0 01-.21 0 .46.46 0 01-.21 0 .48.48 0 00-.21 0 .46.46 0 00-.21 0 .48.48 0 01-.22 0v.13c.07.02.15.02.22 0a.47.47 0 01.21 0 .48.48 0 01.21 0c.07.02.14.02.21 0 .07.02.14.02.21 0a.48.48 0 01.21 0 .47.47 0 01.21 0c.07.02.14.02.21 0v-.13"/><path fill="#000" d="M2.64 10.21a.46.46 0 01-.21 0 .48.48 0 00-.22 0 .49.49 0 00-.22 0 .47.47 0 01-.21 0 .45.45 0 01-.21 0 .49.49 0 00-.21 0 .47.47 0 00-.22 0 .47.47 0 01-.21 0v.15c.07.02.15.02.22 0a.46.46 0 01.21 0 .47.47 0 01.2 0c.07.02.15.02.22 0 .07.02.15.02.22 0a.47.47 0 01.21 0 .46.46 0 01.21 0c.07.02.15.02.22 0v-.14.13a.44.44 0 01-.21 0 .53.53 0 00-.43 0 .46.46 0 01-.21 0 .45.45 0 01-.21 0 .49.49 0 00-.21 0 .48.48 0 00-.22 0 .46.46 0 01-.21 0H1v-.13c.07.02.15.02.22 0a.45.45 0 01.21 0 .47.47 0 01.2 0c.07.03.14.05.22.05.07.02.15.02.22 0a.47.47 0 01.21 0 .45.45 0 01.21 0c.07.02.15.02.22 0l-.07-.06z"/><path fill="#CCC" d="M2.64 10.48a.46.46 0 01-.21 0 .47.47 0 00-.21 0 .48.48 0 00-.21 0 .48.48 0 01-.21 0 .47.47 0 01-.21 0 .47.47 0 00-.21 0 .46.46 0 00-.21 0 .48.48 0 01-.22 0v-.13c.07.02.15.02.22 0a.47.47 0 01.21 0 .48.48 0 01.21 0c.07.02.14.02.21 0 .07.02.14.02.21 0a.48.48 0 01.21 0 .47.47 0 01.21 0c.07.02.14.02.21 0v.13"/><path fill="#000" d="M2.64 10.47a.45.45 0 01-.21 0 .53.53 0 00-.43 0 .47.47 0 01-.21 0 .46.46 0 01-.21 0 .48.48 0 00-.21 0 .47.47 0 00-.22 0 .47.47 0 01-.21 0H1v-.13c.08 0 .15-.02.22-.05a.46.46 0 01.21 0 .47.47 0 01.2 0c.07.02.15.02.22 0 .07.02.15.02.22 0H2a.47.47 0 01.21 0 .46.46 0 01.21 0c.07.02.15.02.22 0v.13-.14a.45.45 0 01-.21 0 .53.53 0 00-.43 0 .46.46 0 01-.21 0 .45.45 0 01-.21 0 .49.49 0 00-.21 0 .48.48 0 00-.22 0 .46.46 0 01-.21 0v.15c.07.02.15.02.22 0a.45.45 0 01.21 0 .46.46 0 01.2 0c.07.03.14.05.22.05.07.02.15.02.22 0a.47.47 0 01.21 0 .46.46 0 01.21 0c.07.02.15.02.22 0l-.01-.01z"/><path fill="#005BBF" d="M2.64 10.61a.47.47 0 01-.21 0 .46.46 0 00-.21 0 .48.48 0 00-.21 0 .48.48 0 01-.21 0 .47.47 0 01-.21 0 .47.47 0 00-.21 0 .46.46 0 00-.21 0 .48.48 0 01-.22 0v-.13c.07.02.15.02.22 0a.46.46 0 01.21 0 .48.48 0 01.21 0c.07.02.14.02.21 0 .07.02.14.02.21 0a.48.48 0 01.21 0 .47.47 0 01.21 0c.07.02.14.02.21 0v.13z"/><path fill="#000" d="M2.64 10.61a.46.46 0 01-.21 0 .47.47 0 00-.22 0 .49.49 0 00-.22 0 .47.47 0 01-.21 0 .46.46 0 01-.21 0 .48.48 0 00-.21 0 .47.47 0 00-.22 0 .47.47 0 01-.21 0H1v-.13c.08 0 .15-.02.22-.05a.45.45 0 01.21 0 .47.47 0 01.2 0c.07.03.14.05.22.05.07.02.15.02.22 0a.47.47 0 01.21 0 .46.46 0 01.21 0c.07.02.15.02.22 0v.13-.14a.45.45 0 01-.21 0 .53.53 0 00-.43 0 .47.47 0 01-.21 0 .46.46 0 01-.21 0 .49.49 0 00-.21 0 .47.47 0 00-.22 0 .47.47 0 01-.21 0v.15c.07.02.15.02.22 0a.45.45 0 01.21 0 .46.46 0 01.2 0c.07.03.14.05.22.05.07.02.15.02.22 0a.47.47 0 01.21 0 .45.45 0 01.21 0c.07.02.15.02.22 0l-.08-.06z"/><path fill="#C8B100" d="M1.31 9.41c0 .08-.07.14-.15.14h1.25a.15.15 0 01-.15-.14h-1 .05z"/><path fill="#000" d="M1.31 9.41c0 .07-.07.13-.14.13h1.24a.14.14 0 01-.14-.13c0 .08.08.15.16.15H1.16c.08 0 .15-.07.16-.15h-.01z"/><path fill="#C8B100" d="M1.33 9.33h.91-.91z"/><path fill="#000" d="M1.33 9.33h.94-1 1-1z"/><path fill="#C8B100" d="M1.17 9.59h1.25v.32H1.17z"/><path fill="#000" d="M1.17 9.91v.01h1.25v-.34H1.15v.34h.02v-.01h.01V9.6H2.4v.3H1.17v.01h.01z"/><path fill="#CCC" d="M1.34 4.94h.88v4.34h-.88z"/><path fill="#000" d="M1.34 9.28v.01h.9V4.93h-.91v4.36h.01v-.01h.02V4.96h.86v4.31h-.88v.01h.02zM2 5v4.33V5zm.1 0v4.33V5z"/><path fill="#C8B100" d="M1.18 4.28h1.21v.32H1.18z"/><path fill="#000" d="M1.18 4.6v.01h1.23v-.34H1.17v.34h.01V4.6h.01v-.31h1.2v.3H1.18v.01h.01z"/><path fill="#C8B100" d="M1.31 4.81h1a.08.08 0 01-.05-.07c0-.03.03-.06.06-.07h-1c.03 0 .05.04.05.07 0 .03-.03.06-.06.07z"/><path fill="#000" d="M1.31 4.81h1v-.12h-1v.12a.09.09 0 00.06-.08.08.08 0 00-.06-.08h1a.09.09 0 00-.06.08c0 .04.03.07.06.08h-1z"/><path fill="#C8B100" d="M1.33 4.81h.91-.91z"/><path fill="#000" d="M1.33 4.81h.94-1 1-1z"/><path fill="#C8B100" d="M1.33 4.6h.91-.97.06z"/><path fill="#000" d="M1.33 4.6h.94-1 1-1z"/><path fill="#AD1519" d="M1.07 8.21c-.12.07-.21.14-.19.18.02.04 0 .06.1.1.1.04.14.17.1.22a.31.31 0 000-.5h-.01z"/><path fill="#000" d="M1.07 8.21l-.14.1a.1.1 0 000 .05H1c.06.04.1.1.11.17a.32.32 0 000-.51.3.3 0 010 .48v-.05c-.04 0-.08 0-.11.02H.93c.05-.06.11-.1.18-.14l-.04-.12z"/><path fill="#AD1519" d="M3.13 6.57a2.62 2.62 0 00-1.32-.11c-.53.09-.93.3-.9.47l-.2-.46c0-.19.41-.43 1-.52a3 3 0 01.52 0c.3 0 .6.03.9.12v.53"/><path fill="#000" d="M3.14 6.56c-.29-.1-.6-.15-.9-.15a2.82 2.82 0 00-.43 0c-.23.03-.44.1-.65.2a.79.79 0 00-.19.13.2.2 0 00-.07.14l-.1-.23-.07-.16v-.05c0-.05.03-.1.07-.14.27-.18.59-.28.91-.3a3 3 0 01.49 0c.3 0 .6.03.9.12v.53V6a2.8 2.8 0 00-.9-.12 3 3 0 00-.49 0c-.25.04-.5.11-.72.22a.87.87 0 00-.21.14.22.22 0 00-.08.15l.2.46a.18.18 0 01.1-.07c.24-.18.53-.29.83-.32h.42c.3 0 .6.05.89.15v-.05z"/><path fill="#AD1519" d="M1.34 7.11c-.25 0-.41-.08-.43-.19-.02-.11.07-.17.22-.25h.22v.42"/><path fill="#000" d="M1.34 7.1A1 1 0 011 7c-.07 0-.12-.07-.13-.12 0-.07.08-.15.21-.23h.22v.42-.43h-.22c-.14.08-.22.16-.22.24 0 .06.06.1.14.13.1.04.2.06.3.06l.04.03z"/><path fill="#AD1519" d="M2.23 6.78c.12.01.23.05.33.11 0 .06-.11.18-.33.31v-.43"/><path fill="#000" d="M2.23 6.79c.11.01.22.05.32.11-.09.1-.2.18-.31.24v-.43.45L2.48 7h.07v-.06a.74.74 0 00-.33-.11l.01-.04z"/><path fill="#AD1519" d="M.79 7.95c0-.07.22-.21.55-.33l.44-.18c.47-.21.82-.45.77-.53l.06.45c0 .08-.27.31-.71.52-.14.07-.43.17-.57.22-.14.05-.49.25-.47.31l-.08-.44.01-.02z"/><path fill="#000" d="M.79 7.95v-.06c.16-.11.33-.2.51-.26l.44-.18c.2-.08.38-.18.56-.3L2.51 7a.17.17 0 00.06-.1v.42c0 .03-.03.06-.05.08-.2.17-.41.3-.65.41-.14.07-.43.17-.57.22-.12.04-.23.1-.33.16l-.11.08v.07L.78 7.9l.08.44a.1.1 0 010-.06c.13-.1.27-.18.43-.23.14 0 .43-.16.57-.22.18-.08.35-.18.51-.29l.15-.13a.17.17 0 00.06-.1v-.44c0 .05-.03.1-.08.13-.22.18-.46.32-.72.42l-.44.18c-.14.05-.27.1-.4.18l-.12.08v.07l-.03.02z"/><path fill="#AD1519" d="M9.91 3.95h-.28a.18.18 0 01-.06.05h-.06v-.06s0-.08.13-.09h.11a.29.29 0 01.17 0 .31.31 0 01.17 0h.16a.29.29 0 01.17 0h.11c.08 0 .13.06.13.09V4h-.06a.18.18 0 01-.06-.05h-.08A.23.23 0 0110 4h-.07a.19.19 0 01-.02-.05z"/><path fill="#000" d="M9.91 3.95h-.19v-.06h.21a.29.29 0 01.17 0 .3.3 0 01.16 0 .3.3 0 01.16 0 .28.28 0 01.17 0h.21V4h-.13A.33.33 0 1010 4h.11l.06.06h.05v-.12h-.2a.3.3 0 00-.18 0 .31.31 0 00-.17 0 .32.32 0 00-.17 0 .3.3 0 00-.18 0h-.2v.12h.05A.19.19 0 009.23 4h.17a.2.2 0 00.07-.05h.44z"/><circle cx="10.33" cy="4.11" r="1" fill="#C8B100"/><path fill="#000" d="M9.91 3.61c.03.04.03.1 0 .14a.05.05 0 01-.09 0 .13.13 0 010-.14h-.06a.15.15 0 000 .16.07.07 0 00.12 0 .15.15 0 000-.16h-.06.09z"/><circle cx="10.38" cy="4.12" r="1" fill="#C8B100"/><path fill="#000" d="M9.91 3.62a.17.17 0 000 .1v.07a.17.17 0 000-.1v-.07z"/><circle cx="10.36" cy="4.05" r="1" fill="#C8B100"/><path fill="#C8B100" d="M9.98 3.58v.03h-.14v-.03h.05v-.07h-.03v-.03h.03v-.03h.04v.03h.03v.03h-.03v.07h.05"/><path fill="#000" d="M9.97 3.58v.02h-.12v-.01h.05V3.5h-.03v-.01h.03v-.03h.02v.03h.03v.01h-.03v.09h.06v-.02h-.05v-.05h.04v-.05h-.04v-.03h-.04v.03h-.04v.05h.04v.05h-.06v.05h.16v-.04h-.02z"/><path fill="#000" d="M9.92 3.56v.05h.06v-.05h-.06zm-.57.36v-.06c0-.08.07-.15.15-.15h.07-.08a.16.16 0 00-.16.16v.06l.02-.01zm.27-.11a.1.1 0 010-.07.16.16 0 01.1 0h.09-.09a.14.14 0 00-.15.12l.05-.05zm.59.01a.1.1 0 000-.05.14.14 0 00-.15-.12h-.09.09a.16.16 0 01.1 0 .1.1 0 010 .07l.05.1zm.27.11v-.06a.16.16 0 00-.16-.16h-.08.07c.08 0 .15.07.15.15v.06l.02.01z"/><circle cx="10.04" cy="4.25" r="1" fill="#FFF"/><circle cx="10.73" cy="4.25" r="1" fill="#FFF"/><path fill="#C8B100" d="M9.52 4.16V4.1c.28-.07.56-.07.84 0a1.3 1.3 0 00-.37 0 1.28 1.28 0 00-.37 0"/><path fill="#000" d="M9.53 4.16V4.1c.14-.04.28-.05.42-.05.14 0 .28.01.42.05a1.31 1.31 0 00-.37 0 1.3 1.3 0 01.36 0 1.59 1.59 0 00-.42-.05c-.14 0-.28.01-.42.05l.01.06z"/><path fill="#C8B100" d="M9.91 4.29h.38a1.56 1.56 0 00-.73 0h.35z"/><path fill="#000" d="M9.91 4.29h.33c-.24-.06-.5-.06-.74 0h.33-.33c.24-.06.49-.06.73 0H9.9h.01z"/><path fill="#C8B100" d="M10.33 4h-.07l-.05-.05h-.08A.09.09 0 0110 4h-.26a.1.1 0 01-.08 0 .14.14 0 01-.05.05.1.1 0 01-.07 0c.27-.07.55-.07.82 0L10.33 4z"/><path fill="#000" d="M10.33 4h-.58a1.74 1.74 0 00-.01 0h.06a.14.14 0 00.06-.05h.25A.13.13 0 0010 4a.1.1 0 00.06 0h.27z"/><path fill="#C8B100" d="M9.91 3.9A.07.07 0 0010 4h.06a.06.06 0 10.12 0c0 .03.03.05.06.05a.21.21 0 01-.05.06h-.05a.08.08 0 01-.08 0H10A.09.09 0 0110 4h-.33a.08.08 0 01-.08 0h-.05a.23.23 0 01-.06-.06c.03 0 .06-.02.06-.05a.06.06 0 00.12 0h.06c.03 0 .06-.03.06-.06l.13.07z"/><path fill="#000" d="M9.91 3.9A.07.07 0 0010 4h.06c0 .03.04.05.07.05.04 0 .06-.03.07-.06 0 .03.03.06.06.06h.1-.05a.08.08 0 01-.07 0h-.06A.1.1 0 0110 4a.08.08 0 01-.07 0 .08.08 0 01-.07 0h-.17a.08.08 0 01-.07 0h.1c.03 0 .06-.03.06-.06a.07.07 0 00.13 0h.06c.04 0 .06-.03.07-.06 0 .03-.02.05-.05.05h-.05a.06.06 0 01-.11 0l.06.06c.03 0 .06-.02.08-.05h.07a.1.1 0 00.07 0h.06a.1.1 0 00.08 0A.13.13 0 1010 4a.1.1 0 00.07 0h.07c.02.03.05.05.08.05a.21.21 0 00.05-.06V4c0 .03-.02.05-.05.05h-.05A.09.09 0 1110 4a.05.05 0 01-.05-.05l-.04-.05z"/><path fill="#C8B100" d="M9.91 4a1.73 1.73 0 01.43.05A1.58 1.58 0 009.91 4z"/><path fill="#000" d="M9.91 4a1.72 1.72 0 01.43.05 1.74 1.74 0 00-.86 0c.14-.04.28-.05.42-.05h.01zm-.56 0h.06z"/><path fill="#C8B100" d="M9.45 3.94v.03l-.08.01h-.01v-.02l.06-.04.03.02"/><path fill="#000" d="M9.45 3.94l-.01.03-.07.01v-.01l.05-.04.03.02.01-.02-.03-.02h-.01l-.06.05-.01.01v.01l.02.01.08-.01.01-.04h-.01z"/><circle cx="10.04" cy="3.94" r="1" fill="#C8B100" transform="rotate(-49.27 10.04 3.94)"/><circle cx="10.12" cy="4.29" r="1" fill="#C8B100" transform="rotate(-16.64 10.12 4.29)"/><path fill="#C8B100" d="M9.53 3.93l.03.03.06-.04.01-.01-.01-.01-.08-.01-.01.04"/><path fill="#000" d="M9.52 3.93l.03.03.08-.03v-.02h.01l-.02-.02-.08-.01-.02.05h.02l.01-.03.06.01h.01l-.06.04-.03-.03-.01.01z"/><path fill="#C8B100" d="M9.61 3.8l-.04.04.04.06.02.01.01-.01.01-.08-.04-.02"/><path fill="#000" d="M9.6 3.8l-.04.04.05.07h.02l.01-.01.02-.08-.05-.02-.01.01.04.02-.01.06v.01h-.01l-.04-.06.03-.03-.01-.01z"/><path fill="#C8B100" d="M9.73 3.89l-.02.03h-.07l-.01-.01V3.9l.07-.04.03.03"/><path fill="#000" d="M9.72 3.89l-.01.03-.07-.01V3.9l.06-.03.02.02.01-.01-.02-.02-.01-.01-.07.04-.01.01v.01l.01.01h.01l.08.01.02-.04h-.02z"/><circle cx="10.1" cy="4.38" r="1" fill="#C8B100"/><circle cx="10.31" cy="4.34" r="1" fill="#C8B100" transform="rotate(-6.77 10.3 4.34)"/><path fill="#C8B100" d="M9.81 3.89l.02.03.07-.03.01-.01-.01-.01-.07-.02-.02.04"/><path fill="#000" d="M9.8 3.89l.02.03v.01l.09-.03v-.01l.01-.01-.01-.01-.09-.03-.02.04.01.01.02-.03.07.02v.01l-.07.02-.02-.03-.01.01z"/><path fill="#C8B100" d="M9.91 3.77l-.05.03.04.08h.02l.04-.08-.05-.03"/><path fill="#000" d="M9.91 3.77l-.06.03.04.08.02.01.01-.01h.01l.03-.08-.05-.03v.01l.04.02-.04.07v.01l-.01-.01-.03-.07.04-.02v-.01z"/><path fill="#C8B100" d="M10.01 3.89l-.02.03-.07-.03-.01-.01.01-.01.07-.02.02.04"/><path fill="#000" d="M10.01 3.88l-.02.03-.07-.02v-.01l.07-.02.02.03.01-.01-.02-.03-.01-.01-.08.03-.01.01.01.02.08.03.03-.04-.01-.01z"/><circle cx="10.38" cy="4.35" r="1" fill="#C8B100"/><circle cx="10.59" cy="3.5" r="1" fill="#C8B100" transform="rotate(-83.36 10.59 3.5)"/><path fill="#C8B100" d="M10.09 3.89l.01.03h.08l.01-.01-.01-.01-.06-.04-.03.03"/><path fill="#000" d="M10.08 3.89l.02.04.08-.01.02-.01-.01-.02-.07-.04-.03.03v.01l.03-.02.06.03v.01l-.07.01-.01-.03h-.02z"/><path fill="#C8B100" d="M10.21 3.8l.04.04-.05.06-.01.01-.01-.01-.01-.08.04-.02"/><path fill="#000" d="M10.21 3.81l.03.03-.04.06h-.01v-.01l-.02-.06.05-.02-.01-.01-.05.02.02.08.01.01h.02l.05-.07-.04-.04-.01.01z"/><path fill="#C8B100" d="M10.29 3.93l-.03.03-.06-.04-.01-.01.01-.01.08-.01.01.04"/><path fill="#000" d="M10.29 3.92l-.03.03-.06-.04.07-.01.01.03h.02l-.01-.04-.01-.01-.08.01-.01.01-.01.01.01.01v.01l.07.03.04-.03-.01-.01z"/><circle cx="10.66" cy="4.38" r="1" fill="#C8B100"/><circle cx="10.92" cy="3.66" r="1" fill="#C8B100" transform="rotate(-73.36 10.92 3.66)"/><path fill="#000" d="M10.46 4h.06z"/><path fill="#C8B100" d="M10.35 3.94l.01.03.08.01h.01v-.02l-.06-.04-.04.02"/><path fill="#000" d="M10.35 3.94v.04l.09.01.01-.01h.01l-.01-.02-.06-.05-.04.02.01.02.03-.02.05.04-.01.01-.06-.01-.01-.03h-.01z"/><circle cx="11.12" cy="4.03" r="1" fill="#C8B100" transform="rotate(-40.71 11.12 4.03)"/><path fill="#AD1519" d="M9.49 4.16l.02-.03.04.01-.02.03-.04-.01"/><path fill="#000" d="M9.5 4.16l.02-.02.02.01-.02.01-.02-.01-.01.02.03.01h.01l.02-.04h.01l-.05-.01-.02.03h.01z"/><path fill="#058E6E" d="M9.65 4.13h-.06.1"/><path fill="#000" d="M9.65 4.13H9.6z"/><circle cx="10.25" cy="4.59" r="1" fill="#FFF"/><path fill="#AD1519" d="M9.91 4.12h-.05.14-.05"/><path fill="#000" d="M9.91 4.11H10h-.11.05z"/><circle cx="10.52" cy="4.59" r="1" fill="#FFF"/><path fill="#058E6E" d="M10.17 4.13h.06-.1"/><path fill="#000" d="M10.17 4.14h-.08z"/><path fill="#AD1519" d="M10.32 4.16l-.01-.03-.04.01.02.03.03-.01"/><path fill="#000" d="M10.33 4.16l-.02-.03h-.05l.02.04.01.01.03-.01v-.01h-.03l-.01-.02h.02l.02.03.01-.01z"/><path fill="#AD1519" d="M9.91 4.26h-.34.68-.34z"/><path fill="#000" d="M9.91 4.26h-.34.68-.34.35a1.44 1.44 0 00-.35 0 1.46 1.46 0 00-.34 0h.34zm.09 0V4.2v.06zm0 0v-.07.07zm0 0v-.07.07zm-.1 0v-.07.07m-.02 0v-.07.07m-.02 0v-.07.07m-.02 0v-.07.07m-.01 0v-.07.07m-.03 0V4.2v.06zm0 0v-.07.07zm-.03 0V4.2v.06zm0 0V4.2v.06zm-.04-.01V4.2v.05zm0 0V4.2v.05zm0 0V4.2v.06-.01zm-.01 0V4.2v.05"/><path fill="#000" d="M9.71 4.25V4.2H9.7v.05m0 0v-.04h-.01v.04m-.03-.01v-.03h-.01v.03m-.01 0v-.03.03m-.01 0v-.02h-.01v.02m0-.01v-.01h-.01v.01m0 0v-.01h-.02v.01"/><path fill="#005BBF" d="M10.76 10a.46.46 0 01-.21 0 .47.47 0 00-.21 0 .48.48 0 00-.21 0 .47.47 0 01-.21 0 .46.46 0 01-.21 0 .48.48 0 00-.21 0 .46.46 0 00-.21 0 .47.47 0 01-.22 0v.13c.07.02.15.02.22 0a.46.46 0 01.21 0 .48.48 0 01.21 0c.14.06.3.06.43 0a.48.48 0 01.21 0 .47.47 0 01.21 0c.07.02.14.02.21 0l-.01-.13z"/><path fill="#000" d="M10.76 10a.45.45 0 01-.21 0 .48.48 0 00-.22 0 .49.49 0 00-.22 0 .46.46 0 01-.21 0 .45.45 0 01-.21 0 .49.49 0 00-.21 0 .47.47 0 00-.22 0 .46.46 0 01-.21 0v.15c.07.02.15.02.22 0a.45.45 0 01.21 0 .47.47 0 01.2 0c.14.07.3.07.44 0a.47.47 0 01.21 0 .46.46 0 01.21 0c.07.02.15.02.22 0V10v.13a.45.45 0 01-.21 0 .53.53 0 00-.43 0 .49.49 0 01-.42 0 .49.49 0 00-.21 0 .47.47 0 00-.22 0 .47.47 0 01-.21 0V10c.07.02.15.02.22 0a.45.45 0 01.21 0 .47.47 0 01.2 0c.07.03.14.05.22.05.07.02.15.02.22 0a.47.47 0 01.21 0 .46.46 0 01.21 0c.07.02.15.02.22 0l-.01-.05z"/><path fill="#CCC" d="M10.76 10.09a.46.46 0 01-.21 0 .51.51 0 00-.42 0 .5.5 0 01-.43 0 .48.48 0 00-.21 0 .46.46 0 00-.21 0 .48.48 0 01-.22 0v.13c.07.02.15.02.22 0a.46.46 0 01.21 0 .48.48 0 01.21 0c.07.02.14.02.21 0 .07.02.14.02.21 0a.48.48 0 01.21 0 .47.47 0 01.21 0c.07.02.14.02.21 0v-.13"/><path fill="#000" d="M10.76 10.07a.45.45 0 01-.21 0 .53.53 0 00-.43 0 .49.49 0 01-.42 0 .49.49 0 00-.21 0 .47.47 0 00-.22 0 .47.47 0 01-.21 0v.15c.07.02.15.02.22 0a.45.45 0 01.21 0 .47.47 0 01.2 0c.07.03.14.05.22.05.07.02.15.02.22 0a.47.47 0 01.21 0 .45.45 0 01.21 0c.07.02.15.02.22 0v-.14.13a.46.46 0 01-.21 0 .48.48 0 00-.22 0 .49.49 0 00-.22 0 .47.47 0 01-.21 0 .45.45 0 01-.21 0 .49.49 0 00-.21 0 .47.47 0 00-.22 0 .47.47 0 01-.21 0v-.13c.07.02.15.02.22 0a.45.45 0 01.21 0 .47.47 0 01.2 0c.14.07.3.07.44 0a.5.5 0 01.41 0c.07.02.15.02.22 0v-.06z"/><path fill="#005BBF" d="M10.76 10.22a.47.47 0 01-.21 0 .47.47 0 00-.21 0 .48.48 0 00-.21 0 .48.48 0 01-.21 0 .46.46 0 01-.21 0 .48.48 0 00-.21 0 .46.46 0 00-.21 0 .48.48 0 01-.22 0v.13c.07.02.15.02.22 0a.47.47 0 01.21 0 .48.48 0 01.21 0c.07.02.14.02.21 0 .07.02.14.02.21 0a.48.48 0 01.21 0 .47.47 0 01.21 0c.07.02.14.02.21 0v-.13"/><path fill="#000" d="M10.76 10.21a.46.46 0 01-.21 0 .48.48 0 00-.22 0 .49.49 0 00-.22 0 .47.47 0 01-.21 0 .45.45 0 01-.21 0 .49.49 0 00-.21 0 .47.47 0 00-.22 0 .47.47 0 01-.21 0v.15c.07.02.15.02.22 0a.46.46 0 01.21 0 .47.47 0 01.2 0c.07.02.15.02.22 0 .07.02.15.02.22 0a.47.47 0 01.21 0 .46.46 0 01.21 0c.07.02.15.02.22 0v-.14.13a.44.44 0 01-.21 0 .53.53 0 00-.43 0 .46.46 0 01-.21 0 .45.45 0 01-.21 0 .49.49 0 00-.21 0 .48.48 0 00-.22 0 .46.46 0 01-.21 0v-.13c.07.02.15.02.22 0a.45.45 0 01.21 0 .47.47 0 01.2 0c.07.03.14.05.22.05.07.02.15.02.22 0a.47.47 0 01.21 0 .45.45 0 01.21 0c.07.02.15.02.22 0l-.01-.06z"/><path fill="#CCC" d="M10.76 10.48a.46.46 0 01-.21 0 .47.47 0 00-.21 0 .48.48 0 00-.21 0 .48.48 0 01-.21 0 .47.47 0 01-.21 0 .47.47 0 00-.21 0 .46.46 0 00-.21 0 .48.48 0 01-.22 0v-.13c.07.02.15.02.22 0a.47.47 0 01.21 0 .48.48 0 01.21 0c.07.02.14.02.21 0 .07.02.14.02.21 0a.48.48 0 01.21 0 .47.47 0 01.21 0c.07.02.14.02.21 0v.13"/><path fill="#000" d="M10.76 10.47a.45.45 0 01-.21 0 .53.53 0 00-.43 0 .47.47 0 01-.21 0 .46.46 0 01-.21 0 .48.48 0 00-.21 0 .47.47 0 00-.22 0 .47.47 0 01-.21 0v-.13c.08 0 .15-.02.22-.05a.46.46 0 01.21 0 .47.47 0 01.2 0c.07.02.15.02.22 0 .07.02.15.02.22 0a.47.47 0 01.21 0 .46.46 0 01.21 0c.07.02.15.02.22 0v.13-.14a.45.45 0 01-.21 0 .53.53 0 00-.43 0 .46.46 0 01-.21 0 .45.45 0 01-.21 0 .49.49 0 00-.21 0 .48.48 0 00-.22 0 .46.46 0 01-.21 0v.15c.07.02.15.02.22 0a.45.45 0 01.21 0 .46.46 0 01.2 0c.07.03.14.05.22.05.07.02.15.02.22 0a.47.47 0 01.21 0 .46.46 0 01.21 0c.07.02.15.02.22 0l-.02-.01z"/><path fill="#005BBF" d="M10.76 10.61a.47.47 0 01-.21 0 .46.46 0 00-.21 0 .48.48 0 00-.21 0 .48.48 0 01-.21 0 .47.47 0 01-.21 0 .47.47 0 00-.21 0 .46.46 0 00-.21 0 .48.48 0 01-.22 0v-.13c.07.02.15.02.22 0a.46.46 0 01.21 0 .48.48 0 01.21 0c.07.02.14.02.21 0 .07.02.14.02.21 0a.48.48 0 01.21 0 .47.47 0 01.21 0c.07.02.14.02.21 0v.13z"/><path fill="#000" d="M10.76 10.61a.46.46 0 01-.21 0 .47.47 0 00-.22 0 .49.49 0 00-.22 0 .47.47 0 01-.21 0 .46.46 0 01-.21 0 .48.48 0 00-.21 0 .47.47 0 00-.22 0 .47.47 0 01-.21 0v-.13c.08 0 .15-.02.22-.05a.45.45 0 01.21 0 .47.47 0 01.2 0c.07.03.14.05.22.05.07.02.15.02.22 0a.47.47 0 01.21 0 .46.46 0 01.21 0c.07.02.15.02.22 0v.13-.14a.45.45 0 01-.21 0 .53.53 0 00-.43 0 .47.47 0 01-.21 0 .46.46 0 01-.21 0 .49.49 0 00-.21 0 .47.47 0 00-.22 0 .47.47 0 01-.21 0v.15c.07.02.15.02.22 0a.45.45 0 01.21 0 .46.46 0 01.2 0c.07.03.14.05.22.05.07.02.15.02.22 0a.47.47 0 01.21 0 .45.45 0 01.21 0c.07.02.15.02.22 0l-.01-.06z"/><path fill="#C8B100" d="M9.43 9.41c0 .08-.07.14-.15.14h1.25a.15.15 0 01-.15-.14h-1 .05z"/><path fill="#000" d="M9.43 9.41c0 .07-.07.13-.14.13h1.25a.14.14 0 01-.14-.13c0 .08.08.15.16.15H9.29c.08 0 .15-.07.16-.15h-.02z"/><path fill="#C8B100" d="M9.46 9.33h.91-.91z"/><path fill="#000" d="M9.46 9.33h.94-1 1-1z"/><path fill="#C8B100" d="M9.29 9.59h1.25v.32H9.29z"/><path fill="#000" d="M9.29 9.91v.01h1.25v-.34H9.28v.34h.01v-.01h.01V9.6h1.22v.3H9.29v.01h.01z"/><path fill="#CCC" d="M9.47 4.94h.88v4.34h-.88z"/><path fill="#000" d="M9.47 9.28v.01h.89V4.93h-.9v4.36h.01v-.01h.01V4.96h.86v4.31h-.87v.01h.01zM10.09 5v4.33V5zm.1 0v4.33V5z"/><path fill="#C8B100" d="M9.31 4.28h1.21v.32H9.31z"/><path fill="#000" d="M9.3 4.6v.01h1.23v-.34H9.3v.34-.01h.02v-.31h1.19v.3H9.3v.01h.02z"/><path fill="#C8B100" d="M9.43 4.81h1a.08.08 0 01-.05-.07c0-.03.03-.06.06-.07h-1c.03 0 .05.04.05.07 0 .03-.03.06-.06.07z"/><path fill="#000" d="M9.43 4.81h1v-.12h-1v.12a.09.09 0 00.06-.08.08.08 0 00-.06-.08h1a.09.09 0 00-.06.08c0 .04.03.07.06.08h-1z"/><path fill="#C8B100" d="M9.46 4.81h.91-.91z"/><path fill="#000" d="M9.46 4.81h.94-1 1-1z"/><path fill="#C8B100" d="M9.46 4.6h.91-.97.06z"/><path fill="#000" d="M9.46 4.6h.94-1 1-1z"/><path fill="#AD1519" d="M10.63 8.21c.12.07.21.14.19.18-.02.04 0 .06-.1.1-.1.04-.14.17-.1.22a.31.31 0 010-.5h.01z"/><path fill="#000" d="M10.63 8.21l.14.09h-.07a.26.26 0 00-.12.19v.05a.3.3 0 010-.48.32.32 0 000 .51.24.24 0 01.11-.17h.07a.1.1 0 000-.05.64.64 0 00-.18-.14h.05z"/><path fill="#AD1519" d="M8.57 6.57c.42-.15.88-.19 1.32-.11.53.09.93.3.9.47l.2-.46c0-.19-.41-.43-1-.52a3 3 0 00-.52 0c-.3 0-.6.03-.9.12v.53"/><path fill="#000" d="M8.57 6.58c.29-.1.59-.15.89-.15h.42c.22.03.44.1.64.19a.8.8 0 01.19.13c.04.03.06.07.07.12l.1-.23.07-.16v-.05a.22.22 0 00-.08-.15c-.27-.2-.6-.32-.93-.36a3 3 0 00-.49 0c-.3 0-.6.03-.9.12v.53V6c.3-.09.6-.13.9-.12A3 3 0 0110 6c.25.04.49.11.71.22.08.04.15.08.21.14a.2.2 0 01.07.14v.08l-.1.24-.06.14a.2.2 0 00-.07-.14c-.25-.18-.54-.3-.84-.33a2.82 2.82 0 00-.43 0c-.3 0-.61.05-.9.15l-.02-.06z"/><path fill="#AD1519" d="M10.36 7.11c.25 0 .41-.08.43-.19.02-.11-.07-.17-.22-.25h-.22v.42"/><path fill="#000" d="M10.36 7.12a1 1 0 00.3-.06c.08 0 .13-.08.14-.13 0-.08-.09-.17-.22-.24h-.22v.43-.42h.22c.14.07.21.16.21.23 0 0-.05.09-.13.12a1 1 0 01-.3.06v.01z"/><path fill="#AD1519" d="M9.47 6.78a.73.73 0 00-.33.11c0 .06.11.18.33.31v-.43"/><path fill="#000" d="M9.47 6.77a.74.74 0 00-.33.11v.06c.1.1.2.18.32.24v-.45.43c-.08-.05-.16-.1-.24-.17L9.17 7c.1-.06.2-.1.32-.11l-.02-.12z"/><path fill="#AD1519" d="M10.91 7.95c0-.07-.22-.21-.55-.33l-.44-.18c-.47-.21-.82-.45-.77-.53l-.06.45c0 .08.28.31.71.52.14.07.43.17.57.22.14.05.49.25.47.31l.08-.44-.01-.02z"/><path fill="#000" d="M10.91 7.95v-.07c-.16-.11-.33-.2-.52-.26l-.44-.18a3.6 3.6 0 01-.55-.29L9.2 7a.15.15 0 01-.06-.09v.44c0 .04.03.07.06.1.2.17.42.31.66.42.14.07.43.17.57.22.11.04.22.09.32.15l.1.08a.1.1 0 010 .06l.08-.44-.08.44v-.07a1.4 1.4 0 00-.43-.24c-.14 0-.43-.16-.57-.22a3.52 3.52 0 01-.51-.29l-.15-.12a.15.15 0 01-.05-.08V6.9c0 .04.03.07.06.1.22.18.46.32.72.43l.44.18c.14.05.27.1.4.18l.11.08v.06l.04.02z"/><path fill="#C8B100" d="M1.28 6.36c.11 0 .18-.09.14-.17-.04-.08-.08-.06-.16 0l-.15.05.13.33-.06-.14.1-.07zm-.06-.16a.07.07 0 01.08 0c.02.02.02.06 0 .08l-.05-.13-.03.05zm.41-.14h-.1l.08.34h.24-.14l-.07-.31m.47.27c0-.12.1-.24.15-.36H2.2c0 .09-.06.17-.1.26 0-.08-.09-.16-.13-.25h-.12l.2.34h.05m.51-.26a.2.2 0 00-.1 0c-.1 0-.15 0-.16.09-.01.09.18.11.17.19-.01.08 0 0-.08 0a.08.08 0 01-.08-.06v.06h.1c.1 0 .18 0 .18-.09s-.18-.12-.18-.19 0 0 .08 0c.03 0 .06.02.07.05m6.51.24c0-.13.08-.25.12-.37h-.06c0 .09 0 .18-.08.27-.05-.08-.11-.15-.15-.23h-.11l.23.32h.05M9.45 6h-.1v.35h.24-.15V6m.4.06h.11-.33.12v.31h.1v-.31m.16.35h.09v-.16.18h.12l-.08-.16c.06 0 .11 0 .12-.07a.08.08 0 000-.08h-.23l-.08.34m.17-.3s.09 0 .09.06c0 .05-.05.07-.12 0v-.13m.52.42v.11-.39l-.35.22.09-.07.13.07.13.06zm-.1-.09l.12-.07v.13l-.1-.06h-.02z"/><path fill="#AD1519" d="M5.81 1.9c.3 0 .6.04.89.14a1.7 1.7 0 00.83.12 1.68 1.68 0 011 .41l-.09.08v.22l-.23.27-.12.1-.28.22h-.14v.12l-1.79-.21-1.8.21v-.12h-.14l-.28-.22-.12-.1-.23-.27v-.22l-.09-.08a1.68 1.68 0 011-.41h.37c.16-.02.31-.06.46-.12.24-.09.5-.13.76-.14z"/><path fill="#000" d="M5.81 1.9c.3 0 .6.04.89.14.15.06.3.1.46.12h.39a1.56 1.56 0 01.98.4l-.09.08v.22l-.23.27-.12.1-.28.22h-.14v.12l-1.79-.21L4 3.57v-.12h-.14l-.27-.22-.12-.1-.23-.27v-.22l-.09-.08a1.57 1.57 0 01.98-.4h.39c.16-.02.31-.06.46-.12a2.48 2.48 0 00-.01 0c-.15.06-.3.1-.46.12h-.38a1.73 1.73 0 00-1 .41l.09.08v.22l.24.27.12.1.28.22H4v.12l1.8-.21 1.8.21v-.12h.14l.28-.22.12-.1.24-.27v-.22l.09-.08c-.13-.11-.27-.2-.43-.27a1.49 1.49 0 00-.57-.14h-.38a1.69 1.69 0 01-.46-.12c-.29-.1-.6-.15-.9-.14h.08z"/><path fill="#C8B100" d="M4.49 2.37l.08.06.11-.19a.42.42 0 01-.21-.35c0-.24.3-.43.66-.43a.9.9 0 01.48.14v-.1a1 1 0 00-.49-.12c-.42 0-.75.24-.76.52v.05c0 .15.07.29.18.38l-.06.1"/><path fill="#000" d="M4.48 2.38l.08.07.13-.2a.41.41 0 01-.2-.35.39.39 0 01.19-.3.91.91 0 01.93 0v-.1a1 1 0 00-1.04.03.5.5 0 00-.24.37v.05c0 .15.07.3.18.39l-.06.1.06-.11a.49.49 0 01-.17-.37.5.5 0 01.23-.36c.16-.1.34-.15.53-.15a1 1 0 01.49.12v.1a.9.9 0 00-1 0 .41.41 0 00-.2.31v.05c0 .15.08.28.21.36l-.11.17-.07-.05.06-.13z"/><path fill="#C8B100" d="M4.5 2.37a.52.52 0 01-.23-.41c.01-.2.13-.37.3-.46-.1.08-.18.2-.19.34v.05c0 .15.07.29.18.38l-.05.1"/><path fill="#000" d="M4.5 2.36a.51.51 0 01-.23-.4c.01-.2.13-.36.3-.45a.49.49 0 00-.2.35v.05c0 .15.07.3.18.39l-.05.1.06-.11a.49.49 0 01-.17-.37.47.47 0 01.19-.33c-.18.1-.3.27-.31.47 0 .17.1.33.24.42l-.01-.12z"/><path fill="#C8B100" d="M3.23 2.56a.49.49 0 01-.08-.55 1 1 0 01.91-.41h.33l-.06.08h-.28a.91.91 0 00-.82.36.4.4 0 000 .17c0 .12.05.24.15.32l-.14.23-.08-.06.07-.14z"/><path fill="#000" d="M3.23 2.56a.48.48 0 01-.08-.54 1 1 0 01.9-.41h.33l-.06.08h-.28a.91.91 0 00-.83.37.41.41 0 000 .18c0 .13.06.25.16.33l-.14.22h-.06l.1-.16-.1.16.09.07.15-.25a.4.4 0 01-.15-.31.39.39 0 010-.17.9.9 0 01.81-.36h.27l.06-.08a1.51 1.51 0 00-.34 0 1 1 0 00-.92.42.5.5 0 00.08.56l.01-.11z"/><path fill="#C8B100" d="M3.38 1.78a.6.6 0 00-.23.24c-.09.18-.06.4.08.55l-.09.14a.59.59 0 01-.13-.36.67.67 0 01.37-.57z"/><path fill="#000" d="M3.38 1.78a.61.61 0 00-.23.24.5.5 0 00.08.56l-.09.14a.58.58 0 01-.13-.36.66.66 0 01.36-.55.68.68 0 00-.37.57c0 .13.05.26.13.37l.1-.16a.48.48 0 01-.08-.54.6.6 0 01.22-.23l.01-.04z"/><path fill="#C8B100" d="M5.84 1.27c.1 0 .18.06.2.15v.25c0 .16.02.31.07.46l-.29.28-.3-.28c.05-.15.07-.3.07-.46v-.25a.2.2 0 01.25-.15z"/><path fill="#000" d="M5.84 1.27c.09 0 .17.05.19.14v.25c0 .16.02.32.07.47l-.28.27-.29-.27c.05-.15.07-.31.07-.47v-.25c.02-.09.1-.14.19-.14-.1 0-.18.07-.21.16v.25c0 .16-.02.31-.07.46l.31.29.3-.29a1.5 1.5 0 01-.07-.46v-.25a.21.21 0 00-.21-.16z"/><path fill="#C8B100" d="M5.84 1.36a.1.1 0 01.1.08v.24c0 .15.02.3.07.44l-.19.18-.19-.18c.05-.14.07-.3.07-.44v-.24a.11.11 0 01.14-.08z"/><path fill="#000" d="M5.84 1.36a.1.1 0 01.09.07v.24c0 .15.02.3.07.44l-.19.18-.19-.18c.05-.14.07-.3.07-.44v-.24a.1.1 0 01.09-.07c-.05 0-.1.03-.12.08v.24c0 .15-.02.3-.07.43l.21.19.21-.19a1.39 1.39 0 01-.07-.43v-.24a.11.11 0 00-.11-.08h.01z"/><path fill="#C8B100" d="M7.18 2.37l-.08.06-.1-.18c.13-.07.2-.2.21-.35 0-.24-.3-.43-.66-.43a.86.86 0 00-.48.14v-.1a1 1 0 01.49-.12c.42 0 .75.24.76.52v.05a.5.5 0 01-.18.38l.06.1"/><path fill="#000" d="M7.17 2.36l-.07.05-.1-.17a.43.43 0 00.21-.41.41.41 0 00-.2-.31.9.9 0 00-1 0v-.1a1 1 0 01.49-.12c.19 0 .37.05.53.15a.5.5 0 01.23.36c0 .14-.06.28-.17.37l.07.11-.06-.1c.11-.1.18-.24.18-.39v-.05a.5.5 0 00-.24-.37A1 1 0 006 1.35v.1a.91.91 0 01.93 0c.1.06.18.18.19.3 0 .14-.08.28-.2.35l.13.2.09-.07.03.13z"/><path fill="#C8B100" d="M7.17 2.37c.14-.1.22-.24.23-.41a.55.55 0 00-.3-.46c.1.08.18.2.19.34v.05a.5.5 0 01-.18.38l.06.1"/><path fill="#000" d="M7.18 2.38c.14-.1.23-.25.24-.42a.57.57 0 00-.31-.47c.1.08.18.2.19.33 0 .14-.06.28-.17.37l.06.11-.06-.1c.11-.1.18-.24.18-.39v-.05a.49.49 0 00-.2-.35c.17.09.29.26.3.45a.5.5 0 01-.23.4v.12z"/><path fill="#C8B100" d="M8.44 2.56a.5.5 0 00.13-.33.49.49 0 000-.22 1 1 0 00-.91-.41 1.5 1.5 0 00-.33 0l.06.08h.28a.9.9 0 01.82.36.4.4 0 010 .17.4.4 0 01-.15.32l.14.23.08-.06-.12-.14z"/><path fill="#000" d="M8.44 2.56A.51.51 0 008.52 2a1 1 0 00-.92-.42 1.51 1.51 0 00-.34 0l.06.08h.27a.9.9 0 01.81.36v.17a.4.4 0 01-.15.31l.15.25.09-.07-.1-.16.09.15h-.06l-.14-.22c.1-.08.16-.2.16-.33a.41.41 0 000-.18.91.91 0 00-.83-.37h-.28l-.06-.08h.33a1 1 0 01.9.41c.02.07.02.14 0 .21a.5.5 0 01-.13.33l.07.12z"/><path fill="#C8B100" d="M8.29 1.78c.1.06.18.14.23.24.02.07.02.15 0 .22a.5.5 0 01-.13.33l.09.14c.08-.1.13-.23.13-.36a.67.67 0 00-.32-.57z"/><path fill="#000" d="M8.29 1.78c.1.06.17.13.22.23.02.07.02.14 0 .21a.5.5 0 01-.13.33l.1.16a.6.6 0 00.13-.37.68.68 0 00-.37-.57c.2.1.35.32.36.55 0 .13-.05.26-.13.36l-.09-.14a.51.51 0 00.08-.56.61.61 0 00-.23-.24l.06.04z"/><circle cx="6.1" cy="1.33" r="1" fill="#005BBF"/><path fill="#000" d="M5.84.83a.22.22 0 11-.23.22c0-.12.1-.22.23-.22a.24.24 0 10.02.48.24.24 0 00-.02-.48z"/><path fill="#C8B100" d="M5.77.42v.12h-.13v.13h.13V1H5.6v.09h.45V1h-.16V.64H6V.51h-.13V.39l-.1.03z"/><path fill="#000" d="M5.77.42v.12h-.13v.14h.13V1H5.6v.09h.46V1H5.9V.65H6V.51h-.13V.39v.12H6v.11h-.1V1h.16v.09h-.43V1h.17V.63h-.13V.52h.13V.39l-.03.03z"/><circle cx="6.24" cy="2.64" r="1" fill="#FFF"/><path fill="#000" d="M5.84 2.14a.09.09 0 110 .18.09.09 0 010-.18.11.11 0 100 .22.11.11 0 000-.22z"/><circle cx="6.24" cy="2.44" r="1" fill="#FFF"/><path fill="#000" d="M5.84 1.95a.09.09 0 110 .18.09.09 0 010-.18A.11.11 0 106 2a.11.11 0 00-.11-.11l-.05.06z"/><circle cx="6.26" cy="2.26" r="1" fill="#FFF"/><path fill="#000" d="M5.84 1.76a.07.07 0 110 .14.07.07 0 010-.14.09.09 0 100 .18.09.09 0 000-.18z"/><circle cx="6.28" cy="2.09" r="1" fill="#FFF"/><path fill="#000" d="M5.84 1.59a.07.07 0 100 .14.07.07 0 000-.14z"/><circle cx="6.29" cy="1.94" r="1" fill="#FFF"/><path fill="#000" d="M5.84 1.44a.06.06 0 100 .12.06.06 0 000-.12z"/><circle cx="3.49" cy="3.21" r="1" fill="#FFF"/><path fill="#000" d="M3.05 2.71a.07.07 0 100 .14.07.07 0 000-.14z"/><circle cx="3.41" cy="3.06" r="1" fill="#FFF"/><path fill="#000" d="M3 2.56a.07.07 0 100 .14.07.07 0 000-.14z"/><circle cx="3.36" cy="2.89" r="1" fill="#FFF"/><path fill="#000" d="M2.92 2.4a.07.07 0 100 .14.07.07 0 000-.14z"/><circle cx="3.35" cy="2.71" r="1" fill="#FFF"/><path fill="#000" d="M2.91 2.22a.07.07 0 100 .14.07.07 0 000-.14z"/><circle cx="3.39" cy="2.54" r="1" fill="#FFF"/><path fill="#000" d="M3 2a.07.07 0 100 .14A.07.07 0 003 2z"/><circle cx="3.49" cy="2.38" r="1" fill="#FFF"/><path fill="#000" d="M3 1.88a.07.07 0 100 .14.07.07 0 000-.14z"/><circle cx="3.61" cy="2.24" r="1" fill="#FFF"/><path fill="#000" d="M3.17 1.75a.07.07 0 100 .14.07.07 0 000-.14z"/><circle cx="3.75" cy="2.14" r="1" fill="#FFF"/><path fill="#000" d="M3.31 1.64a.07.07 0 100 .14.07.07 0 000-.14z"/><circle cx="3.92" cy="2.05" r="1" fill="#FFF"/><path fill="#000" d="M3.48 1.55a.07.07 0 100 .14.07.07 0 000-.14z"/><circle cx="4.1" cy="1.98" r="1" fill="#FFF"/><path fill="#000" d="M3.66 1.48a.07.07 0 100 .14.07.07 0 000-.14z"/><circle cx="4.3" cy="1.95" r="1" fill="#FFF"/><path fill="#000" d="M3.86 1.45a.07.07 0 100 .14.07.07 0 000-.14z"/><circle cx="4.48" cy="1.94" r="1" fill="#FFF"/><path fill="#000" d="M4 1.44a.07.07 0 100 .14.07.07 0 000-.14z"/><circle cx="4.67" cy="1.94" r="1" fill="#FFF"/><path fill="#000" d="M4.23 1.45a.07.07 0 100 .14.07.07 0 000-.14z"/><circle cx="4.87" cy="2.75" r="1" fill="#FFF"/><path fill="#000" d="M4.43 2.25a.07.07 0 100 .14.07.07 0 000-.14z"/><circle cx="4.77" cy="2.61" r="1" fill="#FFF"/><path fill="#000" d="M4.33 2.11a.07.07 0 100 .14.07.07 0 000-.14z"/><circle cx="4.71" cy="2.45" r="1" fill="#FFF"/><path fill="#000" d="M4.27 2a.07.07 0 100 .14.07.07 0 000-.14z"/><circle cx="4.72" cy="2.27" r="1" fill="#FFF"/><path fill="#000" d="M4.28 1.78a.07.07 0 100 .14.07.07 0 000-.14z"/><circle cx="4.76" cy="2.1" r="1" fill="#FFF"/><path fill="#000" d="M4.32 1.6a.07.07 0 100 .14.07.07 0 000-.14z"/><circle cx="4.85" cy="1.94" r="1" fill="#FFF"/><path fill="#000" d="M4.41 1.45a.07.07 0 100 .14.07.07 0 000-.14z"/><circle cx="4.99" cy="1.83" r="1" fill="#FFF"/><path fill="#000" d="M4.55 1.34a.07.07 0 100 .14.07.07 0 000-.14z"/><circle cx="5.15" cy="1.74" r="1" fill="#FFF"/><path fill="#000" d="M4.71 1.25a.07.07 0 100 .14.07.07 0 000-.14z"/><circle cx="5.33" cy="1.69" r="1" fill="#FFF"/><path fill="#000" d="M4.89 1.19a.07.07 0 100 .14.07.07 0 000-.14z"/><circle cx="5.52" cy="1.66" r="1" fill="#FFF"/><path fill="#000" d="M5.08 1.16a.07.07 0 100 .14.07.07 0 000-.14z"/><circle cx="5.7" cy="1.66" r="1" fill="#FFF"/><path fill="#000" d="M5.26 1.16a.07.07 0 100 .14.07.07 0 000-.14z"/><circle cx="5.89" cy="1.69" r="1" fill="#FFF"/><path fill="#000" d="M5.45 1.2a.07.07 0 100 .14.07.07 0 000-.14z"/><circle cx="6.07" cy="1.75" r="1" fill="#FFF"/><path fill="#000" d="M5.63 1.26a.07.07 0 100 .14.07.07 0 000-.14z"/><circle cx="6.48" cy="1.75" r="1" fill="#FFF"/><path fill="#000" d="M6 1.26a.07.07 0 100 .14.07.07 0 000-.14z"/><circle cx="6.66" cy="1.69" r="1" fill="#FFF"/><path fill="#000" d="M6.22 1.2a.07.07 0 100 .14.07.07 0 000-.14z"/><circle cx="6.85" cy="1.66" r="1" fill="#FFF"/><path fill="#000" d="M6.41 1.16a.07.07 0 100 .14.07.07 0 000-.14z"/><circle cx="7.03" cy="1.66" r="1" fill="#FFF"/><path fill="#000" d="M6.59 1.16a.07.07 0 100 .14.07.07 0 000-.14z"/><circle cx="7.22" cy="1.69" r="1" fill="#FFF"/><path fill="#000" d="M6.78 1.19a.07.07 0 100 .14.07.07 0 000-.14z"/><circle cx="7.4" cy="1.74" r="1" fill="#FFF"/><path fill="#000" d="M7 1.25a.07.07 0 100 .14.07.07 0 000-.14z"/><circle cx="7.56" cy="1.83" r="1" fill="#FFF"/><path fill="#000" d="M7.12 1.34a.07.07 0 100 .14.07.07 0 000-.14z"/><circle cx="7.7" cy="1.94" r="1" fill="#FFF"/><path fill="#000" d="M7.26 1.45a.07.07 0 100 .14.07.07 0 000-.14z"/><circle cx="7.79" cy="2.1" r="1" fill="#FFF"/><path fill="#000" d="M7.35 1.6a.07.07 0 100 .14.07.07 0 000-.14z"/><circle cx="7.83" cy="2.27" r="1" fill="#FFF"/><path fill="#000" d="M7.39 1.78a.07.07 0 100 .14.07.07 0 000-.14z"/><circle cx="7.84" cy="2.45" r="1" fill="#FFF"/><path fill="#000" d="M7.4 2a.07.07 0 100 .14.07.07 0 000-.14z"/><circle cx="7.78" cy="2.61" r="1" fill="#FFF"/><path fill="#000" d="M7.34 2.11a.07.07 0 100 .14.07.07 0 000-.14z"/><circle cx="7.68" cy="2.75" r="1" fill="#FFF"/><path fill="#000" d="M7.24 2.25a.07.07 0 100 .14.07.07 0 000-.14z"/><circle cx="7.88" cy="1.94" r="1" fill="#FFF"/><path fill="#000" d="M7.44 1.45a.07.07 0 100 .14.07.07 0 000-.14z"/><circle cx="8.07" cy="1.94" r="1" fill="#FFF"/><path fill="#000" d="M7.63 1.44a.07.07 0 100 .14.07.07 0 000-.14z"/><circle cx="8.25" cy="1.95" r="1" fill="#FFF"/><path fill="#000" d="M7.81 1.45a.07.07 0 100 .14.07.07 0 000-.14z"/><circle cx="8.45" cy="1.98" r="1" fill="#FFF"/><path fill="#000" d="M8 1.48a.07.07 0 100 .14.07.07 0 000-.14z"/><circle cx="8.63" cy="2.05" r="1" fill="#FFF"/><path fill="#000" d="M8.19 1.55a.07.07 0 100 .14.07.07 0 000-.14z"/><circle cx="8.8" cy="2.14" r="1" fill="#FFF"/><path fill="#000" d="M8.36 1.64a.07.07 0 100 .14.07.07 0 000-.14z"/><circle cx="8.94" cy="2.24" r="1" fill="#FFF"/><path fill="#000" d="M8.5 1.75a.07.07 0 100 .14.07.07 0 000-.14z"/><circle cx="9.06" cy="2.38" r="1" fill="#FFF"/><path fill="#000" d="M8.62 1.88a.07.07 0 100 .14.07.07 0 000-.14z"/><circle cx="9.16" cy="2.54" r="1" fill="#FFF"/><path fill="#000" d="M8.72 2a.07.07 0 100 .14.07.07 0 000-.14z"/><circle cx="9.2" cy="2.71" r="1" fill="#FFF"/><path fill="#000" d="M8.76 2.22a.07.07 0 100 .14.07.07 0 000-.14z"/><circle cx="9.19" cy="2.89" r="1" fill="#FFF"/><path fill="#000" d="M8.75 2.4a.07.07 0 100 .14.07.07 0 000-.14z"/><circle cx="9.14" cy="3.06" r="1" fill="#FFF"/><path fill="#000" d="M8.7 2.56a.07.07 0 100 .14.07.07 0 000-.14z"/><circle cx="9.06" cy="3.21" r="1" fill="#FFF"/><path fill="#000" d="M8.62 2.71a.07.07 0 100 .14.07.07 0 000-.14z"/><path fill="#C8B100" d="M5.84 4.26c-.57 0-1.14-.06-1.69-.21a.07.07 0 010-.07.06.06 0 010-.06 6.19 6.19 0 011.69-.21c.57 0 1.14.06 1.69.21v.06c.01.02.01.05 0 .07-.55.15-1.12.22-1.69.21"/><path fill="#000" d="M5.84 4.25c-.57 0-1.14-.09-1.69-.25v-.1a6.18 6.18 0 011.69-.21c.57 0 1.14.06 1.69.21V4a6.2 6.2 0 00.01 0 .08.08 0 00.05-.07.07.07 0 00-.05-.07 6.2 6.2 0 00-1.7-.21 6.2 6.2 0 00-1.7.21.07.07 0 00-.05.07c0 .03.02.06.05.07a6.2 6.2 0 001.7.21v.04z"/><path fill="#C8B100" d="M5.84 3.71c-.58 0-1.15.07-1.71.22v-.17c0-.11-.14-.13-.14-.13a6.9 6.9 0 011.86-.23 7 7 0 011.87.23s-.08 0-.14.13c-.06.13 0 .16 0 .17a6.22 6.22 0 00-1.72-.22"/><path fill="#000" d="M5.84 3.7c-.58 0-1.15.07-1.71.22v-.18c0-.13-.13-.14-.14-.14a7.3 7.3 0 013.72 0s-.1 0-.15.14v.18-.13c0-.12.12-.12.13-.13a7 7 0 00-1.87-.23 7.3 7.3 0 00-1.86.23s.08 0 .12.13v.13a6.12 6.12 0 011.71-.22h.05z"/><path fill="#C8B100" d="M5.84 3.4a6.9 6.9 0 00-1.94.23.06.06 0 010-.07 6.85 6.85 0 011.9-.24c.64 0 1.28.07 1.9.24.02.02.02.05 0 .07a6.93 6.93 0 00-1.94-.23"/><path fill="#000" d="M5.84 3.39a6.84 6.84 0 01.03-.01 6.94 6.94 0 00.03.01c.63 0 1.25.07 1.86.23h.06a.07.07 0 000-.07 6.88 6.88 0 00-1.9-.24c-.64 0-1.28.07-1.9.24a.07.07 0 000 .07h.06c.6-.16 1.23-.24 1.86-.23h-.1z"/><path fill="#C8B100" d="M5.84 2.83h.07v.09a.26.26 0 00.27.25c.11 0 .2-.07.25-.17v-.09.1A.29.29 0 007 3l.08-.08v.22a.25.25 0 00.26.24c.08 0 .16-.04.21-.11l.05-.07v.08c0 .08.04.15.12.17.11 0 .21-.06.28-.15.07-.05.13-.11.19-.18v.1a.83.83 0 01-.22.23.39.39 0 01-.23.06.23.23 0 01-.16-.15.38.38 0 01-.19.05A.37.37 0 017 3.2a.38.38 0 01-.28.12.4.4 0 01-.3-.14.4.4 0 01-.59-.06.4.4 0 01-.59.06.4.4 0 01-.3.14.4.4 0 01-.28-.12.37.37 0 01-.34.21.38.38 0 01-.19-.05.23.23 0 01-.16.15.39.39 0 01-.23-.06.82.82 0 01-.22-.23v-.1c.06.07.12.13.19.18.06.05.14.09.22.09.08-.02.13-.1.12-.17v-.08l.05.07c.05.07.13.1.21.11a.25.25 0 00.26-.24v-.22l.08.08a.27.27 0 00.53 0v-.1.09c.04.1.14.17.25.17a.26.26 0 00.27-.25v-.09h.07"/><path fill="#000" d="M5.84 2.84h.06v.09a.27.27 0 00.28.26c.12 0 .22-.07.26-.18v-.05V3A.28.28 0 107 3l.07-.07v.09a.24.24 0 000 .12.26.26 0 00.27.25c.09 0 .17-.04.22-.11v.05a.23.23 0 000 .12c.02.03.06.06.1.06.08 0 .16-.04.22-.09.07-.05.13-.11.19-.18v.1a.74.74 0 01-.19.2.43.43 0 01-.2.06.22.22 0 01-.16-.14.37.37 0 01-.19.05.36.36 0 01-.33-.2.37.37 0 01-.28.12.38.38 0 01-.3-.14.39.39 0 01-.57-.06.39.39 0 01-.57.06.39.39 0 01-.3.14c-.1 0-.2-.04-.27-.12-.06.12-.2.2-.33.2a.37.37 0 01-.19-.05.22.22 0 01-.16.14.43.43 0 01-.19-.06.6.6 0 01-.15-.14v-.16c.06.07.13.13.2.18.06.05.14.08.22.09.04 0 .08-.03.1-.06a.23.23 0 000-.12v-.05c.05.07.13.11.22.11a.26.26 0 00.27-.25.24.24 0 000-.12v-.09l.07.07a.28.28 0 00.55 0v-.08V3c.04.1.14.18.26.18a.27.27 0 00.28-.26v-.09h.06-.08v.08c0 .07-.03.13-.08.17a.26.26 0 01-.42-.1V2.9v.05a.25.25 0 01-.26.2.26.26 0 01-.18-.07.24.24 0 01-.08-.17l-.1-.1-.05.12v.11c0 .06-.03.12-.07.16a.25.25 0 01-.17.07.25.25 0 01-.2-.1L4 3.11v.22a.12.12 0 01-.08.06.36.36 0 01-.21-.09l-.14-.13v.13a.8.8 0 00.22.23c.06.04.14.06.21.07a.24.24 0 00.17-.16c.06.03.13.05.2.05.15 0 .29-.08.35-.22a.4.4 0 00.29.13c.12 0 .23-.05.31-.14a.41.41 0 00.6-.07.41.41 0 00.61.07c.08.09.2.14.31.14a.4.4 0 00.29-.13c.06.14.2.22.35.22.07 0 .14-.02.2-.05.03.08.09.14.17.16a.4.4 0 00.21-.07.83.83 0 00.22-.23v-.2l-.18.16a.36.36 0 01-.21.09.12.12 0 01-.08-.06.21.21 0 010-.11v-.11l-.07.09a.25.25 0 01-.2.1.25.25 0 01-.17-.07.22.22 0 01-.07-.16v-.11l-.05-.12-.1.1c0 .07-.03.13-.08.17a.26.26 0 01-.18.07.25.25 0 01-.25-.2v-.05.05a.26.26 0 01-.24.17.26.26 0 01-.4-.01.23.23 0 01-.08-.17v-.08h-.08v-.01z"/><path fill="#C8B100" d="M3.57 3.18v-.06a.1.1 0 00-.13 0 .44.44 0 00-.13-.15.42.42 0 00-.19 0c0-.09.07-.16.16-.16.05 0 .1.02.14.06v-.06c.05.01.1.05.11.1.02.07.02.14 0 .21v-.09a.46.46 0 01.14-.09h.07c.1 0 .18.01.26.06a.27.27 0 01-.14.13h-.31"/><path fill="#000" d="M3.58 3.18v-.06a.14.14 0 00-.09 0h-.06a.45.45 0 00-.14-.16.36.36 0 00-.16 0c0-.08.07-.15.15-.15.05 0 .1.02.13.06v-.08c.05.01.08.05.1.09v.16-.06a.45.45 0 01.13-.09h.3a.26.26 0 01-.14.12h-.3.32c.06.02.12.01.18-.01h-.16a.46.46 0 00-.14.09v-.12a.17.17 0 00-.12-.11v.07a.18.18 0 00-.14-.06.18.18 0 00-.12 0 .17.17 0 00-.05.12h.15a.3.3 0 01.09.09h.07v.1z"/><path fill="#AD1519" d="M3.4 3.11a.1.1 0 01.13 0s.06.09 0 .12a.1.1 0 01-.13 0s-.06-.09 0-.12"/><path fill="#000" d="M3.41 3.12h.07a.1.1 0 010 .07h-.07a.1.1 0 010-.07.12.12 0 000 .09h.15a.12.12 0 000-.09.14.14 0 00-.09 0h-.06z"/><path fill="#FFF" d="M4 3.16v-.1c0-.01.07 0 .09.06.02.06 0 .09 0 .1 0 .01-.07 0-.09-.06"/><path fill="#000" d="M4 3.16v-.05c.03 0 .05.03.06.06v.05A.08.08 0 014 3.16a.1.1 0 00.08.07.07.07 0 000-.07A.1.1 0 004 3a.07.07 0 000 .07v.09z"/><path fill="#C8B100" d="M4.53 2.94a.1.1 0 010-.06v-.07h-.29a.28.28 0 00-.16.11.3.3 0 00.2.05v.08h.06L4.46 3l.08-.07"/><path fill="#000" d="M4.54 2.93v-.05h-.3a.29.29 0 00-.17.12.3.3 0 00.18.06h.06l.12-.05.08-.07h-.06l-.11.05h-.06a.3.3 0 01-.16-.05c.04-.06.1-.1.16-.11h.25v.13l.01-.03z"/><path fill="#C8B100" d="M4.51 2.38c.06.04.1.1.13.16h.06v.29a.11.11 0 00-.09 0 .1.1 0 00-.07 0l-.07-.08-.06-.11v-.06h.06a.3.3 0 01.06-.2"/><path fill="#000" d="M4.5 2.39c.06.04.1.1.12.16h.05v.25H4.6a.11.11 0 00-.08.05l-.06-.07v-.07h.09v-.05c0-.06.02-.11.06-.16a.29.29 0 00-.06.18h-.12v.13l.07.08h.12V2.5h-.06a.3.3 0 00-.13-.17l.07.06z"/><path fill="#C8B100" d="M4.69 2.91a.09.09 0 000-.13l.08-.07.12-.05h.06v.08a.3.3 0 01.2.05c-.04.06-.1.1-.17.11h-.29"/><path fill="#000" d="M4.7 2.92v-.06a.1.1 0 000-.06h.06l.11-.05h.06a.3.3 0 01.16.05c-.04.05-.1.1-.16.11h-.25H5a.3.3 0 00.17-.12.31.31 0 00-.18-.06v-.05h-.06l-.12.05-.08.07v.05l-.03.07z"/><circle cx="4.98" cy="3.25" r="1" fill="#AD1519"/><path fill="#000" d="M4.6 2.75a.1.1 0 11-.02.2.1.1 0 01.02-.2.12.12 0 10.13.12.13.13 0 00-.13-.12z"/><path fill="#FFF" d="M5.17 2.93s0-.09.05-.09.07 0 .07.08 0 .09-.05.09-.07 0-.07-.08"/><path fill="#000" d="M5.18 2.93s.05 0 .06.07c0 0-.05 0-.06-.07 0 .05.03.08.08.09v-.06a.09.09 0 00-.08-.09v.06z"/><path fill="#C8B100" d="M5.75 2.83v-.14l-.1-.06h-.21v.05a.33.33 0 00-.21.1c.06.06.13.1.21.1v.05h.21l.1-.06"/><path fill="#000" d="M5.76 2.82a.1.1 0 010-.07.1.1 0 010-.06l-.1-.06h-.23v.1a.34.34 0 00-.21.1c.06.06.13.1.21.1V3h.23l.11-.06H5.5v-.07a.32.32 0 01-.2-.09.32.32 0 01.2-.09h.27v.16l-.01-.03z"/><path fill="#C8B100" d="M5.84 2.2c.06.05.1.13.11.21h.07v.22a.48.48 0 01-.06.1.12.12 0 00-.18 0 .48.48 0 01-.06-.1v-.22h.12c0-.08.04-.16.1-.21"/><path fill="#000" d="M5.83 2.21c.06.05.1.12.1.2h.06v.29a.13.13 0 00-.2 0l-.05-.09v-.14h.06c0-.08.04-.15.1-.2a.33.33 0 00-.11.22h-.14v.21l.06.1a.11.11 0 01.17 0 .49.49 0 00.06-.1v-.21H6h-.05a.33.33 0 00-.11-.22l-.01-.06z"/><path fill="#C8B100" d="M5.93 2.83a.11.11 0 000-.14l.1-.06h.21v.05a.3.3 0 01.21.1.33.33 0 01-.21.1v.05h-.21l-.1-.06"/><path fill="#000" d="M5.94 2.84a.12.12 0 000-.16h.27v.07c.08 0 .15.04.2.09a.32.32 0 01-.2.09v.06h-.26l.11.06h.22V3a.3.3 0 00.21-.1.34.34 0 00-.21-.1v-.05h-.22l-.11.06a.1.1 0 010 .13l-.01-.1z"/><circle cx="6.22" cy="3.15" r="1" fill="#AD1519"/><path fill="#000" d="M5.84 2.64a.1.1 0 11-.02.2.1.1 0 01.02-.2.12.12 0 10.13.12.13.13 0 00-.13-.12z"/><path fill="#FFF" d="M6.52 2.93s0-.09-.05-.09-.07 0-.07.08 0 .09.05.09.07 0 .07-.08"/><path fill="#000" d="M6.53 2.94v-.06a.09.09 0 00-.08.09v.06c.05 0 .08-.04.08-.09 0 0 0 .07-.06.07 0 0 0-.07.06-.07z"/><path fill="#C8B100" d="M7 2.91a.09.09 0 010-.13l-.08-.07-.12-.05h-.06a.3.3 0 00-.2.05c.04.06.1.1.17.11H7"/><path fill="#000" d="M7 2.91v-.05l-.08-.07-.12-.05h-.06a.31.31 0 00-.18.06c.04.06.1.1.17.12h.3-.25a.27.27 0 01-.16-.11.3.3 0 01.16-.05h.06l.12.05h.06v.12L7 2.91z"/><path fill="#C8B100" d="M7.18 2.38a.4.4 0 00-.13.16h-.06v.29a.11.11 0 01.09 0 .1.1 0 01.07 0l.07-.08.06-.11v-.06h-.06a.28.28 0 00-.06-.2"/><path fill="#000" d="M7.17 2.37a.3.3 0 00-.13.17h-.06v.24h.13l.07-.08v-.13h-.12a.27.27 0 010-.01v.06h.09v.18a.11.11 0 00-.08-.05H7V2.5h.05a.28.28 0 01.12-.16v.03z"/><path fill="#C8B100" d="M7.15 2.94a.1.1 0 000-.06v-.07h.29c.06.02.12.06.16.11a.3.3 0 01-.2.05v.08h-.06L7.23 3l-.08-.07"/><path fill="#000" d="M7.16 2.95v-.07a.1.1 0 000-.05h.25c.06.02.12.06.16.11a.3.3 0 01-.16.05h-.06L7.24 3h-.06l.08.07.12.05h.06A.32.32 0 007.6 3a.3.3 0 00-.17-.12h-.3v.05l.03.02z"/><circle cx="7.47" cy="3.25" r="1" fill="#AD1519"/><path fill="#000" d="M7.09 2.75a.1.1 0 11-.02.2.1.1 0 01.02-.2.12.12 0 10.13.12.13.13 0 00-.13-.12z"/><path fill="#FFF" d="M7.68 3.16v-.1c0-.01-.07 0-.09.06-.02.06 0 .09 0 .1 0 .01.07 0 .09-.06"/><path fill="#000" d="M7.69 3.16a.07.07 0 000-.07.1.1 0 00-.08.07.07.07 0 000 .07.1.1 0 00.08-.07c0 .03-.03.05-.06.06v-.05c0-.03.03-.05.06-.06v.05z"/><path fill="#C8B100" d="M8.12 3.18v-.06a.1.1 0 01.13 0 .43.43 0 01.13-.15.42.42 0 01.19 0 .16.16 0 00-.16-.16c-.05 0-.1.02-.13.06v-.06a.16.16 0 00-.11.1.38.38 0 000 .21v-.09a.46.46 0 00-.14-.09h-.07a.44.44 0 00-.21 0c.03.06.08.1.14.13h.31"/><path fill="#000" d="M8.13 3.19a.12.12 0 01.11-.08c.03-.05.07-.1.12-.13h.15a.16.16 0 00-.05-.12.18.18 0 00-.12 0 .2.2 0 00-.14.06v-.06a.17.17 0 00-.12.11v.12A.46.46 0 007.94 3h-.05v.05h-.16c.03.06.09.1.15.13h.32-.3a.26.26 0 01-.14-.12h.32c.05.02.1.05.13.09v-.14a.16.16 0 01.06-.08v.06a.16.16 0 01.13-.06c.08 0 .15.07.15.15a.37.37 0 00-.16 0 .4.4 0 00-.13.16H8.2a.14.14 0 00-.13.1l.06-.15z"/><path fill="#AD1519" d="M8.29 3.11a.1.1 0 00-.13 0s-.06.09 0 .12c.04.03.1.03.13 0 0 0 .06-.09 0-.12"/><path fill="#000" d="M8.29 3.1h-.06a.14.14 0 00-.09 0 .12.12 0 000 .09h.15a.12.12 0 000-.09.1.1 0 010 .07h-.07a.1.1 0 010-.07h.07z"/><path fill="#AD1519" d="M5.84 4.18c-.53 0-1.05-.06-1.56-.18a6.49 6.49 0 011.56-.17c.52 0 1.05.05 1.56.17-.51.12-1.03.18-1.56.18z"/><path fill="#000" d="M5.84 4.18c-.53 0-1.05-.06-1.56-.18a6.48 6.48 0 011.56-.17c.52 0 1.05.05 1.56.17a6.49 6.49 0 00.01 0 6.53 6.53 0 00-1.57-.17A6.5 6.5 0 004.28 4c.51.12 1.03.18 1.56.18zm.43-.02v-.33.33zm-.16 0v-.35.35zm-.12 0v-.35.35z"/><path fill="#000" d="M5.89 4.18v-.36h-.01v.36m-.09 0v-.36h-.01v.36m-.08 0v-.36h-.01v.36m-.08 0v-.36H5.6v.36m-.07 0v-.36h-.01v.36m-.14-.02v-.33.33zm.07 0v-.34.34zm-.21-.01v-.3.3zm.07 0v-.32.32zM5 4.13v-.26.26zm.06 0v-.28.28zm.06 0v-.29.29zm-.14 0v-.26h-.02v.26m-.04-.02v-.23h-.03v.23m-.03 0v-.22h-.04v.22m-.1-.02v-.18.18zm.07 0v-.2.2zm-.14-.02v-.15h-.03v.15m-.03-.01v-.13h-.04v.13m-.03-.02v-.1h-.04v.1m-.03 0v-.08H4.4v.08m-.03-.02v-.04h-.05v.04"/><path fill="#000" d="M4.21 4c.53-.13 1.08-.2 1.63-.19a6.36 6.36 0 00-.01 0c-.55 0-1.1.06-1.63.19h.01z"/><path fill="#AD1519" d="M4.02 3.77l.07-.08.18.02-.14.11-.11-.05"/><path fill="#000" d="M4.03 3.78l.06-.08.15.02-.12.08-.09-.04-.01.02.11.05.17-.13-.22-.02-.07.09.02.01z"/><path fill="#FFF" d="M4.42 3.67a.06.06 0 11.12 0 .06.06 0 01-.12 0"/><path fill="#000" d="M4.43 3.67a.07.07 0 10.14 0 .07.07 0 00-.14 0z"/><path fill="#058E6E" d="M4.94 3.66h-.13a.06.06 0 01-.07 0c0-.03.02-.06.05-.06h.26a.06.06 0 01.07 0c0 .03-.02.06-.05.06h-.13"/><path fill="#000" d="M4.94 3.65h-.13.26-.13.13c.03 0 .06-.03.06-.07a.07.07 0 00-.07-.06H4.8a.07.07 0 00-.06.07c0 .03.03.06.07.06h.14-.01z"/><path fill="#FFF" d="M5.32 3.56a.06.06 0 11.12 0 .06.06 0 01-.12 0"/><path fill="#000" d="M5.33 3.56a.07.07 0 10.14 0 .07.07 0 00-.14 0z"/><path fill="#AD1519" d="M5.84 3.61h-.18a.06.06 0 010-.12H6a.06.06 0 010 .12h-.18"/><path fill="#000" d="M5.84 3.6h-.18H6h-.18H6a.07.07 0 100-.13h-.36a.07.07 0 100 .13h.2z"/><path fill="#FFF" d="M6.25 3.56a.06.06 0 11.12 0 .06.06 0 01-.12 0"/><path fill="#000" d="M6.26 3.56a.07.07 0 10.14 0 .07.07 0 00-.14 0z"/><path fill="#058E6E" d="M6.74 3.66h.13c.02.02.05.02.07 0a.06.06 0 00-.05-.06h-.26a.06.06 0 00-.07 0c0 .03.02.06.05.06h.13"/><path fill="#000" d="M6.74 3.67h.14c.04 0 .06-.03.07-.06a.07.07 0 00-.06-.07h-.26a.07.07 0 00-.07.06c0 .04.03.06.06.07h.13-.13.26-.14z"/><path fill="#FFF" d="M7.14 3.67a.06.06 0 11.12 0 .06.06 0 01-.12 0"/><path fill="#000" d="M7.16 3.67a.07.07 0 10.14 0 .07.07 0 00-.14 0z"/><path fill="#AD1519" d="M7.66 3.77l-.06-.08-.19.02.15.11.1-.05"/><path fill="#000" d="M7.67 3.77l-.07-.09-.22.02.18.13.11-.05-.01-.02-.1.04-.12-.08.15-.02.06.08.02-.01z"/><path fill="#CCC" d="M5.86 10.7a4.6 4.6 0 01-2-.47 1.29 1.29 0 01-.73-1.15V7.27H8.6v1.81c0 .5-.29.94-.73 1.15-.63.3-1.31.47-2.01.47z"/><path fill="#000" d="M5.86 10.7c-.7 0-1.38-.16-2-.46a1.27 1.27 0 01-.72-1.14V7.3h5.44v1.8c0 .49-.28.93-.72 1.14a4.61 4.61 0 000-.01c.45-.22.74-.67.74-1.17V7.25H3.1v1.83c0 .5.29.95.74 1.17.62.3 1.3.46 2 .47l.02-.02z"/><path fill="#FFD691" d="M6 9.89c.1.02.17.12.17.22a.26.26 0 01-.29.23.27.27 0 01-.3-.23c0-.1.07-.2.17-.21h.07"/><path fill="#000" d="M6 9.91c.1.02.16.1.16.2 0 .06-.03.12-.08.15a.32.32 0 01-.2.06.33.33 0 01-.2-.06.19.19 0 01-.08-.15.24.24 0 010-.13.15.15 0 01.12-.07h.1v.07-.18H6h-.1c-.06 0-.1.03-.14.08a.27.27 0 000 .15c0 .07.04.13.09.17.06.05.14.07.22.07.08 0 .15-.02.21-.07.05-.04.09-.1.09-.17 0-.1-.07-.2-.18-.23L6 9.91z"/><path fill="#058E6E" d="M5.85 10.48c-.1-.07-.2-.13-.31-.17h-.31l.1.08a.57.57 0 00.53.1"/><path fill="#000" d="M5.86 10.47l-.12-.08a.81.81 0 00-.19-.09H5.2l.1.08.09.06h.46-.41l-.08-.06-.06-.05h.29a.8.8 0 01.19.09l.08.05z"/><path fill="#058E6E" d="M5.91 10.49a.59.59 0 01.28-.16.79.79 0 01.35 0h-.08a.38.38 0 01-.23.09h-.32"/><path fill="#000" d="M5.92 10.5a.56.56 0 01.27-.15h.11a.84.84 0 01.24 0h-.07a.37.37 0 01-.22.08h-.33.32a.4.4 0 00.23-.09h.05a.86.86 0 00-.25 0H6.2a.47.47 0 00-.2.09l-.09.08.01-.01z"/><path fill="#AD1519" d="M5.87 10.31a.28.28 0 010-.4.28.28 0 010 .4"/><path fill="#000" d="M5.88 10.3a.26.26 0 010-.38.26.26 0 010 .38.29.29 0 000-.43.29.29 0 000 .43z"/><path fill="#058E6E" d="M5.82 10.61v-.27.25"/><path fill="#000" d="M5.83 10.61v-.26a.4.4 0 010 .1v.08h-.07v-.25h-.07v.17l.14.16z"/><path fill="#AD1519" d="M5.85 9.08a1.37 1.37 0 01-2.73 0V7.26h2.73v1.82"/><path fill="#000" d="M5.84 9.08c0 .34-.14.67-.39.91-.54.5-1.37.5-1.91 0-.25-.23-.4-.56-.4-.91v-1.8h2.71v1.8-1.83H3.1v1.83c0 .35.15.7.41.93.56.54 1.44.54 2 0 .26-.24.4-.58.4-.93h-.07z"/><path fill="#C8B100" d="M3.11 9.05c0 .31.11.6.31.85V7.21h-.31v1.84z"/><path fill="#000" d="M3.11 9.05c0 .31.12.62.32.86V7.2H3.1v1.85-1.82h.28v2.68c-.2-.24-.3-.53-.31-.84l.04-.02z"/><path fill="#C8B100" d="M3.71 10.15c.1.06.21.11.33.15V7.2h-.32l-.01 2.95z"/><path fill="#000" d="M3.71 10.15c.1.06.21.11.33.15V7.18H3.7v3-2.97H4v3.09a1.41 1.41 0 01-.33-.15h.04z"/><path fill="#C8B100" d="M4.32 10.37h.32V7.2h-.32v3.17z"/><path fill="#000" d="M4.32 10.37h.33v-3.2H4.3v3.2-3.16h.29v3.16h-.31z"/><path fill="#C8B100" d="M4.93 10.3c.12-.03.23-.08.33-.14v-3h-.32l-.01 3.14z"/><path fill="#000" d="M4.93 10.3a.99.99 0 00.33-.15v-3h-.35v3.13-3.07h.29v2.94c-.1.06-.2.11-.32.14l.05.01z"/><path fill="#C8B100" d="M5.55 9.88c.17-.2.27-.43.3-.69v-2h-.32l.02 2.69z"/><path fill="#000" d="M5.55 9.88c.17-.2.28-.44.31-.7v-2h-.35V9.9 7.21h.29v2c-.03.26-.13.5-.3.69l.05-.02z"/><path fill="#AD1519" d="M8.59 7.26v1.82a1.37 1.37 0 11-2.74 0V7.26h2.74"/><path fill="#000" d="M8.58 7.26v1.82c0 .35-.15.68-.4.91-.54.5-1.38.5-1.92 0-.25-.23-.4-.56-.4-.91v-1.8h2.73-2.75v1.83c0 .35.15.7.41.93.56.54 1.44.54 2 0 .26-.24.4-.58.41-.93V7.26h-.08z"/><path fill="#C8B100" d="M7.07 8.62l-.23-.26h-.09l-.17-.18.05-.08-.29-.33V8h.1v.24h-.1v.22c.04.01.08.05.09.09h.17v-.09h.26v.09l.21.07zm-.38-1v.09h.15v-.09h-.15zm-.4 1.11a.06.06 0 10-.06-.06c0 .03.03.05.06.05v.01zm.87-.53h-.1v-.24h.1v-.1a.15.15 0 01-.1-.09h-.15v.09h-.26v-.09h-.17l.29.32h.09l.17.19-.05.08.23.25-.05-.41zm-.39-.08l-.07.06.1.11.07-.06-.1-.11zm.44 2a.15.15 0 01-.14-.11 1 1 0 01-.26-.07v-.08a.8.8 0 00.22.06.14.14 0 01.09-.08V9.5h-.1v-.24h.1v-.42l-.22.24.05.08-.17.19h-.09l-.18.2c.04.05.04.11 0 .16.05.06.11.1.18.15v.08a1 1 0 01-.21-.18.15.15 0 01-.14 0 .13.13 0 010-.2.87.87 0 01-.07-.27h.09c0 .08.03.16.06.23h.08l.18-.2-.05-.08.17-.19h.09l.22-.24h-.15v.09H6.7v-.09h-.18a.15.15 0 01-.09.09V9h-.09v-.22a.14.14 0 01-.1-.13c0-.06.04-.12.1-.14V8.3h-.1V8h.1v-.22a.14.14 0 01-.1-.13.14.14 0 01.15-.14c.06 0 .12.04.14.1h.17v-.09h.26v.09h.15c.02-.06.08-.1.14-.1v1.95l-.04.66zm-.32-1L6.81 9l-.1.11.07.06.11-.05zm-.54-1h-.09v.14h.09v-.14zm.5.62v-.09h-.16v.09h.16zm-.58.53h-.1V9h.1v.14l-.01.09.01.04zm.08-.3h.1v.24h-.1v-.24zm.59.92V9.8a.78.78 0 01-.23-.11l-.07.06a.9.9 0 00.29.1l.01.04zm0 .08l-.07.07a1 1 0 01-.22-.11v-.1a1 1 0 00.23.1l.06.04z"/><path fill="#C8B100" d="M7.07 8.62l-.24-.27h-.09l-.16-.18.05-.08-.3-.33V8h.1v.23h-.1v.23c.04.01.08.05.09.09h.19v-.09h.25v.09-.09h-.27v.09h-.16a.15.15 0 00-.1-.1v-.22h.1V8h-.1v-.2l.28.32-.05.08.17.19h.09l.23.25.02-.02zm-.38-1v.09h.16v-.1.07H6.7V7.6l-.01.02zm-.4 1.11a.07.07 0 100-.14.07.07 0 000 .14.05.05 0 11.02-.1.05.05 0 01-.02.1zm.87-.53h-.09v-.23h.1v-.12a.14.14 0 01-.09-.09h-.16v.09h-.25v-.09h-.18l.3.33h.09l.16.18-.05.08.23.26v-.35.34L7 8.35V8.2L6.81 8h-.09l-.29-.32h.16v.09h.27v-.09h.13c.01.05.05.09.1.1v.1h-.1v.25h.1l.07.07zm-.39-.08l-.08.06.11.12.08-.07-.11-.12.09.1H6.8l-.09-.1.06-.05v.06zm.44 2a.14.14 0 01-.13-.1 1 1 0 01-.26-.07v-.08a.8.8 0 00.22.06.14.14 0 01.08-.07V9.5h-.1v-.23h.1v-.43l-.22.25.05.08-.16.18H6.7l-.19.21v.15c.05.06.11.1.18.15v.08a1 1 0 01-.2-.17h-.05a.14.14 0 01-.09 0 .13.13 0 010-.1.13.13 0 010-.09.86.86 0 01-.07-.27h.08c0 .08.03.16.06.23h.09l.19-.21-.05-.08.16-.18h.09l.22-.25h-.16v.09h-.25v-.09h-.19a.14.14 0 01-.09.08V9h-.08v-.22a.14.14 0 01-.1-.13c0-.06.04-.11.1-.13V8.3h-.1V8h.1v-.23a.13.13 0 01-.1-.13c0-.07.07-.13.14-.13.06 0 .12.03.14.09h.18v-.09h.25v.09h.16a.14.14 0 01.13-.09v2.62-2.6a.15.15 0 00-.15.1h-.13v-.09H6.7v.09h-.16a.16.16 0 00-.15-.1.15.15 0 00-.16.15c0 .07.05.12.11.14V8h-.1v.25h.1v.22a.15.15 0 00-.11.14c0 .07.05.12.11.14V9h.11v-.23a.15.15 0 00.1-.09h.16v.09h.27v-.09h.14l-.21.24h-.09l-.17.19.05.08-.18.2h-.07a.75.75 0 01-.06-.23h-.11c0 .1.03.18.07.27a.14.14 0 000 .1c0 .04.02.08.05.11h.1a1 1 0 00.21.18l.05-.09a.84.84 0 01-.17-.15.14.14 0 000-.09v-.08l.18-.2h.09l.17-.19L6.95 9l.21-.23v.41h-.1v.25h.1v.3a.15.15 0 00-.09.08.87.87 0 01-.22-.06l-.05.09a1 1 0 00.26.07c.01.07.07.12.14.12l.01.09zm-.32-1L6.81 9l-.11.12.08.07.11-.12-.09.1h-.06l.09-.1.07.05h-.01zm-.54-1h-.1v.16h.11v-.16.14h-.08v-.13h.08l-.01-.01zm.5.62v-.09h-.17v.1-.07h.14v.08l.03-.02zm-.58.53h-.09V9h.08v.14-.15h-.11v.25h.11l.01.03zm.08-.3h.1v.25h-.1v-.29.29h.11v-.23h-.11v-.02zm.59.92v-.1a.77.77 0 01-.23-.11l-.08.07a.9.9 0 01.01.01l.07-.06a.7.7 0 00.23.11v.09-.01zm0 .08l-.07.07a1 1 0 01-.22-.11v-.1a1 1 0 01.01.01v.11a1 1 0 00.23.12l.08-.08-.03-.02z"/><path fill="#C8B100" d="M7.34 8.62l.23-.26h.09l.17-.18-.05-.08.29-.33V8H8v.24h.1v.22a.14.14 0 00-.09.09H7.8v-.09h-.26v.09l-.2.07zm.38-1v.09h-.15v-.09h.15zm.4 1.11a.06.06 0 11.06-.06c0 .03-.03.05-.06.05v.01zm-.87-.53h.1v-.24h-.1v-.1a.15.15 0 00.1-.09h.15v.09h.26v-.09H8l-.29.32h-.09l-.17.19.05.08-.23.25-.02-.41zm.39-.08l.07.06-.1.11-.07-.06.1-.11zm-.44 2c.07 0 .12-.05.14-.11a1 1 0 00.26-.07v-.08a.88.88 0 01-.22.06.14.14 0 00-.09-.08V9.5h.1v-.24h-.1v-.42l.22.24-.05.08.17.19h.09l.18.2a.13.13 0 000 .16.85.85 0 01-.18.15v.08a1 1 0 00.21-.18c.04.02.1.02.14 0a.13.13 0 000-.2.87.87 0 00.07-.27h-.09a.6.6 0 01-.06.23h-.08l-.18-.2.05-.08-.17-.19h-.09l-.22-.24h.15v.09h.26v-.09H8a.2.2 0 00.09.09V9h.09v-.22c.06-.02.1-.07.1-.13a.14.14 0 00-.1-.14V8.3h.1V8h-.1v-.22c.06-.02.1-.07.1-.13a.14.14 0 00-.15-.14.15.15 0 00-.14.1h-.17v-.09h-.26v.09h-.15a.15.15 0 00-.14-.1v1.95l-.07.66zm.32-1L7.6 9l.1.11-.07.06-.11-.05zm.54-1h.09v.14h-.09v-.14zm-.5.62v-.09h.16v.09h-.16zm.58.53h.1V9h-.1v.14l.01.09-.01.04zm-.08-.3L8 9v.24h.1v-.15l-.04-.12zm-.59.92V9.8a.78.78 0 00.23-.11l.07.06a.9.9 0 01-.29.1l-.01.04zm0 .08l.07.07a1 1 0 00.22-.11v-.1a1 1 0 01-.27.14h-.02z"/><path fill="#C8B100" d="M7.34 8.62l.23-.25h.09l.17-.19-.05-.08.28-.32V8H8v.25h.1v.22a.15.15 0 00-.1.1h-.16v-.09h-.27v.09-.09h.25v.09H8a.14.14 0 01.09-.09V8.3h-.1V8h.1v-.23l-.3.33.05.08-.16.18h-.09l-.24.27-.01-.01zm.38-1v.08h-.14v-.07.1h.16v-.1l-.02-.01zm.4 1.11a.06.06 0 110-.11.06.06 0 010 .11.07.07 0 100-.14.07.07 0 000 .14zm-.87-.53h.1v-.25h-.1v-.1a.15.15 0 00.1-.1h.13v.09h.27v-.09H8L7.7 8h-.09l-.17.19.05.08-.22.25v-.34.34l.23-.26-.05-.08.16-.18h.09l.3-.33h-.2v.09h-.25v-.09h-.16a.14.14 0 01-.09.09v.12h.1v.23h-.1l-.05.09zm.39-.08l.06.05-.09.1h-.06l.09-.1-.1.11.08.07.11-.12-.08-.07-.01-.04zm-.44 2c.07 0 .13-.05.14-.12a1 1 0 00.26-.07l-.05-.09a.87.87 0 01-.22.06.15.15 0 00-.09-.08v-.3h.1v-.25h-.1V8.8l.21.23-.05.08.17.19h.09l.18.2v.08a.14.14 0 000 .09c-.05.06-.1.1-.17.15l.05.09a1 1 0 00.21-.18h.1a.14.14 0 00.05-.11.14.14 0 000-.1.87.87 0 00.07-.27h-.11a.6.6 0 01-.06.23h-.07l-.18-.2.05-.08-.17-.19h-.09l-.21-.24h.14v.09h.27v-.09H8c.02.04.05.08.1.09V9h.11v-.23c.06-.02.1-.07.11-.14a.15.15 0 00-.11-.14v-.22h.1V8h-.1v-.22c.06-.02.1-.07.11-.14a.15.15 0 00-.16-.15.16.16 0 00-.15.1h-.16V7.5h-.27v.09h-.13a.15.15 0 00-.15-.1v2.63-2.57c.06 0 .1.04.13.09h.16v-.09h.25v.09H8c.02-.06.08-.1.14-.09.07 0 .13.06.14.13 0 .06-.04.12-.1.13V8h.1v.23h-.1v.23c.06.02.1.07.1.13s-.04.11-.1.13V9H8.1v-.22A.14.14 0 018 8.7h-.2v.09h-.25V8.7h-.16l.22.25h.09l.16.18-.05.08.19.21a.77.77 0 00.06-.23h.08c0 .1-.03.18-.07.27v.19a.14.14 0 01-.09 0h-.05a1 1 0 01-.2.17v-.08c.07-.04.13-.1.18-.15v-.15l-.19-.21h-.09l-.16-.18.05-.08-.22-.25v.43h.1v.23h-.1v.32c.03.01.06.04.08.07a.88.88 0 00.22-.06v.08a1 1 0 01-.26.07.14.14 0 01-.13.1l-.01.16zm.32-1L7.6 9l.09.1h-.06L7.54 9l.1.11.08-.07L7.6 9l-.08.07v.05zm.54-1h.08v.13h-.08v-.14.15h.11V8.1h-.1l-.01.02zm-.5.62v-.08h.14v.07-.1h-.17v.1l.03.01zm.58.53h.1V9h-.11v.14-.13h.08v.23h-.09l.02.03zm-.08-.3h-.1v.25h.11v-.3.29h-.1V9.1L8 9h.1l-.04-.03zm-.59.92V9.8a.79.79 0 00.23-.11l.07.06a.91.91 0 00.01-.01l-.08-.07a.77.77 0 01-.23.11v.11zm0 .08l.07.07a1 1 0 00.23-.12v-.11a1 1 0 00.01-.01v.1a1 1 0 01-.22.11l-.07-.07-.02.03z"/><path fill="#058E6E" d="M7.06 8.66a.15.15 0 11.3-.02.15.15 0 01-.3.02"/><path fill="#AD1519" d="M3.12 4.23h2.73v3.03H3.12z"/><path fill="#000" d="M3.12 7.26v.02h2.74V4.21H3.1v3.07h.02v-.02h.01V4.24h2.71v3.01H3.12v.01h.01z"/><path fill="#C8B100" d="M4.06 4.93H4v-.05h-.09v.2H4v.14h-.19v.4h.1v.81h-.2v.42h1.55v-.42h-.2v-.81h.1v-.4H5v-.14h.09v-.2H5v.05h-.05v-.05h-.09v.05H4.8v-.05h-.09v.2h.09v.14h-.19v-.44h.1v-.2h-.1v.05h-.05v-.05h-.09v.05H4.4v-.05h-.1v.2h.1v.44h-.19v-.14h.09v-.2h-.09v.05h-.05v-.05h-.1v.05zm-.34 1.91h1.55-1.55zm0-.1h1.55-1.55zm0-.1h1.55-1.55zm0-.1h1.55-1.55zm0-.11h1.55-1.55zm.2-.09h1.15-1.15zm0-.1h1.15-1.15zm0-.11h1.15-1.15zm0-.13h1.15-1.15zm0-.1h1.15-1.15zm0-.1h1.15-1.15zm0-.1h1.15-1.15zm-.1-.1h1.35-1.35zm0-.1h1.35-1.35zm0-.1h1.35-1.35zm0-.1h1.35-1.35zM4 5.22h1-1zm.42-.1h.19-.19zM4.4 5h.19-.19zm0-.1h.19-.19zm0-.1h.19-.19zm-.1-.13h.39-.39zm-.29.43h.2-.2zM3.92 5h.38-.38zm0 1.85v-.1.1zm0-.2v-.1.1zm-.1 0v.1-.1zm.19.1v-.1.1zm.1.1v-.1.1zm0-.2v-.1.1zm0-.21v-.09.09zm0-.19v-.11.11zm-.1.31v-.11.11zm-.19 0v-.11.11zm.39-.11v.11-.11zm.09 0v-.09.09zm-.29-.19v.1-.1zm.2 0v.1-.1zm.19 0v.1-.1zm-.1 0v-.11.11zm.1-.21v.1-.1zm0-.2v.1-.1zm-.1-.1v.1-.1zm.1-.1v.1-.1zm-.19 0v.1-.1zm-.2 0v.1-.1zm-.09-.1v.1-.1zm.19 0v.1-.1zm.19 0v.1-.1zm.1-.1v.1-.1zm-.19 0v.1-.1zm-.2 0v.1-.1zm-.09-.1v.1-.1zm.38 0v.1-.1zm-.19-.2v.1-.1zm.87 0h-.2.2zm.09-.13h-.38.38zm0 1.85v-.1.1zm0-.2v-.1.1zm.1 0v.1-.1zm-.19.1v-.1.1zm-.1.1v-.1.1zm0-.2v-.1.1zm0-.21v-.09.09zm0-.19v-.11.11zm.1.31v-.11.11zm.19 0v-.11.11zm-.39-.11v.11-.11zm-.09 0v-.09.09zm.29-.19v.1-.1zm-.2 0v.1-.1zm-.19 0v.1-.1zm.1 0v-.11.11zm-.1-.21v.1-.1zm0-.2v.1-.1zm.1-.1v.1-.1zm-.1-.1v.1-.1zm.19 0v.1-.1zm.2 0v.1-.1zm.09-.1v.1-.1zm-.19 0v.1-.1zm-.19 0v.1-.1zm-.1-.1v.1-.1zm.19 0v.1-.1zm.2 0v.1-.1zm.09-.1v.1-.1zm-.38 0v.1-.1zm.19-.2v.1-.1zm-.39 1.1v-.11.11zm0-.41v-.1.1zm0 .2v-.1.1zm0-.4v-.1.1zm0-.2v-.1.1zm0-.3V5v.16zm0-.26v-.1.1zm-.48.16h.2-.2zm.39-.3h.19-.19zm.38.3H5h-.22z"/><path fill="#000" d="M4.06 4.93H3.9v.23H4v.11h-.2v.43h.1v.78h-.2v.44h1.57v-.44h-.2V5.7h.1v-.43H5v-.11h.09v-.23H5v.05h-.11v.05h-.11v.23h.09v.11H4.6v-.42h.1v-.23h-.13v.05h-.11v.05h-.13v.23h.1v.42h-.16v-.11h.09v-.23h-.11v.05H4v.06h.16v-.05h.06v.18h-.09v.16h.21v-.47h-.1v-.18h.16v-.05h.14v-.05h.08v.18h-.1v.47h.21v-.16H4.7v-.18h.15v-.05H5v-.05.34h.19v.38H5v.83h.2v.39H3.73v-.39h.2v-.83h-.1v-.38H4v-.16h-.09v-.18h.15v-.06zm-.34 1.93h1.55-1.55zm0-.1h1.55-1.55zm0-.1h1.55-1.55zm0-.1h1.55-1.55zm0-.11h1.55-1.55zm.2-.09h1.15-1.15zm0-.1h1.15-1.15zm0-.11h1.15-1.15zm0-.1h1.15-1.15zm0-.1h1.15-1.15zm0-.1h1.15-1.15zm0-.1h1.15-1.15zm-.1-.1h1.35-1.35zm0-.1h1.35-1.35zm0-.1h1.35-1.35zm0-.1h1.35-1.35zm.19-.1h1H4h.01zm.39-.1h.19-.19zm0-.1h.19-.19zm0-.1h.19-.19zm0-.1h.19-.19zm-.1-.13h.39-.39zm-.29.43h.2H4h.01zM3.92 5h.38-.38zm0 1.84v-.1.1zm0-.2v-.1.1zm-.13 0v.1-.1zm.21.1v-.1.1zm.1.1v-.1.1zm0-.2v-.1.1zm0-.21v-.09.09zm0-.19v-.11.11zm-.1.3v-.11.11zm-.19 0v-.11.11zm.36-.11v.11-.11zm.11 0v-.09.09zM4 6.24v.1-.1zm.2 0v.1-.1zm.19 0v.1-.1zm-.08 0v-.11.11zm.08-.21v.1V6v.03zm0-.2v.1-.1zm-.1-.1v.1-.1zm.1-.1v.1-.1zm-.19 0v.1-.1zm-.2 0v.1-.1zm-.09-.1v.1-.1zm.19 0v.1-.1zm.19 0v.1-.1zm.1-.1v.1-.1zm-.19 0v.1-.1zm-.2 0v.1-.1zm-.09-.1v.1-.1zm.38 0v.1-.1zm-.19-.2v.1-.1zm.88 0h-.2H5h-.02zM5.07 5h-.38.38zm0 1.86v-.1.1zm0-.2v-.1.1zm.08 0v.1-.1zm-.16.1v-.1.1zm-.1.1v-.1.1zm0-.2v-.1.1zm0-.21v-.09.09zm0-.19v-.11.11zm.1.3v-.11.11zm.19 0v-.11.11zm-.42-.11v.11-.11zm-.06 0v-.09.09zm.26-.19v.1-.1zm-.2 0v.1-.1zm-.19 0v.1-.1zm.13 0v-.11.11zM4.57 6v.1V6zm0-.2v.1-.1zm.1-.1v.1-.1zm-.1-.1v.1-.1zm.19 0v.1-.1zm.2 0v.1-.1zm.09-.1v.1-.1zm-.19 0v.1-.1zm-.19 0v.1-.1zm-.1-.1v.1-.1zm.19 0v.1-.1zm.2 0v.1-.1zm.09-.1v.1-.1zm-.38 0v.1-.1zm.19-.2v.1-.1zM4.5 6.22v-.11.11zm0-.41v-.1.1zm0 .2v-.1.1zm0-.4v-.1.1zm0-.2v-.1.1zm0-.3V5v.11zm0-.2v-.1.1zm-.49.18h.2H4h.01zm.39-.3h.19-.19zm.38.3H5h-.22z"/><path fill="#C8B100" d="M4.75 6.84v-.26c0-.05 0-.2-.26-.2s-.25.15-.25.2v.26h.51z"/><path fill="#000" d="M4.75 6.84v-.26a.21.21 0 000-.13.28.28 0 00-.23-.09.26.26 0 00-.22.09.21.21 0 000 .13v.28-.25a.19.19 0 010-.11.24.24 0 01.2-.08c.08 0 .16.02.21.08v.37l.04-.03z"/><path fill="#C8B100" d="M4.32 6.59h-.13c0-.05 0-.13.05-.15l.11.09a.14.14 0 00-.03.06z"/><path fill="#000" d="M4.32 6.59h-.11v-.08a.1.1 0 010-.06l.11.09-.13-.1v.16h.15l-.02-.01z"/><path fill="#C8B100" d="M4.53 6.46l.06-.11h-.21l.06.11z"/><path fill="#000" d="M4.53 6.46l.07-.12h-.23l.07.13-.06-.11h.21l-.06.11z"/><path fill="#C8B100" d="M4.66 6.59h.13c0-.05 0-.13-.05-.15l-.11.09.03.06z"/><path fill="#000" d="M4.66 6.59h.14v-.16l-.13.1.11-.09a.1.1 0 010 .06v.08h-.11l-.01.01z"/><path fill="#C8B100" d="M4.29 6.15v-.28a.14.14 0 00-.28 0v.28h.28z"/><path fill="#000" d="M4.29 6.15v-.28a.15.15 0 000-.11.16.16 0 00-.22 0 .15.15 0 000 .11v.29-.26a.13.13 0 010-.09.14.14 0 01.19 0v.37l.03-.03z"/><path fill="#C8B100" d="M4.68 6.15v-.28a.14.14 0 01.28 0v.28h-.28z"/><path fill="#000" d="M4.68 6.15v-.28a.13.13 0 010-.09.14.14 0 01.19 0v.35-.29a.15.15 0 000-.11.16.16 0 00-.22 0 .15.15 0 000 .11v.29l.03.02z"/><path fill="#C8B100" d="M4.21 5.47l.01-.25h-.24l.03.25z"/><path fill="#000" d="M4.21 5.47h.01l.01-.26h-.26l.02.27h.23v-.01h-.01v-.01h-.19l-.03-.23h.22l-.02.24h.02v-.01z"/><path fill="#C8B100" d="M4.58 5.47l.03-.25h-.24l.01.25z"/><path fill="#000" d="M4.58 5.47h.02l.02-.26h-.26l.01.27h.23v-.01h-.02v-.01h-.19l-.01-.23h.22l-.03.24h.01v-.01z"/><path fill="#C8B100" d="M4.77 5.47l-.02-.25H5l-.03.25z"/><path fill="#000" d="M4.77 5.47h.02l-.03-.24h.22l-.02.23h-.19v.01h.02-.02v.01h.22l.02-.27h-.28l.03.27h.01z"/><path fill="#0039F0" d="M4.66 6.84v-.23a.16.16 0 00-.18-.15.15.15 0 00-.16.15v.23h.34zm-.39-.72v-.24a.11.11 0 10-.23 0v.24h.23zm.44 0v-.24a.11.11 0 11.23 0v.24h-.23z"/><path fill="#CCC" d="M5.85 4.23h2.74v3.03H5.85z"/><path fill="#000" d="M5.85 7.26v.02H8.6V4.21H5.84v3.07h.01v-.02h.01V4.24h2.71v3.01H5.85v.01h.01z"/><path fill="#DB4446" d="M7.25 5v-.05h-.13a.34.34 0 01-.13-.07s-.06-.06-.09-.06a.21.21 0 00-.13 0c.04.01.07.04.1.07.03.05.08.09.13.11h.28-.03z"/><path fill="#000" d="M7.25 5v-.05h-.14a.33.33 0 01-.13-.07h-.15c.03.01.06.03.08.06L7 5a.26.26 0 01-.1-.08.26.26 0 00-.1-.07.2.2 0 01.09 0c.04.03.08.06.13.07h.13l.1.08z"/><path fill="#ED72AA" d="M7.66 4.85v.22a.2.2 0 010 .05v.13l.06.07v.08h-.07v.11h-.06v.24-.05h-.06v.06c.01.1.05.18.1.26.05.07.13.21.3.16.17-.05.11-.27.07-.38a1 1 0 01-.05-.27v-.18a.46.46 0 010-.18A1 1 0 018 5.04v-.07a.7.7 0 000-.07v.16a.1.1 0 01.05-.09l.12-.08v.15l-.1.11h.07a.42.42 0 00-.08.09c0 .06 0 .07-.06.12l-.1.09c-.04.04 0 .24 0 .26A2.45 2.45 0 018 6c-.06.05-.17.05-.19.07a.18.18 0 00-.07.16c0 .05.01.1.06.14h.07s0 .07-.07.1v.27h-.1v-.05h.14a.08.08 0 000-.08h-.05v-.05.07c0 .02 0 0 0 0h-.06a.21.21 0 01-.05-.06v-.23h-.17a.25.25 0 000 .16v.12h-.25V6.5h.08v.08a.1.1 0 00.11 0h.07v-.27.11a.09.09 0 010-.08v-.11c0-.02 0-.09.11-.09h.26l-.2-.11a.54.54 0 01-.11-.12v-.09h-.06l-.07.05v-.01c0-.02 0 0 0 0a.2.2 0 01-.05.1l-.08.06v-.1h-.17v.02c0-.06 0 0 0 0h.07c.01 0 0 0 0 0l.05.05h.12l.08-.05.09-.06H7.5l-.06-.06h-.32.14-.06v-.06h-.06v-.05h.08s-.05 0 0 0c0 0 0 .07.06.06.06-.01 0 0 0-.06h.11v.06a.09.09 0 000 .08c.01.03.03.06.06.08h.1l.12.08h.21s.07 0 .06-.06c-.01-.06-.08-.05-.07-.07.01-.02 0 0 .07 0s.1 0 .11-.05v-.1c0-.01-.1 0-.11-.06v-.06h.27l.15.09.13.12"/><path fill="#000" d="M7.65 4.85v.35l.06.07v.13h-.06v.2-.06.06c.02.1.05.18.11.26l.09.11c.04.04.1.06.16.06h.07c.04 0 .08-.03.1-.07v-.11a.7.7 0 000-.21 1 1 0 01-.05-.25v-.35a1 1 0 01.05-.13v-.08a.7.7 0 000-.08v-.08h.07v.14l-.06.07h.1a.42.42 0 00-.08.09v.07a.2.2 0 010 .05h-.05a.1.1 0 000 .06v.27l.06.14v.11A.26.26 0 018 6h-.2a.19.19 0 00-.08.17v.39h-.06v.05h-.08.14v-.06.18a.2.2 0 01-.05-.05v-.19h-.16v.23h-.7.25v-.24s0-.09.1-.09h.26-.09l-.11-.06a.54.54 0 01-.11-.11v-.05h-.06l-.07.06v-.01c0-.02 0 0 0 0v.08l-.08.06v-.05h-.15v.05h-.09.08-.06.18-.26.12V6.3h-.08.19v.05a.1.1 0 000 .06c.02.04.04.07.07.09h.62v-.1h-.07.25l.1.07.09.08a.84.84 0 00-.13-.12l-.15-.09h-.23v.06h.08-.53a.21.21 0 01-.06-.08v-.06h-.21.1v.05h-.08.24-.11.17v-.05h.1c.03 0 .05-.03.07-.05v.13l.08-.06a.21.21 0 00.06-.1v.07l.06-.05v.09c.03.05.07.09.12.12l.11.06h.09-.26c-.08 0-.11.08-.12.1v.05a.1.1 0 000 .07v-.11.05a.4.4 0 000 .05v.06h-.36v.06a.07.07 0 000 .07h.08H7h.29v-.23h.14v.21l.06.06v-.2.05h-.13.07V6.6h-.06v-.09c0-.06.02-.12.07-.15A.38.38 0 008 6c.06-.06.1-.14.09-.23V5.7L8 5.52v-.31h.05V5.1a.2.2 0 010-.06l.05-.07h-.15l.1-.11v-.15h-.07a.14.14 0 00-.06.1v-.13.07a1 1 0 00-.05.13v.11a.5.5 0 000 .08v.18a1 1 0 00.05.26v.2a.2.2 0 010 .1.12.12 0 01-.08.06H7.8a.2.2 0 01-.14-.06.61.61 0 01-.09-.11.57.57 0 01-.1-.25V5.2a.3.3 0 000-.09v-.06h.07v-.07a.34.34 0 00-.06-.08v-.35l.17.3z"/><path fill="#000" d="M6.87 5.19H6.8v.06h.22v.17h.15l.05-.06v.11h.05v-.06.13-.14h-.15v-.15h-.27V5.2l.02-.01zm0 .32H7h-.13zm.22.16h.08a.24.24 0 00.07-.06l-.06.05-.09.01zm.28.33h.06v.05a.14.14 0 00-.06-.09h-.06l.06.04zm-.28-1.19h-.05zm.22-.07h.06v.06l-.06-.06z"/><path fill="#000" d="M7.31 4.74h.06v.06a.15.15 0 00-.05-.06H7.3h.01zm-.22.28l.02-.03.02.03h-.04"/><path fill="#000" d="M7.1 5.03l.01-.02v.01h-.02v.01h.05l-.02-.04-.01-.01-.02.04.01.01z"/><path fill="#000" d="M7.13 5.02l.03-.03.02.03h-.05"/><path fill="#000" d="M7.14 5.03l.02-.02-.03.01v.01h.07l-.04-.04v-.01l-.03.04.01.01zm-.02-.19l.04.02-.04.02v-.04"/><path fill="#000" d="M7.11 4.85l.03.01-.01.01-.01-.03h-.01v.05l.07-.03-.06-.02-.01.01z"/><path fill="#000" d="M7.17 4.86l.04.01-.03.02-.01-.03"/><path fill="#000" d="M7.17 4.87h.02l-.01.01v-.02h-.02l.01.03v.02l.05-.04-.05-.02v.02z"/><path fill="#DB4446" d="M6.48 4.8a.1.1 0 00-.07-.08v.06l.07.02z"/><path fill="#000" d="M6.48 4.8h.11v-.12.05h-.08l-.03.07z"/><path fill="#DB4446" d="M6.36 4.86a.08.08 0 00-.07 0h-.08.15z"/><path fill="#000" d="M6.36 4.86h-.15.09-.06.12z"/><path fill="#DB4446" d="M6.3 5a.09.09 0 00-.08.11h.11c0-.04 0-.08-.03-.11z"/><path fill="#000" d="M6.3 5h-.07v.08h.08V5v.09h-.05a.1.1 0 010-.06L6.3 5z"/><path fill="#DB4446" d="M6.44 5.58h-.06a.12.12 0 00-.07.05h.05l.08-.05z"/><path fill="#000" d="M6.44 5.58h-.06a.13.13 0 00-.07.06h.12a.1.1 0 01.06 0h.06l-.11-.06z"/><path fill="#DB4446" d="M6.39 5.74h-.06a.1.1 0 000 .07c.03 0 .06-.04.06-.07z"/><path fill="#000" d="M6.39 5.74a.1.1 0 00-.06 0 .11.11 0 000 .08h.06-.05v-.05l.05-.03z"/><path fill="#DB4446" d="M6.47 5.89v.07a.1.1 0 00.06 0l-.06-.07z"/><path fill="#000" d="M6.47 5.89v.07h.07V5.9a.1.1 0 010-.06l-.07.05z"/><path fill="#DB4446" d="M6.87 6.28h-.15.15z"/><path fill="#000" d="M6.87 6.28a.1.1 0 00-.07 0h-.09.08-.06.14z"/><path fill="#DB4446" d="M6.75 6.43a.1.1 0 00-.08 0v.07h.12v-.08l-.04.01z"/><path fill="#000" d="M6.75 6.43h-.07v.08h.08v-.06H6.7v-.06h.05v.04z"/><path fill="#DB4446" d="M6.86 6.59v.06h.06l-.06-.06z"/><path fill="#000" d="M6.86 6.59h.06-.11.08-.03z"/><path fill="#DB4446" d="M7.54 6.66h-.07v.08h.12l-.05-.08z"/><path fill="#000" d="M7.54 6.66h-.07v.07h.12-.05.06z"/><path fill="#DB4446" d="M7.56 6.82v.06h.06l-.06-.06z"/><path fill="#000" d="M7.56 6.82a.1.1 0 000 .06v.06h.08-.06l-.02-.12z"/><path fill="#DB4446" d="M7.73 6.87a.06.06 0 000 .07h.06v-.07h-.06z"/><path fill="#000" d="M7.73 6.87v.05h.07v.06h-.05l-.02-.11z"/><path fill="#C8B100" d="M7.62 4.62v-.07.13c.12.04.22.12.29.22h.07l-.36-.28z"/><path fill="#000" d="M7.62 4.62h-.17v-.06.06a.6.6 0 01.28.22h.09-.23.06-.07a.63.63 0 00-.29-.22V4.5h.13l.2.12z"/><circle cx="8.19" cy="4.55" r="1" fill="#000" transform="rotate(-54.1 8.2 4.55)"/><path fill="#000" d="M7.5 4.66h.01l.01.01h-.01l-.01-.01v.01h.02v-.02H7.5v.01zm.05.04l-.01-.01-.01-.01h.01l.02.01.02.02h-.01l-.02-.01"/><path fill="#000" d="M7.55 4.7l-.01-.01v-.01l.02.01.02.02h-.01l-.02-.01.02.01h.01V4.7l-.02-.01-.02-.01h-.01v.01l.02.01zm-.09-.07h-.01l-.01-.01h.01l.01.01h.02v.01h-.01l-.01-.01"/><path fill="#000" d="M7.46 4.63h-.01l-.01-.01h.01l.01.01h.02v.01h-.01l-.01-.01v.01h.02v-.01l-.02-.01h-.02v.01l.02.01v-.01z"/><circle cx="8.08" cy="4.4" r="1" fill="#000" transform="rotate(-53.13 8.08 4.4)"/><path fill="#000" d="M7.4 4.6h.01l.01.01h-.01L7.4 4.6v.01h.02V4.6H7.4z"/><circle cx="8.29" cy="4.63" r="1" fill="#000" transform="rotate(-54.1 8.3 4.63)"/><path fill="#000" d="M7.61 4.74v-.01h-.02l.01.01h.01-.01v-.01h.01v.01zm.03.04l.01.01h.01v-.01l-.01-.01-.01-.01h-.01l.01.02"/><path fill="#000" d="M7.64 4.78l.01.01h.01v-.01l-.01-.01-.01-.01-.01-.01v.02l.01.01-.01-.02h.01l.01.01.01.01v.01h-.01l-.01-.01z"/><circle cx="8.38" cy="4.74" r="1" fill="#000" transform="rotate(-51.86 8.38 4.74)"/><path fill="#000" d="M7.69 4.82h.01l-.01-.01h-.01v.01h.02-.02v-.01h.01v.01z"/><path fill="#C8B100" d="M7.54 4.49h-.03v.06h.01l.04-.03-.02-.03"/><path fill="#000" d="M7.54 4.48h-.03l-.01.06v.01h.02l.04-.03h.01l-.02-.03h-.01l.01.03-.03.02h-.01l.01-.04h.02v-.02z"/><path fill="#C8B100" d="M7.54 4.49h-.03v.06h.01l.04-.03-.02-.03"/><path fill="#000" d="M7.54 4.48h-.03l-.01.06v.01h.02l.04-.03h.01l-.02-.03h-.01l.01.03-.03.02h-.01l.01-.04h.02v-.02z"/><path fill="#C8B100" d="M7.46 4.52v.03h.05v-.01l-.03-.04-.02.02"/><path fill="#000" d="M7.45 4.52v.03l.06.01h.01v-.02l-.03-.04v-.01l-.04.02.01.01.02-.01.03.03v.01l-.05-.01v-.02h-.01z"/><path fill="#C8B100" d="M7.56 4.58l-.03.01-.03-.04v-.01h.01l.05.01v.03"/><path fill="#000" d="M7.56 4.57l-.02.01-.03-.03h.04v.03h.02v-.04l-.06-.01-.01.01v.01l.03.05.03-.02v-.01z"/><circle cx="8.18" cy="4.36" r="1" fill="#C8B100" transform="rotate(-60.24 8.18 4.36)"/><path fill="#C8B100" d="M7.43 4.51l-.02.02-.04-.04h.01v-.01h.05v.03"/><path fill="#000" d="M7.43 4.5l-.02.02-.03-.03h-.01l.01.01v-.01h.04l.01.02h.01v-.04h-.06l-.01.01v.02l.04.04.03-.03-.01-.01z"/><circle cx="8.01" cy="4.09" r="1" fill="#C8B100" transform="rotate(-71.38 8 4.09)"/><path fill="#C8B100" d="M7.67 4.57l-.04-.01-.01.05v.01h.01l.05-.02-.01-.03"/><path fill="#000" d="M7.67 4.56h-.04l-.01.05h-.01l.01.01v.01h.01l.05-.03h.01l-.02-.03h-.01l.01.02-.04.02.01-.04h.03v-.01z"/><path fill="#C8B100" d="M7.58 4.58l-.01.03.05.01h.01v-.01l-.02-.04-.03.01"/><path fill="#000" d="M7.57 4.58l-.01.03v.01l.06.01h.01l.01-.01v-.01l-.03-.04v-.01l-.04.02.01.01.02-.01.02.04-.04-.01v-.03h-.01z"/><path fill="#C8B100" d="M7.67 4.65l-.03.01-.02-.04.01-.01.05.02-.01.02"/><path fill="#000" d="M7.67 4.65l-.03.01-.01-.04.04.01-.01.02.02.01v-.04l-.05-.01h-.02v.02l.03.04.03-.01v-.01z"/><circle cx="8.3" cy="4.53" r="1" fill="#C8B100" transform="rotate(-52.95 8.3 4.53)"/><path fill="#C8B100" d="M7.78 4.67v.03l-.05.01h-.01l.02-.05.04.01"/><path fill="#000" d="M7.77 4.67v.02l-.04.02.02-.04.02.01.01-.02-.04-.01-.02.05v.02h.01l.05-.01.01-.01-.01-.03h-.01z"/><path fill="#C8B100" d="M7.77 4.76h-.03l-.02-.04v-.01h.01l.05.02-.01.03"/><path fill="#000" d="M7.77 4.75h-.03l-.01-.03v-.01l.04.02-.01.02.01.01.01-.03.01-.01-.06-.02h-.01l-.01.01v.01l.02.04v.01l.04-.01v-.01z"/><path fill="#C8B100" d="M7.68 4.67l-.01.03.05.02h.01v-.01l-.02-.05-.03.01"/><path fill="#000" d="M7.68 4.67l-.01.03h-.01l.06.02h.01l.01-.01-.02-.05h-.04l.01.02.02-.01.01.04-.04-.01.01-.03h-.01z"/><circle cx="8.4" cy="4.73" r="1" fill="#C8B100" transform="rotate(-43.57 8.4 4.73)"/><path fill="#C8B100" d="M7.81 4.82h.07-.07z"/><path fill="#000" d="M7.81 4.82h.08z"/><path fill="#C8B100" d="M7.78 4.77l-.01.03.04.03v-.01h.01l-.01-.05h-.03"/><path fill="#000" d="M7.78 4.77l-.02.02v.01l.05.04v-.01h.01l.01-.01-.01-.05v-.01l-.04.01v.01h.03v.04l-.03-.02.01-.02-.01-.01z"/><circle cx="8.48" cy="4.97" r="1" fill="#C8B100" transform="rotate(-32.46 8.48 4.97)"/><circle cx="5.86" cy="7.25" fill="#AD1519" r="1"/><path fill="#000" d="M5.86 6.25a.8.8 0 01.61.29c.34.4.34.99 0 1.39a.8.8 0 01-1.23 0c-.34-.4-.34-.99 0-1.39a.82.82 0 01.61-.29.85.85 0 00-.64.3 1.1 1.1 0 000 1.43.83.83 0 001.28 0 1.1 1.1 0 000-1.43.85.85 0 00-.64-.3h.01z"/><circle cx="5.86" cy="7.25" fill="#005BBF" r="1"/><path fill="#000" d="M5.86 6.52c.17 0 .33.08.43.21.23.3.23.7 0 1a.54.54 0 01-.86 0 .81.81 0 010-1c.1-.13.26-.2.43-.21a.6.6 0 00-.45.22.84.84 0 000 1.05.58.58 0 00.91 0 .84.84 0 000-1.05.6.6 0 00-.45-.22h-.01z"/><path fill="#C8B100" d="M5.56 6.74a.29.29 0 00-.07.16v.14a.08.08 0 00-.08-.05.08.08 0 00-.08.08v.05h.05c.03 0 .06.03.06.06h-.07v.06h.06v.09h.12v-.09h.06V7.2h-.07c0-.03.03-.06.06-.06h.05v-.05a.08.08 0 00-.08-.08.08.08 0 00-.08.05v-.14a.29.29 0 00.07-.18z"/><path fill="#000" d="M5.56 6.74a.3.3 0 00-.08.16v.14a.09.09 0 00-.09-.06.09.09 0 00-.09.09v.05h-.07v.06h.05v.07h.1v-.07h.05v.02h-.07v-.05a.09.09 0 00-.09-.09.09.09 0 00-.09.06v-.14a.29.29 0 00-.08-.16c.03.04.06.09.06.14v.09a.07.07 0 01.07 0 .07.07 0 01.07.07v.05a.06.06 0 00-.06 0 .07.07 0 00-.07.06h.07-.06v.07-.07h-.06.07a.07.07 0 00-.07-.06.06.06 0 00-.06 0v-.05c0-.04.03-.07.07-.07a.07.07 0 01.07 0v-.22l.36-.09z"/><path fill="#C8B100" d="M5.45 7.2h.24v.1h-.24z"/><path fill="#000" d="M5.45 7.25v.01h.24v-.07h-.25v.07h.01v-.01h.01v-.04h.21v.04h-.22.01z"/><path fill="#C8B100" d="M6.14 6.74a.29.29 0 00-.07.16v.14A.08.08 0 006 7a.08.08 0 00-.08.08v.05h.05c.03 0 .06.03.06.06H6v.06h.06v.09h.12v-.09h.06V7.2h-.07c0-.03.03-.06.06-.06h.05v-.05a.08.08 0 00-.08-.08.08.08 0 00-.08.05v-.14a.29.29 0 00.02-.18z"/><path fill="#000" d="M6.14 6.74a.3.3 0 00-.08.16v.14A.09.09 0 006 7a.09.09 0 00-.09.09v.05H6v.06h.05v.07h.1V7.2h.05v-.05a.09.09 0 00-.09-.09.09.09 0 00-.09.06v-.14a.29.29 0 00-.08-.16c.03.04.06.09.06.14v.09a.07.07 0 01.07 0c.04 0 .07.03.07.07v.05a.06.06 0 00-.06 0 .07.07 0 00-.07.06h.07-.06v.07-.07H6h.07A.07.07 0 006 7.17a.06.06 0 00-.06 0v-.05A.07.07 0 016 7a.07.07 0 01.07 0v-.22l.07-.04z"/><path fill="#C8B100" d="M6.02 7.2h.24v.1h-.24z"/><path fill="#000" d="M6.03 7.25v.01h.24v-.07h-.25v.07h.01v-.05h.22v.04h-.22z"/><path fill="#C8B100" d="M5.85 7.24a.29.29 0 00-.07.16v.14a.08.08 0 00-.08-.05.08.08 0 00-.08.08v.05h.05c.03 0 .06.02.06.05h-.07v.06h.06v.09h.12v-.09H6V7.7h-.1c0-.03.03-.05.06-.05h.05V7.6a.08.08 0 00-.08-.08.08.08 0 00-.08.05v-.14a.29.29 0 000-.19z"/><path fill="#000" d="M5.85 7.24a.3.3 0 00-.08.16v.14a.09.09 0 00-.09-.06.09.09 0 00-.09.09v.05h-.07v.06h.05v.07h.1v-.07H6v.02h-.07v-.05a.09.09 0 00-.09-.09.09.09 0 00-.09.06v-.14a.29.29 0 00-.08-.16c.03.04.06.09.06.14v.09a.07.07 0 01.07 0c.04 0 .07.03.07.07v.05a.06.06 0 00-.06 0 .07.07 0 00-.07.06H6h-.1v.07-.07h-.06.07a.07.07 0 00-.07-.06.06.06 0 00-.06 0v-.05c0-.04.03-.07.07-.07a.07.07 0 01.07 0v-.22l-.07-.09z"/><path fill="#C8B100" d="M5.73 7.7h.24v.1h-.24z"/><path fill="#000" d="M5.73 7.75v.01h.25v-.07h-.25v.07-.01h.01v-.04h.22v.03h-.23v.01h.01z"/></g><path fill="#2C283A" d="M44 1a3 3 0 013 3v24a3 3 0 01-3 3H4a3 3 0 01-3-3V4a3 3 0 013-3h40zm0-1H4a4 4 0 00-4 4v24a4 4 0 004 4h40a4 4 0 004-4V4a4 4 0 00-4-4z" opacity=".08"/></g></svg>