<svg xmlns="http://www.w3.org/2000/svg" xmlns:xlink="http://www.w3.org/1999/xlink" viewBox="0 0 48 32"><defs><rect id="a" width="48" height="32" x="0" y="0" rx="4"/></defs><g fill="none" fill-rule="evenodd"><mask id="b" fill="#fff"><use xlink:href="#a"/></mask><use fill="#333" fill-rule="nonzero" xlink:href="#a"/><g fill="#2C283A" fill-rule="nonzero" mask="url(#b)" opacity=".08"><path d="M44 1a3 3 0 013 3v24a3 3 0 01-3 3H4a3 3 0 01-3-3V4a3 3 0 013-3h40zm0-1H4a4 4 0 00-4 4v24a4 4 0 004 4h40a4 4 0 004-4V4a4 4 0 00-4-4z"/></g><g fill="#FFF" mask="url(#b)"><path d="M10.12 20.26c-1.44 0-2.37.08-3.62-.42-1.09-.41-1.27-1.04-1.27-1.8v-4.9c0-.7.1-1.17.88-1.64.7-.42 1.82-.5 2.96-.5h6.48l.02 1.96H9.73c-.27 0-.47.07-.66.18a.44.44 0 00-.22.42v4.15c0 .19.1.32.35.44.3.15.65.1 1.06.1h5.4v2h-5.54zm14.46-6.85l-1.39 2.9H26l-1.41-2.9zm3.33 6.85l-.95-1.96h-4.69l-1.05 1.96h-3.57l4.3-8.02c.38-.72 1.32-1.24 2.63-1.24 1.24 0 2.2.44 2.57 1.12l4.4 8.14H27.9zm10.14-7.3c-.29 0-.47.08-.66.2-.19.11-.25.24-.25.4v.97h6.8v2.01H37.1v3.72h-3.56v-7.12c0-.69.13-1.22.91-1.7.68-.4 1.76-.43 2.94-.43l6.57-.01v1.95h-5.91z"/></g></g></svg>