<svg xmlns="http://www.w3.org/2000/svg" viewBox="0 0 48 32"><g fill="none"><rect width="48" height="32" fill="#FFDA00" rx="4"/><path fill="#233CCC" d="M4 0h12v32H4a4 4 0 01-4-4V4a4 4 0 014-4z"/><path fill="#FF1744" d="M32 0h12a4 4 0 014 4v24a4 4 0 01-4 4H32V0z"/><path fill="#C7B37F" d="M22.76 9.48c.49 0 .69.42 1.17.42.27 0 .52-.1.74-.25.15-.1.33-.16.51-.16.19-.02.37.08.46.25.07.13.1.27.09.42-.04.18-.1.35-.17.52a.6.6 0 00-.08.26c0 .26.35.35.59.35.28.01.55-.08.76-.26a.31.31 0 01-.31-.27c0-.16.11-.3.27-.33h.11c.03 0 0-.06.05-.09.06-.06.14-.1.23-.1.05-.02.1-.02.16 0h.4s0 .09.09.09l.22-.05c.12 0 .23.06.3.16 0 0 0 .09.06.09.09 0 .17.04.24.1l.07.08s0 .09.07.1h.11c.1.07.18.18.18.31v.13c-.12.42-.4.55-.69.9-.13.12-.2.3-.22.47.01.06.04.12.08.17 0-.09 0-.2.12-.21.13 0 .23.1.25.22v.11a.6.6 0 01.25-.09h.12a1 1 0 01.59.24c.34.3.5.77.42 1.22.04.55-.33 1.05-.87 1.17.15.05.25.18.26.33a.29.29 0 01-.5.2.76.76 0 00-.21.61c0 .13.03.26.09.37.05.13.13.24.23.33.04-.1.14-.16.25-.17.1-.01.2.05.25.14v.09c0 .03.05 0 .07.09.02.09 0 .11 0 .17 0 .06.06 0 .07.09v.17a.34.34 0 01-.36.33h-.15a1.12 1.12 0 01.45.94c0 .25-.05.5-.17.71-.1.22-.25.4-.44.54-.3.21-.64.35-1 .4-.23.05-.46.08-.69.09h-.89c-.4-.02-.8.14-1.09.42a.5.5 0 01.26.41.4.4 0 01-.3.39h-.11c-.04 0 0 .08-.09.11a.39.39 0 01-.24.06.51.51 0 01-.41-.16c-.14.12-.19.22-.34.31-.15.09-.08.07-.14.07-.06 0-.14-.06-.21-.11-.1-.07-.2-.16-.28-.26a.7.7 0 01-.39.15.41.41 0 01-.25-.07s-.05-.07-.1-.1-.09 0-.14 0a.46.46 0 01-.31-.43.4.4 0 01.28-.37 1.45 1.45 0 00-1.07-.4h-.88a6.21 6.21 0 01-1.21-.22 1.73 1.73 0 01-1.14-1.42v-.16c0-.33.15-.64.4-.85h-.18a.37.37 0 01-.28-.35.29.29 0 010-.16s.06 0 .07-.09v-.15c0-.05.05 0 .07-.08.02-.08.13-.21.26-.21.1 0 .2.06.24.15.11 0 .14-.13.2-.23.1-.14.15-.32.15-.49a1 1 0 00-.06-.35.49.49 0 00-.11-.23.28.28 0 01-.22.09.33.33 0 01-.32-.34.3.3 0 01.19-.29 2 2 0 00-.29-.16 1.1 1.1 0 01-.33-.38 1 1 0 01-.13-.3 1.19 1.19 0 01-.07-.49c.02-.27.12-.54.29-.75A1 1 0 0119 13h.12a.4.4 0 01.18.05s.07.05.07 0v-.08a.24.24 0 01.23-.25c.09 0 .13.08.18.17a.25.25 0 000-.14c0-.22-.12-.33-.25-.5-.29-.37-.66-.54-.66-1 0-.13.07-.25.19-.31h.12c.04 0 0-.06 0-.09a.42.42 0 01.1-.1c.07-.06.13 0 .2-.09s0-.06.07-.09c.06-.1.17-.15.29-.15h.22a.3.3 0 01.09-.07c.05-.01.1-.01.14 0h.24c.05-.04.1-.07.17-.07.06 0 .12.02.17.06.06 0 .07.09.13.12s.06 0 .1 0c.16.03.28.17.29.33a.3.3 0 01-.09.22c-.05 0-.11 0-.18.06a1 1 0 00.71.23c.27 0 .59-.11.59-.37s-.07-.19-.12-.3a1.18 1.18 0 01-.13-.54.62.62 0 01.12-.42c.1-.13.25-.2.41-.18l.06-.01z"/><path fill="#703D29" d="M21 10.89c.03.09.1.15.18.18h.06a.28.28 0 00.28-.29v-.11a.34.34 0 00-.12-.16l-.32.33.32-.33c.04.03.07.07.09.12v.09a.2.2 0 01-.2.2.18.18 0 01-.13-.12l-.16.09zm8.14 4.85a.23.23 0 00-.08-.1h-.1a.2.2 0 00-.12 0 .16.16 0 00-.06.1c0 .08.03.16.09.21.06.04.12.06.19.06h.09a.29.29 0 00.18-.14.34.34 0 000-.17v-.1a.35.35 0 00-.06-.12.36.36 0 00-.09-.09H29a.69.69 0 00-.51.28c-.14.17-.25.38-.3.6a2 2 0 000 .44 1.6 1.6 0 000 .33c.05.27.19.53.38.73a1.59 1.59 0 00.64.38h.26a.36.36 0 00.2-.11.31.31 0 00.08-.2.39.39 0 000-.18.35.35 0 00-.3-.19c-.1 0-.19.05-.23.14a.25.25 0 000 .12v.1c.01.03.03.06.06.08h.24a.18.18 0 00.05-.14.1.1 0 010 .08h-.14a.2.2 0 010-.07v-.07c.03-.06.1-.1.16-.1.1 0 .18.06.22.14a.3.3 0 010 .14.3.3 0 01-.05.15.28.28 0 01-.15.09h-.23A1.53 1.53 0 0129 18a1.54 1.54 0 01-.35-.25c-.18-.19-.3-.43-.36-.69v-.32a1.92 1.92 0 010-.42c.05-.2.14-.4.28-.57a.6.6 0 01.44-.25h.18l.07.07v.29a.21.21 0 01-.13.1h-.07a.23.23 0 01-.14 0 .17.17 0 01-.06-.14h.12v.07l.16-.15z"/><path fill="#703D29" d="M28.06 18.17a.66.66 0 01.38-.22h.08c.14 0 .29.05.41.12.14.07.27.17.38.28.1.12.18.25.23.4a1 1 0 01.05.32v.33c-.02.08-.04.16-.08.24l-.07.14c-.2.34-.5.6-.87.72-.25.1-.52.15-.79.18-.29 0-.58.05-.81.06-.31 0-.62.03-.93.09-.28.05-.53.2-.72.41l.08.07c.16-.16.37-.27.6-.31.3-.06.6-.09.91-.09.24 0 .53 0 .82-.06.28-.03.55-.1.81-.19.3-.11.56-.3.77-.54.06-.07.1-.15.15-.23l.07-.14.09-.27a1.9 1.9 0 000-.35 1.24 1.24 0 00-.31-.79A1.45 1.45 0 0029 18a1 1 0 00-.46-.13h-.09a.76.76 0 00-.45.25l.08.07-.02-.02z"/><path fill="#703D29" d="M28.23 18.87a.22.22 0 01.22-.21c.05-.01.1-.01.14 0 .06.03.11.07.15.12l.07.1.07.15a.8.8 0 010 .27 1 1 0 01-.44.79c-.28.15-.58.23-.89.25h-1.92l-.35.06h-.2a2.5 2.5 0 00-.63.27l-.16.11-.09.08c-.07.06-.13.13-.18.2a.59.59 0 00-.11.25v.11c0 .14.11.31.38.36v-.09a.28.28 0 01-.3-.27v-.09a.5.5 0 01.09-.21l.17-.18.08-.08.15-.1c.19-.11.39-.2.6-.26h.19l.34-.06h1.95c.32-.02.63-.11.92-.26a1 1 0 00.43-1.17.83.83 0 00-.07-.16l-.08-.1a.51.51 0 00-.17-.14.38.38 0 00-.18 0 .3.3 0 00-.25.12.31.31 0 00-.07.18v.07h.09l.05-.11zm-3.61-7.73v.16a.2.2 0 010 .06.22.22 0 01-.07.11.17.17 0 01-.11 0 .26.26 0 01-.2-.09.31.31 0 01-.08-.2.23.23 0 010-.12.4.4 0 01.13-.13h.16c.21.03.41.1.6.2h.08v-.28c0-.1.04-.21.11-.3.07-.1.13-.2.17-.32a.68.68 0 000-.2.29.29 0 00-.09-.22.29.29 0 00-.21-.09.45.45 0 00-.16 0c-.13.05-.26.14-.43.22-.19.1-.4.15-.61.15a1.4 1.4 0 01-.61-.15c-.16-.08-.3-.17-.43-.22a.45.45 0 00-.16 0 .29.29 0 00-.21.09.29.29 0 00-.09.22.68.68 0 000 .2c.04.11.1.22.17.32.07.09.1.2.11.3v.28h.08l.32-.14c.1-.04.19-.06.29-.07a.3.3 0 01.15 0c.05.03.1.08.12.13v.12c0 .07-.03.14-.08.2a.26.26 0 01-.2.09.17.17 0 01-.11 0 .23.23 0 01-.07-.11v-.06c0-.05.02-.1.05-.15l-.08-.05a.35.35 0 00-.07.2v.09a.3.3 0 00.1.15c.05.04.1.06.17.06.1 0 .2-.04.27-.12a.4.4 0 00.1-.26.35.35 0 000-.17.41.41 0 00-.15-.17.39.39 0 00-.2 0 .94.94 0 00-.32.07l-.33.14v-.21a.65.65 0 00-.12-.35c-.07-.1-.12-.2-.16-.3a.6.6 0 010-.18.2.2 0 01.06-.15.2.2 0 01.14-.06h.13c.11 0 .25.14.42.22.2.1.42.16.65.16.22 0 .44-.06.64-.16.17-.08.31-.18.42-.22h.13c.05 0 .1.02.14.06.04.04.06.1.06.15a.6.6 0 010 .18c-.04.1-.1.2-.16.3a.65.65 0 00-.12.35v.21c-.2-.11-.41-.18-.64-.21a.41.41 0 00-.2 0 .43.43 0 00-.16.16.33.33 0 000 .17c0 .1.04.19.1.26.07.08.17.12.27.12.06 0 .12-.02.17-.06.05-.04.08-.1.1-.15v-.29h-.08l.1.06z"/><path fill="#703D29" d="M23.62 11l.1.11c.01.05.01.1 0 .14a.3.3 0 010 .15.42.42 0 01-.12.1.5.5 0 00.14-.13.39.39 0 00.05-.19.35.35 0 00.01-.18.48.48 0 00-.12-.13l-.06.13z"/><path fill="#703D29" d="M23.73 11.3c0 .07-.04.14-.11.16.1-.03.17-.13.17-.24l-.06.08z"/><path fill="#C7B37F" d="M21.27 10.53l.04.03.05.05.03.07.02.05v.11l-.02.06-.03.04-.04.04-.05.02-.07.02-.06.01-.06-.03-.06-.04-.04-.05-.02-.06v-.03z"/><path fill="#703D29" d="M21.21 10.77a.16.16 0 00-.06-.1.16.16 0 00-.1 0 .13.13 0 00-.11.05.2.2 0 000 .12c0 .11.08.21.19.24h.06a.28.28 0 00.28-.29v-.11a.32.32 0 00-.12-.16.43.43 0 00-.46-.04.35.35 0 00-.14.17.41.41 0 000 .16c0 .12.05.23.14.32.3.32.73.5 1.17.48a2.7 2.7 0 001.32-.44h.11v.06a.17.17 0 00.06-.13.16.16 0 000-.1.15.15 0 00-.12-.05h-.11c-.38.3-.84.5-1.32.55-.41.01-.81-.15-1.1-.45a.39.39 0 01-.12-.26v-.12c.02-.05.06-.1.11-.13h.16c.08 0 .15.02.21.07.04.03.07.07.09.11v.09a.2.2 0 01-.2.2.18.18 0 01-.13-.16v-.07l.19-.01zm-1.76 7.78l-.14.05-.14.11-.06.09-.08.13-.03.1-.03.12-.01.09.08.01.02-.09.02-.11.03-.09.07-.12.05-.07.12-.09.12-.04-.02-.09zm.71.05l-.01.11-.02.08-.05.12-.08.11-.09.07-.06.03-.09.02.02.08.1-.02.08-.04.1-.08.09-.12.06-.15.02-.08.01-.12-.08-.01zm3.77 3.01c0 .08-.1.19-.3.23v.1a.43.43 0 00.37-.3h-.1l.03-.03zm5.34-3.29c.14.13.24.3.29.47a1 1 0 010 .32v.33c-.02.08-.04.16-.08.24l-.07.14c-.2.34-.5.6-.87.72-.25.1-.52.15-.79.18-.29 0-.58.05-.81.06-.3 0-.62.03-.92.09-.28.05-.53.19-.72.4l.08.07c.17-.2.4-.32.66-.36.3-.05.6-.08.9-.08.24 0 .53 0 .82-.06.28-.03.55-.1.81-.19a1.92 1.92 0 00.93-.77l.07-.14.09-.27a1.9 1.9 0 000-.35 1.2 1.2 0 00-.38-.87l-.08.08.07-.01z"/><path fill="#703D29" d="M28.28 18.72l.08-.06h.24c.06.03.1.07.14.12h.06a.43.43 0 00-.16-.14.3.3 0 00-.15 0 .38.38 0 00-.16 0 .28.28 0 00-.11.08h.06zm.84-.54h.38a.4.4 0 00.19-.12.33.33 0 00.08-.22.43.43 0 000-.17.41.41 0 00-.13-.16l-.07.09a.3.3 0 01.09.11v.13a.3.3 0 01-.05.15.29.29 0 01-.14.09h-.31v.1h-.04zm-10.17-4.75l-.16.09a.53.53 0 00-.15.12 1.82 1.82 0 00-.01.02.44.44 0 01.13-.1l.24-.06-.05-.07zm2.42-2.6v.1a.22.22 0 01-.11.06.31.31 0 00.16-.08c.04-.04.07-.1.07-.16l-.12.08zM28.86 13c.24.01.48.1.67.24.31.23.48.61.45 1 .03.34-.1.68-.33.93-.15.12-.32.21-.51.25v.08c.2-.04.4-.14.55-.27.26-.26.4-.63.36-1a1.23 1.23 0 00-1.2-1.25V13h.01z"/><path fill="#703D29" d="M28.94 13c.25 0 .5.1.66.29.23.28.34.64.32 1 0 .28-.1.56-.28.77a1 1 0 01-.45.3v.08c.19-.06.36-.17.49-.32.2-.23.3-.52.3-.82 0-.36-.11-.72-.34-1a1 1 0 00-.72-.32V13h.02zm-.26 3.53l.01-.1.04-.15.04-.12.05-.1.07-.08-.06-.05-.07.09-.06.11-.04.13-.04.16-.01.11h.07zm.64-.79l-.01.09-.03.06-.03.06-.05.03-.06.02-.06.01-.05-.01-.01.07.05.01h.01l.07-.01.09-.03.05-.04h.01l.05-.07.03-.07v-.01l.01-.1-.07-.01zm-1.16-3.03l.02-.1.05-.09.05-.1.11-.13.08-.09.13-.14.12-.11.08-.09.09-.12.09-.13.06-.12.03-.14.01-.18-.02-.06-.07.02.01.05v.16l-.03.13-.05.1-.08.13-.1.11-.07.09-.12.11-.13.14-.09.09-.1.14-.07.1-.05.11-.02.11.07.01zm.1 6.53l.1-.02.09-.05.05-.04v-.01l.03-.05.03-.09v-.06h-.07v.05l-.02.07-.03.04-.03.03-.07.04-.1.02.02.07zm-9.72-1.05l.08.01.1-.01h.01l.1-.04-.03-.07-.09.04h-.16l-.01.07zm.55-2.38l-.01.08-.01.03-.03.03-.03.03-.04.01-.05.01h-.04v.08l.04-.01h.01l.06-.01.05-.02h.01l.04-.04.04-.04.02-.04v-.01l.02-.09-.08-.01zm.38-.76l-.02.13-.02.05-.05.07-.07.05-.07.04-.14.03.01.07.16-.03.08-.05.08-.06.06-.08.03-.06v-.01l.02-.14-.07-.01zm.57-2.11l-.03.08-.03.05-.05.06-.05.06-.08.03-.05.01h-.04v.07l.04.01.08-.02.09-.04.07-.07.05-.07.03-.06h.01l.03-.09-.07-.02zm-.34-.06v.06h.07v-.06"/><path fill="#703D29" d="M19.83 15a.47.47 0 00.02-.02l-.02.02zm9.36 2.94h.22a.15.15 0 00.06-.12v-.06.06h-.17l-.11.12zM28.87 16a.3.3 0 00.23.11h.09a.29.29 0 00.18-.14.34.34 0 000-.17v-.1a.35.35 0 00-.06-.12.46.46 0 00-.1-.1v.06l.08.08v.3a.21.21 0 01-.13.1h-.06a.21.21 0 01-.17-.07h-.06V16zm.77 1.64a.29.29 0 00-.09-.27v.07c.05.05.07.12.06.19h.08l-.05.01zm-.1-.26a.25.25 0 00-.08-.18.33.33 0 00-.17-.09v.08c.05 0 .1.03.13.06s.05.07.05.12h.08l-.01.01z"/><path fill="#703D29" d="M29 17.31v-.07a1 1 0 01-.2-1.01c.03-.1.08-.17.15-.24l-.05-.06a.66.66 0 00-.17.27 1.04 1.04 0 00.21 1.09l.09.07.05-.06-.08.01zm-3.64 4.02l.11-.1.07-.06.15-.09.13-.06.09-.02.2-.05.22-.03-.01-.08-.23.03-.2.05-.1.03-.14.06-.15.1-.08.06-.12.1.06.06zm-.93.75c-.12.16-.28.3-.46.37a1.1 1.1 0 01-.46-.37h-.07c.13.18.3.32.5.4.2-.08.37-.22.5-.4h-.07.06zm-.83-.25a.58.58 0 01-.13.24.66.66 0 00.15-.28l-.02.04z"/><path fill="#703D29" d="M23.62 21.7l-.02.14.08.01.02-.14m-.24.37l-.06.06-.09.05-.12.04.02.07.13-.03.11-.07.07-.06-.06-.06zm-.58-11.01a.44.44 0 000-.16.65.65 0 00-.12-.34c-.07-.1-.12-.2-.16-.3a.6.6 0 010-.18.2.2 0 01.07-.16.2.2 0 01.15-.06h.13c.11 0 .25.14.42.22.2.1.42.16.64.16v-.08c-.21 0-.42-.05-.61-.15-.17-.08-.3-.17-.43-.22a.51.51 0 00-.18 0 .27.27 0 00-.19.08.28.28 0 00-.09.21.74.74 0 000 .22c.04.11.1.22.17.32.06.09.1.2.1.3v.14h.08a.44.44 0 000-.16.66.66 0 00-.12-.34c-.07-.1-.12-.2-.16-.3a.67.67 0 010-.2.2.2 0 01.06-.15.19.19 0 01.14-.05h.15c.11 0 .25.14.42.22.2.1.42.16.64.16v-.08c-.21 0-.42-.05-.61-.15-.17-.08-.3-.17-.43-.22a.45.45 0 00-.16 0 .29.29 0 00-.29.3.68.68 0 000 .2c.04.11.1.22.17.32.06.09.1.2.11.3v.13h.08l.02.02z"/><path fill="#703D29" d="M24 10.24c.24-.02.48-.09.69-.2l.25-.13.15-.07h.17l.08.06.05-.06a.28.28 0 00-.19-.08.45.45 0 00-.16 0c-.13.05-.26.14-.43.22-.19.1-.4.15-.61.15v.08c.22 0 .44-.06.64-.16.17-.08.31-.18.42-.22h.13c.05 0 .1.02.14.06l.05-.06-.1-.07h-.22a.73.73 0 00-.17.07c-.27.17-.58.28-.9.32v.08l.01.01zm5 7.07a.94.94 0 01-.38-.75 1 1 0 01.06-.36c.03-.1.08-.17.15-.24l-.05-.06a.66.66 0 00-.17.27c-.05.12-.07.26-.07.39a1 1 0 00.41.81v-.07l.05.01zm-4.59 4.75c-.12.16-.28.3-.46.37a1.1 1.1 0 01-.46-.37h-.07c.13.18.3.32.5.4.2-.08.37-.22.5-.4h-.07.06zm-1.24-10.84l.15-.08h.13a.1.1 0 010 .06v.06a.16.16 0 00.05-.12.18.18 0 000-.11.16.16 0 00-.12-.05h-.11l-.15.08.05.16z"/><path fill="#703D29" d="M22.41 11.58a3 3 0 00.85-.35v-.07c-.26.16-.54.27-.83.34v.08h-.02zm2.84 10v.07h-.07a.17.17 0 01-.16-.11h-.07c.04.1.13.15.23.15.04 0 .08-.02.11-.05a.17.17 0 000-.12v-.06.07l-.04.05z"/><path fill="#703D29" d="M22.39 11.56a3 3 0 00.85-.35v-.07c-.26.16-.54.27-.83.34v.08h-.02zm6.97 6.32h-.15l-.11-.06a1.27 1.27 0 01-.61-.82 1 1 0 010-.2 1.65 1.65 0 010-.34 1.23 1.23 0 01.35-.67c.05-.01.1-.01.14 0v-.08a.32.32 0 00-.18.05 1.32 1.32 0 00-.38.72v.57c.02.1.06.2.11.29.12.25.31.45.55.59l.12.07h.22v-.08l-.06-.04zm-9.47-4.68c.1.08.15.2.15.33 0 .12-.05.23-.12.32a.77.77 0 01-.41.27h-.13a.47.47 0 01-.24-.06v.07c.09.05.18.07.28.07h.15a.85.85 0 00.45-.3.6.6 0 00.14-.37c0-.15-.06-.3-.18-.39l-.05.06h-.04z"/><path fill="#703D29" d="M20 13.86c.03.02.05.04.06.07v.1a.36.36 0 01-.11.21.74.74 0 01-.52.24.6.6 0 01-.35-.1.53.53 0 01-.22-.32h-.08a.6.6 0 00.26.36c.11.08.25.12.39.12.21 0 .42-.09.57-.24a.43.43 0 00.13-.26.31.31 0 000-.14.26.26 0 00-.09-.1v.07l-.04-.01z"/><path fill="#703D29" d="M19.94 14.28c.03.03.06.07.07.11v.15c0 .08-.02.15-.05.22a.7.7 0 01-.17.2l-.09.04v.07l.13-.09a.78.78 0 00.19-.22.54.54 0 00.06-.25v-.17a.35.35 0 00-.09-.14l-.05.06v.02zm7.9-.6v.23h.09v-.23"/><path fill="#703D29" d="M27.83 13.63v.31h.08v-.31m-.07-.68v.41h.09v-.41"/><path fill="#703D29" d="M27.83 12.86v.56h.08v-.56m-.2 5.71a1.1 1.1 0 01-.26.35 1.51 1.51 0 01-.76.38 2.1 2.1 0 01-.43.05h-1.17a1.43 1.43 0 00-.7.09l-.25.13-.1.07-.06.06.02-.11a1.43 1.43 0 00-.68-.29 1.85 1.85 0 00-.37 0h-1.17a2.1 2.1 0 01-.43-.05 1.52 1.52 0 01-.41-.13 1.19 1.19 0 01-.36-.25l-.06.06a1.6 1.6 0 00.8.4c.14.03.3.05.44.05h1.53c.11.02.22.05.32.09l.24.12.09.06c.1-.08.22-.14.34-.19a1.35 1.35 0 01.68-.09h1.17c.15 0 .3-.02.44-.05a1.59 1.59 0 00.8-.4c.11-.1.2-.23.27-.37h-.07l.14.02zm-4.57 3.74l.12-.01-.01-.08-.11.01m2.02-.08l.13-.01.11-.05.09-.05.11-.13.02-.05v-.01l.02-.11.01-.05-.08-.01-.01.05-.01.1-.02.03-.1.12-.06.04-.1.04-.11.01v.08zm3.44-9.07v-.12a.31.31 0 00-.05-.18.2.2 0 00-.17-.08v.08c.04 0 .08.02.1.05v.23h.08l.04.02zM20 15.65c-.03.11-.1.2-.21.27v.07c.12-.07.2-.19.24-.32h-.08l.05-.02zM20 13a.37.37 0 01-.21.23h-.09a.33.33 0 01-.19-.07v.06a.4.4 0 00.24.08h.12a.45.45 0 00.25-.28L20 13zm-.83.66h.19a.18.18 0 000-.12.21.21 0 00-.06-.11.21.21 0 00-.13-.06h.08v.07a.1.1 0 010 .07h-.05l-.03.15zm.39 5.34h.16a.19.19 0 000-.11.3.3 0 00-.07-.18.34.34 0 00-.26-.11.33.33 0 00-.16 0 .51.51 0 00-.17.14l-.07.1.01.16a.7.7 0 000 .29c0 .28.12.54.32.74l.06-.06a1 1 0 01-.3-.68.79.79 0 010-.26l.07-.15.07-.1c.04-.05.1-.1.15-.12a.25.25 0 01.12 0 .3.3 0 01.2.08v.2h-.06l-.06.06h-.01zm5.68 2.56v.07h-.16a.19.19 0 01-.06-.08c.02.04.04.08.08.11.05.01.1.01.14 0 .04 0 .08-.02.11-.05a.17.17 0 000-.12v-.12l-.11.19z"/><path fill="#703D29" d="M28.37 10.66c.1.02.19.06.25.14.07.07.1.17.11.27 0 .1-.02.2-.06.3-.05.1-.1.18-.17.26-.07.1-.24.25-.39.44-.17.17-.27.4-.29.64 0 .12.02.24.07.35.05.1.13.18.23.22h.12a.4.4 0 00.26-.1.32.32 0 00.1-.18.3.3 0 00-.05-.17.23.23 0 00-.15-.1.2.2 0 00-.14.06.2.2 0 000 .13.16.16 0 000 .11c.04.02.08.02.12 0V13h-.06v-.14a.1.1 0 01.08 0c.04 0 .08.03.1.06v.12c0 .07-.03.13-.08.18a.33.33 0 01-.2.08h-.09A.37.37 0 0128 13a.72.72 0 01-.06-.32 1 1 0 01.27-.59c.15-.18.31-.33.4-.44.07-.08.13-.17.18-.27.05-.1.07-.22.07-.34a.49.49 0 00-.13-.32.49.49 0 00-.3-.16v.08l-.06.02zm1.14 6.68a.27.27 0 10-.54 0c0 .07.03.14.08.19l.06-.06a.2.2 0 01-.05-.14.19.19 0 01.38 0h.08l-.01.01z"/><path fill="#703D29" d="M28 13.14a.49.49 0 00-.18.39c0 .14.05.26.14.37.11.15.27.25.45.3h.21c.08 0 .15-.01.22-.05v-.07a.34.34 0 01-.17 0h-.19a.77.77 0 01-.41-.27.55.55 0 01-.12-.32c-.02-.1 0-.2.05-.29v-.06zm-9 .31a.63.63 0 00-.32.23 1.1 1.1 0 00-.15.4 1 1 0 000 .18v.26a1 1 0 00.15.37l.07.08.08.06v-.06l-.07-.05-.06-.07a1 1 0 01-.14-.34v-.4a1 1 0 01.14-.37c.07-.1.17-.16.28-.2v-.08l.02-.01zm3.84 7.39c.14.05.27.12.4.2a1 1 0 01.31.32.6.6 0 01.07.29.6.6 0 01-.2.45.47.47 0 01-.32.12H23a.32.32 0 01-.15-.06.19.19 0 01-.07-.08h-.08c.02.05.06.1.1.12a.4.4 0 00.18.07h.08c.14 0 .28-.05.38-.14a.68.68 0 00.22-.51.66.66 0 00-.08-.33c-.08-.14-.2-.25-.33-.34a2.61 2.61 0 00-.41-.21v.1zM19.81 15c.07.05.14.12.18.2.04.08.05.16.05.25a.5.5 0 01-.07.27.49.49 0 01-.16.16v.07a.57.57 0 00.19-.19.6.6 0 00.08-.31c0-.1-.02-.2-.06-.28a.7.7 0 00-.2-.22v.06l-.01-.01z"/><path fill="#703D29" d="M19.65 15.8c.11.13.2.27.29.42a1.16 1.16 0 01-.21 1.25c.21-.23.33-.54.33-.85 0-.17-.04-.34-.11-.49-.08-.15-.19-.3-.3-.43v.1zm4.98-4.22a.3.3 0 00.12-.16v-.13a.26.26 0 000-.15c.03.04.05.09.05.14v.14l-.06.06.05.06.07-.07a.2.2 0 000-.1v-.09a.3.3 0 00-.07-.19h-.07v.21a.22.22 0 01-.08.12v.07l-.01.09zM27.84 17v1.26h.08V17h-.08z"/><path fill="#703D29" d="M27.83 16.88v1.43h.08v-1.43h-.08zm0-1.29v.92h.08v-.92"/><path fill="#703D29" d="M27.84 15.66v.75h.09v-.75m-.09-.94v.56h.09v-.56"/><path fill="#703D29" d="M27.83 14.65v.69h.08v-.69m-.07-.5v.21h.09v-.21"/><path fill="#703D29" d="M27.83 14.1v.32h.08v-.32m-.2 4.41a1.1 1.1 0 01-.26.35 1.51 1.51 0 01-.76.38 2.1 2.1 0 01-.43.05h-1.17a1.43 1.43 0 00-.7.09l-.25.13-.1.07-.06.06.02-.07a1.43 1.43 0 00-.68-.29 1.85 1.85 0 00-.37 0h-1.17a2.1 2.1 0 01-.43-.05 1.52 1.52 0 01-.77-.38l-.15-.17h-.07a1.42 1.42 0 00.54.44 2.15 2.15 0 00.86.19h1.53c.11.02.22.05.32.09l.24.12.09.06a1.41 1.41 0 01.66-.28h1.53c.15 0 .3-.02.44-.05a1.59 1.59 0 00.8-.4c.11-.1.2-.23.27-.37h-.07l.14.03zm-7.53.05v.07A.6.6 0 0120 19a.62.62 0 01-.12.1.33.33 0 01-.17.06.3.3 0 01-.21-.07.26.26 0 01-.07-.1h-.08c.02.05.05.1.09.13.07.07.17.1.27.1.08 0 .15-.03.21-.07a.7.7 0 00.13-.11.7.7 0 00.16-.44v-.08h-.08l.05.04z"/><path fill="#703D29" d="M19.91 18.48l.11.15v.16A.5.5 0 0120 19h.07a.51.51 0 000-.23.43.43 0 000-.2.69.69 0 00-.12-.17l-.06.06.02.02zm-1.19 1.71c.2.2.44.36.7.46.53.17 1.08.25 1.63.25.3 0 .59.03.88.08.25.04.48.17.66.35l.06-.05c-.19-.2-.43-.32-.7-.37-.3-.05-.6-.08-.9-.08a5.3 5.3 0 01-1.61-.24 2 2 0 01-.67-.44l-.06.06.01-.02zm4.98.88c.11.1.2.2.25.34h.08a1 1 0 00-.27-.37l-.06.06v-.03zm-.21 1.02a.47.47 0 01-.32.12h-.07a.35.35 0 01-.15-.06.27.27 0 01-.09-.08h-.07l.11.11c.06.04.12.06.19.07h.08c.14 0 .28-.05.38-.14l-.06-.05v.03zM22.41 22c.09.1.22.16.35.17v-.08a.44.44 0 01-.29-.14h-.06V22z"/><path fill="#703D29" d="M24.45 22.1c-.12.16-.28.3-.46.37a1.1 1.1 0 01-.46-.37h-.07c.13.18.3.32.5.4.2-.08.37-.22.5-.4h-.07.06zm.01.04h.05c.1.1.24.14.38.14H25a.38.38 0 00.29-.18h-.08a.31.31 0 01-.23.14h-.07a.47.47 0 01-.32-.12l-.06.05-.07-.03z"/><path fill="#703D29" d="M25.16 22.07l-.04.07-.06.05-.1.04h-.09v.09l.1-.01h.01l.12-.05.08-.07.05-.08-.07-.04z"/><path fill="#703D29" d="M25.42 21.41c.06.05.1.1.13.17v.14c0 .08-.03.16-.08.22a.43.43 0 01-.31.14v.08c.14 0 .28-.06.37-.17.06-.07.1-.17.1-.27v-.16a.52.52 0 00-.16-.2v.06l-.05-.01z"/><path fill="#703D29" d="M25.18 22.07a.4.4 0 01-.28-.12l-.06.06c.09.1.21.15.34.15v-.09zm3.71-4.41a1.46 1.46 0 01-.39-.67 1 1 0 010-.2 1.65 1.65 0 010-.34 1.28 1.28 0 01.37-.68v-.07l-.14.15c-.14.17-.23.37-.27.59v.57a1.54 1.54 0 00.42.71l.05-.06h-.04zm-.13-6.71c.07 0 .14.04.19.1.05.06.08.13.08.21 0 .1-.02.2-.06.28-.06.1-.13.2-.21.29-.08.1-.24.24-.39.4-.07.08-.14.16-.19.25a.57.57 0 00-.08.28c0 .07.03.14.08.2h.07a.31.31 0 01-.07-.15c0-.08.03-.17.07-.24.08-.13.18-.25.29-.35.11-.11.22-.21.28-.29a2 2 0 00.21-.3c.05-.1.07-.2.07-.31A.4.4 0 0029 11a.37.37 0 00-.24-.13v.08zM28 13.19c.04.04.09.08.14.1h.12a.4.4 0 00.18 0v-.07a.32.32 0 01-.14 0h-.09a.4.4 0 01-.12-.08l-.06.06-.03-.01zm-.95-2.65c.05.04.1.09.12.15v.13c0 .1-.05.2-.12.26a1.47 1.47 0 01-.78.42v.08a1.54 1.54 0 00.82-.44c.09-.09.14-.2.14-.32a.41.41 0 000-.16.42.42 0 00-.15-.18v.07l-.03-.01z"/><path fill="#703D29" d="M26.81 11a.22.22 0 01-.17-.08h-.08l.05.08c.06.07.14.1.23.11V11h-.03zm-1.16.17l-.07-.05a.21.21 0 01-.06-.14v-.09c0-.05.08-.17.13-.3.06-.13.1-.26.11-.4v-.05a.79.79 0 00-.1-.41.52.52 0 00-.26-.22v.08c.1.04.17.1.22.19.06.11.1.24.09.37-.02.13-.05.25-.11.37l-.13.3v.12c0 .07.03.15.08.2l.1.07v-.07.03z"/><path fill="#703D29" d="M25.68 10.1v.26l-.07.18-.05.12-.06.12V11v-.18l.05-.12.05-.12.07-.19v-.29zm2.14 8.9v.07c.04.05.1.1.15.13.07.05.15.07.23.08.1 0 .2-.03.26-.1a.28.28 0 00.07-.14v-.09a.24.24 0 000-.15.34.34 0 00-.11-.08h-.11.1l.08.06v.18a.2.2 0 01-.05.09.27.27 0 01-.2.07.45.45 0 01-.31-.17l-.11.05zm-9.07-.87h-.21a.37.37 0 01-.17-.11.27.27 0 01-.07-.18.3.3 0 010-.1h-.08v.13c0 .09.03.17.09.23s.13.1.21.13h.25v-.08l-.02-.02zm.34-2.38A.17.17 0 0119 16a.23.23 0 01-.14 0h-.17l-.07-.07a.26.26 0 010-.13h-.08a.34.34 0 000 .17.35.35 0 00.21.16h.09c.1 0 .2-.05.26-.13.06-.05.1-.13.09-.21v-.09l-.06.06-.04-.01zM20 14.3l.07.1h.07a.35.35 0 00-.09-.13l-.05.03zm0-.42a.2.2 0 01.06.07h.07a.28.28 0 00-.09-.1v.07l-.04-.04z"/><path fill="#703D29" d="M20 14.12a.49.49 0 01-.09.14.74.74 0 01-.52.24.6.6 0 01-.35-.1.56.56 0 01-.24-.33c.04.16.14.3.27.38.11.08.25.12.39.12a.82.82 0 00.69-.43l-.15-.02zm-.1-.91c.06.05.11.12.14.2h.08a.53.53 0 00-.16-.23l-.05.06-.01-.03z"/><path fill="#703D29" d="M20 13.67a.7.7 0 01-.52.47h-.39c.04.03.09.05.14.06h.32a.78.78 0 00.57-.52l-.12-.01zm-1.09-.03c0 .09.05.17.11.23a.38.38 0 00.54-.03.5.5 0 00.1-.3.54.54 0 00-.14-.36l-.06.05c.07.08.12.19.12.3a.4.4 0 01-.09.25.27.27 0 01-.21.1.31.31 0 01-.22-.08.28.28 0 01-.08-.18h-.08l.01.02zm-.66 1.47l.15.15a1.1 1.1 0 00.03.02 1 1 0 01-.14-.14l-.04-.03zm.89.4a.5.5 0 00.31-.15.43.43 0 00.11-.3V15a.43.43 0 00-.13-.25.35.35 0 00-.21-.11c.06.01.11.04.15.08.05.05.09.12.1.2v.05c0 .09-.03.17-.09.24a.42.42 0 01-.26.12l.02.18zm.43-2.74a.12.12 0 01.1 0v.1h.08a.3.3 0 00-.05-.15.2.2 0 00-.16-.08v.08l.03.05zm-.06-1.61c.06.17.18.3.34.39a.68.68 0 01-.3-.35l-.04-.04zm9.41 2.33v.13c0 .06-.02.12-.06.17a.27.27 0 01-.2.08.29.29 0 01-.24-.14c.07.1.18.18.31.18.1 0 .2-.04.26-.11a.33.33 0 00.08-.22.31.31 0 00-.06-.18l-.09.09zm-1.08-1.96v1h.09v-1"/><path fill="#703D29" d="M19.16 13.66h.08c.04 0 .08-.02.11-.05a.18.18 0 000-.12v-.07a.21.21 0 00-.07-.09.21.21 0 00-.13 0 .29.29 0 00-.16.06.28.28 0 00-.12.24c0 .08.03.16.08.22.07.07.16.11.26.11s.2-.05.27-.13a.5.5 0 00.1-.3.54.54 0 00-.14-.36.62.62 0 00-.48-.21 1 1 0 00-.59.22c-.23.2-.4.46-.46.76v.31c0 .27.09.53.23.76l.09.11.06.06.06.06a1 1 0 00.65.25c.13 0 .25-.05.35-.14.08-.08.13-.2.13-.31v-.06a.35.35 0 00-.33-.32.27.27 0 00-.16 0 .28.28 0 00-.11.22c.02.05.07.1.12.12.03.04.07.07.12.09.07.01.15-.02.18-.09a.13.13 0 000-.09v.05h-.06A.14.14 0 0119 15v-.08a.2.2 0 01.07-.15.19.19 0 01.11 0 .27.27 0 01.25.3c0 .1-.03.18-.1.25a.44.44 0 01-.29.11.92.92 0 01-.6-.23l-.06-.05-.07-.15-.08-.1a1.39 1.39 0 01-.22-.72v-.29c.06-.28.21-.53.43-.71A.9.9 0 0119 13c.16 0 .31.06.42.18.07.08.12.19.12.3a.4.4 0 01-.09.25.27.27 0 01-.21.1.27.27 0 01-.2-.08.25.25 0 01-.06-.17.2.2 0 01.08-.17.21.21 0 01.12 0h.08v.06a.1.1 0 010 .06l-.1.13zm8.26-3.25a.37.37 0 01.17-.05.2.2 0 01.17.1c.07.1.1.21.1.33v.09a.54.54 0 01-.07.19.75.75 0 01.01-.01.62.62 0 00.08-.21v-.11a.66.66 0 00-.11-.38.29.29 0 00-.24-.13.45.45 0 00-.21.06l.1.12z"/><path fill="#703D29" d="M27.83 10.49a.36.36 0 01.2-.06c.11 0 .21.06.27.15.06.1.1.2.09.32a.67.67 0 01-.34.55.75.75 0 00.38-.61.59.59 0 00-.11-.36.4.4 0 00-.33-.19.44.44 0 00-.24.08l.08.12zm.89.45c.15.02.26.14.25.29 0 .1-.01.2-.05.28-.06.1-.12.2-.2.28-.08.1-.24.24-.39.4-.07.08-.14.16-.19.25a.57.57 0 00-.08.28c0 .07.03.14.08.2.04.05.1.09.17.1V13a.18.18 0 01-.11-.07.26.26 0 01-.06-.15c0-.08.03-.17.07-.24.08-.13.18-.25.29-.35.11-.11.22-.21.28-.29l.21-.3c.04-.1.06-.2.06-.31 0-.2-.14-.35-.33-.37V11v-.06zm0 2.65v-.12h.08a.2.2 0 01.11 0c.05.04.08.1.08.17 0 .06-.02.12-.06.17a.28.28 0 01-.41-.02.39.39 0 01-.09-.25c0-.12.05-.23.13-.31a.58.58 0 01.44-.18c.2 0 .4.07.55.19a1.26 1.26 0 01.43.73 2.47 2.47 0 01-.09.87 1 1 0 01-.33.42 1 1 0 01-.6.18.44.44 0 01-.29-.11.34.34 0 01-.1-.25v-.05a.26.26 0 01.25-.24h.11c.06.03.09.09.09.15v.09a.14.14 0 01-.09 0 .1.1 0 01-.07 0v-.05a.13.13 0 000 .09c0 .04.02.08.05.11h.12c.06 0 .1-.04.14-.08a.22.22 0 00.05-.14c0-.1-.06-.18-.14-.22a.31.31 0 00-.15 0 .34.34 0 00-.33.37c0 .12.05.23.13.31.1.09.22.14.35.14.23 0 .45-.07.64-.2a1 1 0 00.36-.46c.02-.2-.01-.4-.08-.6v-.38a1.2 1.2 0 00-.2-.49c-.07-.1-.16-.2-.26-.28a1 1 0 00-.6-.21.66.66 0 00-.5.21.5.5 0 00-.15.36c0 .11.04.22.11.3.07.08.17.13.28.13.1 0 .2-.04.26-.11a.33.33 0 00.08-.22.28.28 0 00-.27-.29.2.2 0 00-.13 0 .26.26 0 00-.07.09v.07c0 .08.07.15.15.16h.08l-.06-.05z"/><path fill="#703D29" d="M28.63 13.48a.23.23 0 01.13-.17.48.48 0 01.21 0c.2.01.38.12.48.29.12.2.19.41.19.64.01.24-.05.47-.18.67a.6.6 0 01-.48.25.41.41 0 01-.17 0h-.06a.1.1 0 010-.06h-.08a.18.18 0 000 .11c.04.04.09.07.14.09h.16c.21 0 .41-.1.54-.28.14-.21.2-.47.19-.72 0-.25-.07-.49-.21-.69a.68.68 0 00-.54-.33.55.55 0 00-.24 0 .31.31 0 00-.17.23h.08l.01-.03z"/><path fill="#703D29" d="M28.84 13.41c.18.04.34.15.43.31a1 1 0 01.13.52 1 1 0 01-.09.48.7.7 0 01-.51.36v.08a.8.8 0 00.56-.4c.07-.16.1-.34.09-.52 0-.2-.04-.39-.14-.56a.73.73 0 00-.49-.35v.08h.02zm.77 4.19a.29.29 0 10-.46.17v-.06a.21.21 0 11.33-.12h.08l.05.01z"/><path fill="#703D29" d="M28.66 17.24c.1.16.24.3.41.39a1 1 0 01-.38-.36l-.03-.03zm.34.99a1.4 1.4 0 00-.65-.22.76.76 0 00-.34.08.53.53 0 00-.29.3.59.59 0 000 .21c0 .16.06.32.16.44a.7.7 0 00.13.11c.06.04.13.07.21.07.1 0 .2-.03.26-.1a.27.27 0 00.07-.14.4.4 0 000-.06.26.26 0 00-.06-.17.23.23 0 00-.1-.07h-.17a.15.15 0 00-.09.1v.1h.18v.17a.2.2 0 01-.05.09.27.27 0 01-.2.07.33.33 0 01-.17-.06.62.62 0 01-.12-.1.59.59 0 01-.14-.38.51.51 0 010-.18.5.5 0 01.25-.25c.1-.05.2-.07.3-.07.22 0 .43.08.61.2l.21-.14z"/><path fill="#703D29" d="M25.25 21.59v.13h-.07a.14.14 0 01-.11 0 .19.19 0 010-.11c0-.12.1-.22.23-.23a.3.3 0 01.28.2v.14c0 .08-.03.16-.08.22a.43.43 0 01-.31.14.4.4 0 01-.3-.14.48.48 0 01-.12-.31c0-.1.04-.22.11-.3.12-.14.26-.25.43-.32.14-.07.29-.12.44-.16a5.3 5.3 0 011.12-.15h.64c.2-.02.38-.05.57-.09.3-.06.58-.2.81-.41a1.12 1.12 0 00.44-.91.94.94 0 00-.82-.98h-.09a.57.57 0 00-.51.33.43.43 0 000 .2.51.51 0 000 .23c.03.05.07.1.12.14.06.04.13.07.21.07.1 0 .2-.03.26-.1a.27.27 0 00.07-.14.4.4 0 000-.06.26.26 0 00-.06-.17.23.23 0 00-.1-.07h-.17a.15.15 0 00-.09.1v.1h.18v.17a.2.2 0 01-.05.09.27.27 0 01-.2.07.3.3 0 01-.17-.06.35.35 0 01-.1-.11.44.44 0 010-.19.36.36 0 010-.16.49.49 0 01.44-.29h.08c.26.04.49.19.62.41a1 1 0 01.07.84c-.07.2-.2.37-.36.5-.22.2-.48.33-.77.39-.18.04-.37.07-.56.09h-.64c-.38 0-.77.06-1.14.15a2 2 0 00-.62.26c-.11.07-.2.15-.29.25a.57.57 0 00-.13.35c0 .14.05.27.14.37.09.1.22.17.36.17.14 0 .28-.06.37-.17.06-.07.1-.17.1-.27v-.16a.39.39 0 00-.35-.25c-.17 0-.3.14-.31.31 0 .05.03.1.06.15.04.05.1.07.17.07a.2.2 0 00.11 0 .15.15 0 00.05-.12v-.11l.04-.1z"/><path fill="#703D29" d="M25.06 20.76c-.14.06-.28.13-.41.21-.13.09-.25.2-.33.34a.66.66 0 00-.08.33c0 .2.08.38.22.51.1.1.24.14.38.14h.08a.4.4 0 00.18-.07.26.26 0 00.1-.12.19.19 0 01-.07.08.32.32 0 01-.15.06h-.07a.47.47 0 01-.32-.12.6.6 0 01-.2-.45c0-.1.02-.2.07-.29a1 1 0 01.24-.38c.13-.08.26-.15.4-.2l-.04-.04zM28.09 15c-.1.04-.16.1-.2.2a.67.67 0 00.01.62c.05.08.11.14.19.19v-.07a.49.49 0 01-.16-.16.52.52 0 01-.07-.27c0-.1.02-.2.06-.28a.3.3 0 01.15-.16v-.08l.02.01z"/><path fill="#703D29" d="M28.23 15.75c-.11.13-.22.28-.3.43-.07.15-.11.32-.11.49 0 .31.12.62.33.85-.2-.22-.31-.5-.31-.8a1 1 0 01.1-.45c.08-.15.18-.3.29-.42v-.1zm-1.31-5.27a.28.28 0 01.23-.13c.05-.01.1-.01.14 0 .11.09.17.23.16.37v.16a.51.51 0 01-.24.32v.07a.59.59 0 00.27-.37v-.17a.52.52 0 00-.2-.43.32.32 0 00-.19-.07.36.36 0 00-.3.17h.07l.06.08zm-6.37-.14a.48.48 0 00-.2 0 .3.3 0 00-.25.12.57.57 0 00-.12.36v.13a.62.62 0 00.23.38.75.75 0 01-.14-.16.54.54 0 01-.07-.19v-.11a.5.5 0 01.1-.31.2.2 0 01.18-.09.4.4 0 01.17 0l.1-.13z"/><path fill="#703D29" d="M20.14 10.42a.44.44 0 00-.24-.08.4.4 0 00-.33.19.59.59 0 00-.11.36c.01.25.16.48.38.61v-.07a.67.67 0 01-.34-.55.6.6 0 01.09-.32.3.3 0 01.27-.15c.07 0 .14.02.2.06v-.07l.08.02z"/><path fill="#703D29" d="M19.56 10.58a.47.47 0 00-.41.46c0 .12.02.23.06.34.05.1.1.2.18.29.08.11.25.26.4.44a1 1 0 01.27.59c0 .1-.02.2-.06.3a.37.37 0 01-.19.18h-.09a.33.33 0 01-.2-.08.24.24 0 01-.08-.18.22.22 0 010-.12.15.15 0 01.1-.06.1.1 0 01.08 0v.14h-.06V13c.04.02.08.02.12 0a.16.16 0 000-.11.2.2 0 000-.13.18.18 0 00-.14-.06.23.23 0 00-.15.1.3.3 0 00-.05.17c0 .1.04.18.11.24s.16.1.26.1h.12c.1-.04.18-.12.23-.22a.79.79 0 00.07-.35 1.05 1.05 0 00-.29-.64c-.15-.18-.32-.34-.39-.44a1.3 1.3 0 01-.17-.27.79.79 0 01-.05-.31c0-.2.15-.36.34-.38v-.08l-.01-.04z"/><path fill="#703D29" d="M19.2 10.86a.4.4 0 00-.2.14.34.34 0 00-.11.25c0 .11.02.22.08.32s.14.2.22.3c.09.11.24.24.37.4.13.13.22.3.24.48v.3h.09a.33.33 0 00.08-.12.87.87 0 00-.26-.69l-.37-.4c-.13-.1-.24-.21-.34-.34a.54.54 0 01-.07-.28A.26.26 0 0119 11a.32.32 0 01.19-.09v-.08l.01.03zm-.33 4.91v-.07h.12a.2.2 0 01-.06.15.23.23 0 01-.14 0h.01a.21.21 0 01-.13-.1.26.26 0 010-.13v-.17l.07-.07H19c.18.02.34.1.44.25.14.17.23.36.28.57.02.14.02.28 0 .42v.32c-.05.26-.18.5-.36.69-.1.14-.22.27-.36.37l-.25.1h-.23a.31.31 0 01-.15-.09.24.24 0 01-.06-.16v-.13a.25.25 0 01.22-.14.2.2 0 01.17.1v.08a.2.2 0 010 .07h-.14a.1.1 0 010-.08c0 .05.01.1.05.14h.24a.17.17 0 00.06-.08v-.1a.24.24 0 000-.12.27.27 0 00-.24-.14.33.33 0 00-.29.19.42.42 0 000 .16c0 .08.03.15.08.21s.12.1.19.12h.27l.27-.11a1.4 1.4 0 00.75-1 1.6 1.6 0 000-.33 2 2 0 000-.44 1.49 1.49 0 00-.3-.6.68.68 0 00-.5-.28h-.24a.36.36 0 00-.17.3.34.34 0 000 .17c.04.07.1.12.18.14H19c.07 0 .13-.02.19-.06.06-.05.1-.13.09-.21a.16.16 0 00-.06-.1.2.2 0 00-.12 0 .17.17 0 00-.1 0 .23.23 0 00-.08.1l-.05.06z"/><path fill="#703D29" d="M18.54 18h.22l.12-.07c.24-.14.43-.34.55-.59.05-.1.09-.19.11-.29v-.57a1.32 1.32 0 00-.38-.72.32.32 0 00-.18-.05v.08c.05-.01.1-.01.14 0l.1.11c.13.16.22.36.25.56v.34a1 1 0 010 .2c-.02.1-.06.18-.1.27-.11.23-.29.42-.51.55l-.11.06h-.15v.08l-.06.04z"/><path fill="#703D29" d="M18.41 17.59a.21.21 0 11.33.12v.06a.29.29 0 10-.46-.17h.08l.05-.01z"/><path fill="#703D29" d="M18.5 17.36a.19.19 0 01.38 0 .2.2 0 01-.05.14l.06.06a.28.28 0 00.08-.19.27.27 0 10-.54 0h.08l-.01-.01z"/><path fill="#703D29" d="M18.94 17.37a1 1 0 00.41-.81c0-.13-.02-.27-.07-.39a.66.66 0 00-.17-.27l-.05.06a.6.6 0 01.15.24 1 1 0 01.06.36c0 .3-.14.57-.38.75v.07l.05-.01zm.27-.17a1 1 0 01-.38.36c.17-.1.31-.23.41-.39l-.03.03zm.7.91a.36.36 0 00-.15-.17.61.61 0 00-.25-.07h-.08A1 1 0 0019 18a1.23 1.23 0 00-.65.73c-.04.11-.06.23-.06.35v.34c.02.1.05.18.09.27l.07.14c.2.36.53.63.92.76.53.17 1.08.25 1.63.25.3 0 .61.03.91.09.26.05.5.18.67.38l.06-.05a1.23 1.23 0 00-.71-.41 4.8 4.8 0 00-.93-.09 5.3 5.3 0 01-1.61-.24c-.29-.1-.54-.28-.74-.51l-.14-.22-.07-.14a1.07 1.07 0 01-.08-.25 1.81 1.81 0 010-.33 1.15 1.15 0 01.28-.73c.1-.11.24-.21.38-.28a.87.87 0 01.42-.12h.08c.07 0 .14.03.21.06.05.03.1.08.12.14h.07l-.01-.03z"/><path fill="#703D29" d="M19 18.29c.18-.12.4-.2.61-.2.1 0 .2.02.3.07.11.05.2.14.25.25v.18A.6.6 0 0120 19a.62.62 0 01-.12.1.33.33 0 01-.17.06.27.27 0 01-.2-.07.2.2 0 01-.05-.09v-.05a.18.18 0 010-.12h.18v-.1a.15.15 0 00-.09-.1h-.17a.23.23 0 00-.1.07.26.26 0 00-.06.17.4.4 0 000 .06c0 .05.03.1.07.14.07.07.16.1.26.1.08 0 .15-.03.21-.07a.7.7 0 00.13-.11.7.7 0 00.16-.44.59.59 0 000-.21.53.53 0 00-.29-.3.76.76 0 00-.34-.08c-.23.01-.46.09-.65.22l.23.11z"/><path fill="#703D29" d="M19.79 18.89v-.07a.26.26 0 00-.07-.18.37.37 0 00-.26-.11.33.33 0 00-.16 0 .51.51 0 00-.17.14l-.07.1A.82.82 0 0019 19a.7.7 0 000 .29c0 .35.19.68.48.87a2 2 0 00.92.26h1.95l.34.06h.19c.21.06.42.15.61.26l.15.1.09.08c.13.1.22.24.26.4v.09c0 .09-.07.23-.31.28v.08c.26-.05.37-.22.37-.36v-.11a.84.84 0 00-.28-.44l-.09-.08a2.55 2.55 0 00-.79-.38h-.2l-.35-.06h-1.99c-.31 0-.62-.1-.89-.25a1 1 0 01-.44-.8.79.79 0 010-.26l.07-.15.07-.1c.04-.05.1-.1.15-.12a.25.25 0 01.12 0 .3.3 0 01.2.08c.03.03.05.08.05.12v.05h.08l.03-.02z"/><path fill="#703D29" d="M22.61 21.56v.11c0 .05.02.09.05.12a.2.2 0 00.11 0c.06 0 .13-.02.17-.07a.27.27 0 00.06-.12c0-.17-.14-.3-.31-.31-.16 0-.3.1-.35.25v.16c0 .1.04.2.1.27.1.1.23.17.37.17.14 0 .27-.06.36-.17.09-.1.14-.23.14-.37a.57.57 0 00-.13-.35 1.29 1.29 0 00-.46-.35c-.14-.07-.3-.12-.45-.16a5.4 5.4 0 00-1.14-.15h-.64a3.77 3.77 0 01-.56-.09c-.29-.06-.55-.2-.77-.39-.16-.13-.29-.3-.36-.5a1 1 0 01.07-.84.86.86 0 01.62-.41h.08c.2 0 .36.12.44.29v.16A.6.6 0 0120 19a.35.35 0 01-.1.11.3.3 0 01-.17.06.27.27 0 01-.2-.07.2.2 0 01-.05-.09v-.05a.18.18 0 010-.12h.18v.06h.07v-.16a.15.15 0 00-.09-.1h-.17a.23.23 0 00-.1.07.26.26 0 00-.06.17.4.4 0 000 .06c.01.05.03.1.07.14.07.07.16.1.26.1a.38.38 0 00.33-.21.51.51 0 000-.23.43.43 0 000-.2.57.57 0 00-.51-.33h-.09a.94.94 0 00-.82.98c0 .13.02.26.06.38.08.2.2.4.38.53.23.2.5.35.81.41l.57.09h.64c.38.01.75.06 1.12.15.21.05.41.14.6.25.1.06.2.14.27.23.07.08.1.2.11.3 0 .11-.04.22-.12.31a.4.4 0 01-.3.14.43.43 0 01-.31-.14.33.33 0 01-.08-.22v-.14a.3.3 0 01.28-.2c.12 0 .22.1.23.23v.11a.14.14 0 01-.11 0h-.07v-.13h-.07l.05.07zm-1.53-11.13a.36.36 0 00-.3-.17.32.32 0 00-.19.07c-.13.1-.2.26-.2.43v.17a.6.6 0 00.27.37.51.51 0 01-.24-.32v-.16a.44.44 0 01.16-.37c.05-.01.1-.01.14 0 .1 0 .18.05.23.13l.13-.15zm5.83.47a.97.97 0 01-.38.28c-.15.06-.32.09-.48.09a.88.88 0 01-.44-.12.34.34 0 01-.08-.08.21.21 0 010-.12.3.3 0 010-.09c0-.05.08-.17.13-.3.06-.13.1-.26.11-.4v-.05a.75.75 0 00-.1-.4.5.5 0 00-.27-.21.57.57 0 00-.19 0c-.18.01-.36.07-.51.16-.13.08-.26.15-.4.21a.8.8 0 01-.31 0 .8.8 0 01-.31 0 3.47 3.47 0 01-.4-.21c-.15-.1-.33-.15-.51-.16a.57.57 0 00-.19 0 .5.5 0 00-.27.21.75.75 0 00-.1.4v.05c.01.14.05.27.11.4l.13.3a.3.3 0 010 .09v.12a.34.34 0 01-.08.08.88.88 0 01-.44.12c-.16 0-.33-.03-.48-.09a1.05 1.05 0 01-.45-.28v.1a1.12 1.12 0 00.91.39 1 1 0 00.48-.14.41.41 0 00.1-.1.29.29 0 00.05-.17v-.12c0-.07-.08-.18-.13-.3a.99.99 0 01-.11-.37c0-.13.03-.25.09-.36a.42.42 0 01.22-.18h.16c.17.01.33.06.47.15.13.08.27.15.41.21.1.04.22.06.34.05a.9.9 0 00.34-.05c.14-.06.28-.13.41-.21a1.05 1.05 0 01.63-.15c.1.03.17.1.22.18.06.1.1.23.09.36-.02.13-.05.25-.11.37l-.13.3v.12c0 .06.02.12.05.17l.1.1a1 1 0 00.48.14c.17 0 .34-.03.5-.09.16-.06.31-.17.43-.3l-.06-.05-.03-.05z"/><path fill="#703D29" d="M22.55 20.73h.07l.23.1c.14.06.27.13.39.21.12.09.22.2.3.33a.6.6 0 01.07.29.63.63 0 010-.01.66.66 0 00-.08-.33 1.2 1.2 0 00-.32-.35 2.2 2.2 0 00-.41-.22l-.27-.11h-.06l.08.09z"/><path fill="#703D29" d="M22.57 22.09a.46.46 0 00.58-.11c.09-.1.14-.23.14-.37 0-.18-.1-.36-.24-.47l-.05.06c.13.1.21.25.22.41 0 .11-.04.22-.12.31a.4.4 0 01-.3.14.47.47 0 01-.19 0v.07l-.04-.04z"/><path fill="#703D29" d="M22.61 21.56v.11c0 .05.02.1.06.13.03.03.08.05.12.05.06 0 .13-.02.17-.07a.3.3 0 00.07-.15.32.32 0 00-.15-.27c.07.04.1.12.11.2v.11a.14.14 0 01-.11 0h-.07v-.14l-.2.03zm5.81-10.89c.1 0 .18.05.23.13.06.08.1.18.1.29 0 .2-.1.4-.24.53-.08.1-.17.19-.28.29l.06.06.28-.3a.86.86 0 00.26-.58.55.55 0 00-.12-.34.39.39 0 00-.3-.16v.08h.01z"/><path fill="#703D29" d="M28.16 10.45a.4.4 0 01.16.14c.06.1.1.2.09.32 0 .12-.05.23-.12.32a1 1 0 01.02-.02c.08-.1.13-.23.13-.36a.59.59 0 00-.11-.36.48.48 0 00-.19-.17l.02.13zm-.41-.01c.07.09.1.2.1.31v.11a.53.53 0 01-.22.32.61.61 0 00.25-.37v-.13a.57.57 0 00-.12-.36l-.01.12zm-.42-.06c.11.09.17.22.17.36v.16a.49.49 0 01-.25.31c.14-.08.24-.2.28-.36v-.18a.52.52 0 00-.2-.43v.14zm.59 3.46v.08L28 14c.11.11.26.2.41.23h.15c.1 0 .2-.03.28-.08a.45.45 0 01-.24.07h-.13a.81.81 0 01-.37-.21l-.1-.14v-.05l-.08.02zm-9.36 3.73a.2.2 0 01.17.12v.15h-.15a.1.1 0 010-.08c0 .05.02.1.06.14.04.02.09.02.13 0h.12a.17.17 0 00.06-.08v-.1a.24.24 0 000-.12.29.29 0 00-.24-.16l-.15.13zm.44-2.08c.16.04.31.14.41.28.13.16.22.34.27.54.02.14.02.28 0 .42v.32c-.05.26-.18.5-.36.69l-.13.11h-.07v.07h.07l.14-.12c.2-.2.33-.46.38-.73a1.6 1.6 0 000-.33 2 2 0 000-.44 1.6 1.6 0 00-.28-.57.82.82 0 00-.46-.3v.08l.03-.02z"/><path fill="#703D29" d="M18.7 17.2c.05 0 .1.02.14.06.04.04.06.1.06.15a.2.2 0 01-.05.14l.06.06a.28.28 0 00.08-.19.3.3 0 00-.08-.2.27.27 0 00-.2-.09v.08l-.01-.01z"/><path fill="#703D29" d="M18.61 17.34c.06 0 .11.03.15.07.04.04.07.1.07.15a.2.2 0 01-.08.16v.06c.07-.05.1-.13.11-.22a.31.31 0 00-.3-.3v.08h.05zM19.8 16a1.15 1.15 0 01-.02-.03l.02.03zm.2 1a1 1 0 01.01-.03L20 17zm-.17-2c.1.07.17.17.21.28h.08a.63.63 0 00-.24-.32v.06l-.05-.02zm.17-.31a.6.6 0 01-.2.27c.1-.08.18-.19.22-.31l-.02.04zm-.7-.69h.14l.09-.07.06-.08v-.22.26l-.07.05h-.13zm-.3-.61l-.16.06a.6.6 0 00-.24.2 1.1 1.1 0 00-.15.4 1 1 0 000 .18v.26a1 1 0 00.15.37l.07.09.11.09c.05.01.1.01.14 0H19V15h-.15l-.09-.08-.06-.08a1 1 0 01-.14-.34v-.4a1 1 0 01.14-.37.52.52 0 01.21-.17l.15-.05v-.08l-.06-.04zm.73-.57v.1a.11.11 0 01-.09 0c.06 0 .11-.02.15-.07a.35.35 0 00.06-.13l-.12.1z"/><path fill="#703D29" d="M19.34 13.35a.44.44 0 00-.31-.11.71.71 0 00-.38.12l-.1.08a.6.6 0 00-.1.11 1.17 1.17 0 00-.15.33v.58c.03.14.08.28.15.4a1 1 0 00.16.2c.1.09.22.14.35.15.07.02.13.02.2 0a.25.25 0 00.08-.07.19.19 0 000-.11h-.08v.06a.2.2 0 01-.1.06h-.12a.53.53 0 01-.31-.13.78.78 0 01-.15-.18 1.13 1.13 0 01-.14-.38v-.22a1.35 1.35 0 010-.33c.01-.06.03-.1.06-.16l.08-.15.08-.09.09-.07c.1-.07.22-.1.34-.11.1 0 .18.03.25.09l.06-.06.04-.01zm7.45-2.57v.08c0 .08-.06.14-.13.16a.2.2 0 01-.2-.21v-.09a.24.24 0 01.09-.11.35.35 0 01.21-.07h.16c.05.03.09.08.11.13v.13c0 .1-.05.2-.12.26-.24.25-.56.4-.91.44-.46-.03-.9-.18-1.28-.43h-.1a.15.15 0 00-.12.05.16.16 0 000 .1c0 .05.02.1.06.13v-.12h.12c.4.26.85.41 1.32.44.44.02.87-.16 1.17-.48.08-.08.13-.2.14-.31a.41.41 0 000-.16.35.35 0 00-.14-.17.43.43 0 00-.46.04c-.06.04-.1.1-.12.16v.11a.28.28 0 00.28.29h.06c.1-.03.18-.13.18-.24a.21.21 0 000-.13.13.13 0 00-.11-.05.16.16 0 00-.1 0 .16.16 0 00-.06.1l-.05-.05z"/><path fill="#703D29" d="M26.87 10.71v.07c0 .08-.05.15-.13.17.1-.03.19-.13.19-.24a.2.2 0 000-.12h-.08l.02.12zm1.06 3.54a.42.42 0 00-.11.29c0 .1.03.21.08.31.04.08.1.15.18.2h.09-.07a.44.44 0 01-.15-.17.6.6 0 01-.07-.27.34.34 0 01.12-.31l-.07-.05zm.07-.46a.26.26 0 00-.09.1.33.33 0 000 .14c0 .1.03.19.1.26.17.16.38.24.61.25.14 0 .28-.04.39-.12a.61.61 0 00.26-.36h-.08a.53.53 0 01-.22.32.6.6 0 01-.35.1c-.2 0-.4-.08-.55-.22a.28.28 0 01-.08-.21v-.1a.18.18 0 01.06-.07v-.07l-.05-.02z"/><path fill="#703D29" d="M27.85 18v.15a1.28 1.28 0 01-.74 1.02 2.07 2.07 0 01-.83.18h-1.17a1.43 1.43 0 00-.7.09l-.25.13-.1.07-.06.06-.06-.06a1.43 1.43 0 00-.68-.29 1.85 1.85 0 00-.37 0h-1.17a2.1 2.1 0 01-.43-.05 1.51 1.51 0 01-.76-.38c-.1-.1-.2-.22-.26-.35a1.15 1.15 0 01-.13-.42v-6.57h7.69V18v-6.5H20v6.66c.04.31.18.6.41.82a1.59 1.59 0 00.8.4c.14.03.3.05.44.05h1.53c.11.02.22.05.32.09l.24.12.09.06a1.41 1.41 0 01.66-.28h1.53a2.12 2.12 0 00.86-.19 1.36 1.36 0 00.79-1.08v-.16l.18.01z"/><circle cx="19.95" cy="19.22" r="1" fill="#C7B37F"/><path fill="#C7B37F" d="M19.45 18.88a.14.14 0 11.28 0 .14.14 0 01-.28 0 .18.18 0 10.36 0 .18.18 0 00-.36 0z"/><circle cx="18.99" cy="18.12" r="1" fill="#C7B37F"/><path fill="#C7B37F" d="M18.48 17.76a.14.14 0 010-.09.07.07 0 01.12 0c.04.05.04.12 0 .17a.07.07 0 01-.12 0 .14.14 0 010-.09.18.18 0 000 .11.12.12 0 00.19 0 .19.19 0 000-.23.12.12 0 00-.19 0 .18.18 0 000 .11v.02z"/><circle cx="19.53" cy="15.34" r="1" fill="#C7B37F"/><circle cx="21.5" cy="11.15" r="1" fill="#C7B37F" transform="rotate(-5.98 21.5 11.15)"/><path fill="#C7B37F" d="M18.89 15.58h-.07v.03l.07-.03zm.24 1.91l.06-.07v-.2.2zm.05.51h-.17l-.08.05-.08.06.08-.06.08-.05h.16zm.67-2.14l-.05-.05-.06-.06h-.06.06l.05.05.05.05zm-.02-.86h-.15v.08h.19v-.07zm-1.08-1v.1l.06.12.09.11.09.07.1.05H19v-.17l-.07-.09a.45.45 0 01-.05-.1V14h-.13zm.3.1h.4-.35zm.88-2.57l-.13-.07-.11-.09-.07-.08v-.08l.05.09.08.09.12.1.13.08zM20 11v.11l.1.14.09.08.09.06-.09-.06-.08-.06a.45.45 0 01-.08-.12v-.1L20 11zm.37 0v.1l.06.08.09.09h.12-.11l-.08-.08v-.16l-.08-.03z"/><path fill="#703D29" d="M24.83 10.43c0-.11-.11-.12-.15-.12-.04 0-.15.07-.29.15a.8.8 0 01-.85 0c-.15-.08-.17-.15-.29-.15a.15.15 0 00-.14.15v.05a.15.15 0 010-.11.14.14 0 01.1-.05c.12 0 .16.07.3.15a.8.8 0 00.85 0c.15-.08.19-.16.3-.16.04 0 .07.03.08.07a.2.2 0 010 .05l.09-.03z"/><path fill="#703D29" d="M24.83 10.43a.12.12 0 00-.07-.11h-.09a.23.23 0 00-.14 0l-.16.1a.74.74 0 01-.42.12.75.75 0 01-.42-.12l-.15-.1a.22.22 0 00-.14 0 .16.16 0 00-.15.16.13.13 0 010-.09.13.13 0 01.09 0c.05-.01.1-.01.14 0l.16.11a.82.82 0 00.86 0l.16-.11a.22.22 0 01.13 0c.04 0 .06.03.07.06v-.06.06a.1.1 0 00-.09-.08.3.3 0 00-.15.05l-.16.11a.75.75 0 01-.42.12.74.74 0 01-.42-.12l-.16-.11a.25.25 0 00-.15 0 .15.15 0 00-.11.06.16.16 0 000 .1.13.13 0 010-.1.13.13 0 01.09 0 .2.2 0 01.13 0l.16.1a.82.82 0 00.86 0l.16-.11a.21.21 0 01.13 0h.08a.1.1 0 01.05.09l.13-.13zm-4.34 8.98h.06-.1s.06 0 0 .09a.23.23 0 01-.05.08l-.17.18v-.39h.05c.05 0 0 0 0 0h-.13v.53l.33-.36.01-.13zm.19.07c0-.07.06 0 .07-.05.01-.05 0 0 0 0h-.15s.07 0 .05.09l-.11.34c0 .07-.06 0-.07.06h.17s-.08 0 0-.1l.11-.34h-.07z"/><path fill="#703D29" d="M20.92 19.55h.06a.11.11 0 01.07.15s0 .08-.13.05v-.2zm-.18.31c0 .09-.07.05-.08.07-.01.02 0 0 0 0h.16s-.07 0 0-.09v-.12.19s0 .1.07.11h.08v-.23a.12.12 0 00.06-.08s0-.14-.12-.18h-.21s.07 0 0 .1l.04.23zm.53.14c0 .09-.09 0-.09.06h.18s-.08 0-.06-.11l.08-.33h.06c.08 0 0 .09.06.1.06.01 0 0 0 0v-.07h-.2l-.2-.05v.09s0-.09.11-.08h.06l-.08.34.08.05zm.8-.19h.06c.01 0 0 0 0 0H22s.07 0 .05.08v.08l-.13.21v-.36h-.14v.05l.09.46.2-.52zm.04.42h.11a.15.15 0 00.18-.14.16.16 0 00-.09-.18c-.08-.06-.12-.07-.11-.12a.07.07 0 01.09-.07c.11 0 .1.16.12.16.02 0 0 0 0 0v-.1h-.1a.15.15 0 00-.08.28c.1.07.14.09.13.15a.09.09 0 01-.11.08c-.07 0-.1-.09-.11-.16-.01-.07 0 0 0 0l-.03.1zm1-.23l.05-.05c.05-.05 0 0 0 0H23s.07 0 .06.07A.23.23 0 0123 20l-.11.22-.06-.22v-.11h-.14l.13.45.29-.34z"/><path fill="#703D29" d="M23.21 20.32c0 .08-.07.06-.07.09h.14s-.09 0-.09-.13V20l.32.39V20c0-.08.06-.06.06-.08h-.16s.08 0 .08.08v.25l-.27-.33h-.12s.08 0 .07.13v.29l.04-.02zm.66-.32c0-.07.05 0 .05-.07h-.19s.07 0 .07.07v.44h.21s-.08 0-.08-.08V20h-.06zm.28.33c0 .09-.08.05-.08.08h.19s-.09 0-.09-.09V20h.06c.08 0 .06.08.08.08.02 0 0 0 0 0v-.07H24V20s0-.1.09-.1h.06v.43zm.4-.15v-.14l.07.13h-.11l.04.01zm.12 0v.12c0 .06 0 0 0 0h.1l-.22-.44-.15.47v.06h.14s-.07 0-.08-.06v-.12l.21-.03zm.52-.28c0-.05 0-.05.08-.06.08-.01.09.08.12.07.03-.01 0 0 0 0v-.11h-.33s.08 0 .09.06v.44h.18s-.08 0-.09-.07v-.17c.07 0 .06.07.08.07.02 0 0 0 0 0V20s0 .07-.06.08v-.1l-.07-.08zm.24.18a.23.23 0 00.27.21.26.26 0 00.2-.33.23.23 0 00-.28-.21.26.26 0 00-.19.33zm.07-.06c0-.11 0-.22.11-.24.11-.02.18.05.21.22.03.17 0 .23-.11.25-.11.02-.18-.12-.2-.25l-.01.02z"/><path fill="#703D29" d="M26 19.76v-.05c0-.05.12 0 .13.1.01.1 0 .09-.08.11-.08.02 0 0 0 0l-.05-.16zm0 .36v.1c0 .02 0 0 0 0h.16s-.06 0-.08-.06v-.13a.05.05 0 01.07 0l.08.1s.06.08.11.07c.05-.01.07 0 .06-.06h-.06l-.15-.18a.12.12 0 000-.1.14.14 0 00-.19-.1h-.21s.07 0 .09.06l.12.3zm.58-.12c0 .09-.06.07-.05.1.01.03 0 0 0 0h.18s-.08 0-.11-.07l-.09-.33h.06c.07 0 .07.06.1.06v-.07l-.2.05h-.2v.1s0-.1.06-.12h.06l.19.28zm.34-.47v-.08h-.15s.08 0 .09.05l.1.35v.09L27 20h.1s-.07 0-.1-.06l-.08-.41zm.15.17a.23.23 0 00.3.17.26.26 0 00.15-.36.23.23 0 00-.3-.17.26.26 0 00-.15.36zm.07-.07c0-.1 0-.21.07-.25.07-.04.19 0 .24.19.05.19 0 .23-.07.27-.07.04-.21-.1-.25-.21h.01z"/><path fill="#703D29" d="M27.62 19.29v-.06c0-.06.12 0 .15.08s0 .08-.07.12c-.07.04 0 0 0 0l-.06-.14h-.02zm.05.35v.11c0 .02 0 0 0 0h.07v-.12a.05.05 0 01.07 0l.1.09s.07.07.12 0c.05-.07.06 0 .05-.06H28l-.18-.16a.12.12 0 000-.1.14.14 0 00-.2-.07l-.13.05h-.07s.07 0 .1.05l.15.21z"/><path fill="#D52B1E" d="M20.47 11.93h3.32v3.31h-3.32z"/><path fill="#FFF" d="M22 14.54v.21a.51.51 0 01-.07.16.53.53 0 01-.15.16.38.38 0 01-.24.07c-.22 0-.32-.26-.37-.45-.05-.19-.2-.32-.3-.24a.13.13 0 000 .19c.04.05.1.09.17.11l-.12.15a.37.37 0 01-.3-.3.32.32 0 01.2-.34c.17-.05.36.04.42.21.09.18.13.5.38.45.25-.05.2-.23.2-.32l.1-.11h.15l-.07.05zm.23 0v.21c.01.06.04.11.07.16.04.06.09.12.15.16a.4.4 0 00.24.07c.22 0 .32-.26.37-.45.05-.19.2-.32.3-.24a.13.13 0 010 .19.36.36 0 01-.17.11l.12.15a.37.37 0 00.3-.3.32.32 0 00-.2-.34.34.34 0 00-.42.21c-.09.18-.13.5-.38.45-.25-.05-.2-.23-.2-.32l-.1-.11h-.15l.07.05z"/><path fill="#FEDF00" d="M22.43 13.13l.43-.47a.19.19 0 00.06-.14h-.09.12v-.11h-.13v-.06H23a.38.38 0 01.58 0 .33.33 0 01-.08.53.26.26 0 01-.28 0l.08-.16a.12.12 0 00.19-.1c0-.1-.08-.18-.18-.18a.2.2 0 00-.2.13v.14a1 1 0 010 .15.35.35 0 01-.1.14l-.45.48-1.73 1.87-.15-.35 1.75-1.87z"/><path fill="#FFF" d="M21.15 13.3c.11.47.27.92.48 1.35.16-.07.33-.1.5-.11.17 0 .34.04.5.11.2-.43.37-.88.48-1.35l-1-1.26-.96 1.26z"/><path fill="#FEDF00" d="M22.22 12.46l.68.87c-.1.36-.22.72-.37 1.06-.1-.03-.2-.04-.31-.05v-1.88zm-.22 0l-.68.87c.1.36.22.72.37 1.06.1-.03.2-.04.31-.05v-1.88zm2.14-.53h3.32v3.31h-3.32z"/><path fill="#D52B1E" d="M24.6 11.93h.49v3.31h-.49zm.95 0h.49v3.31h-.49zm.95 0h.49v3.31h-.49z"/><path fill="#FEDF00" d="M20.48 18.11c.01.1.04.19.09.27a1 1 0 00.17.24 1.09 1.09 0 00.53.28c.22.06.44.08.67.06a4 4 0 00.41 0h.94c.15.03.3.08.44.13V15.6h-3.26v2.55l.01-.04z"/><path fill="#D52B1E" d="M20.87 18.72l.15.09.22.08V15.6h-.37z"/><path fill="#D52B1E" d="M20.87 18.72l-.01.02.16.09.24.09v-3.34h-.41v3.15l.01.01.01-.02h.02v-3.1h.33v3.24l-.19-.07-.15-.09-.01.02h.02zm1.84.15V15.6h-.37v3.32h.37z"/><path fill="#D52B1E" d="M22.71 18.87v-3.29h-.41v3.37h.37-.37v-3.3h.33v3.25zm.74-3.27h-.37v3.28c.12.01.25.04.37.07V15.6z"/><path fill="#D52B1E" d="M23.45 15.6h-.39v3.3c.12.01.25.04.37.07V15.6v3.35a2.46 2.46 0 00-.37-.07v-3.26h.37l.02-.02zm-1.45 0V19h-.37v-3.4H22z"/><path fill="#D52B1E" d="M22 15.6V19h-.37v-3.38H22h-.39V19H22z"/><path fill="#FEDF00" d="M27.44 18.11a1 1 0 01-.26.51 1.09 1.09 0 01-.53.28 4 4 0 01-1.06.1h-.99c-.15.03-.3.08-.45.13V15.6h3.32v2.55l-.03-.04z"/><path fill="#D52B1E" d="M25 15.87h-.05v.06h.24H25h.08c.01.05.03.1.06.13v.06a.36.36 0 00-.07.07s-.05 0 0 .11l.06.1v.16s-.06 0-.07-.07c-.01-.07 0 0 0 0l.08-.07h.12v.29h.08v-.43a1 1 0 00.38 0l.11.07h.07v.19h-.08.13v-.06a.51.51 0 01.12-.16l.07-.06c.06 0 0 0 .05.06s0 0 0 .07v.08a.3.3 0 010 .09v.14h.07v-.84a.16.16 0 00.1-.1v-.06a.22.22 0 00-.11-.06h-1.48a.1.1 0 00.06 0h-.3l.47.23z"/><path fill="#FEDF00" d="M26.76 16.34h-.54v-.07H26l.06-.06H26h.71v-.12h-.8l.07.06h.11l-.06.06h.24v.06h.64l-.15.07z"/><path fill="#FCD900" d="M25 16h-.05.05z"/><path fill="#FEDF00" d="M25 16h-.05.05-.06zm.41.57v.05-.07zm.32-.07v.05-.05zm-.46.11v.07c0 .03.03.05.05.07a.5.5 0 010-.07v-.06l-.05-.01zm1.17.22a.37.37 0 00.12-.08l-.06-.06-.1.06v.07l.04.01zm-.33-.06l.19-.07h.11a.52.52 0 00-.14.05l-.17.07.01-.05z"/><path fill="#FEDF00" d="M26.26 16.59h.07l.07.06.1.08a.26.26 0 01-.08-.06.37.37 0 00-.09-.07h-.12l.05-.01z"/><path fill="#FCD900" d="M24.71 16.18h.1z"/><path fill="#FEDF00" d="M24.71 16.18h.08-.23z"/><path fill="#0065BD" d="M25 16.57h-.08v-.1.12l.08-.02z"/><circle cx="25.5" cy="17.02" r="1" fill="#0065BD" transform="rotate(-1.15 25.5 17.02)"/><path fill="#0065BD" d="M24.9 15.94V16v-.06zm.1.43h.09c.06-.04.11-.1.14-.16a.56.56 0 00.06-.17h-.07a.63.63 0 01-.07.17.47.47 0 01-.11.12l-.04.04zm.24.73v-.05h.05v.06s-.05-.05-.05-.08v.07zm1.33.08h.12-.18.06zm-.39-.08h.12-.18.06zm-.7.08h.12-.18.06zM25.12 16v-.12.12z"/><path fill="#D52B1E" d="M25 17.35h-.05v.06h.24H25h.08c.01.05.03.1.06.13v.06a.36.36 0 00-.07.07s-.05 0 0 .11l.06.1v.16s-.06 0-.07-.07c-.01-.07 0 0 0 0l.08-.07h.12v.29h.08v-.43a1 1 0 00.38 0l.11.07h.07v.19h-.08.13v-.06a.51.51 0 01.12-.16l.07-.06c.06 0 0 0 .05.06s0 0 0 .07v.08a.3.3 0 010 .09v.14h.07v-.84a.16.16 0 00.1-.1v-.06a.22.22 0 00-.11-.06h-1.48a.1.1 0 00.06 0h-.3l.47.23z"/><path fill="#FEDF00" d="M26.76 17.82h-.54v-.07H26l.06-.06H26h.71v-.12h-.8l.07.06h.11l-.06.06h.24v.06h.64l-.15.07z"/><path fill="#FCD900" d="M25 17.5h-.05.05z"/><path fill="#FEDF00" d="M25 17.5h-.05.05v-.06h-.06.06v.06zm.41.55v.05-.07zm.32-.05zm-.46.09v.07c0 .03.03.05.05.07a.5.5 0 010-.07V18l-.05.09zm1.17.22a.37.37 0 00.12-.08l-.06-.06-.1.06v.07l.04.01zm-.33-.07l.19-.07h.11a.52.52 0 00-.14.05l-.17.07.01-.05z"/><path fill="#FEDF00" d="M26.26 18.06h.07l.07.06.1.08a.26.26 0 01-.08-.06.37.37 0 00-.09-.07h-.12l.05-.01z"/><path fill="#FCD900" d="M24.71 17.66h.1z"/><path fill="#FEDF00" d="M24.71 17.66h.08-.23z"/><path fill="#0065BD" d="M25 18h-.08v-.1.12L25 18z"/><circle cx="25.47" cy="18.54" r="1" fill="#0065BD" transform="rotate(-1.03 25.47 18.54)"/><path fill="#0065BD" d="M24.9 17.42v.06-.06zm.1.43h.09c.06-.04.11-.1.14-.16a.56.56 0 00.06-.17h-.07a.63.63 0 01-.07.17.47.47 0 01-.11.12l-.04.04zm.24.73v-.05h.05v.06s-.05-.05-.05-.08v.07zm1.33.07h.12-.18.06zm-.39-.08h.12-.18.06zm-.7.09h.12-.18.06zm-.36-1.2v-.12.12z"/><path fill="#703D29" d="M20.47 11.93v.04h3.28v3.24H20.5v-3.28h-.03v.04-.04h-.03v3.35h3.38V11.9h-3.38v.03zm3.67 0v.04h3.28v3.24h-3.25v-3.28h-.03v.04-.04h-.03v3.35h3.38V11.9h-3.38v.03zm-3.66 6.18c.01.1.04.2.09.28l.06.1.12.15a1.12 1.12 0 00.54.29 2 2 0 00.53.07h.15a4 4 0 00.42 0h.9l.3.08h.1v-3.51h-3.25v2.59h.06v-2.53h3.25v3.42c-.15-.05-.3-.1-.45-.13h-.95a4 4 0 01-.41 0h-.15a1.9 1.9 0 01-.78-.17.94.94 0 01-.24-.17l-.11-.14-.06-.1a.81.81 0 01-.08-.26l-.04.03zm6.96 0a.81.81 0 01-.08.26l-.06.1-.11.14a1.06 1.06 0 01-.51.27 1.9 1.9 0 01-.51.07H26a4 4 0 01-.41 0h-1c-.15.03-.3.08-.45.13v-3.45h3.25v2.46h.06v-2.56h-3.34v3.57c.13-.05.26-.08.4-.11h.98A4 4 0 0026 19h.15a2 2 0 00.81-.17 1 1 0 00.26-.19l.12-.15.06-.1a.87.87 0 00.09-.28h-.05z"/><path fill="#2C283A" d="M44 1a3 3 0 013 3v24a3 3 0 01-3 3H4a3 3 0 01-3-3V4a3 3 0 013-3h40zm0-1H4a4 4 0 00-4 4v24a4 4 0 004 4h40a4 4 0 004-4V4a4 4 0 00-4-4z" opacity=".08"/></g></svg>