<svg xmlns="http://www.w3.org/2000/svg" viewBox="0 0 48 32"><g fill="none"><rect width="48" height="32" fill="#2C283A" rx="4"/><path fill="#FF1744" d="M4 0h40a4 4 0 014 4v12H0V4a4 4 0 014-4z"/><path fill="#FFDA00" d="M27.47 21.51l.4-.36-.54-.64c.37-.4.7-.82 1-1.28l.83.27.61-1.37-.67-.36c.22-.53.39-1.07.5-1.63h.87l.11-1.5-.79-.1a9 9 0 00-.11-1.57v-.24l.76-.34-.44-1.48-.77.2a8.86 8.86 0 00-1-1.93l.57-.6-.94-1.16-.7.53c-.4-.37-.82-.7-1.28-1l.3-.8-1.31-.7-.43.74c-.47-.2-.95-.34-1.45-.45l-.25 1.23a7.52 7.52 0 015.83 6.19 7.62 7.62 0 01-2.63 7.05m.72.94l.17-.14m-1.73 1.18l.19-.1m-1.43-.71c-2.49 1-5.31.56-7.39-1.13l-.77 1c.32.26.65.5 1 .72l-.23.78 1.36.6.34-.69c.49.17.99.3 1.5.39l.08.85h1.48l.05-.76A9 9 0 0023 23l.35.77 1.41-.47-.21-.8.6-.28m-1.08-.93l-.21.09"/><path fill="#FFDA00" d="M21.9 10.47l.66-2 .64 2h2.09l-1.67 1.3.7 2.09-1.77-1.32-1.73 1.32.7-2.07-1.71-1.3h2.09v-.02zm-2.78 3.84c-2 4.13 1.85 4.38 9.3 9.83l.62-.72-7.37-5.72a.06.06 0 110-.12l7.39 5.74.12-.13c-8.66-6.63-9.67-7.29-10.12-8.88h.06zm10.32 9l-.68.85 2.17 1.67c.28.8.89.83 1.24.48a.67.67 0 00-.07-.87l-2.66-2.14v.01zm.68.93c.06 0 .1.04.1.1a.1.1 0 11-.2 0c0-.06.04-.1.1-.1zm.52.4c.06 0 .1.04.1.1a.1.1 0 11-.1-.1zm.51.4a.1.1 0 01.1.1.1.1 0 11-.1-.1z"/><path fill="#2C283A" d="M44 1a3 3 0 013 3v24a3 3 0 01-3 3H4a3 3 0 01-3-3V4a3 3 0 013-3h40zm0-1H4a4 4 0 00-4 4v24a4 4 0 004 4h40a4 4 0 004-4V4a4 4 0 00-4-4z" opacity=".08"/></g></svg>