<svg xmlns="http://www.w3.org/2000/svg" viewBox="0 0 48 32"><g fill="none"><rect width="48" height="32" fill="#00BDFF" rx="4"/><path fill="#00BDFF" d="M4 0h40a4 4 0 014 4v6H0V4a4 4 0 014-4z"/><path fill="#F6F4F9" d="M0 10h48v12H0z"/><path fill="#FFDA00" d="M23.82 16.08l1.63 3.55s0 .07.07 0 0-.09 0-.09l-1.36-3.66m0 1.38c0 .54.31.84.27 1.32 0 .33.1.66.28.94.06.19-.07.3 0 .33.07.03.18-.12.14-.39-.04-.27-.24-.35-.19-.93.05-.58-.24-.73-.17-1.26"/><path fill="#85340A" d="M23.8 16.08l1.63 3.55h.06v-.05l-1.29-3.66 1.36 3.66-1.63-3.55-.13.05zm.32 1.22c0 .21.05.42.14.62.08.18.13.37.14.56v.19c0 .18.04.36.12.52.07.14.14.24.16.32v.21h.06a.26.26 0 00.07-.11.52.52 0 000-.18v-.11c-.03-.1-.07-.21-.12-.31a1 1 0 01-.09-.45v-.3c0-.17-.03-.35-.09-.51a1.37 1.37 0 01-.09-.62v.17c0 .16.03.32.09.47.06.16.09.33.09.5v.3c0 .16.03.32.09.47.05.1.09.2.11.3v.1c.02.07.02.13 0 .2v-.28c0-.09-.1-.2-.17-.33a1.13 1.13 0 01-.12-.5v-.19a1.62 1.62 0 00-.21-.34c-.08-.2-.13-.4-.14-.61l-.04-.09z"/><path fill="#FFDA00" d="M23.8 16l.2 3.9v.03l.2-3.93m-.56 1.26c-.22.49 0 .89-.26 1.32-.13.32-.17.66-.1 1 0 .2-.18.25-.14.3.04.05.21 0 .27-.31.06-.31-.09-.41.18-.94s.06-.76.33-1.23"/><path fill="#85340A" d="M23.78 16l.15 3.9a.1.1 0 000-.05l.15-3.9L24 19.9l-.17-3.9h-.05zm-.17 1.25c-.1.22-.14.45-.13.69 0 .22-.04.43-.13.63-.09.17-.13.35-.13.54v.41c0 .1 0 0 0 0 0 .07-.03.13-.07.18v.05h.07a.5.5 0 00.2-.31v-.35c0-.2.06-.4.16-.58.1-.2.16-.42.16-.65 0-.2.06-.41.16-.59-.1.18-.16.39-.17.6 0 .22-.06.43-.16.63-.1.18-.16.39-.17.6v.34a.54.54 0 01-.11.23l-.06.05a.4.4 0 00.12-.25v-.41c0-.18.04-.36.13-.52.1-.2.14-.43.13-.65 0-.23.04-.47.13-.68l-.13.04z"/><path fill="#FFDA00" d="M23.82 15.93l-1.36 3.66v.09c0 .02.07 0 .07 0l1.63-3.55m-1 .95c-.4.37-.37.81-.74 1.12-.2.22-.35.5-.42.8-.09.18-.26.16-.24.22.02.06.21 0 .37-.18s.07-.42.52-.8c.45-.38.34-.68.77-1"/><path fill="#85340A" d="M23.8 15.92l-1.36 3.66v.05h.06l1.63-3.55-1.63 3.55 1.36-3.66-.06-.05zM23.16 17c-.17.17-.3.37-.39.59-.08.2-.2.38-.36.53-.16.13-.28.3-.35.49-.06.16-.08.3-.13.38a.32.32 0 01-.14.14h-.06.15c.07-.04.13-.1.18-.17.07-.1.12-.22.16-.34.08-.18.2-.33.36-.45.17-.14.3-.33.4-.53.08-.19.2-.35.37-.48-.17.13-.3.3-.39.5-.09.2-.22.38-.39.52-.16.12-.3.29-.38.47a1.5 1.5 0 01-.15.33.58.58 0 01-.16.15.27.27 0 01-.13 0A.4.4 0 0022 19c0-.09.07-.23.13-.39.07-.18.18-.35.33-.47.17-.15.3-.34.37-.55.08-.22.21-.42.38-.58l-.05-.01z"/><path fill="#FFDA00" d="M23.86 15.86l-2.66 2.86s-.05.05 0 .09c.05.04.09 0 .09 0l2.86-2.66m-1.29.49c-.51.19-.65.61-1.12.75-.3.13-.56.34-.74.61-.15.13-.3.05-.31.11-.01.06.18.12.41 0 .23-.12.23-.36.79-.54.56-.18.58-.5 1.1-.64"/><path fill="#85340A" d="M23.84 15.85l-2.66 2.86a.1.1 0 000 .05h.05l2.86-2.66-2.86 2.66h-.03l2.66-2.86-.02-.05zm-1 .76c-.22.1-.42.23-.58.4-.15.16-.33.28-.53.35-.2.06-.37.17-.51.32-.12.12-.19.24-.26.3a.32.32 0 01-.19.08h-.1.15c.1 0 .2-.03.29-.09.06-.03.1-.07.15-.12a1.23 1.23 0 01.64-.41c.21-.07.4-.19.57-.34.15-.14.33-.25.53-.3-.2.05-.4.16-.55.31-.16.15-.35.26-.56.33-.2.05-.38.15-.53.29l-.16.27a.64.64 0 01-.14.11.53.53 0 01-.26.08h-.09A.39.39 0 0021 18c.08-.07.15-.19.27-.31.13-.15.3-.25.49-.31.21-.08.4-.2.55-.37.16-.17.35-.3.57-.39l-.04-.01z"/><path fill="#85340A" d="M24.25 17.4c0 .52.32.75.26 1.22.13-.37-.18-.66-.16-1.22m-.44-1.4L25 18.48 24.09 16"/><path fill="#85340A" d="M23.69 17.39c-.17.49 0 .81-.22 1.23.26-.3.09-.68.32-1.18M23.9 16l.1 2.68.1-2.68"/><path fill="#85340A" d="M23.19 17.16c-.35.38-.3.76-.68 1 .35-.17.34-.6.75-1m.65-1.16L23 18.48 24.09 16"/><path fill="#85340A" d="M22.8 16.76c-.47.22-.57.58-1 .71.39 0 .54-.42 1.06-.61m1.09-.93l-1.83 2 2-1.83"/><path fill="#FFDA00" d="M23.92 15.82l-3.55 1.63s-.07 0 0 .07.09 0 .09 0l3.66-1.36m-1.38 0c-.54 0-.84.31-1.32.27-.33 0-.66.1-.94.28-.19.06-.3-.07-.33 0-.03.07.12.18.39.14.27-.04.35-.24.93-.19.58.05.73-.24 1.26-.17"/><path fill="#85340A" d="M23.92 15.8l-3.55 1.63h.09l3.66-1.36-3.72 1.45h-.05l3.55-1.63.02-.09zm-1.22.32c-.21 0-.42.05-.62.14a1.6 1.6 0 01-.56.14h-.19c-.18 0-.36.04-.52.12-.14.07-.24.14-.32.16h-.39v.06c.03.03.07.06.11.07h.29c.1-.03.21-.07.31-.12a1 1 0 01.45-.09h.3c.17 0 .35-.03.51-.09.15-.06.3-.09.46-.09h.16-.17c-.16 0-.32.03-.47.09-.16.06-.33.09-.5.09h-.3c-.16 0-.32.03-.47.09-.1.05-.2.09-.3.11h-.1a.44.44 0 01-.2 0h.28c.09 0 .2-.1.33-.17.16-.08.33-.12.5-.12h.19c.18-.04.36-.11.52-.21.2-.08.4-.13.61-.14l.09-.04z"/><path fill="#FFDA00" d="M24 15.8l-3.9.2H20h.07l3.9.15m-1.26-.56c-.49-.22-.89 0-1.32-.26a1.72 1.72 0 00-1-.1c-.2 0-.25-.18-.3-.14-.05.04 0 .21.31.27.31.06.41-.09.94.18s.76.06 1.23.33"/><path fill="#85340A" d="M24 15.78l-3.9.15a.06.06 0 00-.1.07h.05l3.9.15L20.1 16l3.9-.15v-.07zm-1.25-.17a1.7 1.7 0 00-.69-.13c-.22 0-.43-.04-.63-.13a1.14 1.14 0 00-.54-.13h-.41a.31.31 0 01-.18-.07h-.11v.07c.07.1.18.18.31.2h.35c.2 0 .4.06.58.16.2.1.42.16.65.16.2 0 .41.06.59.16-.18-.1-.39-.16-.6-.17a1.4 1.4 0 01-.63-.16c-.18-.1-.39-.16-.6-.17h-.34a.55.55 0 01-.23-.11l-.05-.06a.4.4 0 00.25.12h.41c.18 0 .36.04.52.13.2.1.43.14.65.13.23 0 .47.04.68.13l.02-.13z"/><path fill="#FFDA00" d="M24.07 15.82l-3.66-1.36h-.09c-.02 0 0 .07 0 .07l3.55 1.63m-.95-1c-.37-.4-.81-.37-1.12-.74-.22-.2-.5-.35-.8-.42-.18-.09-.16-.26-.22-.24-.06.02 0 .21.18.37s.42.07.8.52c.38.45.68.34 1 .77"/><path fill="#85340A" d="M24.08 15.8l-3.66-1.36h-.09l3.55 1.63-3.55-1.63 3.66 1.36h.09zM23 15.16a1.7 1.7 0 00-.59-.39c-.2-.08-.38-.2-.53-.36-.13-.16-.3-.28-.49-.35-.16-.06-.3-.08-.38-.13a.32.32 0 01-.14-.14v-.06a.31.31 0 000 .15c.04.07.1.13.17.18.1.07.22.12.34.16.18.08.33.2.45.36.14.17.33.3.53.4.19.08.35.2.48.37-.13-.17-.3-.3-.5-.39-.2-.09-.38-.22-.52-.39-.12-.16-.29-.3-.47-.38a1.5 1.5 0 01-.33-.15.58.58 0 01-.15-.16.27.27 0 010-.13c.01.1.06.19.13.25.09 0 .23.07.39.13.18.07.35.18.47.33.15.17.34.3.55.37.22.08.42.21.58.38l.01-.05z"/><path fill="#FFDA00" d="M24.14 15.86l-2.86-2.66s-.05-.05-.09 0a.07.07 0 000 .09l2.66 2.86m-.49-1.29c-.19-.51-.61-.65-.75-1.12A1.7 1.7 0 0022 13c-.13-.15-.05-.3-.11-.31-.06-.01-.12.18 0 .41.12.23.36.23.54.79.18.56.5.58.64 1.1"/><path fill="#85340A" d="M24.15 15.84l-2.86-2.66h-.05a.1.1 0 000 .05l2.66 2.86-2.66-2.86h.06l2.86 2.66-.01-.05zm-.76-1a1.7 1.7 0 00-.4-.58 1.37 1.37 0 01-.35-.53c-.06-.2-.17-.37-.32-.51-.12-.12-.24-.19-.3-.26a.32.32 0 01-.08-.19v-.07.15c0 .1.03.2.09.29.03.06.07.1.12.15a1.23 1.23 0 01.41.64c.07.21.19.4.34.57.14.15.25.33.3.53-.05-.2-.16-.4-.31-.55a1.45 1.45 0 01-.33-.56 1.2 1.2 0 00-.29-.53L22 13.2a.64.64 0 01-.11-.14.53.53 0 01-.08-.26v-.09c.01.12.08.23.19.29.07.08.19.15.31.27.15.13.25.3.31.49.08.21.2.4.37.55.17.16.3.35.39.57l.01-.04z"/><path fill="#85340A" d="M22.6 16.25c-.52 0-.75.32-1.22.26.37.13.66-.18 1.22-.16m1.4-.44L21.52 17l2.48-.91"/><path fill="#85340A" d="M22.61 15.69c-.49-.17-.81 0-1.23-.22.3.26.68.09 1.18.32m1.44.11l-2.68.1 2.68.1"/><path fill="#85340A" d="M22.84 15.19c-.38-.35-.76-.3-1-.68.17.35.6.34 1 .75m1.27.65L21.52 15 24 16.09"/><path fill="#85340A" d="M23.24 14.8c-.22-.47-.58-.57-.71-1 0 .39.42.54.61 1.06m.93 1.09l-2-1.83 1.83 2"/><path fill="#FFDA00" d="M24.18 15.92l-1.63-3.55s0-.07-.07 0 0 .09 0 .09l1.36 3.66m0-1.38c0-.54-.31-.84-.27-1.32 0-.33-.1-.66-.28-.94-.06-.19.07-.3 0-.33-.07-.03-.18.12-.14.39.04.27.24.35.19.93-.05.58.24.73.17 1.26"/><path fill="#85340A" d="M24.2 15.92l-1.63-3.55h-.06v.05l1.36 3.66-1.39-3.68 1.63 3.55.09-.03zm-.32-1.22c0-.21-.05-.42-.14-.62a1.58 1.58 0 01-.14-.56v-.19c0-.18-.04-.36-.12-.52-.07-.14-.14-.24-.16-.32v-.21h-.06a.26.26 0 00-.07.11.52.52 0 000 .18v.11c.03.1.07.21.12.31.06.14.1.3.09.45v.3c0 .17.03.35.09.51a1.37 1.37 0 01.09.62v-.17c0-.16-.03-.32-.09-.47a1.48 1.48 0 01-.09-.5v-.3c0-.16-.03-.32-.09-.47-.05-.1-.09-.2-.11-.3v-.1a.44.44 0 010-.2v.28c0 .09.1.2.17.33.08.16.12.33.12.5v.19c.01.2.06.4.14.58.08.2.13.4.14.61l.11-.15z"/><path fill="#FFDA00" d="M24.2 16l-.2-3.9V12v.07L23.8 16m.56-1.26c.22-.49 0-.89.26-1.32.13-.32.17-.66.1-1 0-.2.18-.25.14-.3-.04-.05-.21 0-.27.31-.06.31.09.41-.18.94s-.06.76-.33 1.23"/><path fill="#85340A" d="M24.22 16l-.15-3.9a.1.1 0 000 .05L23.78 16l.22-3.9.15 3.9h.07zm.17-1.25c.1-.22.14-.45.13-.69 0-.22.04-.43.13-.63.09-.17.13-.35.13-.54v-.41c0-.1 0 0 0 0 0-.07.03-.13.07-.18v-.05h-.07a.5.5 0 00-.2.31v.35c0 .2-.06.4-.16.58-.1.2-.16.42-.16.65 0 .2-.06.41-.16.59.1-.18.16-.39.17-.6 0-.22.06-.43.16-.63.1-.18.16-.39.17-.6v-.34a.54.54 0 01.11-.23l.06-.05a.4.4 0 00-.12.25v.41c0 .18-.04.36-.13.52-.1.2-.14.43-.13.65 0 .23-.04.47-.13.68l.13-.04z"/><path fill="#FFDA00" d="M24.18 16.07l1.36-3.66v-.09c0-.02-.07 0-.07 0l-1.63 3.55m1-.95c.4-.37.37-.81.74-1.12.2-.22.35-.5.42-.8.09-.18.26-.16.24-.22-.02-.06-.21 0-.37.18s-.07.42-.52.8c-.45.38-.34.68-.77 1"/><path fill="#85340A" d="M24.2 16.08l1.36-3.66v-.05h-.06l-1.7 3.55 1.63-3.55-1.36 3.66.13.05zm.64-1.08c.17-.17.3-.37.39-.59.08-.2.2-.38.36-.53.16-.13.28-.3.35-.49.06-.16.08-.3.13-.38.03-.06.08-.1.14-.14h.06a.31.31 0 00-.15 0 .62.62 0 00-.18.17c-.07.1-.12.22-.16.34-.08.18-.2.33-.36.45-.17.14-.3.33-.4.53-.08.19-.2.35-.37.48.17-.13.3-.3.39-.5.09-.2.22-.38.39-.52.16-.12.3-.29.38-.47.04-.12.09-.23.15-.33.04-.06.1-.11.16-.15a.27.27 0 01.13 0A.4.4 0 0026 13c0 .09-.07.23-.13.39a1.1 1.1 0 01-.33.47c-.17.15-.3.34-.37.55a1.5 1.5 0 01-.38.58l.05.01z"/><path fill="#FFDA00" d="M24.14 16.14l2.66-2.86s.05-.05 0-.09c-.05-.04-.09 0-.09 0l-2.86 2.66m1.29-.49c.51-.19.65-.61 1.12-.75.3-.13.56-.34.74-.61.15-.13.3-.05.31-.11.01-.06-.18-.12-.41 0-.23.12-.23.36-.79.54-.56.18-.58.5-1.1.64"/><path fill="#85340A" d="M24.16 16.15l2.66-2.86a.1.1 0 000-.05h-.05l-2.86 2.66 2.86-2.66h.06l-2.66 2.86-.01.05zm1-.76c.22-.1.42-.23.58-.4.15-.16.33-.28.53-.35.2-.06.37-.17.51-.32.12-.12.19-.24.26-.3a.32.32 0 01.19-.08h.1-.13c-.1 0-.2.03-.29.09a.69.69 0 00-.15.12 1.7 1.7 0 01-.21.2c-.13.1-.28.17-.43.21-.21.07-.4.19-.57.34-.15.14-.33.25-.53.3.2-.05.4-.16.55-.31.16-.15.35-.26.56-.33.2-.05.38-.15.53-.29l.14-.27a.64.64 0 01.14-.11.53.53 0 01.26-.08h.09A.39.39 0 0027 14c-.08.07-.15.19-.27.31-.13.15-.3.25-.49.31-.21.08-.4.2-.55.37-.16.17-.35.3-.57.39l.04.01z"/><path fill="#85340A" d="M23.75 14.6c0-.52-.32-.75-.26-1.22-.13.37.18.66.16 1.22m.44 1.4L23 13.52l.91 2.48"/><path fill="#85340A" d="M24.31 14.61c.17-.49 0-.81.22-1.23-.26.3-.09.68-.32 1.18M24.1 16l-.1-2.68-.1 2.68"/><path fill="#85340A" d="M24.81 14.84c.35-.38.3-.76.68-1-.35.17-.34.6-.75 1M24.09 16l.91-2.48L23.91 16"/><path fill="#85340A" d="M25.2 15.24c.47-.22.57-.58 1-.71-.39 0-.54.42-1.06.61m-1.09.93l1.83-2-2 1.83"/><path fill="#FFDA00" d="M24.08 16.18l3.55-1.63s.07 0 0-.07-.09 0-.09 0l-3.66 1.36m1.38 0c.54 0 .84-.31 1.32-.27.33 0 .66-.1.94-.28.19-.06.3.07.33 0 .03-.07-.12-.18-.39-.14-.27.04-.35.24-.93.19-.58-.05-.73.24-1.26.17"/><path fill="#85340A" d="M24.08 16.2l3.55-1.63h-.09l-3.62 1.23 3.66-1.36h.05l-3.55 1.63v.13zm1.22-.32c.21 0 .42-.05.62-.14.18-.08.37-.13.56-.14h.19c.18 0 .36-.04.52-.12.14-.07.24-.14.32-.16h.32v-.06a.26.26 0 00-.11-.07.52.52 0 00-.18 0h-.04c-.1.03-.21.07-.31.12a1 1 0 01-.45.09h-.3c-.17 0-.35.03-.51.09-.15.06-.3.09-.46.09h-.16.17c.16 0 .32-.03.47-.09.16-.06.33-.09.5-.09h.3c.16 0 .32-.03.47-.09.1-.05.2-.09.3-.11h.1a.44.44 0 01.2 0h-.28c-.09 0-.2.1-.33.17-.16.08-.33.12-.5.12h-.19c-.2.01-.4.06-.58.14-.2.08-.4.13-.61.14l-.03.11z"/><path fill="#FFDA00" d="M24 16.2l3.9-.2h.03L24 15.8m1.26.56c.49.22.89 0 1.32.26.32.13.66.17 1 .1.2 0 .25.18.3.14.05-.04 0-.21-.31-.27-.31-.06-.41.09-.94-.18s-.76-.06-1.23-.33"/><path fill="#85340A" d="M24 16.22l3.9-.15A.06.06 0 0028 16h-.05L24 15.78l3.93.15-3.9.15-.03.14zm1.25.17c.22.1.45.14.69.13.22 0 .43.04.63.13.17.09.35.13.54.13h.41c.07 0 .13.03.18.07h.11v-.07a.5.5 0 00-.31-.2h-.35c-.2 0-.4-.06-.58-.16a1.5 1.5 0 00-.65-.16c-.2 0-.41-.06-.59-.16.18.1.39.16.6.17.22 0 .43.06.63.16.18.1.39.16.6.17h.34a.7.7 0 01.23.11l.05.06a.4.4 0 00-.25-.12h-.41c-.18 0-.36-.04-.52-.13-.2-.1-.43-.14-.65-.13-.23 0-.47-.04-.68-.13l-.02.13z"/><path fill="#FFDA00" d="M23.93 16.18l3.66 1.36h.09c.02 0 0-.07 0-.07l-3.55-1.63m.95 1c.37.4.81.37 1.12.74.22.2.5.35.8.42.18.09.16.26.22.24.06-.02 0-.21-.18-.37s-.42-.07-.8-.52c-.38-.45-.68-.34-1-.77"/><path fill="#85340A" d="M23.92 16.2l3.66 1.36h.09l-3.59-1.76 3.55 1.63-3.66-1.36-.05.13zm1.09.64c.17.17.37.3.59.39.2.08.38.2.53.36.13.16.3.28.49.35.16.06.3.08.38.13.06.03.1.08.14.14v.06a.31.31 0 000-.15.62.62 0 00-.17-.18c-.1-.07-.22-.12-.34-.16-.18-.08-.33-.2-.45-.36a1.5 1.5 0 00-.53-.4c-.19-.08-.35-.2-.48-.37.13.17.3.3.5.39.2.09.38.22.52.39.12.16.29.3.47.38.12.04.23.09.33.15.06.04.11.1.15.16v.13A.4.4 0 0027 18c-.09 0-.23-.07-.39-.13a1.1 1.1 0 01-.47-.33c-.15-.17-.34-.3-.55-.37a1.65 1.65 0 01-.58-.38v.05z"/><path fill="#FFDA00" d="M23.86 16.14l2.86 2.66s.05.05.09 0c.04-.05 0-.09 0-.09l-2.66-2.86m.49 1.29c.19.51.61.65.75 1.12.13.3.34.56.61.74.13.15.05.3.11.31.06.01.12-.18 0-.41-.12-.23-.36-.23-.54-.79-.18-.56-.5-.58-.64-1.1"/><path fill="#85340A" d="M23.85 16.16l2.86 2.66h.05a.1.1 0 000-.05l-2.66-2.86 2.66 2.86h-.06l-2.86-2.66.01.05zm.76 1c.1.22.23.42.4.58.16.15.28.33.35.53.06.2.17.37.32.51.12.12.24.19.3.26.05.05.08.12.08.19v-.08c0-.1-.03-.2-.09-.29a.69.69 0 00-.12-.15 1.7 1.7 0 01-.2-.21c-.1-.13-.17-.28-.21-.43a1.5 1.5 0 00-.34-.57 1.21 1.21 0 01-.3-.53c.05.2.16.4.31.55.15.16.26.35.33.56.05.2.15.38.29.53l.14.13.11.14a.5.5 0 01.08.26v.09A.39.39 0 0026 19c-.07-.08-.19-.15-.31-.27a1.1 1.1 0 01-.31-.49c-.08-.21-.2-.4-.37-.55-.17-.16-.3-.35-.39-.57l-.01.04z"/><path fill="#85340A" d="M25.4 15.75c.52 0 .75-.32 1.22-.26-.37-.13-.66.18-1.22.16m-1.4.44L26.48 15l-2.48.91"/><path fill="#85340A" d="M25.39 16.31c.49.17.81 0 1.23.22-.3-.26-.68-.09-1.18-.32M24 16.1l2.68-.1-2.68-.1"/><path fill="#85340A" d="M25.16 16.81c.38.35.76.3 1 .68-.17-.35-.6-.34-1-.75M24 16.09l2.51.94L24 15.91"/><path fill="#85340A" d="M24.76 17.2c.22.47.58.57.71 1 0-.39-.42-.54-.61-1.06m-.93-1.09l2 1.83-1.83-2"/><circle cx="24" cy="16" r="1.59" fill="#FFDA00"/><path fill="#85340A" d="M24 14.41a1.56 1.56 0 11.01 3.12 1.56 1.56 0 01-.01-3.12v-.06A1.62 1.62 0 1025.62 16c0-.9-.73-1.62-1.62-1.62v.03z"/><path fill="#843511" d="M24.54 15.66c-.1 0-.21.05-.27.14.17.12.4.12.58 0a.42.42 0 00-.3-.13l-.01-.01zm0 0c.11 0 .2 0 .22.09a.32.32 0 01-.44 0 .26.26 0 01.22-.07v-.02z"/><path fill="#85340A" d="M24.56 15.58a.32.32 0 00-.27.1.32.32 0 01-.12.06.7.7 0 00.15-.1.31.31 0 01.22-.06c.22 0 .34.18.37.17.03-.01-.12-.21-.37-.21l.02.04z"/><path fill="#85340A" d="M25 15.66a.63.63 0 00-.83-.1.48.48 0 00-.09.2c-.02.16.03.32.13.44a.87.87 0 01-.1-.56v-.14a.59.59 0 01.91.12l-.02.04z"/><circle cx="24.93" cy="16.17" r="1" fill="#85340A"/><path fill="#85340A" d="M24.86 15.85a.48.48 0 01-.54.07c-.12-.07-.12-.1-.1-.1l.15.07a.6.6 0 00.49 0v-.04zm-1.1.37a.11.11 0 000 .22h.44a.11.11 0 000-.22.07.07 0 11-.1.07.17.17 0 01-.3 0 .07.07 0 11-.1-.07h.06zm.12.33c-.12 0-.17.11-.28.18l.2-.12h.21s.12-.06.21 0l.2.12c-.11-.07-.16-.18-.28-.18h-.26z"/><path fill="#85340A" d="M23.84 16.69h-.2.37c.1 0 .15-.07.37 0a.65.65 0 00-.37 0h-.17zm-.2.04c.26 0 .13.17.4.17s.15-.15.4-.17c-.27 0-.18.13-.4.13-.21 0-.14-.14-.36-.14l-.04.01zm.58.4a.22.22 0 00-.44 0 .23.23 0 01.44 0zM23 15.66a.63.63 0 01.83-.1.4.4 0 01.09.2.59.59 0 01-.13.44c.1-.17.13-.37.1-.56v-.14a.59.59 0 00-.91.12l.02.04z"/><path fill="#85340A" d="M23.45 15.58c.1-.01.2.03.27.1l.12.06a.7.7 0 01-.15-.1.31.31 0 00-.22-.06c-.22 0-.34.18-.37.17-.03-.01.12-.21.37-.21l-.02.04z"/><path fill="#843511" d="M23.44 15.66c-.1 0-.21.05-.27.14.17.12.4.12.58 0a.42.42 0 00-.3-.13l-.01-.01zm0 0c.11 0 .2 0 .22.09a.32.32 0 01-.44 0 .26.26 0 01.22-.07v-.02z"/><circle cx="23.85" cy="16.17" r="1" fill="#85340A"/><path fill="#85340A" d="M23.16 15.85c.15.13.36.16.54.07.12-.07.12-.1.1-.1l-.15.07a.6.6 0 01-.49 0v-.04z"/><path fill="#2C283A" d="M44 1a3 3 0 013 3v24a3 3 0 01-3 3H4a3 3 0 01-3-3V4a3 3 0 013-3h40zm0-1H4a4 4 0 00-4 4v24a4 4 0 004 4h40a4 4 0 004-4V4a4 4 0 00-4-4z" opacity=".08"/></g></svg>