<svg xmlns="http://www.w3.org/2000/svg" viewBox="0 0 48 32"><g fill="none"><rect width="48" height="32" fill="#F6F4F9" rx="4"/><path fill="#FF1744" d="M20 0h24a4 4 0 014 4v24a4 4 0 01-4 4H20V0zm0 0v3.24L13 0zm0 3.24v6.48l-7-3.24zm0 6.48v6.47l-7-3.24z"/><path fill="#FF1744" d="M20 15.81v6.47l-7-3.23zm0 6.47v6.48l-7-3.24zm0 6.48V32h-7z"/><path fill="#2C283A" d="M44 1a3 3 0 013 3v24a3 3 0 01-3 3H4a3 3 0 01-3-3V4a3 3 0 013-3h40zm0-1H4a4 4 0 00-4 4v24a4 4 0 004 4h40a4 4 0 004-4V4a4 4 0 00-4-4z" opacity=".08"/></g></svg>