<svg xmlns="http://www.w3.org/2000/svg" viewBox="0 0 48 32"><g fill="none" fill-rule="evenodd"><rect width="48" height="32" fill="#233CCC" rx="4"/><path fill="#2C283A" fill-rule="nonzero" d="M44 1a3 3 0 013 3v24a3 3 0 01-3 3H4a3 3 0 01-3-3V4a3 3 0 013-3h40zm0-1H4a4 4 0 00-4 4v24a4 4 0 004 4h40a4 4 0 004-4V4a4 4 0 00-4-4z" opacity=".08"/><g fill="#FFF"><path d="M12.23 23.84a15.2 15.2 0 0123.17.27l.74-.69a16.18 16.18 0 00-12.42-5.78c-4.85 0-9.21 2.13-12.18 5.51l.7.69m10.16-8.07l-4.46.93-1.12-5.4 4.4-.91.2.99-2.88.6.23 1.13 2.76-.57.2.99-2.75.57.27 1.3 2.95-.62.2.99m8.5-3.48l-2.65-.56-.26 1.2 2.66.56-.2.99-2.67-.56-.46 2.21-1.5-.32 1.13-5.39 4.16.88-.2.99m6.42 9.22L36 20.26l.2-1.18-2.27-1.58-1 .63-1.5-.84 5.36-3.19 1.46 1.02-.93 6.4zm-.46-5.9l-2.02 1.28 1.6 1.12.42-2.4zm-24.03 3.7c-.99.77-2.66 1.42-3.89-.02l-1.77-2.27 1.19-.94 1.73 2.23c.63.74 1.42.6 2.04.1.63-.49.95-1.22.38-2l-1.74-2.23 1.19-.93 1.77 2.27c1.05 1.45.4 2.76-.9 3.78"/><path d="M42.75 16.13a26 26 0 00-18.89-8.1A26 26 0 004.8 16.31l-.8-.82C9 10.26 16.04 7 23.84 7c7.75 0 14.74 3.2 19.73 8.36l-.82.77"/></g></g></svg>