<svg xmlns="http://www.w3.org/2000/svg" viewBox="0 0 48 32"><g fill="none" fill-rule="evenodd"><rect width="48" height="32" fill="#00247D" fill-rule="nonzero" rx="4"/><path fill="#FFF" d="M48 4a4 4 0 00-3-3.88l-.75.45L24 12.7 3.79.58 3 .12A4 4 0 000 4v.9L18.5 16 0 27.1v.9a4 4 0 002 3.42 4 4 0 001 .45l.75-.45L24 19.29l20.21 12.13.75.45A4 4 0 0048 28v-.9L29.5 16 48 4.89V4z"/><path fill="#2C283A" fill-rule="nonzero" d="M44 1a3 3 0 013 3v24a3 3 0 01-3 3H4a3 3 0 01-3-3V4a3 3 0 013-3h40zm0-1H4a4 4 0 00-4 4v24a4 4 0 004 4h40a4 4 0 004-4V4a4 4 0 00-4-4z" opacity=".08"/></g></svg>