<svg xmlns="http://www.w3.org/2000/svg" viewBox="0 0 24 24">
    <path fill="#fff" d="M10.026 1.286c1.010-0.52 2.893-1.378 4.531-1.286-0.276 0.245-1.776 1.423-2.296 1.929 0.735 0.291 2.265 0.857 2.724 1.224-0.918 0.046-2.709 0.138-3.781 0.153-0.367 0.551-1.010 2.097-1.148 3-0.597-0.429-1.179-1.515-1.684-2.327-0.765 0.122-2.066 0.673-2.77 0.872 0.658-0.918 1.209-1.5 2.097-2.204-0.276-0.49-0.582-1.316-0.689-1.867 1.791 0.031 2.571 0.429 3.015 0.505v0z"></path>
    <path fill="#fff" d="M6.444 11.327c0.811-0.597 2.235-1.255 3.107-1.423-0.061-1.607 0.199-2.51 0.367-3.719 0.75 1.071 1.255 1.99 1.974 2.847 1.301-0.352 2.755-0.811 3.934-1.071-1.010 1.439-1.607 2.189-2.372 3.245 0.842 1.117 1.714 2.051 2.587 2.969 0 0 0.015 0.015 0.015 0.015-1.27-0.122-2.755-0.551-3.903-0.888-0.719 0.934-1.27 2.051-1.929 3.092-0.337-1.026-0.612-2.48-0.673-3.872-1.026-0.367-2.036-0.75-3.107-1.194v0z"></path>
    <path fill="#fff" d="M20.311 4.974c1.485 0.781 2.311 1.791 2.969 2.679-0.689-0.092-1.423-0.184-2.219-0.214 0.168 0.918 0.214 2.173 0.168 3.26-0.673-1.117-1.5-2.219-2.082-3.214-1.224 0.061-2.556 0.352-3.321 0.505 0.505-0.643 1.362-1.699 1.821-2.403-0.536-0.49-1.607-1.668-2.724-2.449 1.607 0 2.663 0.413 3.52 0.75 0.306-0.352 0.52-1.255 0.75-1.837 0.612 0.949 0.964 1.959 1.117 2.923v0z"></path>
    <path fill="#fff" d="M15.98 14.173c1.561 0.077 2.449 0.077 3.551 0.092 0.689-1.179 1.332-2.74 1.699-3.781 0.214 0.857 0.383 2.189 0.383 3.276 0.811-0.214 1.699-0.566 2.388-0.888-0.321 1.087-1.010 2.189-2.204 3.26 0.122 1.010 0.199 1.638 0.153 2.449-0.628-0.199-1.255-0.551-1.929-0.918-0.842 0.49-1.974 0.949-3.046 1.102 0.505-0.765 1.102-1.883 1.347-2.311-0.796-0.582-1.668-1.393-2.342-2.281v0z"></path>
    <path fill="#fff" d="M12.168 21.092c0.995 0.077 1.944 0.153 2.816 0.138 0.827-0.857 1.485-1.776 2.036-2.495 0.077 0.781 0.107 1.224 0.061 2.434 1.071-0.061 2.281-0.383 3.184-0.459-0.673 0.735-2.985 2.832-6.842 3.26-0.474 0.046-1.102 0.015-1.454-0.031 0.689-0.429 1.408-0.949 1.714-1.393-0.52-0.429-1.071-0.872-1.515-1.454v0z"></path>
    <path fill="#fff" d="M4.898 16.209c0.872 0.796 1.913 1.531 2.77 2.173 0.903-0.658 1.883-1.454 2.571-2.005-0.122 1.056-0.321 2.219-0.459 3.291 0.781 0.459 1.668 1.010 2.434 1.454-0.735 0.061-1.577 0.092-2.541 0.138-0.031 0.995 0.077 1.714 0.138 2.602-0.199-0.061-0.398-0.077-0.658-0.337-0.628-0.643-1.469-1.73-1.821-2.449-1.026 0.031-2.709-0.26-3.964-0.934 1.087-0.245 2.082-0.612 2.77-1.041-0.306-0.934-0.857-2.005-1.24-2.893v0z"></path>
    <path fill="#fff" d="M3.276 9.23c0.122 0.719 0.245 1.806 0.306 2.327 1.026-0.214 1.974-0.291 2.923-0.276-0.643 0.536-1.653 1.301-2.434 2.51 0.383 1.026 0.689 1.929 0.888 2.541-0.628-0.321-1.347-0.796-2.005-1.209-0.245 0.444-0.934 1.332-1.454 2.388-0.214-0.122-0.276-0.383-0.413-0.658-0.107-0.673 0.092-2.143 0.306-3.031-0.474-0.352-1.117-0.719-1.393-1.194 0.582-0.413 1.332-0.582 2.005-0.735 0.291-1.041 0.796-2.097 1.27-2.663v0z"></path>
    <path fill="#fff" d="M0.383 9.628c0-2.235 2.219-6.168 4.133-7.133-0.306 0.704-0.566 1.485-0.673 2.388 0.612 0 1.163-0.015 1.776-0.031-0.872 0.582-1.423 1.071-2.158 1.806-0.107 0.536-0.184 1.776-0.168 2.663-0.413-0.459-0.781-0.903-1.179-1.469-0.505 0.367-1.179 1.056-1.73 1.776v0z"></path>
</svg>